<svg width="500" height="500" viewBox="0 0 500 500" fill="none" xmlns="http://www.w3.org/2000/svg">
<g clip-path="url(#clip0_106_253)">
<path d="M489.001 247.495C489.001 316.62 459.724 378.898 412.891 422.607C387.121 446.672 330.35 471.914 334.388 469.473C338.418 467.017 342.56 465.054 346.475 462.374C350.405 459.719 355.129 457.488 358.898 454.564C366.436 448.737 373.59 442.305 380.161 435.465L388.961 426.798L379.193 421.034C378.303 420.635 377.282 420.151 376.314 419.675L373.375 418.224C371.417 417.242 369.475 416.221 367.533 415.177C363.664 413.089 359.856 410.886 356.118 408.59C352.364 406.311 350.099 405.686 346.537 403.168C346.33 403.022 346.13 402.876 345.931 402.731C357.622 400.059 366.551 397.152 377.359 392.009C392.075 385.031 405.654 375.843 417.667 365.027C429.688 354.211 438.713 340.824 447.603 327.474C449.767 324.22 451.832 320.911 453.813 317.557C454.811 315.868 455.786 314.164 456.73 312.452C461.658 303.578 465.987 294.382 469.733 284.986C478.438 263.147 484.103 240.257 487.082 217.074C488.348 227.038 489.001 237.186 489.001 247.495Z" fill="url(#paint0_linear_106_253)"/>
<path d="M153.248 338.681C140.099 318.846 130.987 296.27 126.405 272.765C121.806 249.245 121.653 224.85 125.675 201.153C127.709 189.302 130.803 177.618 134.986 166.318C138.003 158.274 141.573 150.414 145.818 142.906C142.547 144.365 139.308 145.899 136.123 147.519C129.935 150.667 123.933 154.144 118.229 158.051C112.533 161.958 107.137 166.288 102.186 171.07C97.2348 175.852 92.7208 181.088 88.7294 186.707L82.734 195.151L82.8107 184.788C82.8569 178.939 83.7245 173.319 84.9221 167.831C86.1346 162.342 87.6778 156.969 89.4586 151.702C93.0127 141.171 97.3957 130.984 102.316 121.098C107.245 111.219 112.726 101.631 118.69 92.3579C124.647 83.0766 131.125 74.142 138.095 65.598C145.065 57.0626 152.565 48.9327 160.649 41.4029C168.724 33.8793 177.375 26.917 186.702 20.9216C191.177 18.0511 195.806 15.3802 200.58 13C163.512 20.692 129.582 36.9506 100.958 59.6187C79.2426 76.8054 60.5904 97.6934 45.9174 121.313C39.6537 167.842 45.7889 237.698 62.9444 292.639C63.3976 290.813 71.5346 257.382 88.3608 239.135L97.9877 242.046C97.9877 242.046 101.825 348.66 196.934 385.369C180.077 372.311 165.085 356.644 153.248 338.681Z" fill="url(#paint1_linear_106_253)"/>
<path d="M395.335 248.079C394.951 243.504 394.03 238.998 392.387 234.79C390.79 230.561 388.449 226.662 385.563 223.231C379.721 216.367 371.507 211.678 362.649 209.259C353.768 206.834 344.264 206.527 335.053 207.886C328.129 208.915 321.328 210.895 314.926 213.728C314.918 213.735 314.91 213.735 314.903 213.735C313.175 214.502 311.479 215.332 309.821 216.223C309.437 216.43 309.053 216.637 308.669 216.851C303.027 219.938 297.9 223.814 293.347 228.328C282.255 252.078 262.313 288.479 244.373 299.141C251.65 312.137 275.938 325.478 288.719 328.949C287.621 326.631 286.684 324.219 285.94 321.748C284.658 317.472 283.975 313.004 283.921 308.537C283.852 304.07 284.428 299.625 285.495 295.349C286.554 291.066 288.081 286.936 289.916 282.998C293.601 275.107 298.521 267.991 303.895 261.389C306.589 258.089 309.422 254.919 312.308 251.847C313.014 251.08 313.774 250.32 314.526 249.553C315.286 248.792 316.015 248.01 316.798 247.28C318.364 245.807 319.915 244.325 321.573 242.951C323.185 241.523 324.92 240.233 326.616 238.898C328.198 237.777 329.771 236.633 331.414 235.597C331.475 235.551 331.537 235.513 331.598 235.481C331.721 235.398 331.852 235.313 331.982 235.237C335.659 232.925 339.528 230.876 343.619 229.249C347.718 227.637 352.033 226.455 356.5 225.926C360.96 225.403 365.589 225.534 370.072 226.639C374.539 227.737 378.815 229.785 382.461 232.596C386.123 235.398 389.14 238.913 391.512 242.721C393.085 245.238 394.39 247.879 395.48 250.589C395.45 249.753 395.404 248.916 395.335 248.079Z" fill="url(#paint2_linear_106_253)"/>
<path d="M344.172 282.945C330.646 274.255 325.756 262.257 328.88 245.408C327.837 246.214 326.808 247.035 325.818 247.918C324.267 249.199 322.801 250.597 321.335 251.979C320.59 252.662 319.907 253.406 319.185 254.121C318.479 254.842 317.765 255.557 317.066 256.316C315.992 257.46 314.933 258.61 313.896 259.771C313.896 274.463 316.73 282.945 344.172 282.945Z" fill="url(#paint3_linear_106_253)"/>
<path d="M331.055 36.1367C324 26.0582 313.162 19.2494 299.359 16.1406C321.544 33.2737 322.177 64.6906 309.838 111.909C310.114 111.809 310.39 111.702 310.659 111.595C316.278 109.361 321.483 106.145 326.034 102.153C330.487 98.2617 334.248 93.5936 337.373 88.5201L337.38 88.5126C342.715 68.1785 340.474 49.6008 331.055 36.1367Z" fill="url(#paint4_linear_106_253)"/>
<path d="M283.176 37.0264C290.891 44.7413 297.406 54.7581 302.881 65.5827C304.7 61.2913 305.99 57.1235 306.596 53.0242C300.317 42.907 290.215 38.7392 283.176 37.0264Z" fill="url(#paint5_linear_106_253)"/>
<path d="M448.525 114.222C445.647 109.934 441.922 106.26 437.475 103.635C437.453 103.622 437.431 103.609 437.408 103.596C423.752 95.513 409.636 89.1957 396.579 85.1963C448.831 151.227 453.611 219.49 401.076 292.509C410.933 277.994 421.319 258.427 429.033 233.202C430.43 223.446 431.022 213.566 430.561 203.755C430.308 198.122 429.701 192.518 428.719 186.975C426.07 171.792 420.52 157.162 412.269 144.265C404.047 131.353 393.216 120.207 380.811 111.419C374.609 107.012 367.992 103.205 361.106 100.065C354.919 97.2708 348.502 94.9903 341.954 93.4859C326.563 123.132 298.291 127.968 272.407 124.23C270.887 126.095 269.282 127.86 267.663 129.58C264.308 133.104 260.8 136.397 257.23 139.589C250.491 145.6 243.506 151.235 236.435 156.739C238.6 204.746 210.193 233.777 191.494 253.782C174.829 274.892 181.427 300.762 204.794 314.862C204.679 314.632 204.579 314.402 204.472 314.172C203.435 311.769 202.568 309.297 201.877 306.772C201.217 304.238 200.764 301.651 200.487 299.049C200.219 296.439 200.196 293.814 200.326 291.204C200.925 280.726 204.947 270.601 211.211 262.38C214.297 258.211 217.974 254.558 221.92 251.28C222.894 250.451 223.939 249.707 224.944 248.923C225.988 248.179 227.032 247.434 228.092 246.728C230.256 245.33 232.367 244.041 234.516 242.806C243.114 237.831 252.026 233.471 261.046 229.479C270.073 225.48 279.223 221.871 288.289 218.241C292.818 216.43 297.332 214.602 301.768 212.684C303.534 211.916 305.292 211.133 307.027 210.327C308.654 209.567 310.266 208.784 311.847 207.971C312.807 207.472 313.759 206.973 314.695 206.45C318.81 204.163 322.747 201.591 325.864 198.482C327.422 196.924 328.75 195.235 329.725 193.416C330.201 192.51 330.623 191.574 330.923 190.607C331.061 190.123 331.222 189.639 331.315 189.132L331.391 188.764C331.422 188.633 331.445 188.511 331.445 188.45C331.475 188.296 331.483 188.134 331.483 187.973C331.522 186.692 330.731 184.942 329.464 183.336C328.206 181.717 326.555 180.198 324.782 178.808C323.009 177.426 321.074 176.167 319.079 175.054C317.098 173.949 314.979 172.944 313.022 172.321L301.738 168.759L313.06 166.074C318.311 164.83 323.6 164.024 328.881 163.601C334.17 163.164 339.444 163.08 344.694 163.256C349.945 163.416 355.157 163.862 360.339 164.514C365.512 165.183 370.663 166.027 375.722 167.209C356.117 171.738 344.79 174.076 342.142 176.732C343.624 179.572 346.085 191.027 343.122 197.199C354.728 196.707 391.013 201.744 397.99 231.199C398.16 231.606 398.321 232.027 398.482 232.443C400.37 237.309 401.407 242.436 401.844 247.55C402.65 257.812 401 267.945 398.198 277.533C396.793 282.339 395.081 287.028 393.17 291.619L391.688 295.042L390.194 298.274C389.654 299.44 388.707 301.319 388.143 302.474C387.989 302.79 387.832 303.103 387.658 303.417L386.745 305.09C382.508 312.836 377.073 319.713 371.062 325.955C370.141 326.914 369.205 327.851 368.26 328.779C361.06 335.704 353.161 341.845 344.702 347.072C337.939 351.317 330.816 354.971 323.454 358.065C323.454 358.065 323.446 358.073 323.431 358.08C321.635 358.832 319.815 359.553 317.988 360.244C308.693 363.791 298.997 366.271 289.148 367.798C271.639 370.539 253.538 369.609 236.359 365.103C236.712 365.848 262.552 397.195 268.171 403.643C248.005 402.346 221.574 399.048 201.877 393.605C182.21 388.223 163.058 377.693 146.009 365.841C143.376 364.013 140.789 362.102 138.263 360.113L138.256 360.106C132.622 355.67 127.271 350.833 122.282 345.645C115.035 338.129 108.533 329.877 102.791 321.111C97.0803 312.33 92.2828 302.987 88.0759 293.408L85.0748 286.146C84.66 285.071 84.2608 283.98 83.8772 282.884C82.9328 285.747 82.127 288.678 81.4514 291.65C79.394 300.762 78.4425 310.295 78.2504 319.837L77.7975 341.829L61.5546 326.232C57.77 322.6 54.8683 318.893 52.1585 315.131C49.472 311.37 47.0157 307.562 44.7665 303.693C42.6018 300.017 40.5752 296.302 38.6562 292.547C40.9713 351.927 67.4546 400.768 111.93 441.908C108.468 425.466 105.158 403.093 104.144 376.992C112.795 396.896 115.178 469.637 254.51 486.941C254.512 486.941 254.512 486.941 254.513 486.941H254.521C262.044 484.201 269.52 481.346 276.928 478.359C293.762 471.574 310.304 464.158 325.987 455.462C329.902 453.274 333.771 451.032 337.54 448.653C341.324 446.295 345.024 443.831 348.624 441.237C353.361 437.86 357.905 434.259 362.28 430.437C361.06 429.746 359.847 429.047 358.642 428.341C354.65 425.985 350.728 423.521 346.866 420.941C342.998 418.385 339.229 415.652 335.521 412.82C331.813 409.994 328.236 406.939 324.743 403.784L315.371 395.31L327.791 393.843C342.921 392.063 357.798 388.087 371.791 381.946C385.785 375.819 398.866 367.552 410.603 357.611C422.355 347.671 432.733 336.064 441.707 323.43C450.681 310.779 458.242 297.084 464.459 282.791C475.199 258.035 481.969 231.544 485.17 204.592C485.17 204.592 485.17 204.585 485.17 204.577C479.211 171.613 466.5 141.009 448.525 114.222ZM308.262 151.227C283.076 159.146 283.301 173.485 283.301 181.399C283.301 189.306 280.046 195.528 268.803 191.963C258.419 188.671 248.236 185.332 239.698 192.572C238.232 188.726 237.786 183.467 242.976 182.63C260.723 179.752 267.77 162.012 275.953 153.822C284.143 145.64 308.258 151.226 308.262 151.227C308.262 151.227 308.262 151.227 308.262 151.227Z" fill="url(#paint6_linear_106_253)"/>
<path d="M373.203 404.483C385.946 409.71 401.567 417.141 412.89 422.607C387.12 446.672 356.031 465.102 321.58 475.957C325.687 473.684 329.771 471.336 333.809 468.894C337.839 466.438 341.838 463.913 345.753 461.234C349.683 458.578 353.537 455.791 357.305 452.866C364.844 447.04 371.998 440.607 378.569 433.768L385.263 426.798L376.673 422.906C375.782 422.507 374.762 422.023 373.794 421.547L370.854 420.096C368.897 419.114 366.955 418.093 365.012 417.049C361.144 414.961 357.336 412.758 353.598 410.463C349.844 408.183 346.198 405.742 342.636 403.224C342.429 403.078 342.229 402.932 342.03 402.786C353.721 400.115 365.135 396.192 375.944 391.049C390.659 384.072 404.238 374.883 416.252 364.067C428.273 353.251 438.712 340.824 447.602 327.474C449.767 324.22 451.831 320.911 453.812 317.557C421.449 373.609 396.654 391.84 373.203 404.483Z" fill="url(#paint7_linear_106_253)"/>
<path d="M62.9449 292.64C59.5443 285.824 56.5276 278.677 53.8409 271.385C48.2372 256.193 43.8848 240.434 40.7067 224.513C39.1253 216.545 37.8358 208.531 36.8378 200.494C35.8322 192.465 35.1568 184.412 34.819 176.375C34.4889 168.346 34.3968 160.316 34.7653 152.349C34.9572 148.081 35.2411 143.828 35.6249 139.598C51.3999 108.402 73.7916 81.1204 100.958 59.6191C58.5382 115.414 42.7946 167.601 62.9449 292.64Z" fill="url(#paint8_linear_106_253)"/>
<path d="M196.933 385.369C180.237 379.036 164.454 370.515 150.668 359.546C142.938 353.42 135.852 346.55 129.535 339.073C123.21 331.597 117.652 323.513 112.839 315.023C108.057 306.51 104.157 297.529 100.818 288.364L98.4613 281.432C97.7244 279.106 97.1103 276.734 96.4271 274.385L95.4215 270.862L94.5924 267.285L92.9344 260.138C92.9344 260.138 90.4473 247.71 88.3594 239.136C101.079 226.416 106.314 221.803 106.314 221.803C111.465 293.975 129.972 351.985 196.933 385.369Z" fill="url(#paint9_linear_106_253)"/>
<path d="M288.717 328.948C286.975 328.871 285.217 328.718 283.459 328.503C279.935 328.073 276.42 327.397 272.95 326.545C266.003 324.818 259.225 322.331 252.915 319.068C246.613 315.798 240.741 311.715 236.05 306.641C232.151 302.434 229.18 297.475 227.66 292.109C231.475 291.526 235.267 290.666 238.983 289.423C243.865 287.788 248.586 285.416 252.792 282.322C256.999 279.252 260.653 275.498 263.792 271.491C266.94 267.484 269.573 263.224 272.091 259.002C277.08 250.535 281.655 242.114 287.535 234.806C289.347 232.526 291.289 230.361 293.338 228.327H293.346C282.254 252.078 268.736 288.479 250.796 299.141C258.073 312.137 275.936 325.478 288.717 328.948Z" fill="url(#paint10_linear_106_253)"/>
<path d="M344.171 282.944C328.711 285.608 313.42 282.276 302.727 273.802C304.669 270.954 306.764 268.198 308.944 265.519C310.541 263.569 312.191 261.658 313.896 259.77C316.659 269.165 317.649 278.346 344.171 282.944Z" fill="url(#paint11_linear_106_253)"/>
<path d="M314.336 415.546C264.903 422.611 200.526 410.087 138.264 360.114C140.789 362.102 143.376 364.014 146.009 365.841C163.058 377.693 182.21 385.945 201.877 391.326C221.574 396.768 241.817 399.271 261.982 400.568C256.363 394.12 251.005 387.45 246.015 380.572C243.528 377.133 241.164 373.617 239.038 370.024C238.485 369.134 237.994 368.228 237.503 367.322C237.08 366.585 236.712 365.848 236.359 365.104C253.538 369.61 271.639 370.539 289.149 367.798C298.997 366.271 308.692 363.791 317.988 360.245C319.815 359.554 321.635 358.832 323.431 358.08C322.356 358.664 285.671 378.43 254.513 376.035C254.513 376.035 270.321 401.799 314.336 415.546Z" fill="url(#paint12_linear_106_253)"/>
<path d="M254.513 486.942C252.847 486.98 251.181 486.995 249.5 486.995C117.222 486.995 10 379.773 10 247.495C10 237.117 10.6602 226.892 11.9421 216.859C12.9708 221.427 14.0839 225.963 15.2891 230.477C19.8257 247.403 25.5752 263.969 32.6988 280.035C34.5718 284.242 36.5447 288.418 38.6556 292.54V292.547C46.4087 352.346 72.0936 393.575 109.308 435.987C105.846 419.544 102.418 402.608 104.144 376.992C112.795 396.896 131.163 462.915 254.513 486.942Z" fill="url(#paint13_linear_106_253)"/>
<path d="M204.794 314.862C196.788 312.943 189.257 309.427 183.116 304.1C179.201 300.753 175.854 296.761 173.122 292.347C170.381 287.934 168.247 283.105 166.643 278.093C163.434 268.044 162.275 257.282 162.559 246.612C162.697 241.86 163.127 237.109 163.872 232.434C163.987 232.964 164.102 233.501 164.232 234.031C165.023 237.301 166.075 240.548 167.541 243.687C169.007 246.827 170.865 249.874 173.482 252.546C173.636 252.646 173.843 252.761 174.027 253.029C174.073 253.091 174.119 253.16 174.158 253.237C174.158 253.237 174.166 253.237 174.166 253.244C174.304 253.467 174.426 253.743 174.534 254.073C174.818 254.941 174.972 256.031 175.033 257.167C175.148 259.462 174.964 261.949 174.764 264.436C174.565 266.931 174.319 269.464 174.235 272.013C174.166 274.554 174.211 277.171 174.933 279.597C174.756 277.087 175.256 274.638 175.854 272.243C176.468 269.841 177.228 267.469 177.973 265.051C178.702 262.633 179.454 260.184 179.915 257.482C180.138 256.131 180.291 254.703 180.161 253.099C180.115 252.477 179.999 251.809 179.8 251.126C184.828 246.865 189.894 242.582 194.845 238.114C195.099 237.892 195.344 237.662 195.59 237.439C197.01 236.157 198.415 234.852 199.804 233.532C206.889 226.792 213.629 219.53 219.379 211.416C225.121 203.318 229.819 194.329 232.751 184.718C234.217 179.921 235.253 174.985 235.852 170.011C236.382 165.597 236.558 161.16 236.435 156.738C238.6 204.746 218.488 230.983 199.789 250.988C183.124 272.097 181.427 300.761 204.794 314.862Z" fill="url(#paint14_linear_106_253)"/>
<path d="M309.835 111.91C304.454 113.952 298.742 115.111 292.978 115.364C288.456 115.556 283.912 115.195 279.498 114.259C281.125 111.941 282.753 109.661 284.342 107.435C297.491 88.9886 308.86 73.0603 312.368 57.2625C315.699 42.2707 311.562 29.0138 299.356 16.1406C321.541 33.2741 330.369 56.7251 309.835 111.91Z" fill="url(#paint15_linear_106_253)"/>
<path d="M294.874 80.5134C297.07 59.0583 292.28 48.6184 283.176 37.0273C291.267 42.4621 299.634 52.7099 302.881 65.5831C300.831 70.3807 298.098 75.3396 294.874 80.5134Z" fill="url(#paint16_linear_106_253)"/>
<path d="M402.28 292.659C412.137 278.143 422.523 258.576 430.237 233.352C442.681 153.257 410.64 106.893 350.711 84.3473C355.209 82.244 363.645 80.2405 370.662 80.4017C378.66 80.5782 387.918 82.2977 397.782 85.3453C459.311 144.478 454.815 219.639 402.28 292.659Z" fill="url(#paint17_linear_106_253)"/>
<path d="M397.989 231.199C396.155 226.785 393.614 222.655 390.528 218.993C387.112 215.032 383.059 211.616 378.591 208.976C374.139 206.289 369.318 204.347 364.375 202.965C354.465 200.263 344.102 199.956 334.092 201.43C333.286 201.553 332.48 201.683 331.682 201.829C333.117 200.24 334.422 198.475 335.474 196.51C336.134 195.266 336.717 193.953 337.139 192.587C337.347 191.904 337.562 191.213 337.692 190.507L337.8 189.985C337.838 189.816 337.876 189.639 337.907 189.394C337.976 188.948 338.007 188.496 338.015 188.043C338.03 186.239 337.569 184.573 336.94 183.137C336.303 181.702 335.489 180.458 334.622 179.338C333.816 178.309 332.964 177.38 332.073 176.513C344.846 169.842 359.401 166.388 375.721 167.209C356.115 171.738 347.909 175.008 345.261 177.664C346.743 180.504 349.452 187.659 346.489 193.831C358.096 193.339 391.012 201.745 397.989 231.199Z" fill="url(#paint18_linear_106_253)"/>
<path d="M303.195 191.49C279.499 209.698 255.879 181.626 239.697 192.572C242.184 188.841 248.732 184.213 260.592 187.375C272.452 190.538 276.636 190.538 277.649 175.853C278.67 161.168 287.812 155.749 308.262 151.228C283.076 162.565 285.978 174.487 285.978 182.401C285.978 190.308 292.648 191.49 303.195 191.49Z" fill="url(#paint19_linear_106_253)"/>
<path d="M181.94 79.5065V89.8103H187.281C189.297 89.8103 191.4 88.7148 193.591 86.5236C195.782 84.3325 197.442 82.2564 198.571 80.2953C199.699 78.3452 200.855 72.7139 202.038 63.4016C203.221 54.1002 203.813 47.4939 203.813 43.5827H228.348C228.348 48.206 227.696 55.4368 226.393 65.275C225.089 75.1132 223.906 81.1608 222.843 83.4177C221.068 87.3289 216.56 92.604 209.318 99.2432C217.743 106.474 223.199 112.582 225.686 117.567C226.869 120.054 228.085 127.553 229.334 140.064C230.583 152.565 231.208 161.899 231.208 168.067H206.656C206.656 162.491 206.092 153.748 204.963 141.839C203.846 129.919 202.75 123.012 201.677 121.116C198.006 114.477 193.679 111.158 188.694 111.158H181.94V168.067H157.404V90.1719C157.404 80.5747 156.72 73.9081 155.35 70.1722C153.992 66.4363 151.116 61.8404 146.723 56.3844L168.07 41.4463C171.861 43.9332 175.12 48.5292 177.848 55.2341C180.576 61.928 181.94 70.0188 181.94 79.5065Z" fill="#1C62D4"/>
</g>
<defs>
<linearGradient id="paint0_linear_106_253" x1="411.592" y1="469.637" x2="411.592" y2="217.074" gradientUnits="userSpaceOnUse">
<stop stop-color="#195AC2"/>
<stop offset="0.116174" stop-color="#1B60D0"/>
<stop offset="0.474198" stop-color="#2F75E4"/>
<stop offset="0.781357" stop-color="#4684E7"/>
<stop offset="1" stop-color="#4F8AE8"/>
</linearGradient>
<linearGradient id="paint1_linear_106_253" x1="122.051" y1="385.369" x2="122.051" y2="13" gradientUnits="userSpaceOnUse">
<stop stop-color="#195AC2"/>
<stop offset="0.116174" stop-color="#1B60D0"/>
<stop offset="0.474198" stop-color="#2F75E4"/>
<stop offset="0.781357" stop-color="#4684E7"/>
<stop offset="1" stop-color="#4F8AE8"/>
</linearGradient>
<linearGradient id="paint2_linear_106_253" x1="319.927" y1="328.949" x2="319.927" y2="207.083" gradientUnits="userSpaceOnUse">
<stop stop-color="#195AC2"/>
<stop offset="0.116174" stop-color="#1B60D0"/>
<stop offset="0.474198" stop-color="#2F75E4"/>
<stop offset="0.781357" stop-color="#4684E7"/>
<stop offset="1" stop-color="#4F8AE8"/>
</linearGradient>
<linearGradient id="paint3_linear_106_253" x1="329.034" y1="282.945" x2="329.034" y2="245.408" gradientUnits="userSpaceOnUse">
<stop stop-color="#195AC2"/>
<stop offset="0.116174" stop-color="#1B60D0"/>
<stop offset="0.474198" stop-color="#2F75E4"/>
<stop offset="0.781357" stop-color="#4684E7"/>
<stop offset="1" stop-color="#4F8AE8"/>
</linearGradient>
<linearGradient id="paint4_linear_106_253" x1="319.787" y1="111.909" x2="319.787" y2="16.1406" gradientUnits="userSpaceOnUse">
<stop stop-color="#195AC2"/>
<stop offset="0.116174" stop-color="#1B60D0"/>
<stop offset="0.474198" stop-color="#2F75E4"/>
<stop offset="0.781357" stop-color="#4684E7"/>
<stop offset="1" stop-color="#4F8AE8"/>
</linearGradient>
<linearGradient id="paint5_linear_106_253" x1="294.886" y1="65.5827" x2="294.886" y2="37.0264" gradientUnits="userSpaceOnUse">
<stop stop-color="#195AC2"/>
<stop offset="0.116174" stop-color="#1B60D0"/>
<stop offset="0.474198" stop-color="#2F75E4"/>
<stop offset="0.781357" stop-color="#4684E7"/>
<stop offset="1" stop-color="#4F8AE8"/>
</linearGradient>
<linearGradient id="paint6_linear_106_253" x1="261.913" y1="486.941" x2="261.913" y2="85.1963" gradientUnits="userSpaceOnUse">
<stop stop-color="#195AC2"/>
<stop offset="0.116174" stop-color="#1B60D0"/>
<stop offset="0.474198" stop-color="#2F75E4"/>
<stop offset="0.781357" stop-color="#4684E7"/>
<stop offset="1" stop-color="#4F8AE8"/>
</linearGradient>
<linearGradient id="paint7_linear_106_253" x1="387.696" y1="494.967" x2="387.696" y2="3.39127" gradientUnits="userSpaceOnUse">
<stop stop-color="#113D83"/>
<stop offset="0.558659" stop-color="#195AC2"/>
</linearGradient>
<linearGradient id="paint8_linear_106_253" x1="67.7426" y1="494.968" x2="67.7426" y2="3.39205" gradientUnits="userSpaceOnUse">
<stop stop-color="#113D83"/>
<stop offset="0.558659" stop-color="#195AC2"/>
</linearGradient>
<linearGradient id="paint9_linear_106_253" x1="142.646" y1="494.967" x2="142.646" y2="3.39119" gradientUnits="userSpaceOnUse">
<stop stop-color="#113D83"/>
<stop offset="0.558659" stop-color="#195AC2"/>
</linearGradient>
<linearGradient id="paint10_linear_106_253" x1="260.503" y1="494.967" x2="260.503" y2="3.39085" gradientUnits="userSpaceOnUse">
<stop stop-color="#113D83"/>
<stop offset="0.558659" stop-color="#195AC2"/>
</linearGradient>
<linearGradient id="paint11_linear_106_253" x1="323.449" y1="494.967" x2="323.449" y2="3.39116" gradientUnits="userSpaceOnUse">
<stop stop-color="#113D83"/>
<stop offset="0.558659" stop-color="#195AC2"/>
</linearGradient>
<linearGradient id="paint12_linear_106_253" x1="230.847" y1="494.968" x2="230.847" y2="3.39159" gradientUnits="userSpaceOnUse">
<stop stop-color="#113D83"/>
<stop offset="0.558659" stop-color="#195AC2"/>
</linearGradient>
<linearGradient id="paint13_linear_106_253" x1="132.256" y1="494.968" x2="132.256" y2="3.39139" gradientUnits="userSpaceOnUse">
<stop stop-color="#113D83"/>
<stop offset="0.558659" stop-color="#195AC2"/>
</linearGradient>
<linearGradient id="paint14_linear_106_253" x1="199.557" y1="494.967" x2="199.557" y2="3.3909" gradientUnits="userSpaceOnUse">
<stop stop-color="#113D83"/>
<stop offset="0.558659" stop-color="#195AC2"/>
</linearGradient>
<linearGradient id="paint15_linear_106_253" x1="300.455" y1="494.968" x2="300.455" y2="3.39204" gradientUnits="userSpaceOnUse">
<stop stop-color="#113D83"/>
<stop offset="0.558659" stop-color="#195AC2"/>
</linearGradient>
<linearGradient id="paint16_linear_106_253" x1="293.028" y1="494.968" x2="293.028" y2="3.39154" gradientUnits="userSpaceOnUse">
<stop stop-color="#113D83"/>
<stop offset="0.558659" stop-color="#195AC2"/>
</linearGradient>
<linearGradient id="paint17_linear_106_253" x1="396.758" y1="495.117" x2="396.758" y2="3.5408" gradientUnits="userSpaceOnUse">
<stop stop-color="#113D83"/>
<stop offset="0.558659" stop-color="#195AC2"/>
</linearGradient>
<linearGradient id="paint18_linear_106_253" x1="364.835" y1="494.968" x2="364.835" y2="3.39138" gradientUnits="userSpaceOnUse">
<stop stop-color="#113D83"/>
<stop offset="0.558659" stop-color="#195AC2"/>
</linearGradient>
<linearGradient id="paint19_linear_106_253" x1="273.98" y1="494.968" x2="273.98" y2="3.39179" gradientUnits="userSpaceOnUse">
<stop stop-color="#113D83"/>
<stop offset="0.558659" stop-color="#195AC2"/>
</linearGradient>
<clipPath id="clip0_106_253">
<rect width="500" height="500" fill="white"/>
</clipPath>
</defs>
</svg>
