<svg width="208" height="128" viewBox="0 0 208 128" fill="none" xmlns="http://www.w3.org/2000/svg">
<path d="M48.0001 49.3333C44.9779 47.2889 42.4446 44.5102 40.4001 40.9973C38.3557 37.488 37.3334 33.6 37.3334 29.3333C37.3334 22.6666 39.6659 16.9991 44.3308 12.3306C48.9992 7.66576 54.6668 5.33331 61.3334 5.33331C68.0001 5.33331 73.6677 7.66576 78.3361 12.3306C83.001 16.9991 85.3334 22.6666 85.3334 29.3333C85.3334 33.7778 84.2899 37.7102 82.2028 41.1306C80.1121 44.5546 77.6001 47.2889 74.6668 49.3333V29.3333C74.6668 25.6 73.3779 22.4444 70.8001 19.8666C68.2223 17.2889 65.0668 16 61.3334 16C57.6001 16 54.4446 17.2889 51.8668 19.8666C49.289 22.4444 48.0001 25.6 48.0001 29.3333V49.3333ZM58.4001 117.333C56.889 117.333 55.5343 117.067 54.3361 116.533C53.1343 116 52.0001 115.2 50.9334 114.133L29.7334 92.9333C28.7557 91.9555 28.1779 90.7555 28.0001 89.3333C27.8223 87.9111 28.089 86.5778 28.8001 85.3333C29.5112 84.2666 30.4232 83.5111 31.5361 83.0667C32.6454 82.6222 33.689 82.4889 34.6668 82.6666L53.3334 86.6666V29.3333C53.3334 27.1111 54.1121 25.2231 55.6694 23.6693C57.2232 22.112 59.1112 21.3333 61.3334 21.3333C63.5557 21.3333 65.4437 22.112 66.9974 23.6693C68.5548 25.2231 69.3334 27.1111 69.3334 29.3333V61.3333H72.5334C73.3334 61.3333 74.1548 61.4222 74.9974 61.6C75.8437 61.7778 76.6223 62.0444 77.3334 62.4L100.8 73.3333C102.933 74.3111 104.512 75.8222 105.536 77.8667C106.557 79.9111 106.889 82.0889 106.533 84.4L103.2 108.133C102.845 110.711 101.645 112.889 99.6001 114.667C97.5557 116.444 95.2446 117.333 92.6668 117.333H58.4001Z" fill="#3165D4"/>
<path d="M144 104C117.333 104 94.3999 87.4667 85.3333 64C94.3999 40.5333 117.333 24 144 24C170.667 24 193.6 40.5333 202.667 64C202.133 66.1333 201.067 67.7333 200 69.8667C197.333 63.4667 192 58.1333 185.067 55.4667C175.467 42.6667 160.533 34.6667 144 34.6667C123.733 34.6667 105.6 45.8667 97.0666 64C106.133 82.1333 124.267 93.3333 144 93.3333H144.533C144 94.4 144 96 144 97.0667V104ZM144 48C134.933 48 128 54.9333 128 64C128 73.0667 134.933 80 144 80C146.133 80 148.267 79.4667 150.4 78.4V77.3333C150.4 70.4 154.133 64 159.467 59.2C157.333 52.8 151.467 48 144 48ZM190.933 90.6667H168V77.3333C168 73.0667 171.733 70.4 176 70.4C180.267 70.4 184 73.0667 184 77.3333V80H190.933V77.3333C190.933 69.8667 183.467 64 176 64C168.533 64 161.067 69.8667 161.067 77.3333V90.6667C157.867 90.6667 154.667 93.8667 154.667 97.0667V115.733C154.667 119.467 157.867 122.667 161.067 122.667H190.4C194.133 122.667 197.333 119.467 197.333 116.267V97.6C197.333 93.8667 194.133 90.6667 190.933 90.6667Z" fill="#3165D4"/>
</svg>
