<?xml version="1.0" encoding="UTF-8" ?>
<!DOCTYPE svg PUBLIC "-//W3C//DTD SVG 1.1//EN" "http://www.w3.org/Graphics/SVG/1.1/DTD/svg11.dtd">
<svg width="94pt" height="91pt" viewBox="0 0 94 91" version="1.1" xmlns="http://www.w3.org/2000/svg">
<g id="#ffb600ff">
<path fill="#ffb600" opacity="1.00" d=" M 45.89 0.00 L 47.84 0.00 C 60.84 0.24 73.69 5.87 82.38 15.60 C 89.48 23.36 93.61 33.69 94.00 44.20 L 94.00 46.46 C 93.70 58.49 88.34 70.25 79.46 78.36 C 71.03 86.25 59.63 90.68 48.12 91.00 L 46.16 91.00 C 33.40 90.76 20.77 85.34 12.09 75.92 C 4.71 68.09 0.39 57.54 0.00 46.80 L 0.00 44.52 C 0.30 33.41 4.85 22.51 12.59 14.55 C 21.18 5.51 33.46 0.33 45.89 0.00 M 41.28 25.18 C 40.82 30.01 41.23 34.88 41.08 39.73 C 36.08 39.88 31.04 39.41 26.06 39.96 C 23.54 40.83 24.04 43.88 23.94 45.96 C 24.05 48.06 23.51 51.13 26.04 52.04 C 31.03 52.59 36.07 52.11 41.08 52.27 C 41.23 57.12 40.81 61.99 41.28 66.81 C 41.99 69.31 44.97 68.99 46.99 69.06 C 49.29 68.91 52.86 69.66 53.73 66.77 C 54.17 61.95 53.78 57.10 53.92 52.27 C 58.93 52.12 63.97 52.59 68.95 52.04 C 71.47 51.15 70.95 48.09 71.06 45.99 C 70.95 43.91 71.47 40.87 68.97 39.96 C 63.98 39.40 58.93 39.89 53.91 39.73 C 53.77 34.88 54.18 30.01 53.72 25.18 C 53.01 22.71 50.05 23.00 48.03 22.94 C 45.74 23.10 42.20 22.34 41.28 25.18 Z" />
</g>
<g id="#ffffffff">
<path fill="#ffffff" opacity="1.00" d=" M 41.28 25.18 C 42.20 22.34 45.74 23.10 48.03 22.94 C 50.05 23.00 53.01 22.71 53.72 25.18 C 54.18 30.01 53.77 34.88 53.91 39.73 C 58.93 39.89 63.98 39.40 68.97 39.96 C 71.47 40.87 70.95 43.91 71.06 45.99 C 70.95 48.09 71.47 51.15 68.95 52.04 C 63.97 52.59 58.93 52.12 53.92 52.27 C 53.78 57.10 54.17 61.95 53.73 66.77 C 52.86 69.66 49.29 68.91 46.99 69.06 C 44.97 68.99 41.99 69.31 41.28 66.81 C 40.81 61.99 41.23 57.12 41.08 52.27 C 36.07 52.11 31.03 52.59 26.04 52.04 C 23.51 51.13 24.05 48.06 23.94 45.96 C 24.04 43.88 23.54 40.83 26.06 39.96 C 31.04 39.41 36.08 39.88 41.08 39.73 C 41.23 34.88 40.82 30.01 41.28 25.18 Z" />
</g>
</svg>
