<svg width="128" height="128" viewBox="0 0 128 128" fill="none" xmlns="http://www.w3.org/2000/svg">
<path d="M101.333 69.3333C103.147 69.3333 104.907 69.5467 106.667 69.8133V53.3333C106.667 50.5044 105.543 47.7912 103.542 45.7909C101.542 43.7905 98.8289 42.6667 95.9999 42.6667H90.6666V32C90.6666 17.28 78.7199 5.33333 63.9999 5.33333C49.2799 5.33333 37.3333 17.28 37.3333 32V42.6667H31.9999C29.1709 42.6667 26.4578 43.7905 24.4574 45.7909C22.4571 47.7912 21.3333 50.5044 21.3333 53.3333V106.667C21.3333 112.587 26.0799 117.333 31.9999 117.333H73.6533C70.9333 112.64 69.3332 107.2 69.3332 101.333C69.3332 83.68 83.6799 69.3333 101.333 69.3333ZM47.9999 32C47.9999 23.1467 55.1466 16 63.9999 16C72.8532 16 79.9999 23.1467 79.9999 32V42.6667H47.9999V32ZM63.9999 90.6667C61.8902 90.6667 59.828 90.0411 58.0738 88.869C56.3197 87.6969 54.9525 86.031 54.1452 84.082C53.3379 82.1329 53.1266 79.9882 53.5382 77.919C53.9498 75.8499 54.9657 73.9493 56.4574 72.4575C57.9492 70.9658 59.8498 69.9499 61.919 69.5383C63.9881 69.1267 66.1328 69.3379 68.0819 70.1453C70.0309 70.9526 71.6969 72.3198 72.8689 74.0739C74.041 75.828 74.6666 77.8903 74.6666 80C74.6666 85.92 69.9199 90.6667 63.9999 90.6667ZM120 92L94.6666 117.333L79.9999 101.333L86.1866 95.1467L94.6666 103.627L113.813 84.48L120 92Z" fill="white"/>
</svg>
