<svg width="38" height="38" viewBox="0 0 38 38" fill="none" xmlns="http://www.w3.org/2000/svg">
<path d="M22.1666 18.9999L15.8333 12.6666V17.4166H3.16663V20.5833H15.8333V25.3333M31.6666 28.4999V9.49992C31.6666 8.66007 31.333 7.85461 30.7391 7.26075C30.1453 6.66688 29.3398 6.33325 28.5 6.33325H9.49996C8.66011 6.33325 7.85465 6.66688 7.26079 7.26075C6.66692 7.85461 6.33329 8.66007 6.33329 9.49992V14.2499H9.49996V9.49992H28.5V28.4999H9.49996V23.7499H6.33329V28.4999C6.33329 29.3398 6.66692 30.1452 7.26079 30.7391C7.85465 31.333 8.66011 31.6666 9.49996 31.6666H28.5C29.3398 31.6666 30.1453 31.333 30.7391 30.7391C31.333 30.1452 31.6666 29.3398 31.6666 28.4999Z" fill="#3165D4" fill-opacity="0.53"/>
</svg>
