<svg viewBox="0 0 1455 934" xmlns="http://www.w3.org/2000/svg" fill-rule="evenodd" clip-rule="evenodd" stroke-linejoin="round" stroke-miterlimit="2"><path d="M1453.9 51.678c0-27.436-22.275-49.71-49.71-49.71H51.7c-27.436 0-49.711 22.274-49.711 49.71v829.978c0 27.435 22.275 49.71 49.711 49.71h1352.49c27.435 0 49.71-22.275 49.71-49.71V51.678z" fill="#fff"/><path d="M1453.9 51.678c0-27.436-22.275-49.71-49.71-49.71H51.7c-27.436 0-49.711 22.274-49.711 49.71v829.978c0 27.435 22.275 49.71 49.711 49.71h1352.49c27.435 0 49.71-22.275 49.71-49.71V51.678zm-27.769 0v829.978c0 12.109-9.832 21.941-21.941 21.941H51.7c-12.11 0-21.942-9.832-21.942-21.941V51.678c0-12.11 9.832-21.942 21.942-21.942h1352.49c12.109 0 21.941 9.832 21.941 21.942z" fill="#353535"/><path d="M503.861 208.161c0-30.99-25.161-56.151-56.151-56.151H213.485c-30.991 0-56.151 25.161-56.151 56.151v291.384c0 30.991 25.16 56.151 56.151 56.151H447.71c30.99 0 56.151-25.16 56.151-56.151V208.161z" fill="#e2e2e2"/><path fill="#353535" d="M727.95 182.376h496.57v57.159H727.95zM727.95 296.694h367.962v57.159H727.95zM727.95 418.157h425.121v57.159H727.95z"/></svg>