<svg width="128" height="128" viewBox="0 0 128 128" fill="none" xmlns="http://www.w3.org/2000/svg">
<path fill-rule="evenodd" clip-rule="evenodd" d="M93.792 10.6666C95.7923 8.66694 98.5049 7.54358 101.333 7.54358C104.162 7.54358 106.874 8.66694 108.875 10.6666L117.333 19.1253C119.333 21.1256 120.456 23.8382 120.456 26.6666C120.456 29.4951 119.333 32.2077 117.333 34.208L108.875 42.6666L85.3333 19.1253L93.792 10.6666ZM77.792 26.6666L51.1253 53.3333C49.1248 55.3332 48.0006 58.0459 48 60.8746V69.3333C48 72.1623 49.1238 74.8754 51.1242 76.8758C53.1246 78.8762 55.8377 80 58.6667 80H67.1253C69.9541 79.9994 72.6667 78.8752 74.6667 76.8746L101.333 50.208L77.792 26.6666Z" fill="#3165D4"/>
<path d="M32 74.6666H26.6667C23.8377 74.6666 21.1246 75.7904 19.1242 77.7908C17.1238 79.7912 16 82.5043 16 85.3333C16 88.1623 17.1238 90.8754 19.1242 92.8758C21.1246 94.8762 23.8377 96 26.6667 96H101.333C104.162 96 106.875 97.1238 108.876 99.1242C110.876 101.125 112 103.838 112 106.667C112 109.496 110.876 112.209 108.876 114.209C106.875 116.209 104.162 117.333 101.333 117.333H80" stroke="#3165D4" stroke-width="2" stroke-linecap="round" stroke-linejoin="round"/>
</svg>
