<svg width="128" height="128" viewBox="0 0 128 128" fill="none" xmlns="http://www.w3.org/2000/svg">
<path d="M64.0001 10.6667C34.5601 10.6667 10.6667 34.56 10.6667 64C10.6667 93.44 34.5601 117.333 64.0001 117.333C93.4401 117.333 117.333 93.44 117.333 64C117.333 34.56 93.4401 10.6667 64.0001 10.6667ZM64.0001 32C74.2934 32 82.6667 40.3733 82.6667 50.6667C82.6667 60.96 74.2934 69.3333 64.0001 69.3333C53.7067 69.3333 45.3334 60.96 45.3334 50.6667C45.3334 40.3733 53.7067 32 64.0001 32ZM64.0001 106.667C53.1734 106.667 40.3734 102.293 31.2534 91.3067C40.5953 83.9772 52.1261 79.9936 64.0001 79.9936C75.8741 79.9936 87.4048 83.9772 96.7467 91.3067C87.6267 102.293 74.8267 106.667 64.0001 106.667Z" fill="white"/>
</svg>
