<svg width="128" height="128" viewBox="0 0 128 128" fill="none" xmlns="http://www.w3.org/2000/svg">
<path d="M90.6667 16H37.3333C25.5467 16 16 25.5467 16 37.3333V90.6667C16 102.453 25.5467 112 37.3333 112H101.333C107.253 112 112 107.253 112 101.333V48C112 45.171 110.876 42.4579 108.876 40.4575C106.875 38.4571 104.162 37.3333 101.333 37.3333V26.6667C101.333 23.8377 100.21 21.1246 98.2091 19.1242C96.2088 17.1238 93.4956 16 90.6667 16ZM90.6667 26.6667V37.3333H37.3333C33.44 37.3333 29.8133 38.4 26.6667 40.2133V37.3333C26.6667 31.4667 31.4667 26.6667 37.3333 26.6667M82.6667 82.6667C78.24 82.6667 74.6667 79.0933 74.6667 74.6667C74.6667 70.24 78.24 66.6667 82.6667 66.6667C87.0933 66.6667 90.6667 70.24 90.6667 74.6667C90.6667 79.0933 87.0933 82.6667 82.6667 82.6667Z" fill="white"/>
</svg>
