<svg viewBox="0 0 2988 3996" xmlns="http://www.w3.org/2000/svg" fill-rule="evenodd" clip-rule="evenodd" stroke-linejoin="round" stroke-miterlimit="2"><path d="M2950 162.453A124.953 124.953 0 002825.047 37.5H162.537A125.035 125.035 0 0037.501 162.536v3670.8c0 69.036 55.964 125 125 125h2662.5c69.036 0 125-55.964 125-125V162.456zm-41.667 0a83.282 83.282 0 00-24.394-58.892 83.282 83.282 0 00-58.892-24.394H162.537a83.368 83.368 0 00-83.369 83.369v3670.8c0 46.024 37.309 83.334 83.333 83.334h2662.5c46.024 0 83.333-37.31 83.333-83.334V162.456z" fill="#262626"/><path d="M2908.33 1997.92H79.16v1835.62c0 45.914 37.22 83.134 83.133 83.134h2662.84c45.947 0 83.194-37.248 83.194-83.195v-1835.56z" fill="#fff"/><path d="M2908.33 162.453a83.282 83.282 0 00-24.394-58.892 83.282 83.282 0 00-58.892-24.394H162.534c-46.044 0-83.369 37.325-83.369 83.369v1835.38h2829.17V162.456z" fill="url(#_Linear1)"/><path d="M1008.33 2539.97c0-45.055-36.579-81.635-81.634-81.635H402.465c-45.055 0-81.635 36.58-81.635 81.635v728.397c0 45.056 36.58 81.635 81.635 81.635h524.231c45.055 0 81.634-36.579 81.634-81.635V2539.97z" fill="#d9d9d9"/><text x="307.528" y="2323.16" font-family="'Avenir-Black',sans-serif" font-weight="700" font-size="164.481">P<tspan x="397.335px 491.583px 580.074px" y="2323.16px 2323.16px 2323.16px">ASS</tspan>POR<tspan x="979.928" y="2323.16">T</tspan></text><path fill="#d9d9d9" d="M222.917 3633.33h2541.67v50H222.917zM222.917 3762.5h2541.67v50H222.917z"/><defs><linearGradient id="_Linear1" x1="0" y1="0" x2="1" y2="0" gradientUnits="userSpaceOnUse" gradientTransform="rotate(90 707.292 786.458) scale(1918.75)"><stop offset="0" stop-color="#fff"/><stop offset="1" stop-color="#e6e6e6"/></linearGradient></defs></svg>
