<svg width="32" height="32" viewBox="0 0 32 32" fill="none" xmlns="http://www.w3.org/2000/svg">
<path d="M2.66663 9.33341V2.66675H9.33329V5.33341H5.33329V9.33341H2.66663ZM2.66663 29.3334V22.6667H5.33329V26.6667H9.33329V29.3334H2.66663ZM22.6666 29.3334V26.6667H26.6666V22.6667H29.3333V29.3334H22.6666ZM26.6666 9.33341V5.33341H22.6666V2.66675H29.3333V9.33341H26.6666ZM23.3333 23.3334H25.3333V25.3334H23.3333V23.3334ZM23.3333 19.3334H25.3333V21.3334H23.3333V19.3334ZM21.3333 21.3334H23.3333V23.3334H21.3333V21.3334ZM19.3333 23.3334H21.3333V25.3334H19.3333V23.3334ZM17.3333 21.3334H19.3333V23.3334H17.3333V21.3334ZM21.3333 17.3334H23.3333V19.3334H21.3333V17.3334ZM19.3333 19.3334H21.3333V21.3334H19.3333V19.3334ZM17.3333 17.3334H19.3333V19.3334H17.3333V17.3334ZM25.3333 6.66675V14.6667H17.3333V6.66675H25.3333ZM14.6666 17.3334V25.3334H6.66663V17.3334H14.6666ZM14.6666 6.66675V14.6667H6.66663V6.66675H14.6666ZM12.6666 23.3334V19.3334H8.66663V23.3334H12.6666ZM12.6666 12.6667V8.66675H8.66663V12.6667H12.6666ZM23.3333 12.6667V8.66675H19.3333V12.6667H23.3333Z" fill="#3165D4" fill-opacity="0.53"/>
</svg>
