<svg width="16" height="16" viewBox="0 0 16 16" fill="none" xmlns="http://www.w3.org/2000/svg">
<path d="M14.6667 5.33267C14.6665 5.21369 14.6346 5.09691 14.5741 4.99445C14.5136 4.89199 14.4268 4.80759 14.3227 4.75L8.308 1.41667C8.20917 1.36222 8.09817 1.33366 7.98534 1.33366C7.8725 1.33366 7.7615 1.36222 7.66267 1.41667L1.67734 4.72334C1.57336 4.78091 1.48666 4.86524 1.42623 4.96758C1.3658 5.06992 1.33382 5.18656 1.33362 5.30541C1.33342 5.42427 1.36499 5.54101 1.42507 5.64356C1.48515 5.74611 1.57156 5.83074 1.67534 5.88867L7.69 9.24867C7.78902 9.30431 7.90067 9.33358 8.01425 9.3337C8.12783 9.33382 8.23954 9.30477 8.33867 9.24934L14.324 5.916C14.428 5.85819 14.5146 5.7736 14.5748 5.67103C14.6351 5.56846 14.6668 5.45163 14.6667 5.33267ZM8.01534 7.90267L3.37334 5.31L7.98467 2.762L12.6273 5.33467L8.01534 7.90267Z" fill="white"/>
<path d="M13.6767 7.41733L8.00002 10.5707L2.32336 7.41733L1.67603 8.58266L7.67602 11.916C7.77504 11.971 7.88643 11.9998 7.99969 11.9998C8.11295 11.9998 8.22434 11.971 8.32336 11.916L14.3234 8.58266L13.6767 7.41733Z" fill="white"/>
<path d="M13.6767 10.084L8.00002 13.2373L2.32336 10.084L1.67603 11.2493L7.67602 14.5827C7.77504 14.6377 7.88643 14.6665 7.99969 14.6665C8.11295 14.6665 8.22434 14.6377 8.32336 14.5827L14.3234 11.2493L13.6767 10.084Z" fill="white"/>
</svg>