<svg width="25" height="16" viewBox="0 0 25 16" fill="none" xmlns="http://www.w3.org/2000/svg">
<path d="M0.888 16V13.984C1.864 13.072 2.752 12.224 3.552 11.44C4.368 10.64 5.064 9.896 5.64 9.208C6.232 8.504 6.688 7.856 7.008 7.264C7.344 6.656 7.512 6.08 7.512 5.536C7.512 4.784 7.32 4.216 6.936 3.832C6.552 3.432 6.024 3.232 5.352 3.232C4.792 3.232 4.296 3.392 3.864 3.712C3.432 4.016 3.024 4.376 2.64 4.792L0.72 2.896C1.472 2.096 2.24 1.496 3.024 1.096C3.808 0.679999 4.744 0.472 5.832 0.472C6.584 0.472 7.264 0.592 7.872 0.831999C8.496 1.056 9.032 1.384 9.48 1.816C9.928 2.232 10.272 2.736 10.512 3.328C10.752 3.92 10.872 4.584 10.872 5.32C10.872 5.96 10.736 6.616 10.464 7.288C10.192 7.944 9.824 8.608 9.36 9.28C8.912 9.936 8.392 10.6 7.8 11.272C7.224 11.928 6.624 12.576 6 13.216C6.384 13.168 6.808 13.128 7.272 13.096C7.752 13.048 8.176 13.024 8.544 13.024H11.616V16H0.888ZM19.2557 16V12.352H12.6557V9.928L18.2237 0.759999H22.5437V9.664H24.2957V12.352H22.5437V16H19.2557ZM16.0397 9.664H19.2557V7.192C19.2557 6.696 19.2717 6.128 19.3037 5.488C19.3357 4.832 19.3677 4.264 19.3997 3.784H19.3037C19.1117 4.2 18.9117 4.624 18.7037 5.056C18.4957 5.488 18.2797 5.92 18.0557 6.352L16.0397 9.664Z" fill="#3165D4" fill-opacity="0.53"/>
</svg>
