<svg width="23" height="20" viewBox="0 0 23 20" fill="none" xmlns="http://www.w3.org/2000/svg">
<path fill-rule="evenodd" clip-rule="evenodd" d="M10.6799 0C16.1679 0 20.6236 4.48086 20.6236 10C20.6236 15.5191 16.1679 20 10.6799 20C5.19194 20 0.736328 15.5191 0.736328 10C0.736328 4.48086 5.19194 0 10.6799 0ZM7.56845 10.1111C7.56845 12.0158 8.90529 13.2643 10.5923 13.2643C11.8973 13.2643 12.6136 12.384 12.8048 12.0478C12.9957 12.7201 13.5687 13.2643 14.5394 13.2643C16.0834 13.2643 17.1021 11.9999 17.1021 9.43885C17.1021 6.17355 14.7304 3.43658 10.7833 3.43658C6.9794 3.43658 4.25803 6.30166 4.25803 10.0471C4.25803 13.8405 7.12269 16.5776 10.672 16.5776C12.168 16.5776 13.4574 16.1134 14.1257 15.6493L13.6481 14.8649C12.8048 15.3451 11.7543 15.6012 10.672 15.6012C7.53666 15.6012 5.3562 13.2322 5.3562 10.0311C5.3562 6.94195 7.52054 4.39695 10.7674 4.39695C14.0301 4.39695 16.0357 6.5257 16.0357 9.45488C16.0357 11.4396 15.4148 12.3039 14.6191 12.3039C13.9188 12.3039 13.6481 11.8558 13.6481 11.1356V7.0539H12.582V7.88629C12.3908 7.63019 11.7223 6.95785 10.5605 6.95785C8.90529 6.95785 7.56845 8.22238 7.56845 10.1111ZM8.71431 10.1111C8.71431 8.78253 9.57382 7.96631 10.6561 7.96631C11.8496 7.96631 12.6297 8.83063 12.6297 10.0791C12.6297 11.5357 11.7223 12.272 10.672 12.272C9.55771 12.272 8.71431 11.4236 8.71431 10.1111Z" fill="#3165D4"/>
<rect x="15.9852" y="11.5342" width="1.56995" height="5.71832" fill="white"/>
<path d="M17.5349 8.56156L22.618 17.7235C22.6955 17.8632 22.7364 18.0217 22.7364 18.183C22.7364 18.3443 22.6955 18.5028 22.618 18.6425C22.5405 18.7822 22.4291 18.8983 22.2948 18.9789C22.1606 19.0596 22.0083 19.102 21.8533 19.1021H11.6871C11.5321 19.102 11.3798 19.0596 11.2455 18.9789C11.1113 18.8983 10.9998 18.7822 10.9223 18.6425C10.8448 18.5028 10.804 18.3443 10.804 18.183C10.804 18.0217 10.8448 17.8632 10.9223 17.7235L16.0054 8.56156C16.3451 7.94888 17.1947 7.94888 17.5349 8.56156ZM16.7702 15.823C16.614 15.823 16.4643 15.8876 16.3539 16.0025C16.2435 16.1174 16.1815 16.2732 16.1815 16.4357C16.1815 16.5982 16.2435 16.754 16.3539 16.8689C16.4643 16.9838 16.614 17.0484 16.7702 17.0484C16.9263 17.0484 17.0761 16.9838 17.1865 16.8689C17.2969 16.754 17.3589 16.5982 17.3589 16.4357C17.3589 16.2732 17.2969 16.1174 17.1865 16.0025C17.0761 15.8876 16.9263 15.823 16.7702 15.823ZM16.7702 11.5343C16.626 11.5343 16.4868 11.5894 16.379 11.6891C16.2713 11.7888 16.2024 11.9262 16.1856 12.0753L16.1815 12.1469V14.5977C16.1816 14.7538 16.2391 14.904 16.3421 15.0176C16.4451 15.1311 16.5859 15.1994 16.7357 15.2086C16.8855 15.2177 17.033 15.167 17.148 15.0668C17.2631 14.9666 17.3371 14.8244 17.3548 14.6693L17.3589 14.5977V12.1469C17.3589 11.9845 17.2969 11.8286 17.1865 11.7137C17.0761 11.5988 16.9263 11.5343 16.7702 11.5343Z" fill="#F62626"/>
</svg>
