<?xml version="1.0" encoding="UTF-8" ?>
<!DOCTYPE svg PUBLIC "-//W3C//DTD SVG 1.1//EN" "http://www.w3.org/Graphics/SVG/1.1/DTD/svg11.dtd">
<svg width="401" height="91" viewBox="0 0 401 91" fill="none" xmlns="http://www.w3.org/2000/svg">
<path fill-rule="evenodd" clip-rule="evenodd" d="M355.93 0.458191C380.787 0.458191 400.968 20.639 400.968 45.496C400.968 70.353 380.787 90.5338 355.93 90.5338C331.073 90.5338 310.892 70.353 310.892 45.496C310.892 20.639 331.073 0.458191 355.93 0.458191ZM341.837 45.9963C341.837 54.5746 347.892 60.1977 355.533 60.1977C361.444 60.1977 364.688 56.2328 365.554 54.719C366.419 57.7466 369.014 60.1977 373.411 60.1977C380.404 60.1977 385.018 54.503 385.018 42.9687C385.018 28.2625 374.276 15.9358 356.398 15.9358C339.169 15.9358 326.843 28.8395 326.843 45.708C326.843 62.7926 339.818 75.1199 355.894 75.1199C362.67 75.1199 368.51 73.0292 371.537 70.939L369.374 67.4066C365.554 69.569 360.796 70.7224 355.894 70.7224C341.693 70.7224 331.817 60.0533 331.817 45.6359C331.817 31.7232 341.62 20.2611 356.326 20.2611C371.104 20.2611 380.188 29.8485 380.188 43.0409C380.188 51.9797 377.376 55.8724 373.772 55.8724C370.6 55.8724 369.374 53.8539 369.374 50.6103V32.2274H364.545V35.9763C363.679 34.8229 360.651 31.7948 355.389 31.7948C347.892 31.7948 341.837 37.49 341.837 45.9963ZM347.027 45.9963C347.027 40.0128 350.92 36.3367 355.822 36.3367C361.228 36.3367 364.761 40.2294 364.761 45.8524C364.761 52.4123 360.651 55.7285 355.894 55.7285C350.847 55.7285 347.027 51.9075 347.027 45.9963Z" fill="#3165D4"/>
<path d="M27.0266 69.8949L45.795 21.0972H37.9122L22.9913 61.543L7.97659 21.0972H0L18.8622 69.8949H27.0266Z" fill="#3165D4"/>
<path d="M47.9691 45.6744C47.9691 59.9741 57.711 69.8949 71.8317 69.8949C82.378 69.8949 88.4551 64.1746 91.0471 59.7957L86.3995 56.3992C84.1654 59.5275 79.786 63.6388 71.9214 63.6388C62.2688 63.6388 55.2979 57.3827 55.2082 47.0153H92.4772C92.5664 46.1216 92.5664 45.1381 92.5664 44.87C92.5664 30.9277 84.1654 21.0967 70.4913 21.0967C58.1576 21.0967 47.9692 30.8385 47.9692 45.6744H47.9691ZM55.5661 41.7421C56.102 32.9833 62.8944 27.1743 70.4913 27.1743C78.1775 27.1743 84.8802 32.0896 85.3273 41.7421H55.5661Z" fill="#3165D4"/>
<path d="M120.87 19.7683C113.44 19.7683 107.986 24.2826 106.293 29.1728V20.9909H98.9573V69.8948H106.387V46.4775C106.387 36.0379 109.679 27.1979 120.87 27.1979V19.7683Z" fill="#3165D4"/>
<path d="M144.936 71.1771C151.623 71.1771 157.179 67.3159 159.439 62.8899V69.953H166.878V20.9839H159.345V50.7421C159.345 58.8408 154.165 64.3972 146.632 64.3972C140.039 64.3972 135.048 59.6884 135.048 51.8719V20.9839H127.609V51.5897C127.609 62.7019 133.542 71.1771 144.936 71.1771Z" fill="#3165D4"/>
<path d="M171.897 59.9541C173.953 64.3335 178.332 69.8743 188.074 69.8743C197.101 69.8743 203.893 64.3335 203.893 56.111C203.893 39.9341 180.477 43.867 180.477 33.4099C180.477 29.3883 183.874 26.9753 188.163 26.9753C194.151 26.9753 196.564 30.4605 197.815 32.9633L202.999 30.0139C201.748 26.5282 197.28 21.0766 188.61 21.0766C180.209 21.0766 173.685 25.8134 173.685 33.678C173.685 49.4078 197.011 45.7436 197.011 56.4684C197.011 61.2052 193.079 63.8864 188.431 63.8864C182.086 63.8864 178.779 60.4007 176.813 56.7365L171.897 59.9541Z" fill="#3165D4"/>
<path d="M209.686 66.1249C209.686 69.0342 212.126 71.3805 215.035 71.3805C217.944 71.3805 220.29 69.0342 220.29 66.1249C220.29 63.2162 217.944 60.8698 215.035 60.8698C212.126 60.8698 209.686 63.2162 209.686 66.1249Z" fill="#3165D4"/>
<path d="M227.126 70.1605H234.539V21.3628H227.126V70.1605ZM225.718 8.78798C225.718 11.6972 227.97 13.9494 230.786 13.9494C233.695 13.9494 235.947 11.6972 235.947 8.78798C235.947 5.97246 233.695 3.72034 230.786 3.72034C227.97 3.72034 225.718 5.97246 225.718 8.78798Z" fill="#3165D4"/>
<path d="M289.235 2.31281H281.727V29.2455C280.32 26.7116 274.689 20.1428 264.554 20.1428C250.666 20.1428 241.281 30.8404 241.281 45.8554C241.281 60.7766 251.135 71.3805 265.117 71.3805C275.722 71.3805 280.789 64.2487 282.009 62.4653V70.1605H289.235V2.31281ZM282.009 45.9491C282.009 56.1781 275.722 64.7174 265.493 64.7174C256.108 64.7174 248.883 57.3039 248.883 45.9491C248.883 34.7818 255.827 26.8991 265.399 26.8991C274.502 26.8991 282.009 33.8434 282.009 45.9491Z" fill="#3165D4"/>
</svg>