<?xml version="1.0" encoding="UTF-8" ?>
<!DOCTYPE svg PUBLIC "-//W3C//DTD SVG 1.1//EN" "http://www.w3.org/Graphics/SVG/1.1/DTD/svg11.dtd">
<svg width="80pt" height="80pt" viewBox="0 0 80 80" version="1.1" xmlns="http://www.w3.org/2000/svg">
<g id="#3165d4ff">
<path fill="#3165d4" opacity="1.00" d=" M 34.94 0.00 L 44.26 0.00 C 62.53 1.78 78.08 17.31 80.00 35.55 L 80.00 44.27 C 78.21 62.53 62.68 78.08 44.46 80.00 L 35.69 80.00 C 17.45 78.18 1.92 62.68 0.00 44.46 L 0.00 35.33 C 1.24 26.71 4.96 18.35 11.16 12.16 C 17.38 5.48 26.01 1.46 34.94 0.00 M 17.06 16.09 C 17.06 23.18 17.11 30.28 17.03 37.38 C 24.16 37.44 31.29 37.40 38.42 37.40 C 38.39 30.29 38.42 23.18 38.40 16.07 C 31.29 16.08 24.18 16.05 17.06 16.09 M 42.63 16.07 C 42.60 23.18 42.63 30.29 42.61 37.40 C 49.73 37.39 56.85 37.44 63.97 37.38 C 63.88 30.28 63.94 23.18 63.94 16.08 C 56.84 16.06 49.73 16.08 42.63 16.07 M 17.04 41.64 C 17.11 48.73 17.06 55.82 17.07 62.91 C 24.18 62.95 31.29 62.92 38.40 62.93 C 38.42 55.82 38.39 48.72 38.42 41.62 C 31.29 41.63 24.16 41.59 17.04 41.64 M 42.61 41.62 C 42.64 48.73 42.60 55.83 42.63 62.94 C 44.04 62.92 45.46 62.91 46.88 62.92 C 46.88 58.70 46.87 54.48 46.87 50.27 C 48.32 50.26 49.76 50.25 51.21 50.23 C 51.19 51.64 51.18 53.05 51.17 54.46 C 55.45 54.50 59.74 54.51 64.03 54.45 C 63.86 50.18 63.92 45.91 63.96 41.63 C 62.54 41.64 61.11 41.63 59.68 41.61 C 59.70 43.01 59.72 44.41 59.75 45.82 C 58.32 45.82 56.90 45.82 55.48 45.84 C 55.50 44.43 55.50 43.03 55.51 41.63 C 51.21 41.61 46.91 41.61 42.61 41.62 M 51.18 58.72 C 51.19 60.12 51.20 61.52 51.21 62.91 C 52.63 62.92 54.06 62.92 55.48 62.94 C 55.48 61.52 55.49 60.11 55.51 58.69 C 54.06 58.71 52.62 58.72 51.18 58.72 M 59.69 58.70 C 59.71 60.11 59.71 61.52 59.71 62.93 C 61.12 62.92 62.52 62.92 63.93 62.92 C 63.93 61.52 63.94 60.11 63.96 58.71 C 62.54 58.71 61.11 58.71 59.69 58.70 Z" />
<path fill="#3165d4" opacity="1.00" d=" M 21.29 20.32 C 25.57 20.31 29.85 20.31 34.13 20.33 C 34.18 24.60 34.16 28.88 34.14 33.16 C 29.87 33.14 25.60 33.18 21.33 33.12 C 21.31 28.86 21.34 24.59 21.29 20.32 M 25.51 24.53 C 25.53 25.96 25.54 27.39 25.55 28.83 C 26.97 28.81 28.40 28.80 29.82 28.80 C 29.83 27.39 29.85 25.97 29.87 24.55 C 28.41 24.56 26.96 24.55 25.51 24.53 Z" />
<path fill="#3165d4" opacity="1.00" d=" M 46.91 20.33 C 51.19 20.31 55.46 20.31 59.74 20.32 C 59.69 24.60 59.72 28.88 59.69 33.16 C 55.41 33.04 51.11 33.40 46.84 32.93 C 46.91 28.73 46.82 24.53 46.91 20.33 M 51.16 24.55 C 51.18 25.97 51.20 27.39 51.20 28.81 C 52.63 28.81 54.06 28.81 55.49 28.82 C 55.49 27.39 55.50 25.96 55.52 24.53 C 54.06 24.54 52.61 24.55 51.16 24.55 Z" />
<path fill="#3165d4" opacity="1.00" d=" M 21.33 45.90 C 25.61 45.92 29.91 45.67 34.18 46.05 C 34.11 50.26 34.22 54.47 34.10 58.68 C 29.83 58.67 25.56 58.69 21.29 58.67 C 21.34 54.41 21.31 50.15 21.33 45.90 M 25.54 50.19 C 25.54 51.63 25.53 53.07 25.51 54.50 C 26.97 54.48 28.42 54.46 29.87 54.46 C 29.85 53.04 29.83 51.63 29.82 50.21 C 28.39 50.21 26.97 50.20 25.54 50.19 Z" />
</g>
<g id="#ffffffff">
<path fill="#ffffff" opacity="1.00" d=" M 17.06 16.09 C 24.18 16.05 31.29 16.08 38.40 16.07 C 38.42 23.18 38.39 30.29 38.42 37.40 C 31.29 37.40 24.16 37.44 17.03 37.38 C 17.11 30.28 17.06 23.18 17.06 16.09 M 21.29 20.32 C 21.34 24.59 21.31 28.86 21.33 33.12 C 25.60 33.18 29.87 33.14 34.14 33.16 C 34.16 28.88 34.18 24.60 34.13 20.33 C 29.85 20.31 25.57 20.31 21.29 20.32 Z" />
<path fill="#ffffff" opacity="1.00" d=" M 42.63 16.07 C 49.73 16.08 56.84 16.06 63.94 16.08 C 63.94 23.18 63.88 30.28 63.97 37.38 C 56.85 37.44 49.73 37.39 42.61 37.40 C 42.63 30.29 42.60 23.18 42.63 16.07 M 46.91 20.33 C 46.82 24.53 46.91 28.73 46.84 32.93 C 51.11 33.40 55.41 33.04 59.69 33.16 C 59.72 28.88 59.69 24.60 59.74 20.32 C 55.46 20.31 51.19 20.31 46.91 20.33 Z" />
<path fill="#ffffff" opacity="1.00" d=" M 25.51 24.53 C 26.96 24.55 28.41 24.56 29.87 24.55 C 29.85 25.97 29.83 27.39 29.82 28.80 C 28.40 28.80 26.97 28.81 25.55 28.83 C 25.54 27.39 25.53 25.96 25.51 24.53 Z" />
<path fill="#ffffff" opacity="1.00" d=" M 51.16 24.55 C 52.61 24.55 54.06 24.54 55.52 24.53 C 55.50 25.96 55.49 27.39 55.49 28.82 C 54.06 28.81 52.63 28.81 51.20 28.81 C 51.20 27.39 51.18 25.97 51.16 24.55 Z" />
<path fill="#ffffff" opacity="1.00" d=" M 17.04 41.64 C 24.16 41.59 31.29 41.63 38.42 41.62 C 38.39 48.72 38.42 55.82 38.40 62.93 C 31.29 62.92 24.18 62.95 17.07 62.91 C 17.06 55.82 17.11 48.73 17.04 41.64 M 21.33 45.90 C 21.31 50.15 21.34 54.41 21.29 58.67 C 25.56 58.69 29.83 58.67 34.10 58.68 C 34.22 54.47 34.11 50.26 34.18 46.05 C 29.91 45.67 25.61 45.92 21.33 45.90 Z" />
<path fill="#ffffff" opacity="1.00" d=" M 42.61 41.62 C 46.91 41.61 51.21 41.61 55.51 41.63 C 55.50 43.03 55.50 44.43 55.48 45.84 C 56.90 45.82 58.32 45.82 59.75 45.82 C 59.72 44.41 59.70 43.01 59.68 41.61 C 61.11 41.63 62.54 41.64 63.96 41.63 C 63.92 45.91 63.86 50.18 64.03 54.45 C 59.74 54.51 55.45 54.50 51.17 54.46 C 51.18 53.05 51.19 51.64 51.21 50.23 C 49.76 50.25 48.32 50.26 46.87 50.27 C 46.87 54.48 46.88 58.70 46.88 62.92 C 45.46 62.91 44.04 62.92 42.63 62.94 C 42.60 55.83 42.64 48.73 42.61 41.62 Z" />
<path fill="#ffffff" opacity="1.00" d=" M 25.54 50.19 C 26.97 50.20 28.39 50.21 29.82 50.21 C 29.83 51.63 29.85 53.04 29.87 54.46 C 28.42 54.46 26.97 54.48 25.51 54.50 C 25.53 53.07 25.54 51.63 25.54 50.19 Z" />
<path fill="#ffffff" opacity="1.00" d=" M 51.18 58.72 C 52.62 58.72 54.06 58.71 55.51 58.69 C 55.49 60.11 55.48 61.52 55.48 62.94 C 54.06 62.92 52.63 62.92 51.21 62.91 C 51.20 61.52 51.19 60.12 51.18 58.72 Z" />
<path fill="#ffffff" opacity="1.00" d=" M 59.69 58.70 C 61.11 58.71 62.54 58.71 63.96 58.71 C 63.94 60.11 63.93 61.52 63.93 62.92 C 62.52 62.92 61.12 62.92 59.71 62.93 C 59.71 61.52 59.71 60.11 59.69 58.70 Z" />
</g>
</svg>
