<?xml version="1.0" encoding="UTF-8" ?>
<!DOCTYPE svg PUBLIC "-//W3C//DTD SVG 1.1//EN" "http://www.w3.org/Graphics/SVG/1.1/DTD/svg11.dtd">
<svg width="401" height="401" viewBox="0 0 401 401" fill="none" xmlns="http://www.w3.org/2000/svg">
<path fill-rule="evenodd" clip-rule="evenodd" d="M355.93 155.458C380.787 155.458 400.968 175.639 400.968 200.496C400.968 225.353 380.787 245.534 355.93 245.534C331.073 245.534 310.892 225.353 310.892 200.496C310.892 175.639 331.073 155.458 355.93 155.458ZM341.837 200.996C341.837 209.575 347.892 215.198 355.533 215.198C361.444 215.198 364.688 211.233 365.554 209.719C366.419 212.747 369.014 215.198 373.411 215.198C380.404 215.198 385.018 209.503 385.018 197.969C385.018 183.263 374.276 170.936 356.398 170.936C339.169 170.936 326.843 183.839 326.843 200.708C326.843 217.793 339.818 230.12 355.894 230.12C362.67 230.12 368.51 228.029 371.537 225.939L369.374 222.407C365.554 224.569 360.796 225.722 355.894 225.722C341.693 225.722 331.817 215.053 331.817 200.636C331.817 186.723 341.62 175.261 356.326 175.261C371.104 175.261 380.188 184.848 380.188 198.041C380.188 206.98 377.376 210.872 373.772 210.872C370.6 210.872 369.374 208.854 369.374 205.61V187.227H364.545V190.976C363.679 189.823 360.651 186.795 355.389 186.795C347.892 186.795 341.837 192.49 341.837 200.996ZM347.027 200.996C347.027 195.013 350.92 191.337 355.822 191.337C361.228 191.337 364.761 195.229 364.761 200.852C364.761 207.412 360.651 210.729 355.894 210.729C350.847 210.729 347.027 206.907 347.027 200.996Z" fill="#3165D4"/>
<path d="M27.0266 224.895L45.795 176.097H37.9122L22.9913 216.543L7.97659 176.097H0L18.8622 224.895H27.0266Z" fill="#3165D4"/>
<path d="M47.9691 200.674C47.9691 214.974 57.711 224.895 71.8317 224.895C82.378 224.895 88.4551 219.175 91.0471 214.796L86.3995 211.399C84.1654 214.527 79.786 218.639 71.9214 218.639C62.2688 218.639 55.2979 212.383 55.2082 202.015H92.4772C92.5664 201.122 92.5664 200.138 92.5664 199.87C92.5664 185.928 84.1654 176.097 70.4913 176.097C58.1576 176.097 47.9692 185.838 47.9692 200.674H47.9691ZM55.5661 196.742C56.102 187.983 62.8944 182.174 70.4913 182.174C78.1775 182.174 84.8802 187.09 85.3273 196.742H55.5661Z" fill="#3165D4"/>
<path d="M120.87 174.768C113.44 174.768 107.986 179.283 106.293 184.173V175.991H98.9573V224.895H106.387V201.477C106.387 191.038 109.679 182.198 120.87 182.198V174.768Z" fill="#3165D4"/>
<path d="M144.936 226.177C151.623 226.177 157.179 222.316 159.439 217.89V224.953H166.878V175.984H159.345V205.742C159.345 213.841 154.165 219.397 146.632 219.397C140.039 219.397 135.048 214.688 135.048 206.872V175.984H127.609V206.59C127.609 217.702 133.542 226.177 144.936 226.177Z" fill="#3165D4"/>
<path d="M171.897 214.954C173.953 219.334 178.332 224.874 188.074 224.874C197.101 224.874 203.893 219.334 203.893 211.111C203.893 194.934 180.477 198.867 180.477 188.41C180.477 184.388 183.874 181.975 188.163 181.975C194.151 181.975 196.564 185.461 197.815 187.963L202.999 185.014C201.748 181.528 197.28 176.077 188.61 176.077C180.209 176.077 173.685 180.813 173.685 188.678C173.685 204.408 197.011 200.744 197.011 211.468C197.011 216.205 193.079 218.886 188.431 218.886C182.086 218.886 178.779 215.401 176.813 211.737L171.897 214.954Z" fill="#3165D4"/>
<path d="M209.686 221.125C209.686 224.034 212.126 226.381 215.035 226.381C217.944 226.381 220.29 224.034 220.29 221.125C220.29 218.216 217.944 215.87 215.035 215.87C212.126 215.87 209.686 218.216 209.686 221.125Z" fill="#3165D4"/>
<path d="M227.126 225.161H234.539V176.363H227.126V225.161ZM225.718 163.788C225.718 166.697 227.97 168.949 230.786 168.949C233.695 168.949 235.947 166.697 235.947 163.788C235.947 160.972 233.695 158.72 230.786 158.72C227.97 158.72 225.718 160.972 225.718 163.788Z" fill="#3165D4"/>
<path d="M289.235 157.313H281.727V184.245C280.32 181.712 274.689 175.143 264.554 175.143C250.666 175.143 241.281 185.84 241.281 200.855C241.281 215.777 251.135 226.381 265.117 226.381C275.722 226.381 280.789 219.249 282.009 217.465V225.16H289.235V157.313ZM282.009 200.949C282.009 211.178 275.722 219.717 265.493 219.717C256.108 219.717 248.883 212.304 248.883 200.949C248.883 189.782 255.827 181.899 265.399 181.899C274.502 181.899 282.009 188.843 282.009 200.949Z" fill="#3165D4"/>
</svg>