<?xml version="1.0" encoding="UTF-8" ?>
<!DOCTYPE svg PUBLIC "-//W3C//DTD SVG 1.1//EN" "http://www.w3.org/Graphics/SVG/1.1/DTD/svg11.dtd">
<svg width="1280pt" height="464pt" viewBox="0 0 1280 464" version="1.1" xmlns="http://www.w3.org/2000/svg">
<g id="#ffffffff">
<path fill="#ffffff" opacity="1.00" d=" M 87.23 113.20 C 92.98 108.23 100.09 103.67 108.03 104.40 C 114.53 105.02 118.68 110.90 122.48 115.57 C 139.00 138.48 151.93 163.72 164.80 188.79 C 181.51 165.77 198.49 142.81 217.91 121.96 C 223.51 116.15 229.20 110.16 236.29 106.14 C 242.18 102.87 249.16 105.49 254.62 108.41 C 271.12 117.80 283.55 134.90 285.70 153.96 C 285.88 157.40 286.47 161.31 284.23 164.26 C 272.64 182.00 259.44 198.63 246.67 215.54 C 215.51 256.33 183.64 296.57 152.12 337.09 C 151.05 338.58 149.87 340.01 148.40 341.12 C 143.56 333.69 139.09 326.04 134.82 318.29 C 115.70 283.95 97.45 249.12 80.34 213.74 C 74.04 200.19 67.40 186.74 62.60 172.57 C 58.60 160.51 60.38 146.82 66.89 135.97 C 72.13 127.16 79.49 119.84 87.23 113.20 Z" />
</g>
<g id="#2f65d0ff">
<path fill="#2f65d0" opacity="1.00" d=" M 154.45 50.69 C 187.82 47.09 222.25 53.28 252.05 68.79 C 280.44 83.22 304.56 105.78 321.08 132.97 C 339.87 163.59 348.57 200.23 345.70 236.03 C 342.11 287.93 313.28 337.34 269.97 366.14 C 243.30 384.43 211.27 394.59 179.00 395.77 C 143.42 396.94 107.46 386.94 77.84 367.14 C 34.65 338.95 5.24 290.45 0.94 238.98 C 0.96 228.34 1.21 217.69 0.81 207.05 C 3.43 176.90 14.34 147.55 31.88 122.90 C 59.95 82.80 105.76 55.77 154.45 50.69 M 87.23 113.20 C 79.49 119.84 72.13 127.16 66.89 135.97 C 60.38 146.82 58.60 160.51 62.60 172.57 C 67.40 186.74 74.04 200.19 80.34 213.74 C 97.45 249.12 115.70 283.95 134.82 318.29 C 139.09 326.04 143.56 333.69 148.40 341.12 C 149.87 340.01 151.05 338.58 152.12 337.09 C 183.64 296.57 215.51 256.33 246.67 215.54 C 259.44 198.63 272.64 182.00 284.23 164.26 C 286.47 161.31 285.88 157.40 285.70 153.96 C 283.55 134.90 271.12 117.80 254.62 108.41 C 249.16 105.49 242.18 102.87 236.29 106.14 C 229.20 110.16 223.51 116.15 217.91 121.96 C 198.49 142.81 181.51 165.77 164.80 188.79 C 151.93 163.72 139.00 138.48 122.48 115.57 C 118.68 110.90 114.53 105.02 108.03 104.40 C 100.09 103.67 92.98 108.23 87.23 113.20 Z" />
<path fill="#2f65d0" opacity="1.00" d=" M 853.59 138.61 C 864.91 128.88 879.90 123.70 894.79 123.93 C 894.62 133.44 894.83 142.94 894.67 152.45 C 881.57 152.22 867.82 155.94 858.24 165.25 C 847.11 175.76 842.31 191.14 840.32 205.92 C 838.24 221.19 839.12 236.64 838.95 252.00 C 838.86 273.54 839.08 295.09 838.84 316.63 C 829.36 316.49 819.87 316.58 810.38 316.58 C 810.49 253.90 810.21 191.21 810.53 128.53 C 819.87 128.68 829.22 128.58 838.57 128.58 C 838.64 138.75 838.63 148.93 838.57 159.10 C 842.26 151.42 846.96 144.10 853.59 138.61 Z" />
<path fill="#2f65d0" opacity="1.00" d=" M 429.92 128.94 C 440.17 129.00 450.43 128.64 460.67 129.15 C 479.66 180.88 498.89 232.52 518.18 284.14 C 531.83 248.05 544.95 211.74 558.41 175.57 C 564.05 160.10 569.93 144.71 575.44 129.19 C 585.57 128.63 595.75 128.92 605.90 129.04 C 581.83 191.56 557.80 254.10 533.73 316.63 C 523.28 316.50 512.84 316.58 502.40 316.58 C 486.70 276.21 471.11 235.80 455.48 195.40 C 447.00 173.23 438.20 151.18 429.92 128.94 Z" />
<path fill="#2f65d0" opacity="1.00" d=" M 655.82 141.77 C 669.50 133.12 685.81 128.67 701.99 129.08 C 721.67 128.92 741.78 135.22 756.70 148.31 C 769.05 158.94 777.42 173.66 781.75 189.27 C 785.36 202.04 786.27 215.43 785.57 228.64 C 737.75 228.77 689.93 228.45 642.12 228.80 C 642.27 244.00 646.56 259.65 656.62 271.34 C 667.83 284.99 685.60 291.90 702.96 292.44 C 718.20 293.20 733.94 289.44 746.43 280.46 C 752.44 276.16 757.73 270.83 761.99 264.79 C 768.17 268.89 774.11 273.36 780.00 277.86 C 771.16 292.27 757.62 303.61 741.91 309.84 C 724.93 316.74 705.99 318.11 687.99 315.04 C 668.91 312.00 650.68 302.71 637.65 288.35 C 625.49 275.06 618.08 257.84 615.52 240.10 C 612.62 220.16 614.78 199.32 622.76 180.75 C 629.60 164.87 641.10 150.93 655.82 141.77 M 659.89 169.88 C 649.91 180.14 644.40 194.19 643.50 208.38 C 681.68 208.33 719.85 208.45 758.02 208.33 C 757.25 196.01 753.95 183.47 746.37 173.54 C 736.62 160.36 720.29 152.97 704.10 152.40 C 687.76 151.42 671.15 158.00 659.89 169.88 Z" />
<path fill="#2f65d0" opacity="1.00" d=" M 920.62 128.61 C 930.15 128.61 939.67 128.55 949.20 128.64 C 949.19 167.78 949.20 206.91 949.20 246.05 C 949.11 257.63 951.75 269.68 958.97 278.99 C 965.23 287.55 975.10 293.10 985.52 294.72 C 999.86 297.08 1015.61 293.50 1026.43 283.46 C 1037.35 273.54 1042.64 258.56 1042.63 244.02 C 1042.73 205.55 1042.61 167.08 1042.69 128.62 C 1052.28 128.52 1061.87 128.73 1071.46 128.50 C 1071.93 159.66 1071.52 190.85 1071.66 222.02 C 1071.68 253.61 1071.62 285.20 1071.69 316.79 C 1062.14 316.86 1052.60 316.79 1043.06 316.83 C 1042.95 307.97 1043.22 299.11 1042.90 290.26 C 1035.78 302.54 1024.32 312.02 1011.10 317.08 C 997.11 322.52 981.35 322.74 966.94 318.87 C 950.67 314.42 936.76 302.62 929.47 287.44 C 921.64 271.89 920.21 254.12 920.60 236.98 C 920.61 200.86 920.56 164.74 920.62 128.61 Z" />
<path fill="#2f65d0" opacity="1.00" d=" M 1109.43 146.49 C 1119.71 135.24 1135.08 129.90 1150.01 129.07 C 1161.58 128.23 1173.44 130.02 1183.92 135.12 C 1195.81 140.80 1205.80 150.81 1210.59 163.17 C 1204.02 166.98 1197.34 170.60 1190.81 174.50 C 1186.71 167.17 1181.54 160.04 1173.89 156.12 C 1164.45 151.36 1153.14 150.28 1142.95 152.98 C 1135.22 154.94 1128.08 160.41 1125.39 168.08 C 1122.63 175.85 1123.90 185.29 1129.74 191.36 C 1137.23 199.43 1147.90 203.22 1157.86 207.27 C 1169.88 212.17 1182.36 216.46 1193.11 223.91 C 1200.65 228.96 1206.96 236.01 1210.50 244.42 C 1214.29 253.75 1214.70 264.19 1212.98 274.03 C 1210.58 286.67 1202.88 298.11 1192.21 305.25 C 1177.98 315.00 1159.90 317.92 1142.99 315.91 C 1131.87 314.67 1120.85 310.96 1111.81 304.26 C 1102.66 297.72 1095.66 288.44 1091.01 278.26 C 1097.31 274.21 1103.50 270.01 1109.84 266.02 C 1113.86 273.09 1118.74 279.92 1125.44 284.69 C 1135.84 292.19 1149.35 294.85 1161.92 292.81 C 1169.29 291.68 1176.47 288.25 1181.36 282.52 C 1187.48 275.38 1189.20 264.84 1185.88 256.08 C 1183.24 249.21 1177.23 244.42 1171.05 240.85 C 1151.99 230.23 1129.36 226.05 1112.62 211.40 C 1094.01 195.57 1092.95 164.19 1109.43 146.49 Z" />
</g>
</svg>
