<?xml version="1.0" encoding="UTF-8" standalone="no"?>
<!DOCTYPE svg PUBLIC "-//W3C//DTD SVG 1.1//EN" "http://www.w3.org/Graphics/SVG/1.1/DTD/svg11.dtd">
<svg width="100%" height="100%" viewBox="0 0 1877 365" version="1.1" xmlns="http://www.w3.org/2000/svg" xmlns:xlink="http://www.w3.org/1999/xlink" xml:space="preserve" xmlns:serif="http://www.serif.com/" style="fill-rule:evenodd;clip-rule:evenodd;stroke-linejoin:round;stroke-miterlimit:2;">
    <g id="veruspay-logo" transform="matrix(0.733203,0,0,0.253472,0,0)">
        <rect x="0" y="0" width="2560" height="1440" style="fill:none;"/>
        <clipPath id="_clip1">
            <rect x="0" y="0" width="2560" height="1440"/>
        </clipPath>
        <g clip-path="url(#_clip1)">
            <g transform="matrix(0.239057,0,0,0.691198,0,0)">
                <g>
                    <path d="M3211.03,1606.38L3022.09,1606.38L2585.57,476.95L2770.16,476.95L3117.64,1413.08L3462.95,476.95L3645.38,476.95L3211.03,1606.38ZM3695.7,1045.8C3695.7,702.419 3931.49,476.946 4216.92,476.946C4533.37,476.946 4727.8,704.488 4727.8,1027.18C4727.8,1033.39 4727.8,1056.14 4725.73,1076.83L3863.23,1076.83C3865.3,1316.78 4026.63,1461.58 4250.01,1461.58C4432.03,1461.58 4533.37,1366.43 4585.08,1294.03L4692.63,1372.63C4632.65,1473.99 4492.01,1606.38 4247.94,1606.38C3921.15,1606.38 3695.7,1376.77 3695.7,1045.8ZM3871.51,954.783L4560.26,954.783C4549.92,731.379 4394.8,617.608 4216.92,617.608C4041.11,617.608 3883.92,752.064 3871.51,954.783ZM5382.8,446.199L5382.8,618.155C5123.8,618.155 5047.62,822.765 5047.62,1064.38L5047.62,1606.38L4875.69,1606.38L4875.69,474.498L5045.45,474.498L5045.45,663.871C5084.62,550.682 5210.86,446.199 5382.8,446.199ZM5939.77,1636.06C5676.07,1636.06 5538.77,1439.9 5538.77,1182.71L5538.77,474.335L5710.94,474.335L5710.94,1189.25C5710.94,1370.15 5826.44,1479.13 5979,1479.13C6153.35,1479.13 6273.21,1350.54 6273.21,1163.09L6273.21,474.335L6447.56,474.335L6447.56,1607.73L6275.39,1607.73L6275.39,1444.26C6223.09,1546.7 6094.51,1636.06 5939.77,1636.06ZM6563.7,1376.3L6677.46,1301.83C6722.96,1386.64 6799.49,1467.32 6946.34,1467.32C7053.89,1467.32 7144.9,1405.26 7144.9,1295.63C7144.9,1047.4 6605.07,1132.21 6605.07,768.143C6605.07,586.11 6756.06,476.477 6950.48,476.477C7151.11,476.477 7254.52,602.659 7283.48,683.333L7163.52,751.595C7134.56,693.675 7078.71,613.002 6940.14,613.002C6840.86,613.002 6762.26,668.853 6762.26,761.938C6762.26,1003.96 7304.16,912.943 7304.16,1287.35C7304.16,1477.66 7146.97,1605.91 6938.07,1605.91C6712.62,1605.91 6611.27,1477.66 6563.7,1376.3ZM7469.47,1999.54L7469.47,478.468L7632.94,478.468L7632.94,654.887C7660.9,614.009 7779.2,450.499 8022.26,450.499C8340.59,450.499 8568.59,693.613 8568.59,1035.69C8568.59,1382.08 8351.35,1625.19 8035.16,1625.19C7800.71,1625.19 7673.81,1474.59 7639.39,1416.5L7639.39,1999.54L7469.47,1999.54ZM7632.94,1035.69C7632.94,1311.08 7805.02,1470.29 8015.81,1470.29C8235.2,1470.29 8394.37,1291.72 8394.37,1035.69C8394.37,773.216 8226.59,605.403 8011.5,605.403C7779.2,605.403 7632.94,801.185 7632.94,1035.69ZM8661.08,1252.99C8661.08,1040 8839.61,885.092 9091.26,885.092C9233.23,885.092 9340.77,938.878 9385.94,986.21L9385.94,848.517C9385.94,691.461 9280.55,601.1 9114.93,601.1C8977.27,601.1 8865.42,650.584 8785.84,697.916L8717.01,573.132C8792.29,525.8 8940.7,450.499 9129.98,450.499C9435.41,450.499 9555.86,620.463 9555.86,859.274L9555.86,1597.22L9409.6,1597.22L9390.24,1502.56C9332.17,1569.25 9237.53,1625.19 9086.96,1625.19C8841.76,1625.19 8661.08,1470.29 8661.08,1252.99ZM8833.16,1250.84C8833.16,1379.92 8942.85,1483.19 9114.93,1483.19C9278.4,1483.19 9392.39,1386.38 9392.39,1250.84C9392.39,1110.99 9280.55,1020.63 9112.77,1020.63C8942.85,1020.63 8833.16,1119.6 8833.16,1250.84ZM10108.6,1982.33L9938.73,1982.33L10100,1586.46L9644.05,478.468L9829.03,478.468L10183.9,1377.77L10528.1,478.468L10708.8,478.468L10108.6,1982.33Z" style="fill:rgb(49,101,212);"/>
                </g>
                <ellipse cx="1059.31" cy="1041.67" rx="892.64" ry="875.973" style="fill:white;"/>
                <path d="M1041.55,0C1616.4,0 2083.1,466.755 2083.1,1041.67C2083.1,1616.58 1616.4,2083.34 1041.55,2083.34C466.703,2083.34 0,1616.59 0,1041.67C0,466.758 466.703,0 1041.55,0ZM530.909,376.797C570.243,343.113 625.431,315.444 673.409,334.928C759.682,369.963 991.475,837.329 991.475,837.329C991.475,837.329 1315.7,376.654 1432.15,334.645C1471.88,320.314 1526.34,345.521 1567.88,376.579C1713.67,485.586 1728.73,637.666 1716.13,679.856C1700.28,732.898 894.928,1754.87 894.928,1754.87C870.843,1745.04 393.661,859.275 367.802,707.716C343.09,562.878 427.169,464.467 530.909,376.797Z" style="fill:rgb(49,101,212);"/>
            </g>
        </g>
    </g>
</svg>
