<svg width="20" height="20" viewBox="0 0 20 20" fill="none" xmlns="http://www.w3.org/2000/svg">
<path fill-rule="evenodd" clip-rule="evenodd" d="M10 0C15.5191 0 20 4.48084 20 9.99996C20 15.5191 15.5191 19.9999 10 19.9999C4.48088 19.9999 0 15.5191 0 9.99996C0 4.48084 4.48088 0 10 0ZM6.87087 10.111C6.87087 12.0157 8.21528 13.2642 9.91185 13.2642C11.2243 13.2642 11.9446 12.3839 12.1369 12.0478C12.3289 12.72 12.9051 13.2642 13.8814 13.2642C15.4341 13.2642 16.4585 11.9998 16.4585 9.43881C16.4585 6.17352 14.0735 3.43657 10.1039 3.43657C6.27848 3.43657 3.54167 6.30164 3.54167 10.047C3.54167 13.8404 6.42258 16.5775 9.99201 16.5775C11.4965 16.5775 12.7932 16.1133 13.4653 15.6492L12.985 14.8649C12.1369 15.345 11.0804 15.6011 9.99201 15.6011C6.8389 15.6011 4.64607 13.2322 4.64607 10.031C4.64607 6.94192 6.82268 4.39693 10.0879 4.39693C13.3692 4.39693 15.3861 6.52567 15.3861 9.45484C15.3861 11.4396 14.7618 12.3039 13.9615 12.3039C13.2573 12.3039 12.985 11.8557 12.985 11.1355V7.05387H11.9128V7.88625C11.7206 7.63016 11.0482 6.95782 9.87988 6.95782C8.21529 6.95782 6.87087 8.22235 6.87087 10.111ZM8.02323 10.111C8.02323 8.7825 8.88761 7.96628 9.97602 7.96628C11.1763 7.96628 11.9608 8.83059 11.9608 10.0791C11.9608 11.5356 11.0482 12.2719 9.99201 12.2719C8.8714 12.2719 8.02323 11.4235 8.02323 10.111Z" fill="#3165D4"/>
</svg>
