<?xml version="1.0" encoding="UTF-8" ?>
<!DOCTYPE svg PUBLIC "-//W3C//DTD SVG 1.1//EN" "http://www.w3.org/Graphics/SVG/1.1/DTD/svg11.dtd">
<svg width="476pt" height="458pt" viewBox="48.278194427490234 21.256202697753906 398.0059509277344 398.0666809082031" version="1.1" xmlns="http://www.w3.org/2000/svg">
<g id="#0889cfff">
</g>
<g id="#fefffeff">
<path fill="#fefffe" opacity="1.00" d=" M 231.45 21.72 C 244.60 21.12 257.87 20.83 270.95 22.59 C 314.64 28.01 356.71 47.86 387.61 79.39 C 423.20 113.92 444.18 162.58 446.11 212.01 C 447.92 254.72 435.58 298.08 411.06 333.18 C 378.07 381.85 322.27 414.30 263.59 418.52 C 258.05 418.54 252.55 419.48 247.00 419.30 C 243.31 419.26 239.65 418.68 235.96 418.67 C 224.85 418.70 213.91 416.52 203.08 414.31 C 188.27 410.80 173.76 405.86 160.11 399.10 C 155.99 396.52 152.17 400.66 148.51 402.17 C 131.76 410.24 113.79 416.15 95.28 418.34 C 86.65 418.57 77.79 420.59 69.37 417.68 C 59.19 414.36 50.38 405.55 48.71 394.74 C 47.87 388.61 48.11 382.18 50.74 376.48 C 52.85 370.84 57.56 366.89 61.22 362.30 C 68.59 352.65 74.17 341.65 78.01 330.15 C 78.93 327.92 78.66 325.48 77.23 323.53 C 63.24 300.65 54.04 274.89 50.23 248.36 C 48.07 235.00 48.18 221.45 48.51 207.97 C 50.71 176.78 59.93 146.02 75.87 119.07 C 103.50 72.16 151.01 37.18 204.36 25.82 C 213.27 23.76 222.37 22.70 231.45 21.72 M 142.94 140.97 C 134.32 152.37 127.58 165.16 122.89 178.66 C 111.13 213.88 115.07 254.12 134.01 286.13 C 136.48 290.48 139.94 294.36 141.36 299.24 C 141.90 303.32 141.92 307.51 141.22 311.57 C 138.02 325.42 132.82 338.75 126.26 351.35 C 135.46 349.30 143.82 344.68 151.99 340.14 C 157.67 337.07 162.40 332.01 168.95 330.76 C 173.66 329.86 178.36 331.56 182.44 333.80 C 198.34 342.90 216.15 348.73 234.40 350.45 C 243.07 350.88 251.76 350.81 260.43 350.44 C 273.01 349.19 285.28 345.71 297.05 341.21 C 323.21 330.46 345.60 310.90 359.99 286.59 C 361.05 285.16 360.38 283.41 360.35 281.81 C 361.72 281.53 363.31 281.29 363.80 279.72 C 374.60 258.30 379.79 233.90 377.61 209.97 C 376.56 190.90 370.60 172.23 361.17 155.67 C 353.94 142.24 343.61 130.78 332.39 120.58 C 318.53 108.82 302.30 99.77 284.83 94.65 C 276.93 92.22 268.73 90.93 260.57 89.71 C 253.37 89.16 246.14 89.36 238.93 89.43 C 201.51 91.69 165.34 110.80 142.94 140.97 Z" />
<path fill="#fefffe" opacity="1.00" d=" M 247.07 145.30 C 249.09 148.04 250.55 151.13 252.05 154.17 C 257.60 165.34 263.28 176.45 268.48 187.79 C 269.66 190.11 270.68 192.62 272.59 194.46 C 275.37 195.64 278.47 195.38 281.39 195.97 C 296.51 198.55 311.78 200.34 326.91 202.77 C 326.54 203.70 326.13 204.63 325.39 205.33 C 314.18 215.44 303.80 226.45 292.91 236.90 C 291.03 238.83 288.85 240.56 287.53 242.95 C 289.88 255.94 292.05 268.99 294.50 281.97 C 295.21 286.95 296.44 291.88 296.63 296.92 C 291.79 295.72 287.68 292.77 283.30 290.53 C 272.72 285.18 262.41 279.33 251.89 273.85 C 249.96 272.89 247.75 271.57 245.55 272.51 C 238.76 275.49 232.62 279.76 225.87 282.83 C 216.27 287.38 207.20 292.97 197.59 297.51 C 199.82 282.83 202.53 268.22 205.04 253.58 C 205.62 249.62 207.26 245.57 206.34 241.57 C 194.36 228.90 181.22 217.36 168.97 204.94 C 168.37 204.28 167.80 203.60 167.29 202.87 C 185.03 200.05 202.83 197.51 220.64 195.14 C 223.06 194.70 223.66 191.81 224.83 190.02 C 229.80 179.15 235.35 168.56 240.64 157.85 C 242.75 153.66 244.52 149.27 247.07 145.30 Z" />
</g>
</svg>
