<?xml version="1.0" encoding="UTF-8" ?>
<!DOCTYPE svg PUBLIC "-//W3C//DTD SVG 1.1//EN" "http://www.w3.org/Graphics/SVG/1.1/DTD/svg11.dtd">
<svg width="60pt" height="60pt" viewBox="0 0 60 60" version="1.1" xmlns="http://www.w3.org/2000/svg">
<g id="#25aae1ff">
<path fill="#25aae1" opacity="1.00" d=" M 21.33 1.86 C 30.15 -1.07 40.26 0.76 47.69 6.29 C 56.55 12.69 61.23 24.34 59.22 35.10 C 57.77 43.69 52.26 51.53 44.62 55.73 C 36.59 60.36 26.29 60.80 17.91 56.85 C 16.49 55.93 15.05 57.39 13.70 57.75 C 10.66 59.11 7.25 59.78 3.93 59.38 C 1.63 58.66 -0.11 56.14 0.70 53.71 C 2.33 51.21 4.40 48.93 5.11 45.95 C 1.39 39.39 -0.58 31.56 1.21 24.11 C 3.26 13.79 11.27 4.92 21.33 1.86 M 11.07 26.24 C 9.52 31.71 11.84 37.22 14.43 41.97 C 14.59 44.72 13.02 47.11 12.46 49.73 C 14.72 48.81 16.58 46.90 19.01 46.49 C 22.35 47.40 25.38 49.63 29.02 49.44 C 39.70 50.42 50.02 40.79 49.52 30.02 C 49.94 20.25 41.58 11.56 32.04 10.58 C 22.43 9.54 12.80 16.71 11.07 26.24 Z" />
<path fill="#25aae1" opacity="1.00" d=" M 26.38 26.22 C 27.76 23.78 28.94 21.24 30.10 18.69 C 31.31 21.20 32.55 23.70 33.82 26.17 C 36.57 26.61 39.31 27.11 42.05 27.61 C 40.03 29.41 38.10 31.29 36.14 33.15 C 36.54 35.95 37.17 38.72 37.46 41.53 C 35.04 40.14 32.53 38.90 30.09 37.53 C 27.77 39.25 24.76 39.85 22.68 41.89 C 23.20 38.94 23.82 36.00 23.95 32.99 C 22.07 31.18 20.21 29.34 18.31 27.54 C 21.00 27.11 23.69 26.63 26.38 26.22 Z" />
</g>
</svg>
