<?xml version="1.0" encoding="UTF-8" ?>
<!DOCTYPE svg PUBLIC "-//W3C//DTD SVG 1.1//EN" "http://www.w3.org/Graphics/SVG/1.1/DTD/svg11.dtd">
<svg width="932pt" height="878pt" viewBox="134.06239318847656 110.07057189941406 679.8770751953125 679.893798828125" version="1.1" xmlns="http://www.w3.org/2000/svg">
<g id="#000000ff">
</g>
<g id="#ffffffff">
<path fill="#ffffff" opacity="1.00" d=" M 359.74 129.72 C 402.65 114.51 448.63 108.07 494.08 110.61 C 538.09 112.98 581.50 124.50 621.16 143.63 C 629.67 147.40 637.52 152.45 645.88 156.52 C 630.48 166.74 615.64 177.81 600.46 188.37 C 578.59 203.83 556.73 219.31 534.87 234.79 C 502.63 258.13 470.75 281.97 438.71 305.59 C 420.79 287.78 402.41 270.44 384.35 252.78 C 372.38 258.53 360.72 264.95 349.89 272.65 C 339.76 279.32 330.84 287.61 322.02 295.88 C 309.78 307.84 299.24 321.42 290.00 335.80 C 265.05 300.44 239.99 265.15 215.03 229.79 C 231.23 210.81 249.55 193.68 269.34 178.50 C 283.35 168.27 297.94 158.81 313.10 150.37 C 328.27 142.68 343.68 135.39 359.74 129.72 Z" />
<path fill="#ffffff" opacity="1.00" d=" M 588.19 266.00 C 623.56 241.06 658.85 215.99 694.21 191.03 C 719.69 212.92 742.26 238.32 760.19 266.76 C 771.20 283.19 779.97 300.97 787.82 319.09 C 803.95 357.62 812.62 399.20 813.76 440.92 C 815.54 494.20 804.04 547.77 781.00 595.80 C 777.10 604.80 771.79 613.08 767.48 621.88 C 758.45 608.18 748.59 595.04 739.24 581.55 C 714.95 547.53 691.33 513.03 666.30 479.54 C 650.31 457.96 634.47 436.26 618.41 414.73 C 636.21 396.79 653.56 378.42 671.22 360.34 C 664.78 346.76 657.18 333.74 648.36 321.55 C 631.91 299.56 611.44 280.63 588.19 266.00 Z" />
<path fill="#ffffff" opacity="1.00" d=" M 180.53 278.12 C 181.41 279.65 182.36 281.15 183.39 282.60 C 208.55 318.10 233.67 353.63 258.80 389.15 C 282.12 421.39 305.92 453.29 329.60 485.28 C 311.84 503.25 294.57 521.71 276.78 539.66 C 286.67 560.76 299.56 580.52 315.65 597.42 C 328.39 611.79 343.75 623.58 359.81 634.00 C 324.42 658.92 289.13 683.98 253.80 708.96 C 238.62 695.56 223.90 681.54 211.31 665.64 C 201.81 654.56 193.69 642.40 185.79 630.15 C 148.97 572.12 131.23 502.52 134.43 433.95 C 136.36 385.59 149.52 337.87 171.58 294.85 C 174.57 289.28 177.81 283.83 180.53 278.12 Z" />
<path fill="#ffffff" opacity="1.00" d=" M 621.90 607.91 C 636.08 595.27 647.68 580.06 658.00 564.20 C 682.93 599.58 707.98 634.87 732.96 670.20 C 723.09 681.23 713.13 692.24 702.05 702.09 C 664.54 735.92 619.54 761.46 571.10 775.88 C 517.03 791.64 458.98 794.57 403.84 782.66 C 390.33 780.27 377.34 775.79 364.24 771.86 C 349.28 766.61 334.70 760.35 320.51 753.30 C 314.36 750.06 308.40 746.46 302.12 743.48 C 314.81 735.16 326.94 726.01 339.42 717.37 C 375.17 691.84 411.43 667.03 446.63 640.73 C 467.51 625.29 488.47 609.96 509.27 594.40 C 527.25 612.16 545.71 629.43 563.66 647.22 C 584.96 637.24 604.88 624.19 621.90 607.91 Z" />
</g>
</svg>
