<?xml version="1.0" encoding="UTF-8" ?>
<!DOCTYPE svg PUBLIC "-//W3C//DTD SVG 1.1//EN" "http://www.w3.org/Graphics/SVG/1.1/DTD/svg11.dtd">
<svg width="992pt" height="828pt" viewBox="44.836124420166016 101.55432891845703 889.4041748046875 669.3988037109375" version="1.1" xmlns="http://www.w3.org/2000/svg">
<g id="#1e1e1eff">
</g>
<g id="#ffffffff">
<path fill="#ffffff" opacity="1.00" d=" M 462.26 102.14 C 503.69 100.44 545.31 102.37 586.28 108.86 C 619.27 114.48 652.11 122.54 682.74 136.27 C 699.33 143.69 715.37 152.85 728.90 165.11 C 738.53 174.23 747.15 185.25 750.38 198.35 C 753.13 209.81 751.19 222.19 745.34 232.39 C 735.58 249.85 719.08 262.23 702.05 272.04 C 674.37 287.50 643.84 297.18 613.00 303.98 C 566.46 314.18 518.59 317.51 471.02 316.13 C 446.85 315.54 422.75 313.15 398.83 309.67 C 358.44 303.02 318.00 292.82 281.80 273.18 C 266.07 264.33 250.83 253.57 240.35 238.60 C 233.80 229.45 229.55 218.29 230.26 206.90 C 230.71 192.25 239.12 179.27 248.97 168.99 C 260.08 157.58 273.71 148.93 287.78 141.65 C 316.01 127.39 346.61 118.36 377.55 112.21 C 405.44 106.48 433.85 103.56 462.26 102.14 Z" />
<path fill="#ffffff" opacity="1.00" d=" M 199.41 328.43 C 222.48 313.05 248.24 302.26 274.50 293.64 C 302.94 308.38 333.74 318.13 364.97 324.98 C 386.20 330.03 407.91 332.69 429.57 335.14 C 480.15 339.91 531.34 339.10 581.65 331.81 C 605.27 328.71 628.54 323.29 651.44 316.79 C 671.36 310.66 691.11 303.49 709.55 293.68 C 724.66 298.47 739.50 304.22 753.84 310.98 C 771.03 319.38 787.89 328.95 802.12 341.86 C 811.77 350.53 820.35 360.78 825.23 372.93 C 830.73 386.16 830.75 401.66 824.79 414.75 C 818.58 428.52 808.08 439.92 796.51 449.42 C 773.47 467.75 746.28 479.93 718.74 489.80 C 696.00 497.58 672.77 503.94 649.19 508.59 C 628.58 512.68 607.85 516.22 586.94 518.30 C 538.51 523.82 489.61 524.71 440.97 522.07 C 396.38 519.38 351.92 513.41 308.55 502.60 C 274.53 493.81 240.77 482.54 210.30 464.76 C 191.30 453.59 173.12 439.43 162.10 419.95 C 155.12 407.82 153.03 392.97 156.66 379.44 C 159.46 369.22 165.30 360.11 172.18 352.16 C 180.12 343.06 189.35 335.10 199.41 328.43 Z" />
<path fill="#ffffff" opacity="1.00" d=" M 730.68 508.90 C 755.14 499.95 779.29 489.73 801.56 476.11 C 830.49 487.29 858.80 500.71 883.88 519.14 C 897.78 529.33 910.35 541.52 920.12 555.77 C 928.79 568.44 934.63 583.51 934.22 599.04 C 934.51 616.18 927.22 632.53 917.09 646.02 C 899.59 669.61 874.69 686.29 849.17 700.12 C 823.27 713.67 795.96 724.45 768.04 733.04 C 727.54 745.77 685.82 754.13 643.90 760.47 C 599.86 766.34 555.51 770.24 511.06 770.62 C 489.37 771.42 467.68 770.57 445.98 770.24 C 413.92 769.24 381.92 766.58 350.04 763.03 C 330.14 760.92 310.40 757.58 290.70 754.10 C 254.49 747.73 218.71 738.73 183.91 726.86 C 152.03 715.55 120.63 701.81 93.15 681.83 C 81.15 673.04 70.07 662.82 61.14 650.89 C 51.17 637.43 44.49 620.98 44.85 604.03 C 45.02 586.00 52.91 568.84 63.96 554.89 C 81.00 533.48 104.02 517.83 127.82 504.81 C 146.41 494.65 166.02 486.51 185.88 479.19 C 202.71 490.32 221.27 498.52 239.97 505.93 C 256.52 512.62 273.69 517.63 290.98 522.01 C 334.52 533.24 379.25 539.35 424.07 542.46 C 448.34 544.34 472.68 544.47 497.01 544.90 C 514.66 544.35 532.35 544.63 549.95 543.21 C 611.29 539.39 672.45 528.84 730.68 508.90 Z" />
</g>
</svg>
