<?xml version="1.0" encoding="UTF-8" ?>
<!DOCTYPE svg PUBLIC "-//W3C//DTD SVG 1.1//EN" "http://www.w3.org/Graphics/SVG/1.1/DTD/svg11.dtd">
<svg width="60pt" height="60pt" viewBox="0 0 60 60" version="1.1" xmlns="http://www.w3.org/2000/svg">
<g id="#000000ff">
<path fill="#000000" opacity="1.00" d=" M 27.21 0.00 L 32.39 0.00 C 46.58 0.92 58.79 13.08 60.00 27.21 L 60.00 32.41 C 59.05 46.60 46.91 58.77 32.78 60.00 L 27.57 60.00 C 13.40 59.01 1.21 46.92 0.00 32.79 L 0.00 27.57 C 0.96 13.39 13.08 1.20 27.21 0.00 M 28.29 6.28 C 18.37 6.88 9.30 14.35 6.98 24.03 C 4.18 34.10 9.08 45.66 18.25 50.65 C 25.97 55.20 36.22 54.71 43.52 49.56 C 53.14 43.15 56.71 29.31 51.14 19.13 C 47.01 10.77 37.56 5.51 28.29 6.28 Z" />
<path fill="#000000" opacity="1.00" d=" M 26.48 9.19 C 28.84 9.20 31.19 9.21 33.54 9.23 C 33.51 11.14 33.48 13.05 33.45 14.96 C 36.39 15.02 39.36 14.77 42.28 15.31 C 41.97 18.07 42.99 21.45 40.65 23.57 C 36.43 28.44 32.20 33.31 27.98 38.19 C 32.71 38.18 37.43 38.15 42.15 38.22 C 42.17 40.38 42.20 42.53 42.25 44.68 C 39.34 45.26 36.36 45.17 33.41 45.12 C 33.52 47.01 33.65 48.90 33.79 50.79 C 31.35 50.80 28.92 50.80 26.49 50.80 C 26.50 48.91 26.51 47.02 26.53 45.13 C 23.61 45.20 20.70 45.09 17.81 44.80 C 18.01 41.98 16.99 38.59 19.35 36.43 C 23.57 31.54 27.80 26.66 32.06 21.81 C 27.53 21.83 23.01 21.82 18.48 21.82 C 18.48 19.58 18.48 17.33 18.47 15.09 C 21.15 14.90 23.84 14.84 26.53 14.86 C 26.51 12.97 26.50 11.08 26.48 9.19 Z" />
</g>
</svg>
