<svg viewBox="0 3.9619998931884766 208.3330078125 208.333984375" xmlns="http://www.w3.org/2000/svg" fill-rule="evenodd" clip-rule="evenodd" stroke-linejoin="round" stroke-miterlimit="2"><path d="M104.167 3.962c57.491 0 104.166 46.676 104.166 104.167s-46.675 104.167-104.166 104.167S0 165.62 0 108.129 46.676 3.962 104.167 3.962zm-51.07 37.68c3.934-3.368 9.453-6.135 14.251-4.187 8.629 3.504 31.811 50.24 31.811 50.24s32.425-46.067 44.072-50.268c3.973-1.433 9.42 1.087 13.574 4.193 14.581 10.901 16.087 26.109 14.827 30.328-1.585 5.304-82.129 107.501-82.129 107.501-2.409-.982-50.133-89.559-52.719-104.715-2.471-14.484 5.938-24.325 16.313-33.092z" fill="#fff"/></svg>