<?xml version="1.0" encoding="UTF-8" ?>
<!DOCTYPE svg PUBLIC "-//W3C//DTD SVG 1.1//EN" "http://www.w3.org/Graphics/SVG/1.1/DTD/svg11.dtd">
<svg width="280pt" height="278pt" viewBox="0 0 280 278" version="1.1" xmlns="http://www.w3.org/2000/svg">
<g id="#232323ff">
<path fill="#232323" opacity="1.00" d=" M 126.30 1.22 C 156.52 -1.72 187.74 5.28 213.42 21.58 C 231.02 32.48 246.05 47.49 257.12 64.97 C 272.96 89.71 280.43 119.65 278.22 148.94 C 276.40 176.17 266.13 202.74 249.26 224.18 C 234.13 243.59 213.72 258.87 190.80 267.84 C 159.31 280.30 123.15 280.64 91.49 268.54 C 50.70 253.54 18.19 218.04 6.84 176.09 C -1.23 147.34 0.40 115.97 11.41 88.21 C 21.09 63.62 38.00 41.95 59.49 26.58 C 79.00 12.41 102.33 3.71 126.30 1.22 M 68.10 58.14 C 59.57 65.75 52.56 76.20 52.29 87.97 C 51.87 95.21 54.40 102.13 57.21 108.67 C 72.61 144.51 91.39 178.74 109.91 213.03 C 113.55 219.27 116.88 225.72 121.16 231.56 C 145.92 199.81 170.91 168.25 195.30 136.21 C 204.85 123.75 214.51 111.36 223.55 98.51 C 225.52 95.28 228.60 92.21 228.17 88.11 C 227.93 77.11 222.72 66.64 215.23 58.75 C 209.68 53.24 203.13 47.72 195.06 46.85 C 187.59 46.56 182.74 53.24 177.68 57.70 C 161.33 74.52 147.57 93.61 133.69 112.46 C 128.49 102.07 122.84 91.91 117.30 81.71 C 111.14 71.10 105.00 60.35 96.99 51.01 C 94.58 48.10 90.94 45.94 87.04 46.56 C 79.26 47.28 73.44 53.00 68.10 58.14 Z" />
</g>
<g id="#ffffffff">
<path fill="#ffffff" opacity="1.00" d=" M 68.10 58.14 C 73.44 53.00 79.26 47.28 87.04 46.56 C 90.94 45.94 94.58 48.10 96.99 51.01 C 105.00 60.35 111.14 71.10 117.30 81.71 C 122.84 91.91 128.49 102.07 133.69 112.46 C 147.57 93.61 161.33 74.52 177.68 57.70 C 182.74 53.24 187.59 46.56 195.06 46.85 C 203.13 47.72 209.68 53.24 215.23 58.75 C 222.72 66.64 227.93 77.11 228.17 88.11 C 228.60 92.21 225.52 95.28 223.55 98.51 C 214.51 111.36 204.85 123.75 195.30 136.21 C 170.91 168.25 145.92 199.81 121.16 231.56 C 116.88 225.72 113.55 219.27 109.91 213.03 C 91.39 178.74 72.61 144.51 57.21 108.67 C 54.40 102.13 51.87 95.21 52.29 87.97 C 52.56 76.20 59.57 65.75 68.10 58.14 Z" />
</g>
</svg>
