<?xml version="1.0" encoding="UTF-8" ?>
<!DOCTYPE svg PUBLIC "-//W3C//DTD SVG 1.1//EN" "http://www.w3.org/Graphics/SVG/1.1/DTD/svg11.dtd">
<svg width="80pt" height="80pt" viewBox="0 0 80 80" version="1.1" xmlns="http://www.w3.org/2000/svg">
<g id="#00b231ff">
<path fill="#00b231" opacity="1.00" d=" M 7.75 14.92 C 18.52 10.18 29.27 5.40 40.00 0.59 C 50.77 5.33 61.52 10.10 72.25 14.93 C 71.74 27.14 73.87 39.87 69.52 51.61 C 65.03 64.15 54.87 74.94 41.96 78.85 C 39.63 79.90 37.24 78.56 35.04 77.80 C 19.19 71.41 8.38 54.98 7.81 38.04 C 7.66 30.33 7.79 22.62 7.75 14.92 M 36.88 22.70 C 41.61 27.24 46.04 32.08 50.97 36.42 C 40.79 36.94 30.58 36.57 20.39 36.63 C 20.39 38.21 20.39 39.79 20.39 41.37 C 30.58 41.43 40.79 41.06 50.97 41.57 C 46.08 46.07 41.27 50.68 36.87 55.66 C 37.91 56.70 38.96 57.72 40.02 58.75 C 46.53 52.10 53.11 45.51 59.76 39.01 C 53.06 32.48 46.44 25.86 39.92 19.16 C 38.96 20.38 37.95 21.57 36.88 22.70 Z" />
</g>
<g id="#000000ff">
<path fill="#000000" opacity="1.00" d=" M 36.88 22.70 C 37.95 21.57 38.96 20.38 39.92 19.16 C 46.44 25.86 53.06 32.48 59.76 39.01 C 53.11 45.51 46.53 52.10 40.02 58.75 C 38.96 57.72 37.91 56.70 36.87 55.66 C 41.27 50.68 46.08 46.07 50.97 41.57 C 40.79 41.06 30.58 41.43 20.39 41.37 C 20.39 39.79 20.39 38.21 20.39 36.63 C 30.58 36.57 40.79 36.94 50.97 36.42 C 46.04 32.08 41.61 27.24 36.88 22.70 Z" />
</g>
</svg>
