<?xml version="1.0" encoding="UTF-8" ?>
<!DOCTYPE svg PUBLIC "-//W3C//DTD SVG 1.1//EN" "http://www.w3.org/Graphics/SVG/1.1/DTD/svg11.dtd">
<svg width="80pt" height="80pt" viewBox="0 0 80 80" version="1.1" xmlns="http://www.w3.org/2000/svg">
<g id="#00b231ff">
<path fill="#00b231" opacity="1.00" d=" M 37.79 0.00 L 41.95 0.00 C 51.77 0.55 61.36 4.73 68.29 11.73 C 75.23 18.60 79.37 28.08 80.00 37.80 L 80.00 41.94 C 79.46 51.76 75.28 61.35 68.28 68.28 C 61.41 75.23 51.92 79.37 42.19 80.00 L 38.05 80.00 C 28.24 79.45 18.66 75.28 11.73 68.29 C 4.78 61.42 0.63 51.93 0.00 42.20 L 0.00 38.06 C 0.50 29.43 3.73 20.95 9.33 14.34 C 16.30 5.88 26.88 0.69 37.79 0.00 M 36.88 22.69 C 41.61 27.23 46.03 32.10 50.97 36.41 C 40.79 36.96 30.58 36.55 20.39 36.63 C 20.39 38.21 20.39 39.79 20.39 41.37 C 30.58 41.45 40.79 41.04 50.97 41.59 C 46.03 45.92 41.59 50.77 36.86 55.32 C 37.94 56.45 38.95 57.63 39.92 58.85 C 46.46 52.16 53.07 45.55 59.76 39.00 C 53.06 32.48 46.44 25.86 39.92 19.16 C 38.97 20.39 37.95 21.56 36.88 22.69 Z" />
</g>
<g id="#000000ff">
<path fill="#000000" opacity="1.00" d=" M 36.88 22.69 C 37.95 21.56 38.97 20.39 39.92 19.16 C 46.44 25.86 53.06 32.48 59.76 39.00 C 53.07 45.55 46.46 52.16 39.92 58.85 C 38.95 57.63 37.94 56.45 36.86 55.32 C 41.59 50.77 46.03 45.92 50.97 41.59 C 40.79 41.04 30.58 41.45 20.39 41.37 C 20.39 39.79 20.39 38.21 20.39 36.63 C 30.58 36.55 40.79 36.96 50.97 36.41 C 46.03 32.10 41.61 27.23 36.88 22.69 Z" />
</g>
</svg>
