<?xml version="1.0" encoding="UTF-8" ?>
<!DOCTYPE svg PUBLIC "-//W3C//DTD SVG 1.1//EN" "http://www.w3.org/Graphics/SVG/1.1/DTD/svg11.dtd">
<svg width="80pt" height="80pt" viewBox="0 0 80 80" version="1.1" xmlns="http://www.w3.org/2000/svg">
<g id="#00b231ff">
<path fill="#00b231" opacity="1.00" d=" M 37.41 0.00 L 42.36 0.00 C 53.20 0.75 63.74 5.90 70.66 14.34 C 76.16 20.77 79.29 29.02 80.00 37.41 L 80.00 42.36 C 79.25 53.21 74.09 63.76 65.64 70.67 C 59.22 76.16 50.98 79.28 42.59 80.00 L 37.64 80.00 C 26.79 79.25 16.24 74.09 9.33 65.64 C 3.83 59.22 0.71 50.97 0.00 42.58 L 0.00 37.65 C 0.63 29.18 3.79 20.85 9.32 14.36 C 16.19 5.97 26.64 0.84 37.41 0.00 M 37.68 20.97 C 37.63 26.19 37.70 31.42 37.65 36.65 C 32.42 36.70 27.19 36.63 21.97 36.68 C 21.96 38.23 21.96 39.77 21.97 41.32 C 27.19 41.37 32.42 41.30 37.65 41.35 C 37.70 46.58 37.63 51.81 37.68 57.03 C 39.23 57.04 40.77 57.04 42.32 57.03 C 42.37 51.81 42.30 46.58 42.35 41.35 C 47.58 41.30 52.81 41.37 58.03 41.32 C 58.04 39.77 58.04 38.23 58.03 36.68 C 52.81 36.63 47.58 36.70 42.35 36.65 C 42.30 31.42 42.37 26.19 42.32 20.97 C 40.77 20.96 39.23 20.96 37.68 20.97 Z" />
</g>
<g id="#000000ff">
<path fill="#000000" opacity="1.00" d=" M 37.68 20.97 C 39.23 20.96 40.77 20.96 42.32 20.97 C 42.37 26.19 42.30 31.42 42.35 36.65 C 47.58 36.70 52.81 36.63 58.03 36.68 C 58.04 38.23 58.04 39.77 58.03 41.32 C 52.81 41.37 47.58 41.30 42.35 41.35 C 42.30 46.58 42.37 51.81 42.32 57.03 C 40.77 57.04 39.23 57.04 37.68 57.03 C 37.63 51.81 37.70 46.58 37.65 41.35 C 32.42 41.30 27.19 41.37 21.97 41.32 C 21.96 39.77 21.96 38.23 21.97 36.68 C 27.19 36.63 32.42 36.70 37.65 36.65 C 37.70 31.42 37.63 26.19 37.68 20.97 Z" />
</g>
</svg>
