<svg viewBox="0 0.5709999799728394 475.125 475.1249694824219" xmlns="http://www.w3.org/2000/svg" fill-rule="evenodd" clip-rule="evenodd" stroke-linejoin="round" stroke-miterlimit="2"><path d="M237.563.571c131.114 0 237.562 106.448 237.562 237.563 0 131.114-106.448 237.562-237.562 237.562C106.448 475.696 0 369.248 0 238.134 0 107.019 106.448.571 237.563.571zM147.11 377.737L292.495 98.531h35.108L182.217 377.737H147.11zm189.579 0c-9.637 0-18.586-1.927-26.847-5.782-8.26-3.855-15.35-9.5-21.271-16.934-5.92-7.435-10.532-16.453-13.836-27.054-3.304-10.601-4.956-22.647-4.956-36.14 0-13.492 1.652-25.47 4.956-35.933 3.304-10.463 7.916-19.343 13.836-26.64 5.921-7.297 13.011-12.873 21.271-16.728 8.261-3.855 17.21-5.782 26.847-5.782s18.586 1.927 26.847 5.782c8.26 3.855 15.351 9.431 21.271 16.728 5.92 7.297 10.601 16.177 14.043 26.64 3.442 10.463 5.163 22.441 5.163 35.933 0 13.493-1.721 25.539-5.163 36.14-3.442 10.601-8.123 19.619-14.043 27.054-5.92 7.434-13.011 13.079-21.271 16.934-8.261 3.855-17.21 5.782-26.847 5.782zm0-33.868c6.884 0 12.735-3.855 17.554-11.565 4.818-7.71 7.228-21.202 7.228-40.477 0-19.274-2.41-32.629-7.228-40.063-4.819-7.435-10.67-11.152-17.554-11.152-6.884 0-12.735 3.717-17.554 11.152-4.818 7.434-7.227 20.789-7.227 40.063 0 19.275 2.409 32.767 7.227 40.477 4.819 7.71 10.67 11.565 17.554 11.565zm-198.666-74.345c-9.637 0-18.586-1.928-26.847-5.783-8.26-3.854-15.351-9.499-21.271-16.934-5.92-7.434-10.532-16.452-13.836-27.053-3.304-10.601-4.956-22.648-4.956-36.14s1.652-25.47 4.956-35.933c3.304-10.464 7.916-19.344 13.836-26.64 5.92-7.297 13.011-12.873 21.271-16.728 8.261-3.855 17.21-5.782 26.847-5.782s18.586 1.927 26.847 5.782c8.26 3.855 15.351 9.431 21.271 16.728 5.92 7.296 10.601 16.176 14.043 26.64 3.442 10.463 5.162 22.441 5.162 35.933s-1.72 25.539-5.162 36.14c-3.442 10.601-8.123 19.619-14.043 27.053-5.92 7.435-13.011 13.08-21.271 16.934-8.261 3.855-17.21 5.783-26.847 5.783zm0-33.868c6.884 0 12.735-3.855 17.554-11.565 4.818-7.71 7.228-21.202 7.228-40.477 0-19.274-2.41-32.629-7.228-40.063-4.819-7.435-10.67-11.152-17.554-11.152-6.884 0-12.735 3.717-17.554 11.152-4.818 7.434-7.228 20.789-7.228 40.063 0 19.275 2.41 32.767 7.228 40.477 4.819 7.71 10.67 11.565 17.554 11.565z" fill="#3cc9bf"/></svg>