<?xml version="1.0" encoding="UTF-8" ?>
<!DOCTYPE svg PUBLIC "-//W3C//DTD SVG 1.1//EN" "http://www.w3.org/Graphics/SVG/1.1/DTD/svg11.dtd">
<svg width="80pt" height="80pt" viewBox="0 0 80 80" version="1.1" xmlns="http://www.w3.org/2000/svg">
<g id="#f22d37ff">
<path fill="#f22d37" opacity="1.00" d=" M 37.50 0.00 L 42.16 0.00 C 53.33 0.68 64.16 6.11 71.13 14.90 C 76.36 21.27 79.33 29.32 80.00 37.51 L 80.00 42.16 C 79.33 53.08 74.14 63.69 65.67 70.66 C 59.20 76.17 50.92 79.32 42.49 80.00 L 37.85 80.00 C 26.91 79.33 16.28 74.12 9.31 65.63 C 3.82 59.17 0.68 50.91 0.00 42.49 L 0.00 37.83 C 0.57 29.27 3.78 20.86 9.36 14.31 C 16.26 5.93 26.72 0.80 37.50 0.00 M 20.26 38.99 C 26.92 45.50 33.51 52.07 40.00 58.75 C 41.11 57.65 42.36 56.61 42.96 55.12 C 38.17 50.79 34.10 45.64 28.91 41.78 C 39.07 40.79 49.38 41.54 59.60 41.38 C 59.60 39.79 59.60 38.21 59.60 36.62 C 49.41 36.46 39.13 37.20 29.00 36.24 C 34.07 32.23 38.25 27.23 42.99 22.84 C 42.33 21.39 41.13 20.33 40.01 19.25 C 33.49 25.90 26.92 32.48 20.26 38.99 Z" />
</g>
<g id="#000000ff">
<path fill="#000000" opacity="1.00" d=" M 20.26 38.99 C 26.92 32.48 33.49 25.90 40.01 19.25 C 41.13 20.33 42.33 21.39 42.99 22.84 C 38.25 27.23 34.07 32.23 29.00 36.24 C 39.13 37.20 49.41 36.46 59.60 36.62 C 59.60 38.21 59.60 39.79 59.60 41.38 C 49.38 41.54 39.07 40.79 28.91 41.78 C 34.10 45.64 38.17 50.79 42.96 55.12 C 42.36 56.61 41.11 57.65 40.00 58.75 C 33.51 52.07 26.92 45.50 20.26 38.99 Z" />
</g>
</svg>
