<?xml version="1.0" encoding="UTF-8" ?>
<!DOCTYPE svg PUBLIC "-//W3C//DTD SVG 1.1//EN" "http://www.w3.org/Graphics/SVG/1.1/DTD/svg11.dtd">
<svg width="80pt" height="80pt" viewBox="0 0 80 80" version="1.1" xmlns="http://www.w3.org/2000/svg">
<g id="#f22d37ff">
<path fill="#f22d37" opacity="1.00" d=" M 7.75 14.92 C 18.52 10.18 29.26 5.40 40.00 0.59 C 50.77 5.33 61.52 10.10 72.25 14.93 C 71.73 27.15 73.88 39.87 69.52 51.61 C 64.92 64.45 54.38 75.45 41.06 79.12 C 39.49 79.70 37.93 78.73 36.44 78.33 C 21.19 72.87 10.22 58.08 8.16 42.18 C 7.32 33.13 7.94 24.00 7.75 14.92 M 20.25 38.99 C 26.93 45.49 33.52 52.07 40.00 58.76 C 41.16 57.70 42.22 56.54 43.01 55.18 C 38.45 50.59 33.66 46.15 29.28 41.42 C 39.39 41.24 49.50 41.33 59.60 41.38 C 59.60 39.79 59.60 38.21 59.61 36.62 C 49.48 36.66 39.36 36.80 29.24 36.55 C 33.61 31.59 39.11 27.54 43.01 22.18 C 41.97 21.24 40.97 20.26 40.00 19.24 C 33.49 25.91 26.91 32.49 20.25 38.99 Z" />
</g>
<g id="#000000ff">
<path fill="#000000" opacity="1.00" d=" M 20.25 38.99 C 26.91 32.49 33.49 25.91 40.00 19.24 C 40.97 20.26 41.97 21.24 43.01 22.18 C 39.11 27.54 33.61 31.59 29.24 36.55 C 39.36 36.80 49.48 36.66 59.61 36.62 C 59.60 38.21 59.60 39.79 59.60 41.38 C 49.50 41.33 39.39 41.24 29.28 41.42 C 33.66 46.15 38.45 50.59 43.01 55.18 C 42.22 56.54 41.16 57.70 40.00 58.76 C 33.52 52.07 26.93 45.49 20.25 38.99 Z" />
</g>
</svg>
