<?xml version="1.0" encoding="UTF-8" ?>
<!DOCTYPE svg PUBLIC "-//W3C//DTD SVG 1.1//EN" "http://www.w3.org/Graphics/SVG/1.1/DTD/svg11.dtd">
<svg width="80pt" height="80pt" viewBox="0 0 80 80" version="1.1" xmlns="http://www.w3.org/2000/svg">
<g id="#f89336ff">
<path fill="#f89336" opacity="1.00" d=" M 7.75 14.92 C 18.52 10.18 29.26 5.40 40.00 0.59 C 50.77 5.33 61.52 10.10 72.25 14.93 C 71.73 27.13 73.87 39.83 69.54 51.56 C 65.05 64.12 54.90 74.92 42.00 78.85 C 40.66 79.40 39.33 79.40 38.00 78.85 C 25.13 74.87 14.95 64.15 10.46 51.59 C 6.11 39.85 8.28 27.13 7.75 14.92 M 36.33 21.20 C 27.13 22.97 20.36 32.60 22.05 41.86 C 23.28 49.70 30.02 56.17 37.91 57.06 C 47.85 58.42 57.63 50.14 58.15 40.16 C 59.19 28.74 47.54 18.47 36.33 21.20 Z" />
<path fill="#f89336" opacity="1.00" d=" M 36.49 24.55 C 43.32 22.80 51.14 26.63 53.68 33.27 C 56.88 40.27 53.36 49.41 46.28 52.43 C 39.01 56.15 29.17 52.34 26.31 44.69 C 22.62 36.68 27.88 26.37 36.49 24.55 M 38.41 40.68 C 41.55 42.58 44.70 44.47 47.82 46.39 C 48.08 45.87 48.61 44.83 48.87 44.32 C 46.09 42.78 43.35 41.18 40.67 39.49 C 40.71 36.29 40.69 33.09 40.69 29.89 C 40.13 29.89 39.01 29.88 38.44 29.88 C 38.45 33.48 38.44 37.08 38.41 40.68 Z" />
</g>
<g id="#000000ff">
<path fill="#000000" opacity="1.00" d=" M 36.33 21.20 C 47.54 18.47 59.19 28.74 58.15 40.16 C 57.63 50.14 47.85 58.42 37.91 57.06 C 30.02 56.17 23.28 49.70 22.05 41.86 C 20.36 32.60 27.13 22.97 36.33 21.20 M 36.49 24.55 C 27.88 26.37 22.62 36.68 26.31 44.69 C 29.17 52.34 39.01 56.15 46.28 52.43 C 53.36 49.41 56.88 40.27 53.68 33.27 C 51.14 26.63 43.32 22.80 36.49 24.55 Z" />
<path fill="#000000" opacity="1.00" d=" M 38.41 40.68 C 38.44 37.08 38.45 33.48 38.44 29.88 C 39.01 29.88 40.13 29.89 40.69 29.89 C 40.69 33.09 40.71 36.29 40.67 39.49 C 43.35 41.18 46.09 42.78 48.87 44.32 C 48.61 44.83 48.08 45.87 47.82 46.39 C 44.70 44.47 41.55 42.58 38.41 40.68 Z" />
</g>
</svg>
