<?xml version="1.0" encoding="UTF-8" ?>
<!DOCTYPE svg PUBLIC "-//W3C//DTD SVG 1.1//EN" "http://www.w3.org/Graphics/SVG/1.1/DTD/svg11.dtd">
<svg width="859pt" height="817pt" viewBox="158.9807586669922 202.48779296875 541.5286865234375 541.5114135742188" version="1.1" xmlns="http://www.w3.org/2000/svg">
<g id="#ffffffff">
<path fill="#ffffff" opacity="1.00" d=" M 418.73 276.72 C 424.77 272.27 433.98 273.55 438.70 279.34 C 440.93 282.01 442.07 285.52 442.00 288.99 C 442.00 343.18 442.00 397.36 442.00 451.55 C 469.13 435.85 496.29 420.20 523.40 404.46 C 528.04 401.66 534.17 401.16 538.91 404.03 C 545.78 407.63 548.67 417.13 544.76 423.88 C 543.44 426.72 540.98 428.82 538.27 430.30 C 505.52 449.24 472.74 468.12 439.99 487.07 C 435.98 489.33 431.88 492.32 427.04 492.01 C 420.88 492.25 415.20 487.81 413.21 482.11 C 411.85 478.55 412.22 474.67 412.19 470.94 C 412.19 410.97 412.20 350.99 412.18 291.01 C 412.01 285.59 414.00 279.76 418.73 276.72 Z" />
</g>
<g id="#f89336ff">
<path fill="#f89336" opacity="1.00" d=" M 402.56 203.86 C 451.31 198.89 501.35 207.49 545.62 228.53 C 603.65 255.79 651.21 304.48 677.11 363.13 C 695.08 403.39 702.95 448.08 699.85 492.05 C 697.00 533.81 684.22 574.85 662.92 610.88 C 646.00 639.57 623.75 665.11 597.58 685.73 C 569.37 708.04 536.65 724.61 501.99 734.20 C 460.14 745.82 415.48 747.13 373.03 738.00 C 338.58 730.65 305.62 716.45 276.57 696.52 C 247.59 676.64 222.53 651.05 203.27 621.65 C 182.25 589.57 168.14 553.00 162.25 515.11 C 152.87 456.12 163.85 394.16 192.93 341.99 C 209.33 312.38 231.33 285.87 257.47 264.37 C 298.44 230.45 349.63 209.11 402.56 203.86 M 418.73 276.72 C 414.00 279.76 412.01 285.59 412.18 291.01 C 412.20 350.99 412.19 410.97 412.19 470.94 C 412.22 474.67 411.85 478.55 413.21 482.11 C 415.20 487.81 420.88 492.25 427.04 492.01 C 431.88 492.32 435.98 489.33 439.99 487.07 C 472.74 468.12 505.52 449.24 538.27 430.30 C 540.98 428.82 543.44 426.72 544.76 423.88 C 548.67 417.13 545.78 407.63 538.91 404.03 C 534.17 401.16 528.04 401.66 523.40 404.46 C 496.29 420.20 469.13 435.85 442.00 451.55 C 442.00 397.36 442.00 343.18 442.00 288.99 C 442.07 285.52 440.93 282.01 438.70 279.34 C 433.98 273.55 424.77 272.27 418.73 276.72 Z" />
</g>
</svg>
