<?xml version="1.0" encoding="UTF-8" ?>
<!DOCTYPE svg PUBLIC "-//W3C//DTD SVG 1.1//EN" "http://www.w3.org/Graphics/SVG/1.1/DTD/svg11.dtd">
<svg width="80pt" height="80pt" viewBox="0 0 80 80" version="1.1" xmlns="http://www.w3.org/2000/svg">
<g id="#f89336ff">
<path fill="#f89336" opacity="1.00" d=" M 37.84 0.00 L 42.16 0.00 C 53.07 0.68 63.70 5.85 70.65 14.33 C 76.24 20.87 79.42 29.29 80.00 37.84 L 80.00 42.18 C 79.32 53.08 74.15 63.69 65.67 70.64 C 59.20 76.19 50.88 79.34 42.41 80.00 L 38.06 80.00 C 27.08 79.41 16.38 74.21 9.37 65.69 C 3.82 59.22 0.66 50.88 0.00 42.41 L 0.00 38.06 C 0.51 29.43 3.72 20.92 9.35 14.33 C 16.30 5.85 26.93 0.68 37.84 0.00 M 36.24 21.23 C 26.54 23.11 19.61 33.85 22.42 43.42 C 24.27 51.31 31.95 57.26 40.04 57.18 C 49.70 57.29 58.34 48.64 58.18 38.97 C 58.42 27.93 47.02 18.55 36.24 21.23 Z" />
<path fill="#f89336" opacity="1.00" d=" M 36.45 24.56 C 45.39 22.05 55.20 29.70 54.83 38.99 C 55.24 48.57 44.75 56.38 35.70 53.19 C 27.77 51.09 22.99 41.59 26.05 33.99 C 27.58 29.30 31.71 25.75 36.45 24.56 M 38.45 29.89 C 38.42 33.48 38.47 37.08 38.40 40.67 C 41.54 42.58 44.70 44.47 47.83 46.39 C 48.09 45.87 48.60 44.82 48.85 44.30 C 46.09 42.74 43.29 41.23 40.66 39.44 C 40.71 36.26 40.70 33.08 40.69 29.89 C 40.13 29.89 39.01 29.89 38.45 29.89 Z" />
</g>
<g id="#000000ff">
<path fill="#000000" opacity="1.00" d=" M 36.24 21.23 C 47.02 18.55 58.42 27.93 58.18 38.97 C 58.34 48.64 49.70 57.29 40.04 57.18 C 31.95 57.26 24.27 51.31 22.42 43.42 C 19.61 33.85 26.54 23.11 36.24 21.23 M 36.45 24.56 C 31.71 25.75 27.58 29.30 26.05 33.99 C 22.99 41.59 27.77 51.09 35.70 53.19 C 44.75 56.38 55.24 48.57 54.83 38.99 C 55.20 29.70 45.39 22.05 36.45 24.56 Z" />
<path fill="#000000" opacity="1.00" d=" M 38.45 29.89 C 39.01 29.89 40.13 29.89 40.69 29.89 C 40.70 33.08 40.71 36.26 40.66 39.44 C 43.29 41.23 46.09 42.74 48.85 44.30 C 48.60 44.82 48.09 45.87 47.83 46.39 C 44.70 44.47 41.54 42.58 38.40 40.67 C 38.47 37.08 38.42 33.48 38.45 29.89 Z" />
</g>
</svg>
