<?xml version="1.0" encoding="UTF-8" ?>
<!DOCTYPE svg PUBLIC "-//W3C//DTD SVG 1.1//EN" "http://www.w3.org/Graphics/SVG/1.1/DTD/svg11.dtd">
<svg width="80pt" height="80pt" viewBox="0 0 80 80" version="1.1" xmlns="http://www.w3.org/2000/svg">
<g id="#3ab2f0ff">
<path fill="#3ab2f0" opacity="1.00" d=" M 7.75 14.92 C 18.52 10.18 29.27 5.40 40.01 0.59 C 50.77 5.33 61.52 10.10 72.25 14.92 C 71.74 27.14 73.88 39.87 69.52 51.61 C 64.92 64.44 54.38 75.48 41.06 79.09 C 39.50 79.71 37.95 78.71 36.45 78.35 C 21.17 72.86 10.18 58.04 8.15 42.08 C 7.33 33.06 7.93 23.97 7.75 14.92 M 37.62 19.40 C 37.56 29.62 38.00 39.87 37.39 50.07 C 33.01 45.06 28.34 40.26 23.30 35.92 C 22.26 36.93 21.24 37.97 20.26 39.03 C 26.93 45.52 33.51 52.09 39.99 58.76 C 46.47 52.09 53.04 45.50 59.73 39.04 C 58.75 37.98 57.74 36.95 56.70 35.94 C 51.65 40.26 47.00 45.07 42.61 50.06 C 42.00 39.86 42.44 29.62 42.38 19.41 C 40.79 19.40 39.21 19.40 37.62 19.40 Z" />
</g>
<g id="#000000ff">
<path fill="#000000" opacity="1.00" d=" M 37.62 19.40 C 39.21 19.40 40.79 19.40 42.38 19.41 C 42.44 29.62 42.00 39.86 42.61 50.06 C 47.00 45.07 51.65 40.26 56.70 35.94 C 57.74 36.95 58.75 37.98 59.73 39.04 C 53.04 45.50 46.47 52.09 39.99 58.76 C 33.51 52.09 26.93 45.52 20.26 39.03 C 21.24 37.97 22.26 36.93 23.30 35.92 C 28.34 40.26 33.01 45.06 37.39 50.07 C 38.00 39.87 37.56 29.62 37.62 19.40 Z" />
</g>
</svg>
