<?xml version="1.0" encoding="UTF-8" ?>
<!DOCTYPE svg PUBLIC "-//W3C//DTD SVG 1.1//EN" "http://www.w3.org/Graphics/SVG/1.1/DTD/svg11.dtd">
<svg width="80pt" height="80pt" viewBox="0 0 80 80" version="1.1" xmlns="http://www.w3.org/2000/svg">
<g id="#3ab2f0ff">
<path fill="#3ab2f0" opacity="1.00" d=" M 38.00 0.00 L 41.82 0.00 C 52.86 0.54 63.60 5.79 70.65 14.32 C 76.26 20.93 79.49 29.41 80.00 38.05 L 80.00 41.83 C 79.46 52.88 74.20 63.64 65.64 70.69 C 59.05 76.25 50.62 79.47 42.04 80.00 L 38.17 80.00 C 27.12 79.45 16.38 74.20 9.33 65.66 C 3.75 59.07 0.53 50.63 0.00 42.04 L 0.00 38.30 C 0.45 29.09 4.08 20.07 10.28 13.24 C 17.28 5.37 27.50 0.59 38.00 0.00 M 37.63 19.40 C 37.55 29.62 38.01 39.86 37.38 50.06 C 33.21 44.99 28.21 40.70 23.75 35.90 C 22.59 36.95 21.34 37.90 20.16 38.93 C 26.86 45.45 33.48 52.06 39.99 58.76 C 46.47 52.08 53.05 45.49 59.74 39.03 C 58.73 38.00 57.73 36.97 56.73 35.94 C 51.66 40.23 47.02 45.06 42.63 50.04 C 41.98 39.85 42.46 29.61 42.37 19.40 C 40.79 19.40 39.21 19.40 37.63 19.40 Z" />
</g>
<g id="#000000ff">
<path fill="#000000" opacity="1.00" d=" M 37.63 19.40 C 39.21 19.40 40.79 19.40 42.37 19.40 C 42.46 29.61 41.98 39.85 42.63 50.04 C 47.02 45.06 51.66 40.23 56.73 35.94 C 57.73 36.97 58.73 38.00 59.74 39.03 C 53.05 45.49 46.47 52.08 39.99 58.76 C 33.48 52.06 26.86 45.45 20.16 38.93 C 21.34 37.90 22.59 36.95 23.75 35.90 C 28.21 40.70 33.21 44.99 37.38 50.06 C 38.01 39.86 37.55 29.62 37.63 19.40 Z" />
</g>
</svg>
