<svg viewBox="1.0820000171661377 3.697000026702881 683.3330688476562 692.6100463867188" xmlns="http://www.w3.org/2000/svg" fill-rule="evenodd" clip-rule="evenodd" stroke-linejoin="round" stroke-miterlimit="2"><path d="M80.219 292.759C87.136 132.043 219.786 3.697 382.176 3.697c166.81 0 302.239 135.429 302.239 302.239 0 161.69-127.241 293.895-286.959 301.859-12.338 50.767-58.14 88.512-112.688 88.512-64.002 0-115.963-51.961-115.963-115.962s51.961-115.962 115.963-115.962c55.866 0 102.559 39.591 113.527 92.231 131.145-8.332 235.068-117.464 235.068-250.678 0-138.634-112.553-251.187-251.187-251.187-134.212 0-243.98 105.487-250.847 238.01h78.485L105.448 422.636 1.082 292.759h79.137z" fill="#4aa658"/></svg>