<?xml version="1.0" encoding="UTF-8" ?>
<!DOCTYPE svg PUBLIC "-//W3C//DTD SVG 1.1//EN" "http://www.w3.org/Graphics/SVG/1.1/DTD/svg11.dtd">
<svg width="80pt" height="80pt" viewBox="0 0 80 80" version="1.1" xmlns="http://www.w3.org/2000/svg">
<g id="#8c9495ff">
<path fill="#8c9495" opacity="1.00" d=" M 38.85 0.00 L 40.82 0.00 C 51.01 0.28 61.07 4.46 68.25 11.74 C 75.46 18.84 79.63 28.78 80.00 38.87 L 80.00 40.90 C 79.70 51.06 75.52 61.09 68.26 68.25 C 61.16 75.46 51.22 79.63 41.14 80.00 L 39.04 80.00 C 28.66 79.68 18.41 75.29 11.24 67.74 C 4.33 60.68 0.36 50.97 0.00 41.13 L 0.00 39.17 C 0.28 28.99 4.45 18.94 11.72 11.77 C 18.82 4.55 28.76 0.37 38.85 0.00 M 24.27 23.34 C 21.70 27.21 21.58 33.67 26.12 36.14 C 29.49 38.29 35.35 36.49 35.27 31.99 C 35.62 29.42 32.88 28.99 31.01 28.78 C 30.38 30.04 29.68 31.27 28.91 32.46 C 28.08 30.79 27.07 28.92 28.16 27.08 C 30.64 22.09 36.96 20.50 42.11 21.03 C 46.04 21.26 50.42 23.27 51.70 27.26 C 52.16 29.84 52.12 33.08 49.82 34.81 C 46.12 37.92 41.30 39.38 37.78 42.74 C 34.97 45.12 33.52 49.29 35.00 52.78 C 35.95 54.46 38.74 54.46 39.66 52.79 C 40.24 50.41 39.65 47.48 41.64 45.65 C 45.27 42.28 50.68 41.76 54.23 38.24 C 59.32 33.65 59.04 24.55 53.74 20.22 C 49.98 16.96 44.82 15.96 39.97 15.94 C 34.07 16.14 27.62 18.14 24.27 23.34 M 36.33 57.33 C 33.00 58.51 32.56 63.62 35.67 65.33 C 38.31 67.24 42.23 65.01 42.37 61.89 C 42.78 58.81 39.24 55.89 36.33 57.33 Z" />
</g>
<g id="#444444ff">
<path fill="#444444" opacity="1.00" d=" M 24.27 23.34 C 27.62 18.14 34.07 16.14 39.97 15.94 C 44.82 15.96 49.98 16.96 53.74 20.22 C 59.04 24.55 59.32 33.65 54.23 38.24 C 50.68 41.76 45.27 42.28 41.64 45.65 C 39.65 47.48 40.24 50.41 39.66 52.79 C 38.74 54.46 35.95 54.46 35.00 52.78 C 33.52 49.29 34.97 45.12 37.78 42.74 C 41.30 39.38 46.12 37.92 49.82 34.81 C 52.12 33.08 52.16 29.84 51.70 27.26 C 50.42 23.27 46.04 21.26 42.11 21.03 C 36.96 20.50 30.64 22.09 28.16 27.08 C 27.07 28.92 28.08 30.79 28.91 32.46 C 29.68 31.27 30.38 30.04 31.01 28.78 C 32.88 28.99 35.62 29.42 35.27 31.99 C 35.35 36.49 29.49 38.29 26.12 36.14 C 21.58 33.67 21.70 27.21 24.27 23.34 Z" />
<path fill="#444444" opacity="1.00" d=" M 36.33 57.33 C 39.24 55.89 42.78 58.81 42.37 61.89 C 42.23 65.01 38.31 67.24 35.67 65.33 C 32.56 63.62 33.00 58.51 36.33 57.33 Z" />
</g>
</svg>
