<svg viewBox="0 0.5709999799728394 475.125 475.1249694824219" xmlns="http://www.w3.org/2000/svg" fill-rule="evenodd" clip-rule="evenodd" stroke-linejoin="round" stroke-miterlimit="2"><path d="M237.563.571c131.114 0 237.562 106.448 237.562 237.563 0 131.114-106.448 237.562-237.562 237.562C106.448 475.696 0 369.248 0 238.134 0 107.019 106.448.571 237.563.571zm-6.043 398.853c-11.775 0-21.536-4.106-29.283-12.318-7.747-8.211-11.62-18.36-11.62-30.445 0-12.395 3.873-22.698 11.62-30.91 7.747-8.212 17.508-12.318 29.283-12.318 11.775 0 21.614 4.106 29.516 12.318 7.901 8.212 11.852 18.515 11.852 30.91 0 12.085-3.951 22.234-11.852 30.445-7.902 8.212-17.741 12.318-29.516 12.318zm-29.748-112.95c-1.549-10.535-1.162-20.142 1.162-28.818 2.324-8.677 5.655-16.733 9.994-24.17 4.338-7.437 9.218-14.255 14.641-20.452a4175.484 4175.484 0 0015.571-17.895c4.958-5.733 9.064-11.311 12.318-16.734 3.254-5.422 4.88-11.078 4.88-16.965 0-9.606-2.866-16.889-8.599-21.847-5.732-4.958-13.247-7.437-22.543-7.437-8.677 0-16.346 2.015-23.008 6.043-6.663 4.028-13.092 9.141-19.29 15.339l-37.65-34.396c10.846-12.705 23.783-22.931 38.812-30.678 15.029-7.747 31.685-11.62 49.967-11.62 12.395 0 23.938 1.549 34.629 4.648 10.691 3.099 19.987 7.902 27.889 14.409 7.902 6.507 14.099 14.797 18.592 24.868 4.493 10.07 6.74 21.923 6.74 35.558 0 9.606-1.704 18.205-5.113 25.797a101.195 101.195 0 01-12.782 21.149 267.271 267.271 0 01-16.269 18.825 199.332 199.332 0 00-15.803 18.825c-4.803 6.507-8.599 13.402-11.388 20.684-2.789 7.282-3.719 15.571-2.789 24.867h-59.961z" fill="#bfbfbf"/></svg>