<?xml version="1.0" encoding="UTF-8" ?>
<!DOCTYPE svg PUBLIC "-//W3C//DTD SVG 1.1//EN" "http://www.w3.org/Graphics/SVG/1.1/DTD/svg11.dtd">
<svg width="294pt" height="130pt" viewBox="0 0 294 130" version="1.1" xmlns="http://www.w3.org/2000/svg">
<g id="#292d34ff">
</g>
<g id="#ffffffff">
<path fill="#ffffff" opacity="1.00" d=" M 26.16 28.09 C 28.10 23.49 32.83 20.23 37.84 20.12 C 47.25 19.83 56.67 20.08 66.08 20.00 C 61.17 31.84 56.23 43.68 51.33 55.53 C 49.41 60.49 44.34 63.92 39.02 63.90 C 29.77 64.11 20.51 63.92 11.25 63.98 C 16.22 52.02 21.19 40.06 26.16 28.09 Z" />
<path fill="#ffffff" opacity="1.00" d=" M 102.64 42.03 C 106.49 42.03 110.34 42.03 114.19 42.03 C 114.39 50.42 114.46 58.80 114.77 67.18 C 118.83 59.03 122.75 50.82 126.76 42.65 C 130.78 42.65 134.80 42.65 138.82 42.65 C 139.35 50.83 139.80 59.02 140.38 67.20 C 144.24 58.86 147.92 50.43 151.68 42.04 C 155.29 42.03 158.90 42.02 162.51 42.04 C 156.46 55.22 150.38 68.40 144.33 81.59 C 140.14 81.59 135.94 81.59 131.75 81.59 C 131.07 72.88 130.50 64.16 129.76 55.45 C 125.55 64.11 121.56 72.88 117.44 81.59 C 113.28 81.60 109.11 81.60 104.95 81.59 C 104.17 68.41 103.41 55.22 102.64 42.03 Z" />
<path fill="#ffffff" opacity="1.00" d=" M 167.00 42.04 C 171.08 42.03 175.17 42.03 179.26 42.03 C 180.50 49.89 181.73 57.74 182.98 65.59 C 186.97 57.75 190.92 49.88 194.90 42.03 C 198.71 42.03 202.53 42.03 206.35 42.04 C 199.32 54.79 192.25 67.52 185.21 80.28 C 182.74 84.86 180.04 89.60 175.71 92.69 C 171.38 95.69 165.85 95.54 160.83 95.07 C 161.40 92.10 161.97 89.13 162.54 86.16 C 165.00 86.09 167.68 86.25 169.79 84.76 C 172.77 82.66 174.27 78.67 173.32 75.13 C 171.19 64.11 169.08 53.08 167.00 42.04 Z" />
<path fill="#ffffff" opacity="1.00" d=" M 214.33 42.04 C 217.46 42.03 220.60 42.03 223.74 42.03 C 223.74 44.40 223.73 46.77 223.69 49.14 C 225.08 46.53 226.54 43.66 229.39 42.38 C 233.24 40.82 237.48 41.71 241.44 42.33 C 239.80 45.74 238.08 49.12 236.37 52.50 C 233.21 51.96 229.63 50.81 226.65 52.62 C 224.25 54.22 223.67 57.24 222.97 59.84 C 221.34 67.06 220.00 74.35 218.48 81.59 C 214.44 81.60 210.40 81.60 206.36 81.59 C 209.01 68.41 211.68 55.23 214.33 42.04 Z" />
<path fill="#ffffff" opacity="1.00" d=" M 248.45 46.57 C 255.29 40.88 265.49 40.14 273.56 43.45 C 278.71 45.35 280.39 52.22 277.75 56.73 C 275.58 60.30 272.01 63.12 267.85 63.90 C 263.05 64.81 258.14 65.05 253.27 64.77 C 253.45 67.30 253.89 70.28 256.32 71.67 C 261.32 74.71 267.51 73.23 272.78 71.73 C 272.17 74.77 271.57 77.82 270.99 80.87 C 264.43 82.67 257.24 82.76 250.88 80.15 C 245.60 77.96 241.92 72.66 241.47 67.00 C 240.40 59.57 243.45 51.99 248.45 46.57 M 259.54 49.62 C 256.58 51.10 255.40 54.39 254.29 57.27 C 257.66 57.50 261.30 57.91 264.44 56.33 C 266.31 55.40 267.84 53.26 267.04 51.12 C 265.59 48.46 261.96 48.19 259.54 49.62 Z" />
<path fill="#ffffff" opacity="1.00" d=" M 58.28 63.24 C 63.94 56.21 69.53 49.12 75.19 42.08 C 70.32 53.87 65.39 65.65 60.52 77.45 C 58.61 82.50 53.44 85.98 48.05 85.93 C 38.84 86.12 29.61 85.95 20.39 86.00 C 22.82 80.14 25.26 74.28 27.69 68.42 C 34.45 68.35 41.22 68.53 47.98 68.35 C 51.96 68.28 55.80 66.36 58.28 63.24 Z" />
<path fill="#ffffff" opacity="1.00" d=" M 67.31 85.36 C 73.02 78.29 78.63 71.14 84.34 64.07 C 79.43 75.93 74.47 87.77 69.58 99.64 C 67.61 104.63 62.43 108.01 57.07 107.93 C 47.89 108.10 38.71 107.95 29.53 108.00 C 31.96 102.13 34.40 96.27 36.83 90.41 C 43.53 90.35 50.23 90.51 56.93 90.35 C 60.92 90.33 64.81 88.47 67.31 85.36 Z" />
</g>
</svg>
