<?xml version="1.0" encoding="UTF-8" ?>
<!DOCTYPE svg PUBLIC "-//W3C//DTD SVG 1.1//EN" "http://www.w3.org/Graphics/SVG/1.1/DTD/svg11.dtd">
<svg width="512pt" height="514pt" viewBox="37.81685256958008 73.86963653564453 429.79571533203125 429.7997741699219" version="1.1" xmlns="http://www.w3.org/2000/svg">
<g id="#a6a9aaff">
</g>
<g id="#ffffffff">
<path fill="#ffffff" opacity="1.00" d=" M 234.43 74.65 C 269.77 71.62 305.86 77.44 338.39 91.65 C 371.42 105.98 400.68 128.83 422.70 157.31 C 450.32 192.78 466.25 237.11 467.50 282.05 C 468.73 319.71 459.86 357.67 441.88 390.81 C 424.20 423.58 397.85 451.60 366.23 471.26 C 337.04 489.51 303.37 500.53 269.03 503.04 C 232.59 505.85 195.43 499.22 162.29 483.77 C 134.21 470.75 109.03 451.55 88.99 427.97 C 67.65 402.94 52.16 372.95 44.22 341.02 C 34.59 302.58 35.84 261.48 47.85 223.71 C 60.43 183.83 85.07 147.91 117.61 121.66 C 150.68 94.77 191.94 78.12 234.43 74.65 M 239.72 145.81 C 225.33 194.45 210.91 243.10 196.55 291.75 C 185.16 295.33 173.74 298.83 162.34 302.37 C 159.89 310.64 157.44 318.90 155.03 327.18 C 166.41 323.69 177.76 320.12 189.15 316.64 C 178.92 351.42 168.57 386.17 158.32 420.95 C 216.55 420.96 274.78 420.99 333.01 421.00 C 336.29 420.98 339.60 421.24 342.86 420.73 C 346.16 420.10 348.44 417.16 349.18 414.02 C 352.29 403.17 355.33 392.30 358.52 381.48 C 359.03 379.43 359.80 377.18 358.84 375.15 C 357.80 372.45 354.81 371.16 352.06 371.36 C 312.65 371.38 273.24 371.35 233.84 371.33 C 241.22 346.17 248.65 321.03 256.08 295.89 C 267.47 292.33 278.88 288.80 290.28 285.24 C 292.73 276.98 295.17 268.72 297.59 260.45 C 286.20 263.93 274.84 267.51 263.45 271.00 C 275.52 229.92 287.66 188.86 299.73 147.78 C 300.52 145.42 300.08 142.58 298.10 140.94 C 296.25 139.05 293.42 139.34 291.02 139.26 C 276.67 139.39 262.32 139.20 247.98 139.32 C 244.08 139.17 240.59 142.05 239.72 145.81 Z" />
</g>
</svg>
