<?xml version="1.0" encoding="UTF-8" ?>
<!DOCTYPE svg PUBLIC "-//W3C//DTD SVG 1.1//EN" "http://www.w3.org/Graphics/SVG/1.1/DTD/svg11.dtd">
<svg width="710pt" height="787pt" viewBox="24.423431396484375 61.98973846435547 624.400634765625 675.986083984375" version="1.1" xmlns="http://www.w3.org/2000/svg">
<g id="#c2a641ff">
</g>
<g id="#ffffffff">
<path fill="#ffffff" opacity="1.00" d=" M 104.20 62.01 C 172.13 61.98 240.06 62.03 308.00 61.99 C 348.71 61.95 389.60 66.44 428.87 77.43 C 468.09 88.33 505.77 105.92 537.74 131.30 C 560.48 149.17 580.12 170.93 595.79 195.22 C 615.24 225.33 628.53 259.14 636.78 293.94 C 646.01 332.89 649.25 373.06 648.78 413.02 C 648.28 450.36 644.30 487.79 634.83 523.97 C 626.55 555.42 614.03 585.92 596.21 613.20 C 578.43 640.69 555.29 664.71 528.44 683.44 C 501.80 702.16 471.72 715.69 440.47 724.61 C 410.72 733.01 379.86 737.54 348.95 737.94 C 341.63 738.13 334.32 737.50 327.01 737.56 C 252.75 737.57 178.48 737.56 104.22 737.56 C 104.19 637.26 104.23 536.96 104.20 436.66 C 77.61 436.64 51.02 436.67 24.43 436.65 C 24.42 412.08 24.42 387.51 24.44 362.94 C 51.02 362.93 77.61 362.95 104.20 362.93 C 104.21 262.62 104.20 162.32 104.20 62.01 M 231.71 186.89 C 231.69 245.57 231.70 304.24 231.71 362.92 C 278.53 362.95 325.36 362.91 372.19 362.94 C 372.20 387.51 372.20 412.08 372.19 436.64 C 325.36 436.65 278.54 436.63 231.71 436.65 C 231.69 495.33 231.71 554.00 231.70 612.68 C 252.13 612.70 272.56 612.68 293.00 612.69 C 317.68 612.51 342.52 613.68 367.01 609.83 C 382.24 607.19 397.41 603.78 411.76 597.93 C 427.33 592.22 441.79 583.85 455.01 573.89 C 466.75 565.12 476.70 554.18 485.56 542.57 C 496.45 527.97 504.20 511.25 510.23 494.13 C 516.94 474.08 520.26 453.03 521.96 432.00 C 523.47 408.63 522.93 385.08 519.56 361.89 C 517.01 344.61 513.35 327.40 507.09 311.05 C 500.72 294.43 492.84 278.24 482.05 264.01 C 471.44 249.79 458.99 236.85 444.47 226.57 C 419.96 208.33 390.85 197.04 361.04 191.01 C 347.17 188.52 333.12 186.77 319.00 186.88 C 289.91 186.88 260.81 186.86 231.71 186.89 Z" />
</g>
</svg>
