<?xml version="1.0" encoding="UTF-8" ?>
<!DOCTYPE svg PUBLIC "-//W3C//DTD SVG 1.1//EN" "http://www.w3.org/Graphics/SVG/1.1/DTD/svg11.dtd">
<svg width="400pt" height="400pt" viewBox="0 0 400 400" version="1.1" xmlns="http://www.w3.org/2000/svg">
<g id="#0e0f23ff">
<path fill="#0e0f23" opacity="1.00" d=" M 262.51 70.06 C 262.86 65.89 266.71 62.17 271.00 62.54 C 275.95 62.22 279.80 67.31 279.07 72.00 C 277.67 82.64 276.51 93.30 275.24 103.95 C 274.15 103.80 273.14 103.41 272.31 102.68 C 268.17 99.63 263.93 96.72 259.57 93.99 C 260.60 86.02 261.62 78.05 262.51 70.06 Z" />
<path fill="#0e0f23" opacity="1.00" d=" M 153.91 111.83 C 158.66 108.31 166.26 112.06 166.46 117.94 C 170.18 152.24 173.04 186.63 176.63 220.94 C 182.22 280.64 188.34 340.29 193.90 400.00 L 177.50 400.00 C 176.51 394.06 176.37 388.01 175.57 382.05 C 167.12 295.03 158.63 208.01 150.21 120.99 C 149.67 117.54 150.72 113.66 153.91 111.83 Z" />
<path fill="#0e0f23" opacity="1.00" d=" M 336.33 196.33 C 340.22 196.38 343.92 197.64 347.64 198.65 L 348.06 198.77 C 352.60 212.51 354.55 229.10 345.67 241.60 C 325.98 269.26 306.17 296.85 286.35 324.42 C 279.85 333.62 268.83 338.25 257.99 339.78 C 249.99 341.11 241.76 340.91 233.79 339.48 C 219.19 337.61 205.07 333.16 191.41 327.78 C 188.01 293.80 184.63 259.82 181.50 225.83 C 182.83 226.94 184.15 228.07 185.41 229.26 C 197.35 240.56 204.83 255.89 217.65 266.37 C 224.66 272.21 233.76 276.10 243.00 275.47 C 254.57 274.13 264.76 267.00 271.91 258.09 C 272.20 257.66 272.79 256.80 273.08 256.37 C 275.22 256.25 278.65 258.03 279.46 255.02 C 280.06 253.43 278.02 253.00 277.06 252.37 C 278.94 249.81 280.84 247.27 282.72 244.72 L 282.90 244.47 C 296.26 247.51 310.55 249.46 323.89 245.26 C 331.99 242.88 339.22 236.47 341.14 228.06 C 343.83 217.32 340.58 206.21 336.33 196.33 M 283.79 254.96 C 283.32 256.48 283.90 258.60 285.81 258.60 C 295.64 260.10 305.73 261.01 315.61 259.36 C 317.51 259.18 317.68 257.23 317.22 255.73 C 315.24 254.94 313.12 255.31 311.07 255.46 C 302.71 256.24 294.29 255.48 285.99 254.37 C 285.44 254.52 284.34 254.82 283.79 254.96 Z" />
<path fill="#0e0f23" opacity="1.00" d=" M 143.19 235.22 C 147.14 231.70 151.31 228.36 156.07 225.98 C 158.80 255.68 162.04 285.32 164.61 315.03 C 140.17 301.68 117.52 285.05 97.43 265.76 C 105.00 265.15 112.15 261.80 118.05 257.13 C 126.84 250.31 134.75 242.45 143.19 235.22 Z" />
<path fill="#0e0f23" opacity="1.00" d=" M 228.92 343.65 C 234.41 344.32 239.89 345.25 245.43 345.25 C 243.21 363.51 240.95 381.76 238.64 400.00 L 222.06 400.00 C 224.09 381.19 226.64 362.44 228.92 343.65 Z" />
</g>
<g id="#ffffffff">
<path fill="#ffffff" opacity="1.00" d=" M 139.52 55.81 C 154.39 53.33 169.60 55.48 184.10 59.08 C 209.48 65.67 233.25 77.34 255.45 91.14 C 256.82 83.13 257.32 74.99 258.85 67.01 C 260.76 59.68 269.91 56.03 276.53 59.47 C 281.38 61.88 284.31 67.59 283.37 72.95 C 281.85 84.56 280.24 96.18 279.14 107.84 C 298.69 122.74 316.57 139.97 331.41 159.61 C 342.91 175.25 353.32 192.67 356.15 212.18 C 357.91 223.54 355.97 235.72 349.12 245.15 C 330.05 271.74 311.01 298.36 291.93 324.95 C 288.78 329.40 285.15 333.63 280.51 336.57 C 271.52 342.73 260.46 344.79 249.75 345.27 C 247.45 363.50 245.38 381.76 243.04 399.99 L 243.91 400.00 L 238.64 400.00 C 240.95 381.76 243.21 363.51 245.43 345.25 C 239.89 345.25 234.41 344.32 228.92 343.65 C 226.64 362.44 224.09 381.19 222.06 400.00 L 217.57 400.00 C 220.08 381.00 222.15 361.94 224.61 342.93 C 213.37 340.65 202.47 337.07 191.72 333.13 C 194.22 355.39 196.09 377.71 198.33 400.00 L 193.90 400.00 C 188.34 340.29 182.22 280.64 176.63 220.94 C 173.04 186.63 170.18 152.24 166.46 117.94 C 166.26 112.06 158.66 108.31 153.91 111.83 C 150.72 113.66 149.67 117.54 150.21 120.99 C 158.63 208.01 167.12 295.03 175.57 382.05 C 176.37 388.01 176.51 394.06 177.50 400.00 L 172.89 400.00 C 170.46 373.60 167.92 347.17 165.13 320.83 C 151.77 313.53 138.75 305.54 126.52 296.44 C 100.07 276.92 75.84 253.63 58.51 225.51 C 48.78 209.22 40.70 190.17 44.08 170.82 C 45.47 161.28 51.74 153.66 57.15 146.06 C 74.89 121.47 92.40 96.72 110.19 72.17 C 117.13 62.89 128.25 57.58 139.52 55.81 M 130.07 63.14 C 125.34 64.62 121.27 67.56 117.56 70.78 C 117.46 71.00 117.27 71.45 117.18 71.68 C 114.99 73.61 112.42 75.65 111.90 78.71 L 111.06 78.47 L 110.29 79.14 L 110.39 80.05 C 107.85 82.69 106.17 86.08 103.84 88.93 C 98.97 95.55 94.28 102.31 89.47 108.97 C 88.10 111.22 86.19 113.12 85.01 115.46 C 78.06 124.70 71.48 134.20 64.70 143.57 C 60.88 149.05 56.71 154.30 53.24 160.02 L 52.95 160.02 C 47.21 169.74 47.12 181.47 49.24 192.26 C 51.46 200.75 54.46 209.09 59.04 216.62 C 59.37 218.66 60.84 220.23 61.85 221.97 C 67.89 232.60 75.62 242.15 83.46 251.49 C 84.60 252.87 85.85 254.19 87.39 255.15 C 90.16 259.04 93.71 262.33 96.98 265.81 L 97.43 265.76 C 117.52 285.05 140.17 301.68 164.61 315.03 C 162.04 285.32 158.80 255.68 156.07 225.98 C 155.66 223.83 155.65 221.62 155.20 219.49 C 154.84 208.27 153.01 197.13 152.13 185.94 C 149.51 182.00 145.61 179.05 142.45 175.53 C 138.65 172.16 136.20 167.36 132.25 164.27 C 127.18 157.20 121.83 150.28 117.48 142.71 C 116.49 140.72 115.34 138.82 114.36 136.84 C 111.87 131.33 109.51 125.77 107.81 119.97 C 106.98 117.61 108.26 115.13 111.01 115.58 C 111.44 116.78 111.86 117.98 112.29 119.18 C 114.62 128.43 118.99 137.08 124.10 145.09 C 128.52 152.63 134.12 159.40 139.80 166.03 C 142.11 169.13 144.74 171.98 147.70 174.47 L 147.82 175.05 C 149.06 176.27 150.33 177.47 151.61 178.66 C 151.19 174.54 150.71 170.42 150.23 166.30 C 149.91 163.74 150.28 160.71 148.19 158.79 C 142.94 152.75 138.20 146.29 133.72 139.67 L 133.52 139.62 C 128.35 130.88 123.39 121.96 119.94 112.37 C 119.28 108.42 118.04 104.59 117.52 100.61 C 117.05 95.34 117.82 90.11 119.63 85.15 C 119.90 84.56 120.43 83.38 120.70 82.80 L 121.09 82.75 C 125.60 74.63 135.21 71.31 143.89 69.88 C 149.38 69.42 154.91 69.70 160.41 69.67 C 169.31 70.94 178.11 72.80 186.79 75.15 C 195.96 78.24 205.10 81.49 213.93 85.49 L 214.29 85.47 C 216.02 86.57 217.88 87.49 219.78 88.28 C 226.66 91.28 232.97 95.51 239.71 98.68 C 242.06 101.03 245.22 102.21 247.94 104.05 C 251.71 106.62 255.56 109.07 259.34 111.63 C 266.66 116.92 273.88 122.37 280.83 128.16 C 286.30 132.91 291.73 137.72 296.88 142.83 C 302.82 148.79 308.73 154.78 313.93 161.41 C 320.07 168.73 325.23 176.78 330.51 184.70 C 332.16 188.69 334.24 192.54 336.33 196.33 C 340.58 206.21 343.83 217.32 341.14 228.06 C 339.22 236.47 331.99 242.88 323.89 245.26 C 310.55 249.46 296.26 247.51 282.90 244.47 L 282.72 244.72 C 274.89 242.08 266.79 240.25 259.15 237.05 C 252.07 234.71 245.46 231.23 238.63 228.29 C 233.83 226.09 229.47 222.87 224.48 221.13 C 220.22 217.66 215.10 215.53 210.64 212.35 C 200.43 205.45 190.15 198.55 180.82 190.47 C 179.89 189.73 178.85 189.18 177.74 188.77 C 178.30 193.66 178.38 198.63 179.45 203.44 C 179.91 210.90 180.29 218.43 181.50 225.83 C 184.63 259.82 188.01 293.80 191.41 327.78 C 205.07 333.16 219.19 337.61 233.79 339.48 C 241.76 340.91 249.99 341.11 257.99 339.78 C 268.83 338.25 279.85 333.62 286.35 324.42 C 306.17 296.85 325.98 269.26 345.67 241.60 C 354.55 229.10 352.60 212.51 348.06 198.77 L 347.64 198.65 C 347.15 193.91 344.19 189.94 342.36 185.65 C 340.33 180.69 336.82 176.57 334.46 171.79 C 331.80 168.03 329.05 164.34 326.39 160.59 L 326.01 160.47 C 323.52 156.25 319.90 152.90 316.93 149.05 C 315.45 147.41 314.20 145.38 312.18 144.36 C 307.60 138.35 301.83 133.29 296.18 128.34 C 287.38 119.79 277.54 112.31 267.66 105.03 C 262.59 101.69 257.67 98.12 252.56 94.84 C 244.28 89.98 236.17 84.78 227.42 80.79 L 227.28 80.53 C 218.86 76.62 210.53 72.35 201.61 69.72 C 190.97 65.12 179.45 62.30 167.98 60.65 C 155.43 58.53 142.09 58.51 130.07 63.14 M 262.51 70.06 C 261.62 78.05 260.60 86.02 259.57 93.99 C 263.93 96.72 268.17 99.63 272.31 102.68 C 273.14 103.41 274.15 103.80 275.24 103.95 C 276.51 93.30 277.67 82.64 279.07 72.00 C 279.80 67.31 275.95 62.22 271.00 62.54 C 266.71 62.17 262.86 65.89 262.51 70.06 M 175.87 120.89 C 172.76 126.37 175.05 132.83 177.08 138.25 C 180.50 146.17 185.66 153.19 191.45 159.53 L 191.44 159.68 C 196.81 165.04 201.88 170.98 208.36 175.01 C 210.27 177.73 213.70 179.10 216.27 181.19 C 232.31 192.40 251.07 201.67 271.07 202.15 C 275.78 201.52 281.42 200.36 283.82 195.73 C 286.07 191.47 285.05 186.62 283.92 182.21 L 283.87 182.77 C 278.33 166.88 266.34 154.18 253.62 143.62 C 246.45 137.65 238.76 132.31 230.62 127.76 C 218.06 121.05 204.46 115.19 190.01 114.97 C 184.92 115.24 178.70 116.03 175.87 120.89 Z" />
</g>
<g id="#2caddeff">
<path fill="#2cadde" opacity="1.00" d=" M 130.07 63.14 C 142.09 58.51 155.43 58.53 167.98 60.65 C 166.98 60.98 165.98 61.32 165.00 61.67 C 168.62 62.64 172.36 62.94 176.09 63.09 C 176.11 64.21 176.14 65.33 176.16 66.44 C 173.92 66.55 171.51 66.24 169.46 67.37 C 166.71 68.96 163.51 69.30 160.41 69.67 C 154.91 69.70 149.38 69.42 143.89 69.88 C 135.21 71.31 125.60 74.63 121.09 82.75 L 120.70 82.80 C 118.52 83.09 116.33 83.32 114.13 83.49 C 113.80 79.28 115.47 75.41 117.18 71.68 C 117.27 71.45 117.46 71.00 117.56 70.78 C 121.27 67.56 125.34 64.62 130.07 63.14 Z" />
</g>
<g id="#45a5ddff">
<path fill="#45a5dd" opacity="1.00" d=" M 165.00 61.67 C 165.98 61.32 166.98 60.98 167.98 60.65 C 179.45 62.30 190.97 65.12 201.61 69.72 C 202.67 70.78 203.50 72.30 205.12 72.59 C 209.07 73.81 213.12 75.16 216.27 77.98 C 212.29 79.54 208.66 76.44 205.09 75.11 C 203.43 76.29 201.76 78.59 199.48 77.33 C 195.41 75.80 191.14 75.03 186.79 75.15 C 178.11 72.80 169.31 70.94 160.41 69.67 C 163.51 69.30 166.71 68.96 169.46 67.37 C 171.51 66.24 173.92 66.55 176.16 66.44 C 176.14 65.33 176.11 64.21 176.09 63.09 C 172.36 62.94 168.62 62.64 165.00 61.67 Z" />
</g>
<g id="#6296d0ff">
<path fill="#6296d0" opacity="1.00" d=" M 201.61 69.72 C 210.53 72.35 218.86 76.62 227.28 80.53 L 227.42 80.79 C 228.25 86.09 235.56 86.00 236.73 91.12 C 232.21 92.97 228.59 89.22 224.47 88.05 C 221.12 87.02 217.95 84.72 214.29 85.47 L 213.93 85.49 C 205.10 81.49 195.96 78.24 186.79 75.15 C 191.14 75.03 195.41 75.80 199.48 77.33 C 201.76 78.59 203.43 76.29 205.09 75.11 C 208.66 76.44 212.29 79.54 216.27 77.98 C 213.12 75.16 209.07 73.81 205.12 72.59 C 203.50 72.30 202.67 70.78 201.61 69.72 Z" />
</g>
<g id="#47a1deff">
<path fill="#47a1de" opacity="1.00" d=" M 111.90 78.71 C 112.42 75.65 114.99 73.61 117.18 71.68 C 115.47 75.41 113.80 79.28 114.13 83.49 C 116.33 83.32 118.52 83.09 120.70 82.80 C 120.43 83.38 119.90 84.56 119.63 85.15 C 115.52 86.87 116.55 92.22 114.00 95.31 C 113.80 94.65 113.40 93.33 113.20 92.67 C 108.44 93.35 107.11 98.76 104.90 102.27 C 102.50 98.15 105.26 93.35 103.84 88.93 C 106.17 86.08 107.85 82.69 110.39 80.05 C 110.77 79.72 111.52 79.05 111.90 78.71 Z" />
</g>
<g id="#a5a5aeff">
<path fill="#a5a5ae" opacity="1.00" d=" M 110.29 79.14 L 111.06 78.47 L 111.90 78.71 C 111.52 79.05 110.77 79.72 110.39 80.05 L 110.29 79.14 Z" />
</g>
<g id="#798cc8ff">
<path fill="#798cc8" opacity="1.00" d=" M 236.73 91.12 C 235.56 86.00 228.25 86.09 227.42 80.79 C 236.17 84.78 244.28 89.98 252.56 94.84 C 250.57 95.92 248.93 97.49 248.27 99.72 C 245.40 99.47 242.57 98.98 239.71 98.68 C 232.97 95.51 226.66 91.28 219.78 88.28 C 217.88 87.49 216.02 86.57 214.29 85.47 C 217.95 84.72 221.12 87.02 224.47 88.05 C 228.59 89.22 232.21 92.97 236.73 91.12 Z" />
</g>
<g id="#5d98d3ff">
<path fill="#5d98d3" opacity="1.00" d=" M 114.00 95.31 C 116.55 92.22 115.52 86.87 119.63 85.15 C 117.82 90.11 117.05 95.34 117.52 100.61 C 117.21 104.37 116.79 108.12 116.66 111.89 C 116.13 111.85 115.06 111.78 114.53 111.74 C 113.97 109.37 113.29 107.03 112.39 104.77 C 112.12 107.31 111.86 109.85 111.50 112.38 C 111.01 110.00 110.87 107.57 110.75 105.15 C 110.52 104.82 110.05 104.16 109.82 103.83 C 108.73 103.09 107.32 103.28 106.09 103.00 C 105.43 105.74 105.77 108.51 106.37 111.23 C 106.43 112.21 106.46 113.20 106.47 114.19 C 105.04 113.43 103.28 113.02 102.29 111.65 C 101.90 109.40 102.66 107.13 102.88 104.89 C 101.70 106.00 100.07 106.84 99.43 108.40 C 99.22 109.95 99.30 111.52 99.31 113.08 C 96.75 114.10 94.03 115.00 91.23 114.75 C 89.59 113.45 90.03 110.84 89.47 108.97 C 94.28 102.31 98.97 95.55 103.84 88.93 C 105.26 93.35 102.50 98.15 104.90 102.27 C 107.11 98.76 108.44 93.35 113.20 92.67 C 113.40 93.33 113.80 94.65 114.00 95.31 Z" />
</g>
<g id="#8b83c6ff">
<path fill="#8b83c6" opacity="1.00" d=" M 252.56 94.84 C 257.67 98.12 262.59 101.69 267.66 105.03 C 267.18 105.41 266.21 106.18 265.73 106.56 C 265.10 106.03 264.39 105.62 263.62 105.37 C 263.52 105.64 263.31 106.18 263.21 106.44 C 262.65 106.57 262.10 106.70 261.54 106.83 C 260.82 108.44 260.09 110.04 259.34 111.63 C 255.56 109.07 251.71 106.62 247.94 104.05 C 245.22 102.21 242.06 101.03 239.71 98.68 C 242.57 98.98 245.40 99.47 248.27 99.72 C 248.93 97.49 250.57 95.92 252.56 94.84 Z" />
<path fill="#8b83c6" opacity="1.00" d=" M 117.62 123.12 C 118.96 119.68 119.69 116.04 119.94 112.37 C 123.39 121.96 128.35 130.88 133.52 139.62 C 130.77 139.25 128.54 137.61 126.73 135.60 C 126.23 136.43 125.73 137.25 125.24 138.09 C 124.63 138.30 124.03 138.51 123.43 138.72 C 124.58 140.68 124.68 142.92 124.10 145.09 C 118.99 137.08 114.62 128.43 112.29 119.18 C 112.84 119.04 113.96 118.76 114.51 118.63 C 115.54 120.13 116.57 121.63 117.62 123.12 Z" />
</g>
<g id="#728ed0ff">
<path fill="#728ed0" opacity="1.00" d=" M 116.66 111.89 C 116.79 108.12 117.21 104.37 117.52 100.61 C 118.04 104.59 119.28 108.42 119.94 112.37 C 119.69 116.04 118.96 119.68 117.62 123.12 C 116.57 121.63 115.54 120.13 114.51 118.63 C 113.96 118.76 112.84 119.04 112.29 119.18 C 111.86 117.98 111.44 116.78 111.01 115.58 C 108.26 115.13 106.98 117.61 107.81 119.97 C 107.30 118.60 106.73 117.24 106.15 115.90 C 104.69 119.57 108.32 123.84 104.98 126.89 C 103.59 125.36 102.21 123.82 100.83 122.28 C 99.56 123.72 98.29 125.16 97.02 126.59 C 95.51 125.17 93.73 124.12 91.68 123.70 C 92.05 125.18 92.43 126.66 92.80 128.15 C 90.50 127.87 88.23 127.38 86.05 126.59 C 85.44 126.85 84.84 127.11 84.23 127.37 C 84.11 126.93 83.85 126.04 83.72 125.60 C 82.47 126.32 80.99 129.16 79.83 126.94 C 81.70 123.16 84.70 119.87 85.01 115.46 C 86.19 113.12 88.10 111.22 89.47 108.97 C 90.03 110.84 89.59 113.45 91.23 114.75 C 94.03 115.00 96.75 114.10 99.31 113.08 C 99.30 111.52 99.22 109.95 99.43 108.40 C 100.07 106.84 101.70 106.00 102.88 104.89 C 102.66 107.13 101.90 109.40 102.29 111.65 C 103.28 113.02 105.04 113.43 106.47 114.19 C 106.46 113.20 106.43 112.21 106.37 111.23 C 107.10 111.32 108.56 111.52 109.30 111.61 C 110.57 109.18 110.23 106.43 109.82 103.83 C 110.05 104.16 110.52 104.82 110.75 105.15 C 110.87 107.57 111.01 110.00 111.50 112.38 C 111.86 109.85 112.12 107.31 112.39 104.77 C 113.29 107.03 113.97 109.37 114.53 111.74 C 115.06 111.78 116.13 111.85 116.66 111.89 Z" />
</g>
<g id="#fefdf7ff">
<path fill="#fefdf7" opacity="1.00" d=" M 106.09 103.00 C 107.32 103.28 108.73 103.09 109.82 103.83 C 110.23 106.43 110.57 109.18 109.30 111.61 C 108.56 111.52 107.10 111.32 106.37 111.23 C 105.77 108.51 105.43 105.74 106.09 103.00 Z" />
</g>
<g id="#a07cc0ff">
<path fill="#a07cc0" opacity="1.00" d=" M 263.62 105.37 C 264.39 105.62 265.10 106.03 265.73 106.56 C 266.21 106.18 267.18 105.41 267.66 105.03 C 277.54 112.31 287.38 119.79 296.18 128.34 C 294.36 127.75 292.48 127.21 290.90 126.09 C 287.75 123.86 283.91 123.03 280.18 122.33 C 280.34 124.27 280.51 126.22 280.83 128.16 C 273.88 122.37 266.66 116.92 259.34 111.63 C 260.09 110.04 260.82 108.44 261.54 106.83 C 262.10 106.70 262.65 106.57 263.21 106.44 C 263.31 106.18 263.52 105.64 263.62 105.37 Z" />
</g>
<g id="#9380c0ff">
<path fill="#9380c0" opacity="1.00" d=" M 175.87 120.89 C 178.70 116.03 184.92 115.24 190.01 114.97 C 204.46 115.19 218.06 121.05 230.62 127.76 C 229.79 128.30 228.97 128.84 228.16 129.39 C 223.54 128.19 218.77 127.49 214.00 128.02 C 207.21 128.15 201.16 132.27 194.26 131.59 C 193.58 132.30 192.90 133.01 192.22 133.72 C 192.05 131.74 191.87 129.77 191.64 127.80 C 188.92 130.17 190.38 134.80 187.93 137.62 C 185.39 135.46 182.99 132.75 179.53 132.19 C 179.39 133.69 179.26 135.20 179.12 136.71 C 178.44 137.22 177.76 137.74 177.08 138.25 C 175.05 132.83 172.76 126.37 175.87 120.89 Z" />
</g>
<g id="#8487c6ff">
<path fill="#8487c6" opacity="1.00" d=" M 64.70 143.57 C 71.48 134.20 78.06 124.70 85.01 115.46 C 84.70 119.87 81.70 123.16 79.83 126.94 C 80.99 129.16 82.47 126.32 83.72 125.60 C 83.85 126.04 84.11 126.93 84.23 127.37 C 84.84 127.11 85.44 126.85 86.05 126.59 C 88.23 127.38 90.50 127.87 92.80 128.15 C 92.43 126.66 92.05 125.18 91.68 123.70 C 93.73 124.12 95.51 125.17 97.02 126.59 C 98.29 125.16 99.56 123.72 100.83 122.28 C 102.21 123.82 103.59 125.36 104.98 126.89 C 108.32 123.84 104.69 119.57 106.15 115.90 C 106.73 117.24 107.30 118.60 107.81 119.97 C 109.51 125.77 111.87 131.33 114.36 136.84 C 109.23 133.75 103.96 137.39 98.97 138.72 C 92.87 138.79 86.71 139.66 80.98 141.81 C 80.01 142.00 79.63 142.98 79.03 143.63 C 78.59 143.37 78.15 143.12 77.71 142.88 C 73.69 145.23 69.03 143.89 64.70 143.57 Z" />
</g>
<g id="#b174b8ff">
<path fill="#b174b8" opacity="1.00" d=" M 280.18 122.33 C 283.91 123.03 287.75 123.86 290.90 126.09 C 292.48 127.21 294.36 127.75 296.18 128.34 C 301.83 133.29 307.60 138.35 312.18 144.36 C 307.35 143.06 305.46 137.55 300.70 136.06 C 299.69 134.33 299.01 131.30 296.35 132.35 C 294.97 133.70 294.07 135.45 293.07 137.08 C 295.33 137.61 297.61 138.04 299.91 138.43 C 299.84 139.42 299.78 140.42 299.73 141.42 C 298.78 141.89 297.83 142.36 296.88 142.83 C 291.73 137.72 286.30 132.91 280.83 128.16 C 280.51 126.22 280.34 124.27 280.18 122.33 Z" />
</g>
<g id="#aa75baff">
<path fill="#aa75ba" opacity="1.00" d=" M 187.93 137.62 C 190.38 134.80 188.92 130.17 191.64 127.80 C 191.87 129.77 192.05 131.74 192.22 133.72 C 192.90 133.01 193.58 132.30 194.26 131.59 C 201.16 132.27 207.21 128.15 214.00 128.02 C 218.77 127.49 223.54 128.19 228.16 129.39 C 228.97 128.84 229.79 128.30 230.62 127.76 C 238.76 132.31 246.45 137.65 253.62 143.62 C 250.82 144.49 247.88 144.33 245.31 142.91 C 244.76 140.36 243.04 138.58 240.42 138.15 C 240.14 139.18 239.86 140.21 239.58 141.25 C 236.00 142.11 232.35 142.56 228.69 142.87 C 225.65 142.92 223.59 145.49 220.84 146.36 C 211.18 149.06 201.23 151.08 191.15 150.83 C 191.51 153.71 191.61 156.62 191.45 159.53 C 185.66 153.19 180.50 146.17 177.08 138.25 C 177.76 137.74 178.44 137.22 179.12 136.71 C 179.26 135.20 179.39 133.69 179.53 132.19 C 182.99 132.75 185.39 135.46 187.93 137.62 Z" />
<path fill="#aa75ba" opacity="1.00" d=" M 117.48 142.71 C 121.83 150.28 127.18 157.20 132.25 164.27 C 129.50 163.71 127.03 162.34 124.40 161.46 C 120.89 161.98 117.72 164.16 114.07 163.79 C 112.03 163.54 110.07 164.07 108.28 165.04 C 101.99 163.88 96.22 168.00 90.02 168.37 C 85.09 168.54 80.30 170.33 75.35 169.90 C 75.14 170.25 74.72 170.93 74.51 171.27 C 71.92 170.48 69.37 171.34 66.95 172.27 C 65.67 171.75 64.39 171.20 63.11 170.67 C 61.08 173.71 58.51 176.93 54.38 176.16 C 54.74 175.03 55.11 173.90 55.46 172.77 C 51.08 174.14 50.38 179.06 49.97 183.00 C 49.74 185.94 50.46 188.84 50.81 191.75 L 49.24 192.26 C 47.12 181.47 47.21 169.74 52.95 160.02 L 53.24 160.02 C 59.15 160.72 64.32 157.49 69.93 156.40 C 73.12 155.43 76.56 155.77 79.66 154.45 C 82.20 153.30 85.03 153.66 87.72 153.29 C 93.42 152.32 99.13 151.42 104.86 150.65 C 107.73 150.65 110.70 146.46 112.73 150.28 C 114.01 148.79 115.55 147.55 117.55 147.26 C 117.55 145.74 117.54 144.22 117.48 142.71 Z" />
</g>
<g id="#c56ab0ff">
<path fill="#c56ab0" opacity="1.00" d=" M 296.35 132.35 C 299.01 131.30 299.69 134.33 300.70 136.06 C 305.46 137.55 307.35 143.06 312.18 144.36 C 314.20 145.38 315.45 147.41 316.93 149.05 C 319.90 152.90 323.52 156.25 326.01 160.47 C 320.04 159.34 318.78 151.86 313.58 149.38 C 310.94 148.79 309.61 151.56 308.91 153.59 C 310.41 153.62 311.93 153.65 313.44 153.67 C 314.22 154.83 315.03 155.96 315.82 157.11 C 315.19 158.55 314.56 159.98 313.93 161.41 C 308.73 154.78 302.82 148.79 296.88 142.83 C 297.83 142.36 298.78 141.89 299.73 141.42 C 299.78 140.42 299.84 139.42 299.91 138.43 C 297.61 138.04 295.33 137.61 293.07 137.08 C 294.07 135.45 294.97 133.70 296.35 132.35 Z" />
</g>
<g id="#977ec0ff">
<path fill="#977ec0" opacity="1.00" d=" M 98.97 138.72 C 103.96 137.39 109.23 133.75 114.36 136.84 C 115.34 138.82 116.49 140.72 117.48 142.71 C 117.54 144.22 117.55 145.74 117.55 147.26 C 115.55 147.55 114.01 148.79 112.73 150.28 C 110.70 146.46 107.73 150.65 104.86 150.65 C 99.13 151.42 93.42 152.32 87.72 153.29 C 85.03 153.66 82.20 153.30 79.66 154.45 C 76.56 155.77 73.12 155.43 69.93 156.40 C 64.32 157.49 59.15 160.72 53.24 160.02 C 56.71 154.30 60.88 149.05 64.70 143.57 C 69.03 143.89 73.69 145.23 77.71 142.88 C 78.15 143.12 78.59 143.37 79.03 143.63 C 79.63 142.98 80.01 142.00 80.98 141.81 C 86.71 139.66 92.87 138.79 98.97 138.72 Z" />
</g>
<g id="#a978bbff">
<path fill="#a978bb" opacity="1.00" d=" M 125.24 138.09 C 125.73 137.25 126.23 136.43 126.73 135.60 C 128.54 137.61 130.77 139.25 133.52 139.62 L 133.72 139.67 C 138.20 146.29 142.94 152.75 148.19 158.79 C 150.28 160.71 149.91 163.74 150.23 166.30 C 149.25 164.98 148.17 163.73 147.07 162.50 C 145.39 162.47 144.01 161.73 143.09 160.32 C 141.83 161.22 139.53 162.49 140.68 164.35 C 143.29 167.54 147.64 169.82 147.70 174.47 C 144.74 171.98 142.11 169.13 139.80 166.03 C 134.12 159.40 128.52 152.63 124.10 145.09 C 124.68 142.92 124.58 140.68 123.43 138.72 C 124.03 138.51 124.63 138.30 125.24 138.09 Z" />
</g>
<g id="#be6cb4ff">
<path fill="#be6cb4" opacity="1.00" d=" M 240.42 138.15 C 243.04 138.58 244.76 140.36 245.31 142.91 C 247.88 144.33 250.82 144.49 253.62 143.62 C 266.34 154.18 278.33 166.88 283.87 182.77 C 283.82 183.90 283.73 185.03 283.60 186.15 C 281.04 178.91 277.67 172.00 273.15 165.76 C 270.99 164.53 268.69 163.56 266.41 162.58 C 266.81 161.45 267.22 160.33 267.63 159.21 C 265.41 156.93 263.11 154.74 260.75 152.62 C 259.71 153.72 259.10 155.07 258.84 156.56 C 260.33 156.99 261.83 157.43 263.33 157.87 C 263.48 158.38 263.79 159.39 263.94 159.90 C 258.80 161.31 257.01 154.57 252.19 154.64 C 249.04 154.96 245.63 156.23 244.17 159.27 C 239.73 159.91 235.19 159.65 230.79 160.59 C 226.89 161.45 223.54 163.84 219.62 164.65 C 216.03 165.42 212.36 165.79 208.73 166.37 C 208.41 166.90 207.78 167.97 207.46 168.50 C 205.39 167.04 202.94 164.67 200.48 166.86 C 203.24 169.44 207.15 171.16 208.36 175.01 C 201.88 170.98 196.81 165.04 191.44 159.68 L 191.45 159.53 C 191.61 156.62 191.51 153.71 191.15 150.83 C 201.23 151.08 211.18 149.06 220.84 146.36 C 223.59 145.49 225.65 142.92 228.69 142.87 C 232.35 142.56 236.00 142.11 239.58 141.25 C 239.86 140.21 240.14 139.18 240.42 138.15 Z" />
</g>
<g id="#d861abff">
<path fill="#d861ab" opacity="1.00" d=" M 308.91 153.59 C 309.61 151.56 310.94 148.79 313.58 149.38 C 318.78 151.86 320.04 159.34 326.01 160.47 L 326.39 160.59 C 329.05 164.34 331.80 168.03 334.46 171.79 C 333.15 171.02 331.85 170.26 330.55 169.49 C 330.63 172.31 329.24 174.74 327.58 176.91 C 329.00 179.32 330.12 181.91 330.51 184.70 C 325.23 176.78 320.07 168.73 313.93 161.41 C 314.56 159.98 315.19 158.55 315.82 157.11 C 315.03 155.96 314.22 154.83 313.44 153.67 C 311.93 153.65 310.41 153.62 308.91 153.59 Z" />
</g>
<g id="#d064afff">
<path fill="#d064af" opacity="1.00" d=" M 258.84 156.56 C 259.10 155.07 259.71 153.72 260.75 152.62 C 263.11 154.74 265.41 156.93 267.63 159.21 C 267.22 160.33 266.81 161.45 266.41 162.58 C 268.69 163.56 270.99 164.53 273.15 165.76 C 272.43 166.83 271.71 167.91 270.98 168.98 C 269.72 168.87 268.46 168.76 267.20 168.65 C 266.56 169.64 265.92 170.64 265.29 171.64 C 265.03 170.86 264.77 170.07 264.52 169.28 C 264.25 169.87 263.71 171.05 263.44 171.63 C 260.89 171.63 258.35 171.68 255.80 171.77 C 255.54 172.78 255.67 173.96 255.05 174.84 C 250.11 175.25 245.17 176.00 240.21 175.72 C 237.24 175.39 234.63 177.02 231.86 177.72 C 229.21 177.26 226.77 175.45 224.01 175.88 C 221.42 176.57 218.99 177.74 216.49 178.67 C 216.40 179.51 216.32 180.35 216.27 181.19 C 213.70 179.10 210.27 177.73 208.36 175.01 C 207.15 171.16 203.24 169.44 200.48 166.86 C 202.94 164.67 205.39 167.04 207.46 168.50 C 207.78 167.97 208.41 166.90 208.73 166.37 C 212.36 165.79 216.03 165.42 219.62 164.65 C 223.54 163.84 226.89 161.45 230.79 160.59 C 235.19 159.65 239.73 159.91 244.17 159.27 C 245.63 156.23 249.04 154.96 252.19 154.64 C 257.01 154.57 258.80 161.31 263.94 159.90 C 263.79 159.39 263.48 158.38 263.33 157.87 C 261.83 157.43 260.33 156.99 258.84 156.56 Z" />
</g>
<g id="#be6cbaff">
<path fill="#be6cba" opacity="1.00" d=" M 140.68 164.35 C 139.53 162.49 141.83 161.22 143.09 160.32 C 144.01 161.73 145.39 162.47 147.07 162.50 C 148.17 163.73 149.25 164.98 150.23 166.30 C 150.71 170.42 151.19 174.54 151.61 178.66 C 150.33 177.47 149.06 176.27 147.82 175.05 L 147.70 174.47 C 147.64 169.82 143.29 167.54 140.68 164.35 Z" />
</g>
<g id="#bb6eb5ff">
<path fill="#bb6eb5" opacity="1.00" d=" M 124.40 161.46 C 127.03 162.34 129.50 163.71 132.25 164.27 C 136.20 167.36 138.65 172.16 142.45 175.53 C 139.04 176.46 135.50 176.77 132.07 175.78 C 129.78 175.09 128.59 177.37 127.72 179.02 C 124.02 178.36 120.68 180.70 117.03 180.91 C 112.17 181.27 107.48 182.62 102.69 183.36 C 95.87 183.34 89.67 186.71 82.90 187.25 C 76.15 187.79 69.49 191.19 62.69 189.78 C 62.11 191.88 61.48 193.97 60.76 196.03 C 59.87 194.70 59.00 193.36 58.12 192.03 C 57.10 193.43 56.09 194.83 55.07 196.23 C 54.52 194.92 53.97 193.61 53.43 192.31 C 52.77 192.17 51.47 191.89 50.81 191.75 C 50.46 188.84 49.74 185.94 49.97 183.00 C 50.38 179.06 51.08 174.14 55.46 172.77 C 55.11 173.90 54.74 175.03 54.38 176.16 C 58.51 176.93 61.08 173.71 63.11 170.67 C 64.39 171.20 65.67 171.75 66.95 172.27 C 69.37 171.34 71.92 170.48 74.51 171.27 C 74.72 170.93 75.14 170.25 75.35 169.90 C 80.30 170.33 85.09 168.54 90.02 168.37 C 96.22 168.00 101.99 163.88 108.28 165.04 C 110.07 164.07 112.03 163.54 114.07 163.79 C 117.72 164.16 120.89 161.98 124.40 161.46 Z" />
<path fill="#bb6eb5" opacity="1.00" d=" M 177.74 188.77 C 178.85 189.18 179.89 189.73 180.82 190.47 C 178.33 192.20 180.23 194.93 180.56 197.21 C 181.28 199.36 179.95 201.41 179.45 203.44 C 178.38 198.63 178.30 193.66 177.74 188.77 Z" />
</g>
<g id="#df5da9ff">
<path fill="#df5da9" opacity="1.00" d=" M 270.98 168.98 C 271.71 167.91 272.43 166.83 273.15 165.76 C 277.67 172.00 281.04 178.91 283.60 186.15 C 283.73 185.03 283.82 183.90 283.87 182.77 L 283.92 182.21 C 285.05 186.62 286.07 191.47 283.82 195.73 C 281.42 200.36 275.78 201.52 271.07 202.15 C 251.07 201.67 232.31 192.40 216.27 181.19 C 216.32 180.35 216.40 179.51 216.49 178.67 C 218.99 177.74 221.42 176.57 224.01 175.88 C 226.77 175.45 229.21 177.26 231.86 177.72 C 234.63 177.02 237.24 175.39 240.21 175.72 C 245.17 176.00 250.11 175.25 255.05 174.84 C 255.67 173.96 255.54 172.78 255.80 171.77 C 258.35 171.68 260.89 171.63 263.44 171.63 C 263.71 171.05 264.25 169.87 264.52 169.28 C 264.77 170.07 265.03 170.86 265.29 171.64 C 265.92 170.64 266.56 169.64 267.20 168.65 C 268.46 168.76 269.72 168.87 270.98 168.98 Z" />
<path fill="#df5da9" opacity="1.00" d=" M 144.64 189.14 C 147.69 191.71 148.19 195.66 148.66 199.38 C 149.63 198.33 150.60 197.28 151.57 196.23 C 152.71 203.57 152.95 211.05 154.34 218.35 C 152.87 221.57 150.94 224.65 147.71 226.34 C 146.49 223.55 145.75 220.60 144.60 217.79 C 144.08 221.84 141.95 225.33 139.50 228.49 C 138.07 229.39 136.29 229.27 134.67 229.52 C 134.63 227.60 134.59 225.69 134.53 223.78 C 132.03 224.61 130.01 226.35 127.69 227.53 C 124.84 228.12 121.91 227.71 119.03 227.89 C 110.70 228.73 102.64 232.15 94.17 231.44 C 89.90 231.53 86.11 233.95 81.89 234.42 C 79.06 234.35 77.50 236.97 75.10 237.98 C 78.37 244.29 84.42 248.65 87.39 255.15 C 85.85 254.19 84.60 252.87 83.46 251.49 C 75.62 242.15 67.89 232.60 61.85 221.97 C 60.84 220.23 59.37 218.66 59.04 216.62 C 58.85 214.77 58.71 212.93 58.56 211.09 C 59.58 211.82 60.60 212.55 61.63 213.28 C 62.43 209.75 60.01 206.53 60.36 202.97 C 62.61 205.09 65.52 205.99 68.55 206.14 C 69.24 205.50 69.88 204.78 70.70 204.31 C 75.95 202.19 81.71 202.28 87.26 201.70 C 92.54 200.82 97.83 200.01 102.96 198.47 C 108.51 197.00 115.62 198.40 119.80 193.59 C 120.13 194.38 120.46 195.17 120.79 195.97 C 120.99 194.71 121.18 193.46 121.37 192.21 C 121.76 193.06 122.15 193.92 122.54 194.77 C 122.84 194.20 123.44 193.04 123.75 192.46 C 130.47 192.87 137.13 191.95 143.77 191.02 C 143.99 190.55 144.42 189.61 144.64 189.14 Z" />
</g>
<g id="#e55ba5ff">
<path fill="#e55ba5" opacity="1.00" d=" M 330.55 169.49 C 331.85 170.26 333.15 171.02 334.46 171.79 C 336.82 176.57 340.33 180.69 342.36 185.65 C 344.19 189.94 347.15 193.91 347.64 198.65 C 343.92 197.64 340.22 196.38 336.33 196.33 C 334.24 192.54 332.16 188.69 330.51 184.70 C 330.12 181.91 329.00 179.32 327.58 176.91 C 329.24 174.74 330.63 172.31 330.55 169.49 Z" />
</g>
<g id="#cc66b0ff">
<path fill="#cc66b0" opacity="1.00" d=" M 132.07 175.78 C 135.50 176.77 139.04 176.46 142.45 175.53 C 145.61 179.05 149.51 182.00 152.13 185.94 C 153.01 197.13 154.84 208.27 155.20 219.49 L 154.34 218.35 C 152.95 211.05 152.71 203.57 151.57 196.23 C 150.60 197.28 149.63 198.33 148.66 199.38 C 148.19 195.66 147.69 191.71 144.64 189.14 C 144.42 189.61 143.99 190.55 143.77 191.02 C 137.13 191.95 130.47 192.87 123.75 192.46 C 123.44 193.04 122.84 194.20 122.54 194.77 C 122.15 193.92 121.76 193.06 121.37 192.21 C 121.18 193.46 120.99 194.71 120.79 195.97 C 120.46 195.17 120.13 194.38 119.80 193.59 C 115.62 198.40 108.51 197.00 102.96 198.47 C 97.83 200.01 92.54 200.82 87.26 201.70 C 81.71 202.28 75.95 202.19 70.70 204.31 C 69.88 204.78 69.24 205.50 68.55 206.14 C 65.52 205.99 62.61 205.09 60.36 202.97 C 60.01 206.53 62.43 209.75 61.63 213.28 C 60.60 212.55 59.58 211.82 58.56 211.09 C 58.71 212.93 58.85 214.77 59.04 216.62 C 54.46 209.09 51.46 200.75 49.24 192.26 L 50.81 191.75 C 51.47 191.89 52.77 192.17 53.43 192.31 C 53.97 193.61 54.52 194.92 55.07 196.23 C 56.09 194.83 57.10 193.43 58.12 192.03 C 59.00 193.36 59.87 194.70 60.76 196.03 C 61.48 193.97 62.11 191.88 62.69 189.78 C 69.49 191.19 76.15 187.79 82.90 187.25 C 89.67 186.71 95.87 183.34 102.69 183.36 C 107.48 182.62 112.17 181.27 117.03 180.91 C 120.68 180.70 124.02 178.36 127.72 179.02 C 128.59 177.37 129.78 175.09 132.07 175.78 Z" />
</g>
<g id="#e85aa6ff">
<path fill="#e85aa6" opacity="1.00" d=" M 180.56 197.21 C 180.23 194.93 178.33 192.20 180.82 190.47 C 190.15 198.55 200.43 205.45 210.64 212.35 C 215.10 215.53 220.22 217.66 224.48 221.13 C 218.97 223.94 212.97 220.22 207.45 222.82 C 207.77 224.63 208.08 226.44 208.38 228.26 C 205.23 225.55 201.96 222.93 198.17 221.17 C 196.01 223.13 193.25 224.00 190.47 224.65 C 188.01 225.10 186.73 227.40 185.41 229.26 C 184.15 228.07 182.83 226.94 181.50 225.83 C 180.29 218.43 179.91 210.90 179.45 203.44 C 179.95 201.41 181.28 199.36 180.56 197.21 Z" />
</g>
<g id="#f057a5ff">
<path fill="#f057a5" opacity="1.00" d=" M 144.60 217.79 C 145.75 220.60 146.49 223.55 147.71 226.34 C 150.94 224.65 152.87 221.57 154.34 218.35 L 155.20 219.49 C 155.65 221.62 155.66 223.83 156.07 225.98 C 151.31 228.36 147.14 231.70 143.19 235.22 C 134.75 242.45 126.84 250.31 118.05 257.13 C 112.15 261.80 105.00 265.15 97.43 265.76 L 96.98 265.81 C 93.71 262.33 90.16 259.04 87.39 255.15 C 84.42 248.65 78.37 244.29 75.10 237.98 C 77.50 236.97 79.06 234.35 81.89 234.42 C 86.11 233.95 89.90 231.53 94.17 231.44 C 102.64 232.15 110.70 228.73 119.03 227.89 C 121.91 227.71 124.84 228.12 127.69 227.53 C 130.01 226.35 132.03 224.61 134.53 223.78 C 134.59 225.69 134.63 227.60 134.67 229.52 C 136.29 229.27 138.07 229.39 139.50 228.49 C 141.95 225.33 144.08 221.84 144.60 217.79 Z" />
</g>
<g id="#f853a0ff">
<path fill="#f853a0" opacity="1.00" d=" M 190.47 224.65 C 193.25 224.00 196.01 223.13 198.17 221.17 C 201.96 222.93 205.23 225.55 208.38 228.26 C 208.08 226.44 207.77 224.63 207.45 222.82 C 212.97 220.22 218.97 223.94 224.48 221.13 C 229.47 222.87 233.83 226.09 238.63 228.29 C 245.46 231.23 252.07 234.71 259.15 237.05 C 266.79 240.25 274.89 242.08 282.72 244.72 C 280.84 247.27 278.94 249.81 277.06 252.37 C 273.92 251.71 270.78 251.01 267.65 250.27 C 267.53 251.66 267.38 253.05 267.25 254.44 C 269.09 254.88 270.92 255.32 272.77 255.77 C 272.56 256.35 272.13 257.51 271.91 258.09 C 264.76 267.00 254.57 274.13 243.00 275.47 C 233.76 276.10 224.66 272.21 217.65 266.37 C 204.83 255.89 197.35 240.56 185.41 229.26 C 186.73 227.40 188.01 225.10 190.47 224.65 Z" />
</g>
<g id="#f9fafeff">
<path fill="#f9fafe" opacity="1.00" d=" M 267.25 254.44 C 267.38 253.05 267.53 251.66 267.65 250.27 C 270.78 251.01 273.92 251.71 277.06 252.37 C 278.02 253.00 280.06 253.43 279.46 255.02 C 278.65 258.03 275.22 256.25 273.08 256.37 C 272.79 256.80 272.20 257.66 271.91 258.09 C 272.13 257.51 272.56 256.35 272.77 255.77 C 270.92 255.32 269.09 254.88 267.25 254.44 Z" />
</g>
<g id="#feffffff">
<path fill="#feffff" opacity="1.00" d=" M 283.79 254.96 C 284.34 254.82 285.44 254.52 285.99 254.37 C 294.29 255.48 302.71 256.24 311.07 255.46 C 313.12 255.31 315.24 254.94 317.22 255.73 C 317.68 257.23 317.51 259.18 315.61 259.36 C 305.73 261.01 295.64 260.10 285.81 258.60 C 283.90 258.60 283.32 256.48 283.79 254.96 Z" />
</g>
<g id="#0d0e23ff">
</g>
</svg>
