<?xml version="1.0" encoding="UTF-8" ?>
<!DOCTYPE svg PUBLIC "-//W3C//DTD SVG 1.1//EN" "http://www.w3.org/Graphics/SVG/1.1/DTD/svg11.dtd">
<svg width="502pt" height="420pt" viewBox="103.4800033569336 81.69999694824219 343.8551330566406 288.08001708984375" version="1.1" xmlns="http://www.w3.org/2000/svg">
<g id="#0b1f54ff">
</g>
<g id="#bbddfdff">
<path fill="#bbddfd" opacity="1.00" d=" M 285.07 124.13 C 310.36 109.99 335.61 95.81 360.91 81.70 C 360.39 113.83 360.80 145.98 360.71 178.12 C 337.00 164.92 313.36 151.60 289.65 138.40 C 284.44 135.47 279.05 132.82 274.20 129.31 C 278.21 128.50 281.54 126.03 285.07 124.13 Z" />
<path fill="#bbddfd" opacity="1.00" d=" M 189.69 178.09 C 190.28 178.23 191.46 178.50 192.05 178.64 C 193.29 179.13 194.52 179.66 195.71 180.28 C 246.55 208.74 297.39 237.18 348.24 265.63 C 352.45 267.83 356.62 270.18 360.34 273.16 C 364.24 276.33 368.71 278.62 373.11 280.99 C 397.59 294.80 422.20 308.36 446.62 322.28 C 419.76 337.16 393.00 352.22 366.18 367.18 C 363.28 369.03 359.61 369.20 356.68 367.33 C 335.51 355.51 314.36 343.65 293.19 331.82 C 287.00 328.51 281.08 324.69 274.66 321.82 C 268.49 319.10 262.77 315.49 256.85 312.29 C 238.02 301.79 219.22 291.22 200.37 280.76 C 197.35 279.09 194.44 277.25 191.53 275.40 C 189.13 274.16 189.72 271.22 189.56 269.01 C 189.68 238.70 189.41 208.39 189.69 178.09 Z" />
</g>
<g id="#9fccfdff">
<path fill="#9fccfd" opacity="1.00" d=" M 360.91 81.70 C 362.41 82.29 363.90 82.95 365.34 83.70 C 391.19 98.20 417.08 112.62 442.95 127.08 C 445.58 128.35 447.56 130.91 447.28 133.96 C 447.34 194.64 447.24 255.33 447.33 316.02 C 447.22 318.11 447.67 320.36 446.62 322.28 C 422.20 308.36 397.59 294.80 373.11 280.99 C 368.71 278.62 364.24 276.33 360.34 273.16 C 360.75 267.78 360.82 262.39 360.69 257.00 C 360.69 230.71 360.70 204.41 360.71 178.12 C 360.80 145.98 360.39 113.83 360.91 81.70 Z" />
</g>
<g id="#e8f5feff">
<path fill="#e8f5fe" opacity="1.00" d=" M 185.66 83.68 C 188.00 82.21 191.00 82.24 193.34 83.71 C 216.21 96.50 239.09 109.30 261.96 122.10 C 266.06 124.46 270.36 126.51 274.20 129.31 C 279.05 132.82 284.44 135.47 289.65 138.40 C 313.36 151.60 337.00 164.92 360.71 178.12 C 360.70 204.41 360.69 230.71 360.69 257.00 C 360.82 262.39 360.75 267.78 360.34 273.16 C 356.62 270.18 352.45 267.83 348.24 265.63 C 297.39 237.18 246.55 208.74 195.71 180.28 C 194.52 179.66 193.29 179.13 192.05 178.64 C 191.21 178.29 190.38 177.94 189.55 177.58 C 189.36 241.65 189.43 305.71 189.42 369.78 C 162.30 354.92 135.41 339.62 108.36 324.63 C 105.81 323.36 103.32 321.14 103.54 318.02 C 103.43 255.32 103.54 192.61 103.48 129.90 C 104.51 129.11 105.63 128.44 106.73 127.75 C 133.06 113.11 159.34 98.36 185.66 83.68 Z" />
<path fill="#e8f5fe" opacity="1.00" d=" M 189.82 274.36 C 190.25 274.62 191.10 275.14 191.53 275.40 C 194.44 277.25 197.35 279.09 200.37 280.76 C 219.22 291.22 238.02 301.79 256.85 312.29 C 262.77 315.49 268.49 319.10 274.66 321.82 C 273.18 322.99 271.59 324.02 269.94 324.93 C 243.12 339.74 216.51 354.93 189.64 369.65 C 189.54 344.77 189.63 319.88 189.60 295.00 C 189.66 288.12 189.39 281.23 189.82 274.36 Z" />
</g>
</svg>
