<?xml version="1.0" encoding="UTF-8" ?>
<!DOCTYPE svg PUBLIC "-//W3C//DTD SVG 1.1//EN" "http://www.w3.org/Graphics/SVG/1.1/DTD/svg11.dtd">
<svg width="231pt" height="63pt" viewBox="0 0 231 63" version="1.1" xmlns="http://www.w3.org/2000/svg">
<g id="#f6f6f6ff">
</g>
<g id="#3165d4ff">
<path fill="#ffffff" opacity="1.00" d=" M 9.01 8.73 C 11.92 8.54 14.84 8.53 17.75 8.61 C 21.88 20.22 25.48 32.05 30.20 43.44 C 34.46 31.83 38.31 20.07 42.62 8.48 C 45.49 8.53 48.36 8.56 51.23 8.60 C 45.58 23.75 39.95 38.91 34.20 54.03 C 31.43 54.01 28.65 54.00 25.87 54.00 C 20.23 38.92 14.57 23.84 9.01 8.73 Z" />
<path fill="#ffffff" opacity="1.00" d=" M 171.61 8.64 C 174.19 8.58 176.77 8.55 179.35 8.53 C 179.33 23.68 179.44 38.84 179.30 54.00 C 176.72 54.00 174.15 54.00 171.58 54.00 C 171.60 38.88 171.54 23.76 171.61 8.64 Z" />
<path fill="#ffffff" opacity="1.00" d=" M 187.67 8.59 C 195.92 8.71 204.83 7.54 212.36 11.70 C 218.34 14.84 222.01 21.31 222.50 27.95 C 223.46 36.00 221.32 45.40 214.04 49.97 C 206.27 55.30 196.45 53.80 187.58 54.00 C 187.63 38.86 187.47 23.73 187.67 8.59 M 195.34 47.04 C 201.16 47.48 207.97 46.64 211.64 41.53 C 216.02 34.97 215.77 24.79 209.77 19.27 C 205.96 15.60 200.38 15.56 195.43 15.42 C 195.27 25.96 195.42 36.50 195.34 47.04 Z" />
<path fill="#ffffff" opacity="1.00" d=" M 57.08 23.13 C 63.82 16.93 76.23 17.80 81.35 25.66 C 84.10 29.53 84.29 34.43 84.35 39.00 C 75.91 39.03 67.46 38.92 59.02 39.07 C 59.86 43.13 62.51 47.07 66.87 47.74 C 71.31 49.01 75.56 46.57 78.36 43.29 C 80.14 44.56 81.90 45.84 83.65 47.13 C 77.41 57.53 60.07 57.49 53.88 47.08 C 49.65 39.65 50.50 28.98 57.08 23.13 M 59.71 33.53 C 65.24 33.50 70.76 33.49 76.29 33.54 C 76.16 29.26 72.35 25.52 68.01 25.82 C 63.70 25.56 59.92 29.31 59.71 33.53 Z" />
<path fill="#ffffff" opacity="1.00" d=" M 95.95 23.70 C 98.36 20.79 101.83 19.10 105.61 19.00 C 105.66 21.54 105.67 24.09 105.67 26.63 C 102.45 27.06 98.89 28.32 97.77 31.72 C 95.13 38.83 96.60 46.59 96.14 54.00 C 93.64 54.00 91.13 54.00 88.63 54.00 C 88.47 42.66 88.59 31.32 88.56 19.99 C 91.06 19.99 93.56 19.99 96.06 20.01 C 96.03 20.93 95.97 22.77 95.95 23.70 Z" />
<path fill="#ffffff" opacity="1.00" d=" M 146.50 21.53 C 152.81 17.18 162.54 18.74 166.31 25.71 C 164.53 26.93 162.75 28.14 160.96 29.34 C 158.85 27.28 156.22 24.79 152.99 25.79 C 150.73 26.06 149.26 29.15 151.25 30.70 C 154.62 33.35 159.07 34.01 162.61 36.37 C 167.84 39.93 167.87 49.01 162.45 52.41 C 155.71 56.91 145.49 55.21 141.36 47.96 C 142.99 46.56 144.66 45.20 146.35 43.88 C 148.61 46.26 151.38 48.81 154.97 48.28 C 157.42 48.36 160.08 45.79 158.70 43.34 C 155.31 39.62 149.68 39.38 145.94 36.12 C 141.72 32.44 141.84 24.79 146.50 21.53 Z" />
<path fill="#ffffff" opacity="1.00" d=" M 109.25 20.00 C 111.82 19.99 114.40 19.99 116.97 19.99 C 117.04 27.02 116.84 34.05 117.03 41.08 C 116.91 44.10 119.01 47.07 122.03 47.68 C 126.03 48.59 130.13 45.03 130.05 40.98 C 130.37 33.99 130.07 26.99 130.17 20.00 C 132.77 19.99 135.37 19.99 137.97 20.00 C 137.94 31.33 138.02 42.66 137.93 53.99 C 135.46 54.01 132.97 54.17 130.52 53.77 C 130.43 53.12 130.26 51.81 130.17 51.16 C 126.02 55.29 118.98 56.25 114.11 52.85 C 110.39 49.77 109.50 44.64 109.30 40.07 C 109.16 33.38 109.31 26.69 109.25 20.00 Z" />
</g>
</svg>
