<svg width="800" height="180" viewBox="0 0 800 180" fill="none" xmlns="http://www.w3.org/2000/svg">
<path fill-rule="evenodd" clip-rule="evenodd" d="M710.085 0.140839C759.674 0.140839 799.936 40.4017 799.936 89.9919C799.936 139.582 759.675 179.843 710.085 179.843C660.494 179.843 620.234 139.582 620.234 89.9919C620.234 40.4019 660.494 0.140839 710.085 0.140839ZM681.968 90.9903C681.968 108.104 694.049 119.322 709.293 119.322C721.086 119.322 727.558 111.412 729.284 108.392C731.01 114.432 736.187 119.322 744.96 119.322C758.91 119.322 768.115 107.961 768.115 84.9499C768.115 55.6113 746.686 31.0187 711.019 31.0187C676.647 31.0187 652.055 56.7618 652.055 90.4149C652.055 124.499 677.941 149.092 710.013 149.092C723.531 149.092 735.181 144.921 741.221 140.751L736.906 133.704C729.284 138.018 719.792 140.319 710.013 140.319C681.681 140.319 661.978 119.034 661.978 90.2712C661.978 62.5146 681.537 39.6476 710.875 39.6476C740.358 39.6476 758.479 58.7753 758.479 85.0938C758.479 102.927 752.87 110.693 745.679 110.693C739.351 110.693 736.906 106.666 736.906 100.195V63.5213H727.271V70.9997C725.545 68.6987 719.504 62.6582 709.006 62.6582C694.049 62.6582 681.968 74.0197 681.968 90.9903ZM692.323 90.9903C692.323 79.0534 700.089 71.7188 709.869 71.7188C720.655 71.7188 727.702 79.4848 727.702 90.7026C727.702 103.79 719.504 110.406 710.013 110.406C699.945 110.406 692.323 102.783 692.323 90.9903Z" fill="white"/>
<path d="M53.9184 138.668L91.3615 41.3158H75.6354L45.868 122.006L15.9134 41.3158H0L37.6304 138.668H53.9184Z" fill="white"/>
<path d="M95.6989 90.3481C95.6989 118.876 115.134 138.668 143.305 138.668C164.345 138.668 176.469 127.256 181.64 118.52L172.368 111.744C167.911 117.985 159.174 126.187 143.484 126.187C124.227 126.187 110.32 113.706 110.141 93.0228H184.493C184.671 91.2395 184.671 89.2784 184.671 88.7434C184.671 60.9283 167.911 41.3154 140.631 41.3154C116.025 41.3154 95.6991 60.7502 95.6991 90.3481H95.6989ZM110.855 82.503C111.924 65.0293 125.475 53.4398 140.631 53.4398C155.965 53.4398 169.337 63.2463 170.229 82.503H110.855Z" fill="white"/>
<path d="M241.137 38.6651C226.315 38.6651 215.433 47.6709 212.055 57.4272L212.055 41.104H197.421V138.668H212.243V91.9497C212.243 71.1234 218.81 53.4869 241.137 53.4869V38.6649L241.137 38.6651Z" fill="white"/>
<path d="M289.15 141.226C302.489 141.226 313.573 133.523 318.082 124.693V138.784H332.924V41.09H317.895V100.458C317.895 116.615 307.562 127.7 292.532 127.7C279.38 127.7 269.423 118.306 269.423 102.712V41.09H254.581V102.149C254.581 124.318 266.417 141.226 289.15 141.226V141.226Z" fill="white"/>
<path d="M342.937 118.836C347.038 127.573 355.775 138.627 375.21 138.627C393.218 138.627 406.769 127.573 406.769 111.169C406.769 78.8962 360.054 86.7415 360.054 65.8803C360.054 57.8568 366.83 53.0425 375.388 53.0425C387.334 53.0425 392.148 59.9964 394.644 64.9888L404.986 59.1049C402.49 52.151 393.575 41.2746 376.279 41.2746C359.519 41.2746 346.503 50.7248 346.503 66.4152C346.503 97.7963 393.04 90.4859 393.04 111.882C393.04 121.332 385.194 126.681 375.923 126.681C363.263 126.681 356.666 119.727 352.744 112.417L342.937 118.836Z" fill="white"/>
<path d="M418.326 131.147C418.326 136.951 423.193 141.632 428.997 141.632C434.801 141.632 439.481 136.951 439.481 131.147C439.481 125.344 434.801 120.663 428.997 120.663C423.193 120.663 418.326 125.344 418.326 131.147Z" fill="white"/>
<path d="M453.119 139.198L467.909 139.198V41.846H453.119V139.198V139.198ZM450.311 16.7587C450.311 22.5625 454.804 27.0557 460.421 27.0557C466.224 27.0557 470.718 22.5625 470.718 16.7587C470.718 11.1423 466.224 6.64914 460.421 6.64914C454.804 6.64914 450.311 11.1423 450.311 16.7587Z" fill="white"/>
<path d="M577.027 3.84064H562.049V57.5717C559.241 52.5169 548.008 39.4118 527.789 39.4118C500.081 39.4118 481.359 60.7543 481.359 90.7089C481.359 120.477 501.017 141.632 528.912 141.632C550.068 141.632 560.177 127.404 562.611 123.846L562.611 139.198L577.027 139.198V3.84082V3.84064ZM562.611 90.896C562.611 111.303 550.068 128.339 529.661 128.339C510.939 128.339 496.524 113.549 496.524 90.896C496.524 68.6172 510.378 52.8911 529.474 52.8911C547.634 52.8911 562.611 66.7452 562.611 90.896Z" fill="white"/>
</svg>
