<?xml version="1.0" encoding="UTF-8"?><svg id="Layer_1" xmlns="http://www.w3.org/2000/svg" viewBox="0 0 223.57613 223.57613"><defs><style>.cls-1{fill:#fff;fill-rule:evenodd;stroke-width:0px;}</style></defs><path class="cls-1" d="m111.78829,0C50.04937,0,0,50.04891,0,111.78806s50.04937,111.78806,111.78829,111.78806,111.78783-50.04891,111.78783-111.78806S173.52721,0,111.78829,0Zm-20.96022,189.4944c0,2.64619-2.06141,4.14266-4.58198,3.33743-33.81385-10.80362-58.29867-42.48173-58.29867-79.879s24.48482-69.07584,58.29867-79.87946c2.52057-.80523,4.58198.69101,4.58198,3.33766v6.50843c0,1.77461-1.33734,3.79453-3.00344,4.40507-26.75689,9.80004-45.90374,35.51824-45.90374,65.6283s19.14685,55.82735,45.90374,65.62784c1.66609.61054,3.00344,2.63046,3.00344,4.40553v6.50821Zm27.94696-24.14103c0,1.92941-1.56396,3.49337-3.49314,3.49337h-6.98674c-1.92918,0-3.4936-1.56396-3.4936-3.49337v-11.03c-15.24152-2.06803-22.7093-10.5998-24.73879-22.22803-.34516-1.97752,1.22426-3.78541,3.23187-3.78541h7.96889c1.67384,0,3.07502,1.19622,3.42612,2.83268,1.48006,6.90877,5.49437,12.24583,17.69187,12.24583,9.02034,0,15.42025-5.02587,15.42025-12.56409,0-7.54051-3.77174-10.39393-17.02114-12.56455-19.53077-2.62795-28.78365-8.56711-28.78365-23.87337,0-11.82498,8.95377-21.04252,22.80459-23.0116v-10.82277c0-1.92964,1.56441-3.49314,3.4936-3.49314h6.98674c1.92918,0,3.49314,1.5635,3.49314,3.49314v11.13009c11.24636,2.01468,18.42004,8.40205,20.74683,19.04608.43727,2.00237-1.15815,3.88573-3.2068,3.88573h-7.34923c-1.5676,0-2.9127-1.06262-3.35635-2.56594-1.98846-6.73528-6.80116-9.65618-15.17084-9.65618-9.25288,0-14.04871,4.45659-14.04871,10.73727,0,6.62539,2.73943,9.93865,16.90305,11.99505,19.19108,2.62613,29.12927,8.10978,29.12927,24.4431,0,12.41408-9.21823,22.45852-23.64722,24.75019v11.03593Zm18.55546,27.47846c-2.52057.80523-4.58153-.69124-4.58153-3.33743v-6.50821c0-1.94651,1.17593-3.73594,3.00298-4.40553,26.75689-9.80049,45.90374-35.51824,45.90374-65.62784s-19.14685-55.82826-45.90374-65.6283c-1.66564-.61054-3.00298-2.63046-3.00298-4.40507v-6.50843c0-2.64664,2.06096-4.14289,4.58153-3.33766,33.81385,10.80362,58.29867,42.48173,58.29867,79.87946s-24.48482,69.07539-58.29867,79.879Z"/></svg>