<?xml version="1.0" encoding="UTF-8"?><svg id="Layer_1" xmlns="http://www.w3.org/2000/svg" viewBox="0 0 223.57616 223.57615"><defs><style>.cls-1{fill:#2775ca;}.cls-1,.cls-2{fill-rule:evenodd;stroke-width:0px;}.cls-2{fill:#fff;}</style></defs><path id="Logo" class="cls-1" d="m111.78808,0c61.73902,0,111.78809,50.04906,111.78809,111.78808s-50.04907,111.78808-111.78809,111.78808S0,173.5271,0,111.78808,50.04906,0,111.78808,0Z"/><path class="cls-2" d="m137.33056,33.07349c-2.52071-.80531-4.582.69089-4.582,3.33742h0v6.5087c0,1.77458,1.33752,3.79422,3.00338,4.40489,26.7568,9.80009,45.9037,35.51836,45.9037,65.62837s-19.1469,55.8274-45.9037,65.62792c-1.82719.66942-3.00338,2.45891-3.00338,4.40534h0v6.50826c0,2.64609,2.06128,4.14273,4.582,3.33742,33.81349-10.80356,58.29859-42.48165,58.29859-79.87893s-24.4851-69.07583-58.29859-79.87938Zm-46.50253,3.33742c0-2.64653-2.06128-4.14273-4.582-3.33742-33.81392,10.80355-58.29901,42.48166-58.29901,79.87938s24.4851,69.07538,58.29901,79.87893c2.52071.80532,4.582-.69133,4.582-3.33742h0v-6.50826c0-1.77502-1.33751-3.79509-3.00381-4.40534-26.75637-9.80052-45.90369-35.51836-45.90369-65.62792s19.14732-55.82828,45.90369-65.62837c1.6663-.61067,3.00381-2.63031,3.00381-4.40489h0v-6.5087Zm24.45353,20.64792h-6.98654c-1.92933,0-3.49349,1.56372-3.49349,3.49305h0v10.82283c-13.85076,1.96923-22.80477,11.18671-22.80477,23.01169,0,15.3062,9.25299,21.24543,28.78346,23.87355,13.24974,2.17044,17.02116,5.02389,17.02116,12.56453,0,7.53803-6.39953,12.56411-15.42018,12.56411-12.19761,0-16.21146-5.33734-17.69189-12.24584-.35071-1.63649-1.75222-2.83284-3.42598-2.83284h-7.96896c-2.00736,0-3.57678,1.8079-3.23177,3.78545,2.02928,11.62815,9.49717,20.15998,24.73892,22.22785h0v11.03019c0,1.92934,1.56416,3.49349,3.49349,3.49349h6.98654c1.92933,0,3.49349-1.56416,3.49349-3.49349h0v-11.03589c14.42855-2.29188,23.64691-12.33614,23.64691-24.75032,0-16.33334-9.93819-21.81709-29.12935-24.44301-14.16333-2.05646-16.9028-5.36977-16.9028-11.99508,0-6.28073,4.79594-10.73735,14.04891-10.73735,8.3692,0,13.18223,2.92096,15.17074,9.6563.44365,1.50322,1.78861,2.56587,3.35627,2.56587h7.34908c2.04901,0,3.64429-1.88331,3.20678-3.88584-2.3265-10.64398-9.50023-17.03124-20.74655-19.04606h0v-11.13014c0-1.92933-1.56416-3.49305-3.49349-3.49305h0Z"/></svg>