<svg width="450" height="450" viewBox="59 84 331.3949890136719 282.5580139160156" fill="none" xmlns="http://www.w3.org/2000/svg">
<path fill-rule="evenodd" clip-rule="evenodd" d="M98.711 84H212.99C282.503 84 335.194 121.363 354.797 175.73H390.395V208.59H362.293C362.843 213.783 363.124 219.073 363.124 224.448V225.255C363.124 231.306 362.769 237.255 362.074 243.081H390.395V275.941H354.119C334 329.552 281.717 366.558 212.99 366.558H98.711V275.941H59V243.081H98.711V208.59H59V175.73H98.711V84ZM130.659 275.941V337.08H212.99C263.796 337.08 301.543 312.593 319.114 275.941H130.659ZM328.901 243.081H130.659V208.59H328.952C329.687 214.018 330.062 219.582 330.062 225.255V226.062C330.062 231.866 329.67 237.548 328.901 243.081ZM212.99 113.429C264.03 113.429 301.89 138.562 319.355 175.73H130.659V113.429H212.99Z" fill="white"/>
</svg>
