<?xml version="1.0" encoding="UTF-8" ?>
<!DOCTYPE svg PUBLIC "-//W3C//DTD SVG 1.1//EN" "http://www.w3.org/Graphics/SVG/1.1/DTD/svg11.dtd">
<svg width="952pt" height="888pt" viewBox="167.8021240234375 146.3321075439453 649.60498046875 649.201416015625" version="1.1" xmlns="http://www.w3.org/2000/svg">
<g id="#11171eff">
</g>
<g id="#ffffffff">
<path fill="#ffffff" opacity="1.00" d=" M 487.28 146.37 C 506.53 146.09 525.81 147.35 544.80 150.55 C 554.82 152.29 565.05 153.63 574.55 157.45 C 589.62 164.04 598.18 182.51 593.42 198.28 C 589.84 211.92 577.21 222.56 563.13 223.60 C 555.06 224.44 547.36 221.48 539.51 220.27 C 498.45 212.68 455.49 215.09 415.67 227.75 C 359.19 245.54 309.49 283.76 277.71 333.71 C 244.55 385.11 230.93 448.75 240.30 509.21 C 246.04 545.73 259.55 581.08 280.12 611.83 C 306.26 651.14 343.43 683.18 386.46 702.69 C 441.34 728.33 505.53 732.63 563.62 715.88 C 592.66 707.27 620.40 693.81 644.59 675.52 C 673.71 654.03 698.05 626.12 715.65 594.51 C 732.45 564.27 743.07 530.56 746.57 496.14 C 749.02 470.48 747.60 444.44 742.36 419.19 C 741.26 413.53 739.32 407.92 739.72 402.08 C 740.33 390.18 747.25 378.79 757.74 373.05 C 765.33 369.21 774.23 367.68 782.57 369.72 C 792.33 372.01 800.99 378.65 805.52 387.63 C 808.36 392.94 809.19 398.98 810.51 404.78 C 819.35 447.55 819.87 492.16 811.04 534.98 C 805.20 562.53 796.21 589.48 783.72 614.74 C 769.52 643.09 751.40 669.52 729.59 692.57 C 710.31 713.61 687.74 731.44 663.77 746.84 C 640.12 761.20 614.84 773.01 588.37 781.17 C 511.48 804.98 425.55 799.16 353.05 763.92 C 336.76 756.17 320.94 747.33 306.36 736.67 C 255.86 701.41 215.76 651.43 192.33 594.46 C 183.54 572.62 176.72 549.94 172.58 526.75 C 168.05 501.76 166.99 476.24 168.36 450.91 C 170.46 414.80 179.26 379.24 192.96 345.82 C 216.38 289.77 255.92 240.56 305.64 205.66 C 319.83 195.25 335.16 186.50 351.01 178.87 C 393.24 158.04 440.21 146.99 487.28 146.37 Z" />
<path fill="#ffffff" opacity="1.00" d=" M 683.34 219.26 C 694.65 217.30 706.77 218.47 716.94 224.03 C 732.59 231.53 743.38 247.80 744.93 265.00 C 746.36 276.48 742.97 288.10 736.94 297.82 C 728.35 312.34 711.79 321.53 695.01 321.79 C 678.96 322.40 662.99 326.87 649.37 335.48 C 634.85 343.82 623.31 356.86 615.50 371.57 C 604.82 391.80 602.07 416.09 608.00 438.18 C 617.11 469.27 612.65 504.07 595.84 531.79 C 578.63 561.97 547.29 583.34 513.09 589.06 C 490.97 592.82 467.74 590.53 446.95 582.01 C 415.87 569.35 390.44 543.17 379.34 511.42 C 366.19 474.94 372.18 432.31 394.90 400.88 C 414.40 374.03 445.23 355.51 478.27 351.69 C 490.72 350.19 503.39 350.78 515.71 353.09 C 521.45 354.09 526.93 356.18 532.69 357.10 C 551.75 360.33 571.91 357.84 589.31 349.26 C 601.41 343.49 612.18 334.94 620.63 324.53 C 634.32 308.36 641.49 287.17 641.77 266.09 C 642.16 252.83 649.59 240.93 658.53 231.61 C 665.56 225.51 674.19 221.08 683.34 219.26 Z" />
</g>
</svg>
