<?xml version="1.0" encoding="UTF-8" ?>
<!DOCTYPE svg PUBLIC "-//W3C//DTD SVG 1.1//EN" "http://www.w3.org/Graphics/SVG/1.1/DTD/svg11.dtd">
<svg width="446pt" height="948pt" viewBox="0 0 446 948" version="1.1" xmlns="http://www.w3.org/2000/svg">
<g id="#1e1e1eff">
</g>
<g id="#85bb65ff">
<path fill="#85bb65" opacity="1.00" d=" M 180.96 13.66 C 186.60 12.98 192.30 13.50 197.96 13.34 C 215.32 13.49 232.69 13.05 250.03 13.56 C 249.98 38.35 249.99 63.14 250.02 87.93 C 286.60 90.26 323.88 93.28 358.43 106.54 C 370.65 111.18 382.22 117.65 392.15 126.19 C 391.87 128.08 391.24 129.88 390.59 131.66 C 381.43 158.54 372.42 185.47 363.20 212.32 C 360.53 211.35 358.41 209.41 356.00 208.00 C 341.27 198.98 325.11 192.67 308.88 186.92 L 308.87 187.29 C 300.40 183.58 291.28 181.40 282.36 178.96 C 268.48 175.38 254.27 173.06 239.99 172.01 C 230.34 172.24 220.59 171.26 211.04 172.92 C 186.84 175.31 162.87 185.96 146.89 204.66 C 129.56 223.51 121.77 249.76 122.91 275.05 C 122.87 301.71 132.52 328.57 150.50 348.42 C 164.11 363.89 182.58 373.76 200.39 383.55 C 227.20 397.96 255.08 410.19 282.53 423.29 C 323.54 442.81 362.95 468.84 389.83 506.12 C 414.01 539.30 424.67 580.51 427.03 621.00 C 427.07 627.67 427.70 634.33 427.93 641.01 C 427.98 646.67 426.83 652.27 427.02 657.94 C 425.08 680.67 418.47 703.08 407.26 723.00 C 397.24 740.97 383.96 757.00 368.73 770.79 C 342.22 794.35 309.21 809.70 274.96 818.17 C 266.80 820.32 258.52 822.17 250.15 823.22 C 249.81 860.85 250.09 898.49 250.01 936.13 C 227.00 936.24 203.99 936.29 180.99 936.10 C 180.96 900.11 181.10 864.12 180.92 828.14 C 173.23 828.15 165.63 826.94 158.04 825.83 C 137.25 822.59 116.85 817.32 96.66 811.47 C 72.46 803.97 47.79 796.69 25.87 783.65 C 26.08 781.69 26.81 779.85 27.58 778.07 C 38.78 749.58 49.83 721.04 61.08 692.58 C 63.69 693.41 65.70 695.33 67.97 696.78 C 85.80 708.48 105.49 717.04 125.56 724.09 C 143.90 730.46 162.76 735.67 182.07 738.03 C 193.65 739.83 205.39 739.19 217.06 738.98 C 232.30 737.61 247.57 734.72 261.73 728.72 C 291.74 716.45 316.86 690.66 325.12 658.93 C 329.63 642.32 330.03 624.79 327.46 607.83 C 324.57 584.47 314.83 561.65 298.55 544.45 C 285.73 531.49 269.15 523.38 253.33 514.76 C 220.05 497.50 185.63 482.59 151.85 466.36 C 128.90 455.31 106.68 442.33 87.26 425.75 C 69.01 410.59 53.86 391.57 43.83 370.03 C 32.97 347.54 27.13 322.84 25.00 298.03 C 23.05 277.52 23.53 256.63 27.43 236.36 C 37.85 179.89 78.17 130.50 130.44 107.27 C 146.49 99.89 163.60 94.84 180.98 91.78 C 181.00 65.74 181.03 39.70 180.96 13.66 Z" />
</g>
</svg>
