<?xml version="1.0" encoding="UTF-8" standalone="no"?>
<!DOCTYPE svg PUBLIC "-//W3C//DTD SVG 1.1//EN" "http://www.w3.org/Graphics/SVG/1.1/DTD/svg11.dtd">
<svg width="100%" height="100%" viewBox="0 0 400 400" version="1.1" xmlns="http://www.w3.org/2000/svg" xmlns:xlink="http://www.w3.org/1999/xlink" xml:space="preserve" xmlns:serif="http://www.serif.com/" style="fill-rule:evenodd;clip-rule:evenodd;stroke-linejoin:round;stroke-miterlimit:2;">
    <g transform="matrix(1,0,0,1,-450,-450)">
        <g transform="matrix(0.540571,0,0,0.540571,131.052,440.478)">
            <g transform="matrix(2.08833,0,0,2.08833,-42019.9,-3058.15)">
                <path d="M20650.1,1486.86C20605.9,1468.16 20556.1,1468.16 20511.9,1486.86L20528.5,1526.01C20496.3,1539.65 20470.7,1565.29 20457,1597.5L20417.9,1580.92C20399.2,1625.08 20399.2,1674.92 20417.9,1719.08L20457,1702.5C20470.7,1734.71 20496.3,1760.35 20528.5,1773.99L20511.9,1813.14C20556.1,1831.84 20605.9,1831.84 20650.1,1813.14L20633.5,1773.99C20665.7,1760.35 20691.3,1734.71 20705,1702.5L20744.1,1719.08C20762.8,1674.92 20762.8,1625.08 20744.1,1580.92L20705,1597.5C20691.3,1565.29 20665.7,1539.65 20633.5,1526.01L20650.1,1486.86ZM20581,1814.21L20567.5,1800.67L20581,1787.14L20594.5,1800.67L20581,1814.21ZM20581,1524.21C20650.4,1524.21 20706.8,1580.58 20706.8,1650C20706.8,1719.42 20650.4,1775.79 20581,1775.79C20511.6,1775.79 20455.2,1719.42 20455.2,1650C20455.2,1580.58 20511.6,1524.21 20581,1524.21ZM20725,1648.42C20722.4,1645.38 20722.7,1640.99 20724.6,1638.6C20726.9,1635.75 20731.5,1635.75 20736,1638.6C20739.5,1640.6 20742.9,1645.73 20745.2,1650C20742.9,1654.27 20739.5,1659.4 20736,1661.4C20731.5,1664.25 20726.9,1664.25 20724.6,1661.4C20722.7,1658.97 20722.4,1654.49 20725.1,1651.45L20718.1,1652.71L20718.1,1647.18L20725,1648.42ZM20437,1651.58C20439.6,1654.62 20439.3,1659.01 20437.4,1661.4C20435.1,1664.25 20430.5,1664.25 20426,1661.4C20422.5,1659.4 20419.1,1654.27 20416.8,1650C20419.1,1645.73 20422.5,1640.6 20426,1638.6C20430.5,1635.75 20435.1,1635.75 20437.4,1638.6C20439.3,1641.03 20439.6,1645.51 20436.9,1648.55L20443.9,1647.29L20443.9,1652.82L20437,1651.58ZM20581,1485.79L20594.5,1499.33L20581,1512.86L20567.5,1499.33L20581,1485.79Z" style="fill:rgb(0,135,141);"/>
            </g>
        </g>
        <g transform="matrix(0.540571,0,0,0.540571,131.052,440.478)">
            <g transform="matrix(2.08833,0,0,2.08833,-42019.9,-3058.15)">
                <path d="M20457,1702.5L20417.9,1719.08C20435.8,1761.46 20469.5,1795.2 20511.9,1813.14L20528.5,1773.99C20496.3,1760.35 20470.7,1734.71 20457,1702.5ZM20744.1,1719.08L20705,1702.5C20691.3,1734.71 20665.7,1760.35 20633.5,1773.99L20650.1,1813.14C20692.5,1795.2 20726.2,1761.46 20744.1,1719.08ZM20697.3,1766.3C20699.2,1772.35 20695,1776.53 20690.9,1776.63C20686.9,1776.74 20682.9,1772.77 20681,1766.72C20679.5,1762.28 20680.3,1755.55 20681.4,1750.44C20686.6,1749.29 20693.3,1748.51 20697.7,1750.02C20703.8,1751.9 20707.7,1755.87 20707.6,1759.94C20707.5,1764.01 20703.4,1768.18 20697.3,1766.3ZM20475.8,1756.84C20478,1756.5 20480.3,1757.21 20482,1758.92C20484.7,1761.66 20484.9,1765.93 20482.4,1768.46C20479.8,1770.98 20475.6,1770.81 20472.8,1768.08C20472.5,1767.77 20472.2,1767.43 20472,1767.09C20471.8,1768.41 20471.3,1769.66 20470.3,1770.65C20467.7,1773.17 20463.5,1773 20460.7,1770.27C20458,1767.53 20457.8,1763.26 20460.4,1760.73C20461.3,1759.75 20462.6,1759.17 20463.9,1759C20463.6,1758.76 20463.2,1758.48 20462.9,1758.16C20460.2,1755.43 20460,1751.16 20462.5,1748.63C20465.1,1746.1 20469.3,1746.27 20472.1,1749.01C20473.8,1750.73 20474.5,1753.05 20474.2,1755.16L20478.8,1748.72L20482.3,1752.16L20475.8,1756.84ZM20528.5,1526.01L20511.9,1486.86C20469.5,1504.8 20435.8,1538.54 20417.9,1580.92C20417.9,1580.92 20457,1597.5 20457,1597.5C20470.7,1565.29 20496.3,1539.65 20528.5,1526.01ZM20650.1,1486.86L20633.5,1526.01C20665.7,1539.65 20691.3,1565.29 20705,1597.5L20744.1,1580.92C20726.2,1538.54 20692.5,1504.8 20650.1,1486.86ZM20686.2,1543.16C20684,1543.5 20681.7,1542.79 20680,1541.08C20677.3,1538.34 20677.1,1534.07 20679.6,1531.54C20682.2,1529.02 20686.4,1529.19 20689.2,1531.92C20689.5,1532.23 20689.8,1532.57 20690,1532.91C20690.2,1531.59 20690.7,1530.34 20691.7,1529.35C20694.3,1526.83 20698.5,1527 20701.3,1529.73C20704,1532.47 20704.2,1536.74 20701.6,1539.27C20700.7,1540.25 20699.4,1540.83 20698.1,1541C20698.4,1541.25 20698.8,1541.52 20699.1,1541.84C20701.8,1544.57 20702,1548.84 20699.5,1551.37C20696.9,1553.9 20692.7,1553.73 20689.9,1550.99C20688.2,1549.27 20687.5,1546.95 20687.8,1544.84L20683.2,1551.28L20679.7,1547.84L20686.2,1543.16ZM20464.7,1533.7C20462.8,1527.65 20467,1523.47 20471.1,1523.37C20475.1,1523.26 20479.1,1527.23 20481,1533.28C20482.5,1537.72 20481.7,1544.45 20480.6,1549.56C20475.4,1550.71 20468.7,1551.49 20464.3,1549.98C20458.2,1548.1 20454.3,1544.13 20454.4,1540.06C20454.5,1535.99 20458.6,1531.82 20464.7,1533.7Z" style="fill:rgb(251,174,23);"/>
            </g>
        </g>
        <g transform="matrix(0.540571,0,0,0.540571,131.052,440.478)">
            <g transform="matrix(2.62635,0,0,2.62635,900.551,196.089)">
                <path d="M-3.553,151.783L24.936,85.124L-11.834,90.003L51.46,-3.239L26.048,63.034L69.183,56.113L-3.553,151.783Z" style="fill:rgb(251,174,23);fill-rule:nonzero;"/>
            </g>
        </g>
        <g transform="matrix(0.540571,0,0,0.540571,131.052,440.478)">
            <g transform="matrix(2.08833,0,0,2.08833,-37022.5,-3041.98)">
                <path d="M18207.5,1691.24C18212.5,1688.89 18217.2,1685.77 18221.3,1681.95C18221.3,1681.95 18255.1,1715.69 18255.1,1715.69C18236.1,1733.84 18210.9,1744.01 18184.6,1744.01C18179.1,1744.01 18173.7,1743.56 18168.4,1742.71L18207.5,1691.24ZM18145.9,1736.36C18108.9,1721.11 18082.9,1684.7 18082.9,1642.26C18082.9,1586.1 18128.5,1540.51 18184.6,1540.51C18194.7,1540.51 18204.6,1542.01 18214.1,1544.87C18214.1,1544.87 18184.7,1588.21 18184.7,1588.21C18184.7,1588.21 18184.7,1588.21 18184.6,1588.21C18154.8,1588.21 18130.6,1612.43 18130.6,1642.26C18130.6,1664.89 18144.5,1684.29 18164.3,1692.34L18145.9,1736.36ZM18231.8,1552.09C18240.2,1556.5 18248.1,1562.12 18255.1,1568.83C18255.1,1568.83 18221.3,1602.57 18221.3,1602.57C18219.3,1600.68 18217.1,1598.96 18214.8,1597.42C18214.8,1597.42 18231.8,1552.09 18231.8,1552.09L18231.8,1552.09Z" style="fill:rgb(0,135,141);"/>
            </g>
        </g>
    </g>
</svg>
