<?xml version="1.0" encoding="UTF-8" ?>
<!DOCTYPE svg PUBLIC "-//W3C//DTD SVG 1.1//EN" "http://www.w3.org/Graphics/SVG/1.1/DTD/svg11.dtd">
<svg width="1200pt" height="675pt" viewBox="349.92059326171875 36.967498779296875 550.0994873046875 551.0574951171875" version="1.1" xmlns="http://www.w3.org/2000/svg">
<g id="#78777778">
<path fill="#787777" opacity="0.47" d=" M 614.00 37.02 C 622.32 36.95 630.66 36.95 639.00 37.02 L 639.00 37.98 C 630.66 38.00 622.33 38.07 614.00 37.98 L 614.00 37.02 Z" />
</g>
<g id="#fffefeff">
<path fill="#fffefe" opacity="1.00" d=" M 428.75 119.75 C 476.70 69.79 544.98 40.39 614.00 37.98 C 622.33 38.07 630.66 38.00 639.00 37.98 C 681.00 39.23 722.12 52.25 759.01 71.98 C 795.81 92.93 828.30 121.80 852.02 156.99 C 885.26 205.18 901.65 264.40 899.71 322.75 C 899.18 326.13 898.91 329.58 898.98 333.01 C 898.13 357.91 891.90 382.43 883.85 405.91 C 877.56 421.72 871.30 437.67 862.10 452.07 C 838.49 492.39 804.42 526.52 764.01 550.02 C 725.54 572.51 681.48 585.14 637.00 587.02 C 628.66 586.98 620.33 586.94 612.00 587.02 C 526.03 584.09 443.04 536.91 395.99 465.01 C 364.00 417.65 348.94 359.90 349.97 303.00 C 352.37 235.01 380.75 168.07 428.75 119.75 M 517.19 98.14 C 513.83 107.75 509.42 117.01 506.76 126.85 C 495.46 125.79 483.15 130.44 478.17 141.24 C 477.64 135.84 478.64 130.18 477.17 124.90 C 475.43 118.77 471.10 113.52 465.91 109.99 C 465.49 110.03 464.65 110.12 464.23 110.16 C 451.31 123.25 438.30 136.27 425.20 149.18 C 423.84 151.89 422.87 154.92 422.98 157.98 C 422.49 157.99 421.52 158.01 421.03 158.02 L 420.97 158.98 C 418.03 158.65 416.59 162.15 415.03 164.03 C 412.23 167.87 415.50 172.94 417.93 176.01 C 424.37 190.52 431.13 205.47 438.96 219.10 C 442.44 228.05 447.52 236.43 451.55 245.19 C 453.32 250.17 455.88 255.90 458.99 260.10 C 461.05 266.01 464.13 271.90 467.52 277.22 C 469.59 282.90 472.65 289.15 475.98 294.10 C 478.47 302.12 482.72 310.13 486.99 317.10 C 489.24 323.25 492.48 329.76 495.99 335.09 C 497.85 339.78 499.86 345.20 502.97 349.10 C 502.75 350.78 503.56 352.27 504.34 353.70 C 507.19 358.26 508.58 364.10 511.97 368.10 C 514.26 374.26 517.47 380.75 520.98 386.10 C 523.32 392.56 526.98 399.08 529.99 405.11 C 531.94 410.57 534.75 416.47 537.99 421.10 C 540.91 428.57 544.84 436.39 548.98 443.10 C 551.99 450.89 556.38 458.74 560.00 466.11 C 562.92 473.57 566.83 481.43 570.99 488.10 C 576.33 501.41 584.17 513.86 589.78 527.15 C 590.77 529.14 591.24 531.66 592.99 533.11 C 594.29 536.57 595.88 540.91 599.00 543.03 C 602.08 547.86 607.35 551.65 613.01 552.94 C 616.21 554.85 620.34 554.88 624.01 555.04 C 627.99 554.53 632.56 554.25 635.96 551.91 C 644.34 548.85 650.74 541.44 653.58 533.21 C 655.26 531.10 656.03 528.47 657.11 526.04 C 664.59 509.96 673.41 494.33 680.55 478.21 C 683.20 474.91 683.99 470.66 686.00 467.03 C 694.97 448.67 704.63 430.64 712.99 412.00 C 721.26 394.97 730.38 378.33 738.03 361.01 C 750.58 335.83 763.35 310.63 775.03 285.12 C 779.77 277.72 783.50 269.16 787.01 261.09 L 787.76 260.73 C 790.08 253.53 794.57 247.20 797.03 240.12 C 801.78 232.73 805.48 224.16 809.02 216.10 C 813.32 209.97 816.16 202.17 819.01 195.10 C 824.52 186.78 828.06 176.81 833.02 167.99 C 834.85 165.56 833.90 162.13 831.73 160.28 C 827.97 157.89 823.09 159.50 818.98 158.95 C 816.65 159.11 814.78 160.69 813.03 162.08 C 813.10 160.40 813.06 158.72 812.95 157.05 C 794.02 157.17 775.17 155.13 756.23 156.14 C 751.89 163.31 744.31 167.75 739.62 174.65 C 736.34 178.69 732.34 182.20 728.02 185.04 C 718.05 177.31 702.98 179.08 694.18 187.94 C 690.47 177.48 687.32 166.90 684.94 156.05 C 667.65 155.92 650.36 155.99 633.08 156.03 C 633.04 157.53 632.95 160.53 632.91 162.03 C 627.37 161.65 621.62 160.02 616.30 162.35 C 604.86 165.29 598.21 177.45 598.77 188.77 C 598.18 190.11 596.75 190.23 595.69 189.36 C 582.04 181.04 562.79 189.61 558.74 204.88 C 551.17 202.39 542.89 203.16 535.92 206.96 C 543.17 182.77 553.20 159.10 558.36 134.18 C 561.65 122.55 569.39 111.24 566.39 98.68 C 563.81 87.32 552.56 79.15 541.08 79.14 C 530.08 80.00 520.89 87.97 517.19 98.14 Z" />
</g>
<g id="#ffffffff">
<path fill="#ffffff" opacity="1.00" d=" M 517.19 98.14 C 520.89 87.97 530.08 80.00 541.08 79.14 C 552.56 79.15 563.81 87.32 566.39 98.68 C 569.39 111.24 561.65 122.55 558.36 134.18 C 553.20 159.10 543.17 182.77 535.92 206.96 C 542.89 203.16 551.17 202.39 558.74 204.88 C 562.79 189.61 582.04 181.04 595.69 189.36 C 596.75 190.23 598.18 190.11 598.77 188.77 C 598.21 177.45 604.86 165.29 616.30 162.35 C 621.62 160.02 627.37 161.65 632.91 162.03 C 632.95 160.53 633.04 157.53 633.08 156.03 C 650.36 155.99 667.65 155.92 684.94 156.05 C 687.32 166.90 690.47 177.48 694.18 187.94 C 702.98 179.08 718.05 177.31 728.02 185.04 C 732.34 182.20 736.34 178.69 739.62 174.65 C 744.31 167.75 751.89 163.31 756.23 156.14 C 775.17 155.13 794.02 157.17 812.95 157.05 C 813.06 158.72 813.10 160.40 813.03 162.08 C 811.31 165.16 809.82 168.37 808.71 171.72 C 804.49 180.02 800.22 188.30 796.26 196.72 C 792.76 203.30 789.43 209.98 786.26 216.73 C 782.06 224.62 778.12 232.66 774.25 240.72 C 760.06 271.08 744.02 300.56 730.02 331.01 C 712.87 364.74 696.45 398.82 679.83 432.81 C 673.19 441.06 663.70 446.65 653.00 447.19 C 647.41 446.58 641.91 445.19 636.89 442.63 C 631.46 439.54 627.51 434.94 624.29 429.72 C 623.56 428.16 622.78 426.64 621.97 425.14 C 611.31 401.27 598.90 378.17 587.25 354.76 C 582.02 344.95 578.06 334.53 572.75 324.78 C 568.86 316.72 565.03 308.63 560.75 300.77 C 557.41 293.69 553.92 286.67 550.26 279.75 C 547.07 273.01 543.74 266.34 540.26 259.75 C 537.29 252.19 533.64 244.90 529.74 237.78 C 526.55 231.04 523.34 224.31 519.75 217.78 C 516.42 210.69 512.92 203.68 509.26 196.75 C 504.52 187.51 500.36 178.00 495.72 168.72 C 494.05 165.35 492.65 161.08 489.01 159.45 C 488.56 159.27 487.68 158.92 487.23 158.74 C 465.92 157.00 444.38 158.51 422.98 157.98 C 422.87 154.92 423.84 151.89 425.20 149.18 C 438.30 136.27 451.31 123.25 464.23 110.16 C 464.65 110.12 465.49 110.03 465.91 109.99 C 471.10 113.52 475.43 118.77 477.17 124.90 C 478.64 130.18 477.64 135.84 478.17 141.24 C 483.15 130.44 495.46 125.79 506.76 126.85 C 509.42 117.01 513.83 107.75 517.19 98.14 Z" />
</g>
<g id="#f4f3faff">
<path fill="#f4f3fa" opacity="1.00" d=" M 421.03 158.02 C 421.52 158.01 422.49 157.99 422.98 157.98 C 444.38 158.51 465.92 157.00 487.23 158.74 C 484.47 158.83 481.73 158.92 479.00 159.01 C 475.96 158.99 473.00 158.99 470.00 159.01 C 466.63 158.98 463.34 158.98 460.00 159.01 C 456.96 158.98 454.00 158.98 451.00 159.01 C 447.96 158.98 445.00 158.98 442.00 159.01 C 438.63 158.98 435.34 158.98 432.00 159.01 C 429.32 158.99 426.66 158.99 424.00 159.01 C 423.24 159.00 421.73 158.99 420.97 158.98 L 421.03 158.02 Z" />
</g>
<g id="#ab71ccff">
<path fill="#ab71cc" opacity="1.00" d=" M 415.03 164.03 C 416.59 162.15 418.03 158.65 420.97 158.98 C 421.73 158.99 423.24 159.00 424.00 159.01 C 424.02 166.72 424.01 174.44 423.86 182.16 C 421.97 180.02 420.46 177.47 417.93 176.01 C 415.50 172.94 412.23 167.87 415.03 164.03 Z" />
</g>
<g id="#a475cfff">
<path fill="#a475cf" opacity="1.00" d=" M 424.00 159.01 C 426.66 158.99 429.32 158.99 432.00 159.01 C 432.00 170.04 432.04 181.08 431.89 192.12 C 429.20 188.80 426.70 185.34 423.86 182.16 C 424.01 174.44 424.02 166.72 424.00 159.01 Z" />
</g>
<g id="#9e7ad2ff">
<path fill="#9e7ad2" opacity="1.00" d=" M 432.00 159.01 C 435.34 158.98 438.63 158.98 442.00 159.01 C 441.92 174.06 442.17 189.11 441.88 204.15 C 440.98 203.36 440.09 202.58 439.22 201.77 C 437.03 198.36 434.52 195.19 431.89 192.12 C 432.04 181.08 432.00 170.04 432.00 159.01 Z" />
</g>
<g id="#997fd5ff">
<path fill="#997fd5" opacity="1.00" d=" M 442.00 159.01 C 445.00 158.98 447.96 158.98 451.00 159.01 C 451.01 174.34 450.96 189.67 451.05 205.00 C 450.69 208.04 451.70 211.58 450.08 214.45 C 447.04 211.27 444.64 207.56 441.88 204.15 C 442.17 189.11 441.92 174.06 442.00 159.01 Z" />
</g>
<g id="#9483d7ff">
<path fill="#9483d7" opacity="1.00" d=" M 451.00 159.01 C 454.00 158.98 456.96 158.98 460.00 159.01 C 459.91 181.41 460.19 203.82 459.84 226.23 L 459.11 225.81 C 456.72 222.88 454.51 219.79 452.12 216.86 C 451.46 216.03 450.77 215.24 450.08 214.45 C 451.70 211.58 450.69 208.04 451.05 205.00 C 450.96 189.67 451.01 174.34 451.00 159.01 Z" />
</g>
<g id="#8e88daff">
<path fill="#8e88da" opacity="1.00" d=" M 460.00 159.01 C 463.34 158.98 466.63 158.98 470.00 159.01 C 469.86 185.42 470.27 211.84 469.80 238.25 C 469.39 237.90 468.56 237.18 468.15 236.82 C 465.34 233.31 462.32 229.97 459.84 226.23 C 460.19 203.82 459.91 181.41 460.00 159.01 Z" />
</g>
<g id="#888dddff">
<path fill="#888ddd" opacity="1.00" d=" M 470.00 159.01 C 473.00 158.99 475.96 158.99 479.00 159.01 C 478.94 189.37 479.12 219.74 478.92 250.10 C 478.00 249.00 477.11 247.89 476.16 246.83 C 473.89 244.09 471.75 241.23 469.80 238.25 C 470.27 211.84 469.86 185.42 470.00 159.01 Z" />
</g>
<g id="#8391dfff">
<path fill="#8391df" opacity="1.00" d=" M 479.00 159.01 C 481.73 158.92 484.47 158.83 487.23 158.74 C 487.68 158.92 488.56 159.27 489.01 159.45 C 487.34 166.18 488.16 173.15 487.98 180.00 C 487.93 207.08 488.18 234.16 487.84 261.23 L 487.27 260.65 C 484.75 256.92 481.90 253.45 478.92 250.10 C 479.12 219.74 478.94 189.37 479.00 159.01 Z" />
</g>
<g id="#25bbe1ff">
<path fill="#25bbe1" opacity="1.00" d=" M 813.03 162.08 C 814.78 160.69 816.65 159.11 818.98 158.95 C 818.99 171.00 819.01 183.05 819.01 195.10 C 816.16 202.17 813.32 209.97 809.02 216.10 C 808.82 201.31 809.36 186.50 808.71 171.72 C 809.82 168.37 811.31 165.16 813.03 162.08 Z" />
</g>
<g id="#26badbff">
<path fill="#26badb" opacity="1.00" d=" M 818.98 158.95 C 823.09 159.50 827.97 157.89 831.73 160.28 C 833.90 162.13 834.85 165.56 833.02 167.99 C 828.06 176.81 824.52 186.78 819.01 195.10 C 819.01 183.05 818.99 171.00 818.98 158.95 Z" />
</g>
<g id="#7e96e2ff">
<path fill="#7e96e2" opacity="1.00" d=" M 487.98 180.00 C 488.16 173.15 487.34 166.18 489.01 159.45 C 492.65 161.08 494.05 165.35 495.72 168.72 C 494.97 172.40 496.76 176.10 497.28 179.74 C 496.23 210.18 498.02 240.71 496.34 271.11 C 493.39 267.91 490.73 264.47 487.84 261.23 C 488.18 234.16 487.93 207.08 487.98 180.00 Z" />
</g>
<g id="#6a91e2ff">
<path fill="#6a91e2" opacity="1.00" d=" M 497.28 179.74 C 496.76 176.10 494.97 172.40 495.72 168.72 C 500.36 178.00 504.52 187.51 509.26 196.75 C 508.99 204.58 509.05 212.43 508.70 220.26 C 507.43 216.45 506.50 212.56 505.28 208.76 C 502.78 199.04 500.24 189.33 497.28 179.74 Z" />
</g>
<g id="#20bbe7ff">
<path fill="#20bbe7" opacity="1.00" d=" M 796.26 196.72 C 800.22 188.30 804.49 180.02 808.71 171.72 C 809.36 186.50 808.82 201.31 809.02 216.10 C 805.48 224.16 801.78 232.73 797.03 240.12 C 796.40 225.69 798.12 211.00 796.26 196.72 Z" />
</g>
<g id="#996bccff">
<path fill="#996bcc" opacity="1.00" d=" M 417.93 176.01 C 420.46 177.47 421.97 180.02 423.86 182.16 C 426.70 185.34 429.20 188.80 431.89 192.12 C 434.52 195.19 437.03 198.36 439.22 201.77 C 439.04 207.55 438.95 213.32 438.96 219.10 C 431.13 205.47 424.37 190.52 417.93 176.01 Z" />
</g>
<g id="#7a99e4ff">
<path fill="#7a99e4" opacity="1.00" d=" M 497.28 179.74 C 500.24 189.33 502.78 199.04 505.28 208.76 C 504.21 232.92 506.08 257.20 504.31 281.30 C 504.02 280.94 503.45 280.23 503.17 279.88 C 500.94 277.14 498.69 274.43 496.32 271.84 L 496.34 271.11 C 498.02 240.71 496.23 210.18 497.28 179.74 Z" />
</g>
<g id="#6395e5ff">
<path fill="#6395e5" opacity="1.00" d=" M 509.26 196.75 C 512.92 203.68 516.42 210.69 519.75 217.78 C 518.04 230.87 519.70 244.12 518.71 257.26 C 517.51 254.17 516.67 250.96 515.78 247.77 C 513.92 238.48 510.73 229.51 508.70 220.26 C 509.05 212.43 508.99 204.58 509.26 196.75 Z" />
</g>
<g id="#1fbceeff">
<path fill="#1fbcee" opacity="1.00" d=" M 796.26 196.72 C 798.12 211.00 796.40 225.69 797.03 240.12 C 794.57 247.20 790.08 253.53 787.76 260.73 L 787.01 261.09 C 786.30 246.36 788.28 231.30 786.26 216.73 C 789.43 209.98 792.76 203.30 796.26 196.72 Z" />
</g>
<g id="#8e70d0ff">
<path fill="#8e70d0" opacity="1.00" d=" M 439.22 201.77 C 440.09 202.58 440.98 203.36 441.88 204.15 C 444.64 207.56 447.04 211.27 450.08 214.45 C 450.77 215.24 451.46 216.03 452.12 216.86 C 451.80 226.29 452.48 235.78 451.55 245.19 C 447.52 236.43 442.44 228.05 438.96 219.10 C 438.95 213.32 439.04 207.55 439.22 201.77 Z" />
</g>
<g id="#759ee7ff">
<path fill="#759ee7" opacity="1.00" d=" M 505.28 208.76 C 506.50 212.56 507.43 216.45 508.70 220.26 C 510.73 229.51 513.92 238.48 515.78 247.77 C 514.04 263.18 515.56 278.74 514.82 294.20 C 514.11 293.40 513.42 292.59 512.75 291.76 C 510.11 288.13 506.99 284.89 504.31 281.30 C 506.08 257.20 504.21 232.92 505.28 208.76 Z" />
</g>
<g id="#8978d4ff">
<path fill="#8978d4" opacity="1.00" d=" M 452.12 216.86 C 454.51 219.79 456.72 222.88 459.11 225.81 C 458.95 237.23 458.99 248.66 458.99 260.10 C 455.88 255.90 453.32 250.17 451.55 245.19 C 452.48 235.78 451.80 226.29 452.12 216.86 Z" />
</g>
<g id="#1dbcf4ff">
<path fill="#1dbcf4" opacity="1.00" d=" M 786.26 216.73 C 788.28 231.30 786.30 246.36 787.01 261.09 C 783.50 269.16 779.77 277.72 775.03 285.12 C 774.27 270.37 776.31 255.29 774.25 240.72 C 778.12 232.66 782.06 224.62 786.26 216.73 Z" />
</g>
<g id="#5e9ae8ff">
<path fill="#5e9ae8" opacity="1.00" d=" M 518.71 257.26 C 519.70 244.12 518.04 230.87 519.75 217.78 C 523.34 224.31 526.55 231.04 529.74 237.78 C 527.94 256.54 529.76 275.45 528.68 294.26 C 525.30 281.94 521.67 269.68 518.71 257.26 Z" />
</g>
<g id="#837ad6ff">
<path fill="#837ad6" opacity="1.00" d=" M 459.11 225.81 L 459.84 226.23 C 462.32 229.97 465.34 233.31 468.15 236.82 C 467.40 250.26 468.92 263.83 467.52 277.22 C 464.13 271.90 461.05 266.01 458.99 260.10 C 458.99 248.66 458.95 237.23 459.11 225.81 Z" />
</g>
<g id="#7d7fd8ff">
<path fill="#7d7fd8" opacity="1.00" d=" M 468.15 236.82 C 468.56 237.18 469.39 237.90 469.80 238.25 C 471.75 241.23 473.89 244.09 476.16 246.83 C 475.85 262.58 476.05 278.34 475.98 294.10 C 472.65 289.15 469.59 282.90 467.52 277.22 C 468.92 263.83 467.40 250.26 468.15 236.82 Z" />
</g>
<g id="#5a9ee9ff">
<path fill="#5a9ee9" opacity="1.00" d=" M 528.68 294.26 C 529.76 275.45 527.94 256.54 529.74 237.78 C 533.64 244.90 537.29 252.19 540.26 259.75 C 539.16 281.20 541.15 302.87 539.35 324.22 C 538.37 322.98 537.29 321.83 536.06 320.85 C 536.84 324.83 537.99 328.73 538.87 332.69 C 536.86 362.06 538.56 391.64 537.99 421.10 C 534.75 416.47 531.94 410.57 529.99 405.11 C 530.17 374.67 529.69 344.22 530.19 313.78 C 531.71 315.29 533.25 316.80 534.98 318.10 C 533.00 310.12 530.47 302.28 528.68 294.26 Z" />
</g>
<g id="#18bcfdff">
<path fill="#18bcfd" opacity="1.00" d=" M 774.25 240.72 C 776.31 255.29 774.27 270.37 775.03 285.12 C 763.35 310.63 750.58 335.83 738.03 361.01 C 730.38 378.33 721.26 394.97 712.99 412.00 C 704.63 430.64 694.97 448.67 686.00 467.03 C 683.99 470.66 683.20 474.91 680.55 478.21 C 679.29 463.10 680.47 447.93 679.83 432.81 C 696.45 398.82 712.87 364.74 730.02 331.01 C 744.02 300.56 760.06 271.08 774.25 240.72 Z" />
</g>
<g id="#7885dcff">
<path fill="#7885dc" opacity="1.00" d=" M 476.16 246.83 C 477.11 247.89 478.00 249.00 478.92 250.10 C 481.90 253.45 484.75 256.92 487.27 260.65 C 486.70 279.46 487.13 298.28 486.99 317.10 C 482.72 310.13 478.47 302.12 475.98 294.10 C 476.05 278.34 475.85 262.58 476.16 246.83 Z" />
</g>
<g id="#6ea3e9ff">
<path fill="#6ea3e9" opacity="1.00" d=" M 514.82 294.20 C 515.56 278.74 514.04 263.18 515.78 247.77 C 516.67 250.96 517.51 254.17 518.71 257.26 C 521.67 269.68 525.30 281.94 528.68 294.26 C 530.47 302.28 533.00 310.12 534.98 318.10 C 533.25 316.80 531.71 315.29 530.19 313.78 C 527.77 309.80 524.75 306.28 521.70 302.80 C 519.40 299.92 517.11 297.07 514.82 294.20 Z" />
</g>
<g id="#55a1ebff">
<path fill="#55a1eb" opacity="1.00" d=" M 540.26 259.75 C 543.74 266.34 547.07 273.01 550.26 279.75 C 549.64 298.89 550.30 318.03 549.82 337.17 C 546.15 333.00 542.58 328.74 539.35 324.22 C 541.15 302.87 539.16 281.20 540.26 259.75 Z" />
</g>
<g id="#718adeff">
<path fill="#718ade" opacity="1.00" d=" M 487.27 260.65 L 487.84 261.23 C 490.73 264.47 493.39 267.91 496.34 271.11 L 496.32 271.84 C 495.61 292.91 496.18 314.01 495.99 335.09 C 492.48 329.76 489.24 323.25 486.99 317.10 C 487.13 298.28 486.70 279.46 487.27 260.65 Z" />
</g>
<g id="#6c8de0ff">
<path fill="#6c8de0" opacity="1.00" d=" M 496.32 271.84 C 498.69 274.43 500.94 277.14 503.17 279.88 C 502.79 302.95 503.13 326.03 502.97 349.10 C 499.86 345.20 497.85 339.78 495.99 335.09 C 496.18 314.01 495.61 292.91 496.32 271.84 Z" />
</g>
<g id="#6892e3ff">
<path fill="#6892e3" opacity="1.00" d=" M 503.17 279.88 C 503.45 280.23 504.02 280.94 504.31 281.30 C 506.99 284.89 510.11 288.13 512.75 291.76 C 511.02 317.14 512.50 342.67 511.97 368.10 C 508.58 364.10 507.19 358.26 504.34 353.70 C 503.56 352.27 502.75 350.78 502.97 349.10 C 503.13 326.03 502.79 302.95 503.17 279.88 Z" />
</g>
<g id="#51a5edff">
<path fill="#51a5ed" opacity="1.00" d=" M 550.26 279.75 C 553.92 286.67 557.41 293.69 560.75 300.77 C 558.96 316.88 560.75 333.15 559.72 349.31 C 558.35 347.84 556.97 346.39 555.76 344.81 C 553.81 342.24 551.78 339.73 549.82 337.17 C 550.30 318.03 549.64 298.89 550.26 279.75 Z" />
</g>
<g id="#6297e6ff">
<path fill="#6297e6" opacity="1.00" d=" M 511.97 368.10 C 512.50 342.67 511.02 317.14 512.75 291.76 C 513.42 292.59 514.11 293.40 514.82 294.20 C 517.11 297.07 519.40 299.92 521.70 302.80 C 520.09 330.50 521.45 358.34 520.98 386.10 C 517.47 380.75 514.26 374.26 511.97 368.10 Z" />
</g>
<g id="#4ea8f0ff">
<path fill="#4ea8f0" opacity="1.00" d=" M 559.72 349.31 C 560.75 333.15 558.96 316.88 560.75 300.77 C 565.03 308.63 568.86 316.72 572.75 324.78 C 570.35 337.50 573.91 350.90 571.11 363.43 C 569.15 361.20 567.36 358.82 565.26 356.72 C 563.49 354.18 561.34 351.93 559.72 349.31 Z" />
<path fill="#4ea8f0" opacity="1.00" d=" M 560.29 411.75 C 561.43 415.68 562.55 419.63 563.97 423.48 C 566.03 434.02 569.85 444.15 571.92 454.68 C 570.13 465.72 571.28 476.96 570.99 488.10 C 566.83 481.43 562.92 473.57 560.00 466.11 C 560.11 447.98 559.70 429.86 560.29 411.75 Z" />
</g>
<g id="#5d9be8ff">
<path fill="#5d9be8" opacity="1.00" d=" M 520.98 386.10 C 521.45 358.34 520.09 330.50 521.70 302.80 C 524.75 306.28 527.77 309.80 530.19 313.78 C 529.69 344.22 530.17 374.67 529.99 405.11 C 526.98 399.08 523.32 392.56 520.98 386.10 Z" />
</g>
<g id="#4198eaff">
<path fill="#4198ea" opacity="1.00" d=" M 536.06 320.85 C 537.29 321.83 538.37 322.98 539.35 324.22 C 542.58 328.74 546.15 333.00 549.82 337.17 C 551.78 339.73 553.81 342.24 555.76 344.81 C 552.86 359.77 556.41 375.13 554.73 390.24 C 552.70 383.80 551.21 377.22 549.27 370.76 C 545.90 358.04 542.72 345.26 538.87 332.69 C 537.99 328.73 536.84 324.83 536.06 320.85 Z" />
</g>
<g id="#83828283">
<path fill="#838282" opacity="0.51" d=" M 898.98 333.01 C 898.91 329.58 899.18 326.13 899.71 322.75 C 899.84 326.13 900.15 329.58 899.96 332.99 L 898.98 333.01 Z" />
</g>
<g id="#49acf1ff">
<path fill="#49acf1" opacity="1.00" d=" M 571.11 363.43 C 573.91 350.90 570.35 337.50 572.75 324.78 C 578.06 334.53 582.02 344.95 587.25 354.76 C 586.94 363.89 587.00 373.04 586.86 382.18 C 581.96 377.97 578.98 372.08 574.19 367.79 C 573.18 366.32 572.18 364.85 571.11 363.43 Z" />
<path fill="#49acf1" opacity="1.00" d=" M 570.99 488.10 C 571.28 476.96 570.13 465.72 571.92 454.68 C 572.56 456.52 573.13 458.38 573.75 460.24 C 578.05 474.93 581.17 489.95 585.86 504.53 C 587.85 514.14 591.48 523.36 592.99 533.11 C 591.24 531.66 590.77 529.14 589.78 527.15 C 584.17 513.86 576.33 501.41 570.99 488.10 Z" />
</g>
<g id="#56a1ebff">
<path fill="#56a1eb" opacity="1.00" d=" M 537.99 421.10 C 538.56 391.64 536.86 362.06 538.87 332.69 C 542.72 345.26 545.90 358.04 549.27 370.76 C 548.67 394.87 549.17 418.99 548.98 443.10 C 544.84 436.39 540.91 428.57 537.99 421.10 Z" />
</g>
<g id="#3c9dedff">
<path fill="#3c9ded" opacity="1.00" d=" M 554.73 390.24 C 556.41 375.13 552.86 359.77 555.76 344.81 C 556.97 346.39 558.35 347.84 559.72 349.31 C 561.34 351.93 563.49 354.18 565.26 356.72 C 564.05 378.94 566.45 401.37 563.97 423.48 C 562.55 419.63 561.43 415.68 560.29 411.75 C 558.64 404.52 556.44 397.45 554.73 390.24 Z" />
</g>
<g id="#44b2f5ff">
<path fill="#44b2f5" opacity="1.00" d=" M 587.25 354.76 C 598.90 378.17 611.31 401.27 621.97 425.14 C 618.84 422.20 616.25 418.78 613.27 415.72 C 609.10 409.80 604.30 404.37 599.70 398.79 C 595.28 393.98 592.04 388.15 587.14 383.80 C 587.07 383.40 586.93 382.59 586.86 382.18 C 587.00 373.04 586.94 363.89 587.25 354.76 Z" />
</g>
<g id="#38a0eeff">
<path fill="#38a0ee" opacity="1.00" d=" M 565.26 356.72 C 567.36 358.82 569.15 361.20 571.11 363.43 C 572.18 364.85 573.18 366.32 574.19 367.79 C 573.61 398.60 574.42 429.43 573.75 460.24 C 573.13 458.38 572.56 456.52 571.92 454.68 C 569.85 444.15 566.03 434.02 563.97 423.48 C 566.45 401.37 564.05 378.94 565.26 356.72 Z" />
</g>
<g id="#33a4f0ff">
<path fill="#33a4f0" opacity="1.00" d=" M 574.19 367.79 C 578.98 372.08 581.96 377.97 586.86 382.18 C 586.93 382.59 587.07 383.40 587.14 383.80 C 586.82 422.87 587.09 461.94 587.01 501.00 C 587.00 502.29 586.62 503.47 585.86 504.53 C 581.17 489.95 578.05 474.93 573.75 460.24 C 574.42 429.43 573.61 398.60 574.19 367.79 Z" />
</g>
<g id="#51a4edff">
<path fill="#51a4ed" opacity="1.00" d=" M 549.27 370.76 C 551.21 377.22 552.70 383.80 554.73 390.24 C 556.44 397.45 558.64 404.52 560.29 411.75 C 559.70 429.86 560.11 447.98 560.00 466.11 C 556.38 458.74 551.99 450.89 548.98 443.10 C 549.17 418.99 548.67 394.87 549.27 370.76 Z" />
</g>
<g id="#2fa7f3ff">
<path fill="#2fa7f3" opacity="1.00" d=" M 587.14 383.80 C 592.04 388.15 595.28 393.98 599.70 398.79 C 598.73 405.48 599.01 412.26 598.98 419.00 C 599.03 460.34 598.98 501.68 599.00 543.03 C 595.88 540.91 594.29 536.57 592.99 533.11 C 591.48 523.36 587.85 514.14 585.86 504.53 C 586.62 503.47 587.00 502.29 587.01 501.00 C 587.09 461.94 586.82 422.87 587.14 383.80 Z" />
</g>
<g id="#2babf5ff">
<path fill="#2babf5" opacity="1.00" d=" M 598.98 419.00 C 599.01 412.26 598.73 405.48 599.70 398.79 C 604.30 404.37 609.10 409.80 613.27 415.72 C 612.66 461.45 613.16 507.20 613.01 552.94 C 607.35 551.65 602.08 547.86 599.00 543.03 C 598.98 501.68 599.03 460.34 598.98 419.00 Z" />
</g>
<g id="#27aef7ff">
<path fill="#27aef7" opacity="1.00" d=" M 613.27 415.72 C 616.25 418.78 618.84 422.20 621.97 425.14 C 622.78 426.64 623.56 428.16 624.29 429.72 C 623.63 471.48 624.17 513.26 624.01 555.04 C 620.34 554.88 616.21 554.85 613.01 552.94 C 613.16 507.20 612.66 461.45 613.27 415.72 Z" />
</g>
<g id="#23b1f8ff">
<path fill="#23b1f8" opacity="1.00" d=" M 624.29 429.72 C 627.51 434.94 631.46 439.54 636.89 442.63 C 636.66 445.22 636.21 450.40 635.98 452.99 C 635.97 485.96 636.06 518.93 635.96 551.91 C 632.56 554.25 627.99 554.53 624.01 555.04 C 624.17 513.26 623.63 471.48 624.29 429.72 Z" />
</g>
<g id="#1eb7fbff">
<path fill="#1eb7fb" opacity="1.00" d=" M 653.00 447.19 C 663.70 446.65 673.19 441.06 679.83 432.81 C 680.47 447.93 679.29 463.10 680.55 478.21 C 673.41 494.33 664.59 509.96 657.11 526.04 C 656.03 528.47 655.26 531.10 653.58 533.21 C 652.25 504.57 653.36 475.86 653.00 447.19 Z" />
</g>
<g id="#21b4faff">
<path fill="#21b4fa" opacity="1.00" d=" M 635.98 452.99 C 636.21 450.40 636.66 445.22 636.89 442.63 C 641.91 445.19 647.41 446.58 653.00 447.19 C 653.36 475.86 652.25 504.57 653.58 533.21 C 650.74 541.44 644.34 548.85 635.96 551.91 C 636.06 518.93 635.97 485.96 635.98 452.99 Z" />
</g>
<g id="#67676767">
<path fill="#676767" opacity="0.40" d=" M 612.00 587.02 C 620.33 586.94 628.66 586.98 637.00 587.02 L 637.00 587.98 C 628.66 588.04 620.33 588.04 612.00 587.98 L 612.00 587.02 Z" />
</g>
</svg>
