<?xml version="1.0" encoding="UTF-8" ?>
<!DOCTYPE svg PUBLIC "-//W3C//DTD SVG 1.1//EN" "http://www.w3.org/Graphics/SVG/1.1/DTD/svg11.dtd">
<svg width="960pt" height="540pt" viewBox="279.9240417480469 29.923126220703125 440.0718688964844 440.0943908691406" version="1.1" xmlns="http://www.w3.org/2000/svg">
<g id="#000000ff">
</g>
<g id="#fffefeff">
<path fill="#fffefe" opacity="1.00" d=" M 485.34 30.54 C 526.29 27.32 567.78 36.84 604.02 55.96 C 651.98 81.38 689.87 125.35 707.43 176.77 C 725.40 227.43 724.16 284.69 703.30 334.29 C 684.30 380.94 648.52 420.47 604.01 444.02 C 554.59 470.36 494.95 477.29 440.99 462.03 C 398.35 450.09 359.05 425.42 331.00 391.00 C 295.69 349.51 278.00 294.23 280.09 239.99 C 282.45 191.24 301.08 143.10 333.30 106.29 C 370.86 61.72 427.30 34.26 485.34 30.54 M 358.98 106.99 C 359.05 152.31 358.93 197.64 359.05 242.96 C 359.47 242.97 360.31 243.00 360.73 243.01 L 360.55 242.19 C 361.93 240.39 363.97 239.07 365.03 237.06 C 366.88 235.66 368.96 234.14 370.03 232.06 C 371.88 230.66 373.96 229.14 375.03 227.06 C 377.18 225.33 379.86 223.55 381.02 221.07 C 383.18 219.33 385.83 217.55 387.04 215.08 C 389.60 213.05 392.39 210.82 394.04 208.08 C 397.27 205.38 400.66 202.41 403.02 199.07 C 411.35 191.46 419.47 183.34 427.05 175.00 C 418.93 166.80 411.84 157.50 403.05 149.93 C 400.59 146.55 397.19 143.70 394.05 140.93 C 392.09 138.01 389.19 135.74 387.06 132.91 C 385.74 130.43 383.16 128.70 381.05 126.93 C 379.76 124.43 377.15 122.71 375.05 120.93 C 373.94 118.86 371.89 117.35 370.05 115.93 C 368.94 113.86 366.89 112.36 365.05 110.93 C 363.95 108.96 361.97 107.63 360.61 105.84 C 360.97 103.86 357.84 105.31 358.98 106.99 M 639.27 104.99 L 639.45 105.81 C 631.52 114.72 621.75 122.77 614.40 131.66 C 612.36 133.87 609.60 136.12 608.42 138.67 C 606.17 140.19 603.21 142.31 602.38 144.66 C 600.18 146.23 597.20 148.29 596.39 150.65 C 593.43 152.85 590.09 155.66 588.41 158.65 C 583.53 164.01 578.42 169.21 573.18 174.23 C 573.19 174.61 573.22 175.36 573.23 175.73 C 578.25 180.59 582.89 185.97 588.34 190.31 C 590.00 193.39 593.57 195.98 596.33 198.32 C 597.15 200.79 600.30 202.63 602.33 204.32 C 603.15 206.79 606.30 208.63 608.33 210.32 C 609.15 212.79 612.30 214.64 614.33 216.31 L 614.31 216.85 C 622.67 225.27 631.27 233.48 639.39 242.15 C 639.00 244.13 642.15 242.70 641.02 241.01 C 640.95 195.69 641.07 150.36 640.95 105.04 C 640.53 105.03 639.69 105.00 639.27 104.99 M 450.79 190.90 C 455.41 211.93 460.53 232.88 465.14 253.93 C 466.30 258.01 466.64 262.37 468.44 266.26 C 470.77 279.27 473.69 292.46 477.34 305.23 C 478.75 315.60 481.61 326.12 484.45 336.27 C 485.15 341.98 486.38 347.84 488.45 353.26 C 489.08 359.25 490.60 365.48 492.45 371.27 C 493.14 376.98 494.38 382.84 496.45 388.26 C 496.54 393.89 499.12 399.40 500.04 404.94 C 501.99 405.43 500.55 402.12 501.00 401.03 L 501.83 400.87 C 503.85 387.80 508.34 375.13 510.01 362.04 L 510.83 361.86 C 511.97 351.42 516.17 341.51 517.02 331.06 L 517.83 330.81 C 528.15 283.45 539.57 236.34 550.05 189.02 L 549.97 188.05 C 528.98 187.94 507.98 187.99 487.00 188.03 C 476.33 187.89 465.66 188.05 455.00 187.98 C 450.90 181.70 448.27 191.55 450.79 190.90 M 433.76 192.77 C 431.57 195.17 428.19 197.18 427.20 200.16 C 423.66 202.47 420.02 205.66 418.12 209.24 C 413.29 212.15 409.81 216.88 405.92 220.88 C 402.22 224.05 397.82 227.91 395.52 231.85 C 386.24 239.01 378.85 248.36 370.16 256.23 C 370.12 256.65 370.03 257.51 369.99 257.94 C 378.44 270.34 386.64 283.04 395.47 295.16 C 399.70 302.71 405.15 310.15 410.46 317.16 C 413.73 322.91 418.33 329.08 422.35 334.32 C 426.08 341.61 431.28 348.67 436.47 355.16 C 441.04 362.98 446.35 371.53 452.43 378.33 L 452.34 378.86 C 465.02 398.04 478.43 416.74 490.93 436.04 C 492.29 437.43 492.91 440.31 495.01 441.12 C 494.22 432.24 490.62 423.76 489.03 415.00 C 477.41 366.03 465.15 317.21 453.80 268.18 L 452.95 267.94 C 448.34 243.08 441.09 218.80 435.86 194.07 C 435.73 192.94 434.77 191.12 433.76 192.77 M 565.01 191.93 C 565.02 192.73 565.03 194.33 565.04 195.13 C 562.26 201.92 561.15 209.82 560.15 217.06 C 558.04 223.80 554.76 230.78 555.21 237.94 C 550.14 250.70 548.30 264.56 545.08 277.86 C 541.57 287.18 540.25 297.39 538.00 307.11 C 534.18 318.93 531.79 331.56 529.34 343.75 C 529.09 344.13 528.59 344.89 528.34 345.27 C 520.76 377.59 512.92 409.86 505.00 442.11 C 506.19 441.63 506.73 440.36 507.46 439.40 C 514.56 427.71 523.65 417.10 530.03 405.11 C 535.10 399.55 539.52 392.72 543.04 386.11 C 546.49 382.90 549.00 378.19 551.03 374.08 C 554.83 370.92 557.85 365.60 560.04 361.11 C 563.84 357.54 566.21 352.45 569.02 348.06 C 574.33 342.76 577.75 335.33 582.03 329.07 C 589.84 319.97 595.09 308.99 602.62 299.65 C 611.16 286.29 620.40 273.41 629.22 260.24 C 630.27 259.19 630.18 257.57 629.77 256.26 C 617.29 243.74 604.73 231.28 592.26 218.75 C 588.64 214.97 585.52 209.43 580.82 207.24 C 577.66 203.14 574.37 198.89 569.79 196.32 C 569.41 194.26 567.26 191.97 565.01 191.93 Z" />
</g>
<g id="#e9d7d7ff">
<path fill="#e9d7d7" opacity="1.00" d=" M 358.98 106.99 C 357.84 105.31 360.97 103.86 360.61 105.84 C 359.19 142.51 360.41 179.29 360.00 216.00 C 360.21 224.71 359.39 233.53 360.55 242.19 L 360.73 243.01 C 360.31 243.00 359.47 242.97 359.05 242.96 C 358.93 197.64 359.05 152.31 358.98 106.99 Z" />
</g>
<g id="#fad8d8ff">
<path fill="#fad8d8" opacity="1.00" d=" M 639.27 104.99 C 639.69 105.00 640.53 105.03 640.95 105.04 C 641.07 150.36 640.95 195.69 641.02 241.01 C 642.15 242.70 639.00 244.13 639.39 242.15 C 640.82 205.49 639.59 168.71 640.00 132.00 C 639.77 123.28 640.59 114.47 639.45 105.81 L 639.27 104.99 Z" />
</g>
<g id="#ad0607ff">
<path fill="#ad0607" opacity="1.00" d=" M 360.00 216.00 C 360.41 179.29 359.19 142.51 360.61 105.84 C 361.97 107.63 363.95 108.96 365.05 110.93 C 364.96 152.97 364.99 195.02 365.03 237.06 C 363.97 239.07 361.93 240.39 360.55 242.19 C 359.39 233.53 360.21 224.71 360.00 216.00 Z" />
</g>
<g id="#ed1d24ff">
<path fill="#ed1d24" opacity="1.00" d=" M 639.45 105.81 C 640.59 114.47 639.77 123.28 640.00 132.00 C 639.59 168.71 640.82 205.49 639.39 242.15 C 631.27 233.48 622.67 225.27 614.31 216.85 L 614.33 216.31 C 615.84 194.59 614.58 172.76 615.01 151.00 C 614.63 144.58 615.86 137.98 614.40 131.66 C 621.75 122.77 631.52 114.72 639.45 105.81 Z" />
</g>
<g id="#b6090bff">
<path fill="#b6090b" opacity="1.00" d=" M 365.05 110.93 C 366.89 112.36 368.94 113.86 370.05 115.93 C 369.96 154.64 369.99 193.35 370.03 232.06 C 368.96 234.14 366.88 235.66 365.03 237.06 C 364.99 195.02 364.96 152.97 365.05 110.93 Z" />
</g>
<g id="#bf0d0fff">
<path fill="#bf0d0f" opacity="1.00" d=" M 370.05 115.93 C 371.89 117.35 373.94 118.86 375.05 120.93 C 374.96 156.31 374.99 191.68 375.03 227.06 C 373.96 229.14 371.88 230.66 370.03 232.06 C 369.99 193.35 369.96 154.64 370.05 115.93 Z" />
</g>
<g id="#c91013ff">
<path fill="#c91013" opacity="1.00" d=" M 375.05 120.93 C 377.15 122.71 379.76 124.43 381.05 126.93 C 380.95 158.31 381.00 189.69 381.02 221.07 C 379.86 223.55 377.18 225.33 375.03 227.06 C 374.99 191.68 374.96 156.31 375.05 120.93 Z" />
</g>
<g id="#d21418ff">
<path fill="#d21418" opacity="1.00" d=" M 381.05 126.93 C 383.16 128.70 385.74 130.43 387.06 132.91 C 386.95 160.30 386.99 187.69 387.04 215.08 C 385.83 217.55 383.18 219.33 381.02 221.07 C 381.00 189.69 380.95 158.31 381.05 126.93 Z" />
</g>
<g id="#e71a22ff">
<path fill="#e71a22" opacity="1.00" d=" M 608.42 138.67 C 609.60 136.12 612.36 133.87 614.40 131.66 C 615.86 137.98 614.63 144.58 615.01 151.00 C 614.58 172.76 615.84 194.59 614.33 216.31 C 612.30 214.64 609.15 212.79 608.33 210.32 C 609.48 186.49 609.35 162.49 608.42 138.67 Z" />
</g>
<g id="#db161cff">
<path fill="#db161c" opacity="1.00" d=" M 387.06 132.91 C 389.19 135.74 392.09 138.01 394.05 140.93 C 393.96 163.31 393.98 185.70 394.04 208.08 C 392.39 210.82 389.60 213.05 387.04 215.08 C 386.99 187.69 386.95 160.30 387.06 132.91 Z" />
<path fill="#db161c" opacity="1.00" d=" M 493.00 189.01 C 494.33 188.99 495.66 188.99 497.00 189.01 C 497.02 252.67 496.95 316.34 497.04 380.01 C 496.93 382.65 497.19 385.61 496.45 388.26 C 494.38 382.84 493.14 376.98 492.45 371.27 C 493.31 364.21 492.95 357.08 493.02 350.00 C 492.97 296.34 493.01 242.67 493.00 189.01 Z" />
</g>
<g id="#e0181eff">
<path fill="#e0181e" opacity="1.00" d=" M 602.38 144.66 C 603.21 142.31 606.17 140.19 608.42 138.67 C 609.35 162.49 609.48 186.49 608.33 210.32 C 606.30 208.63 603.15 206.79 602.33 204.32 C 603.76 189.26 602.64 174.10 603.03 159.00 C 602.75 154.23 603.67 149.32 602.38 144.66 Z" />
</g>
<g id="#e61a22ff">
<path fill="#e61a22" opacity="1.00" d=" M 394.05 140.93 C 397.19 143.70 400.59 146.55 403.05 149.93 C 402.96 166.31 403.00 182.69 403.02 199.07 C 400.66 202.41 397.27 205.38 394.04 208.08 C 393.98 185.70 393.96 163.31 394.05 140.93 Z" />
</g>
<g id="#d7151bff">
<path fill="#d7151b" opacity="1.00" d=" M 596.39 150.65 C 597.20 148.29 600.18 146.23 602.38 144.66 C 603.67 149.32 602.75 154.23 603.03 159.00 C 602.64 174.10 603.76 189.26 602.33 204.32 C 600.30 202.63 597.15 200.79 596.33 198.32 C 597.30 182.50 597.58 166.42 596.39 150.65 Z" />
</g>
<g id="#ed1f26ff">
<path fill="#ed1f26" opacity="1.00" d=" M 403.05 149.93 C 411.84 157.50 418.93 166.80 427.05 175.00 C 419.47 183.34 411.35 191.46 403.02 199.07 C 403.00 182.69 402.96 166.31 403.05 149.93 Z" />
</g>
<g id="#cd1317ff">
<path fill="#cd1317" opacity="1.00" d=" M 588.41 158.65 C 590.09 155.66 593.43 152.85 596.39 150.65 C 597.58 166.42 597.30 182.50 596.33 198.32 C 593.57 195.98 590.00 193.39 588.34 190.31 C 589.32 179.80 589.45 169.15 588.41 158.65 Z" />
</g>
<g id="#bd0e10ff">
<path fill="#bd0e10" opacity="1.00" d=" M 573.18 174.23 C 578.42 169.21 583.53 164.01 588.41 158.65 C 589.45 169.15 589.32 179.80 588.34 190.31 C 582.89 185.97 578.25 180.59 573.23 175.73 C 573.22 175.36 573.19 174.61 573.18 174.23 Z" />
</g>
<g id="#e5bcbcff">
<path fill="#e5bcbc" opacity="1.00" d=" M 450.79 190.90 C 448.27 191.55 450.90 181.70 455.00 187.98 C 465.66 188.05 476.33 187.89 487.00 188.03 L 487.00 188.98 C 486.50 188.99 485.50 189.01 485.00 189.02 C 483.25 189.01 479.75 189.01 478.00 189.01 C 474.96 188.97 472.00 188.98 469.00 189.01 C 463.08 189.05 457.15 188.74 451.25 189.13 C 451.14 189.57 450.91 190.45 450.79 190.90 Z" />
</g>
<g id="#f6bfc0ff">
<path fill="#f6bfc0" opacity="1.00" d=" M 487.00 188.03 C 507.98 187.99 528.98 187.94 549.97 188.05 L 550.05 189.02 C 539.03 189.00 528.01 188.97 517.00 189.01 C 515.25 189.01 511.75 189.01 510.00 189.01 C 506.96 188.97 504.01 188.98 501.00 189.01 C 499.66 188.99 498.33 188.99 497.00 189.01 C 495.66 188.99 494.33 188.99 493.00 189.01 C 491.66 189.00 490.32 189.00 488.99 189.01 C 488.50 189.01 487.50 188.99 487.00 188.98 L 487.00 188.03 Z" />
</g>
<g id="#b80d0eff">
<path fill="#b80d0e" opacity="1.00" d=" M 451.25 189.13 C 457.15 188.74 463.08 189.05 469.00 189.01 C 468.63 214.75 469.74 240.55 468.44 266.26 C 466.64 262.37 466.30 258.01 465.14 253.93 C 460.53 232.88 455.41 211.93 450.79 190.90 C 450.91 190.45 451.14 189.57 451.25 189.13 Z" />
</g>
<g id="#c50f12ff">
<path fill="#c50f12" opacity="1.00" d=" M 469.00 189.01 C 472.00 188.98 474.96 188.97 478.00 189.01 C 477.56 227.74 478.88 266.55 477.34 305.23 C 473.69 292.46 470.77 279.27 468.44 266.26 C 469.74 240.55 468.63 214.75 469.00 189.01 Z" />
</g>
<g id="#cd1216ff">
<path fill="#cd1216" opacity="1.00" d=" M 478.00 189.01 C 479.75 189.01 483.25 189.01 485.00 189.02 C 484.62 238.09 485.74 287.22 484.45 336.27 C 481.61 326.12 478.75 315.60 477.34 305.23 C 478.88 266.55 477.56 227.74 478.00 189.01 Z" />
</g>
<g id="#d31318ff">
<path fill="#d31318" opacity="1.00" d=" M 485.00 189.02 C 485.50 189.01 486.50 188.99 487.00 188.98 C 487.50 188.99 488.50 189.01 488.99 189.01 C 489.03 241.01 488.95 293.01 489.04 345.01 C 488.94 347.66 489.18 350.61 488.45 353.26 C 486.38 347.84 485.15 341.98 484.45 336.27 C 485.74 287.22 484.62 238.09 485.00 189.02 Z" />
</g>
<g id="#d7151aff">
<path fill="#d7151a" opacity="1.00" d=" M 488.99 189.01 C 490.32 189.00 491.66 189.00 493.00 189.01 C 493.01 242.67 492.97 296.34 493.02 350.00 C 492.95 357.08 493.31 364.21 492.45 371.27 C 490.60 365.48 489.08 359.25 488.45 353.26 C 489.18 350.61 488.94 347.66 489.04 345.01 C 488.95 293.01 489.03 241.01 488.99 189.01 Z" />
</g>
<g id="#df171eff">
<path fill="#df171e" opacity="1.00" d=" M 497.00 189.01 C 498.33 188.99 499.66 188.99 501.00 189.01 C 501.00 259.68 500.99 330.35 501.00 401.03 C 500.55 402.12 501.99 405.43 500.04 404.94 C 499.12 399.40 496.54 393.89 496.45 388.26 C 497.19 385.61 496.93 382.65 497.04 380.01 C 496.95 316.34 497.02 252.67 497.00 189.01 Z" />
</g>
<g id="#e41a21ff">
<path fill="#e41a21" opacity="1.00" d=" M 501.00 189.01 C 504.01 188.98 506.96 188.97 510.00 189.01 C 510.00 246.68 509.99 304.36 510.01 362.04 C 508.34 375.13 503.85 387.80 501.83 400.87 L 501.00 401.03 C 500.99 330.35 501.00 259.68 501.00 189.01 Z" />
<path fill="#e41a21" opacity="1.00" d=" M 565.04 195.13 C 566.60 195.61 568.19 195.97 569.79 196.32 C 574.37 198.89 577.66 203.14 580.82 207.24 C 581.62 224.81 579.97 242.48 581.83 260.00 C 582.27 283.02 581.84 306.05 582.03 329.07 C 577.75 335.33 574.33 342.76 569.02 348.06 C 568.87 304.77 569.20 261.48 568.88 218.20 C 565.85 218.11 563.02 217.82 560.15 217.06 C 561.15 209.82 562.26 201.92 565.04 195.13 Z" />
</g>
<g id="#ea1c23ff">
<path fill="#ea1c23" opacity="1.00" d=" M 510.00 189.01 C 511.75 189.01 515.25 189.01 517.00 189.01 C 517.01 236.36 516.97 283.71 517.02 331.06 C 516.17 341.51 511.97 351.42 510.83 361.86 L 510.01 362.04 C 509.99 304.36 510.00 246.68 510.00 189.01 Z" />
</g>
<g id="#ed1e26ff">
<path fill="#ed1e26" opacity="1.00" d=" M 517.00 189.01 C 528.01 188.97 539.03 189.00 550.05 189.02 C 539.57 236.34 528.15 283.45 517.83 330.81 L 517.02 331.06 C 516.97 283.71 517.01 236.36 517.00 189.01 Z" />
</g>
<g id="#e71b23ff">
<path fill="#e71b23" opacity="1.00" d=" M 433.76 192.77 C 434.77 191.12 435.73 192.94 435.86 194.07 C 441.09 218.80 448.34 243.08 452.95 267.94 C 453.10 301.63 452.91 335.31 453.05 369.00 C 452.98 372.06 453.24 375.31 452.43 378.33 C 446.35 371.53 441.04 362.98 436.47 355.16 C 437.59 331.79 436.81 308.37 436.93 284.98 C 434.95 257.10 436.59 229.11 435.89 201.19 C 432.90 201.06 430.09 200.76 427.20 200.16 C 428.19 197.18 431.57 195.17 433.76 192.77 Z" />
</g>
<g id="#e33c40ff">
<path fill="#e33c40" opacity="1.00" d=" M 565.01 191.93 C 567.26 191.97 569.41 194.26 569.79 196.32 C 568.19 195.97 566.60 195.61 565.04 195.13 C 565.03 194.33 565.02 192.73 565.01 191.93 Z" />
</g>
<g id="#de171dff">
<path fill="#de171d" opacity="1.00" d=" M 427.20 200.16 C 430.09 200.76 432.90 201.06 435.89 201.19 C 436.59 229.11 434.95 257.10 436.93 284.98 C 436.81 308.37 437.59 331.79 436.47 355.16 C 431.28 348.67 426.08 341.61 422.35 334.32 C 423.49 324.25 422.86 314.10 423.00 304.00 C 422.85 272.76 423.27 241.49 422.84 210.27 C 421.27 209.90 419.69 209.62 418.12 209.24 C 420.02 205.66 423.66 202.47 427.20 200.16 Z" />
</g>
<g id="#ec1d25ff">
<path fill="#ec1d25" opacity="1.00" d=" M 580.82 207.24 C 585.52 209.43 588.64 214.97 592.26 218.75 C 604.73 231.28 617.29 243.74 629.77 256.26 C 630.18 257.57 630.27 259.19 629.22 260.24 C 620.40 273.41 611.16 286.29 602.62 299.65 C 595.09 308.99 589.84 319.97 582.03 329.07 C 581.84 306.05 582.27 283.02 581.83 260.00 C 579.97 242.48 581.62 224.81 580.82 207.24 Z" />
</g>
<g id="#d41419ff">
<path fill="#d41419" opacity="1.00" d=" M 418.12 209.24 C 419.69 209.62 421.27 209.90 422.84 210.27 C 423.27 241.49 422.85 272.76 423.00 304.00 C 422.86 314.10 423.49 324.25 422.35 334.32 C 418.33 329.08 413.73 322.91 410.46 317.16 C 411.65 285.17 410.75 253.11 410.95 221.10 C 409.27 220.95 407.59 220.92 405.92 220.88 C 409.81 216.88 413.29 212.15 418.12 209.24 Z" />
</g>
<g id="#dd171dff">
<path fill="#dd171d" opacity="1.00" d=" M 560.15 217.06 C 563.02 217.82 565.85 218.11 568.88 218.20 C 569.20 261.48 568.87 304.77 569.02 348.06 C 566.21 352.45 563.84 357.54 560.04 361.11 C 559.87 320.47 560.19 279.82 559.89 239.18 C 558.78 237.68 556.81 238.14 555.21 237.94 C 554.76 230.78 558.04 223.80 560.15 217.06 Z" />
</g>
<g id="#c91014ff">
<path fill="#c91014" opacity="1.00" d=" M 395.52 231.85 C 397.82 227.91 402.22 224.05 405.92 220.88 C 407.59 220.92 409.27 220.95 410.95 221.10 C 410.75 253.11 411.65 285.17 410.46 317.16 C 405.15 310.15 399.70 302.71 395.47 295.16 C 396.24 274.10 396.47 252.88 395.52 231.85 Z" />
</g>
<g id="#ba0c0eff">
<path fill="#ba0c0e" opacity="1.00" d=" M 395.52 231.85 C 396.47 252.88 396.24 274.10 395.47 295.16 C 386.64 283.04 378.44 270.34 369.99 257.94 C 370.03 257.51 370.12 256.65 370.16 256.23 C 378.85 248.36 386.24 239.01 395.52 231.85 Z" />
</g>
<g id="#d6151aff">
<path fill="#d6151a" opacity="1.00" d=" M 555.21 237.94 C 556.81 238.14 558.78 237.68 559.89 239.18 C 560.19 279.82 559.87 320.47 560.04 361.11 C 557.85 365.60 554.83 370.92 551.03 374.08 C 550.81 342.45 551.29 310.79 550.84 279.18 C 549.04 278.30 547.05 277.99 545.08 277.86 C 548.30 264.56 550.14 250.70 555.21 237.94 Z" />
</g>
<g id="#ed1f27ff">
<path fill="#ed1f27" opacity="1.00" d=" M 452.95 267.94 L 453.80 268.18 C 465.15 317.21 477.41 366.03 489.03 415.00 C 490.62 423.76 494.22 432.24 495.01 441.12 C 492.91 440.31 492.29 437.43 490.93 436.04 C 478.43 416.74 465.02 398.04 452.34 378.86 L 452.43 378.33 C 453.24 375.31 452.98 372.06 453.05 369.00 C 452.91 335.31 453.10 301.63 452.95 267.94 Z" />
</g>
<g id="#cf1317ff">
<path fill="#cf1317" opacity="1.00" d=" M 545.08 277.86 C 547.05 277.99 549.04 278.30 550.84 279.18 C 551.29 310.79 550.81 342.45 551.03 374.08 C 549.00 378.19 546.49 382.90 543.04 386.11 C 542.84 360.17 543.24 334.22 542.86 308.29 C 541.23 307.89 539.60 307.57 538.00 307.11 C 540.25 297.39 541.57 287.18 545.08 277.86 Z" />
</g>
<g id="#c71014ff">
<path fill="#c71014" opacity="1.00" d=" M 538.00 307.11 C 539.60 307.57 541.23 307.89 542.86 308.29 C 543.24 334.22 542.84 360.17 543.04 386.11 C 539.52 392.72 535.10 399.55 530.03 405.11 C 529.58 384.66 530.83 364.15 529.34 343.75 C 531.79 331.56 534.18 318.93 538.00 307.11 Z" />
</g>
<g id="#ba1011ff">
<path fill="#ba1011" opacity="1.00" d=" M 529.34 343.75 C 530.83 364.15 529.58 384.66 530.03 405.11 C 523.65 417.10 514.56 427.71 507.46 439.40 C 506.73 440.36 506.19 441.63 505.00 442.11 C 512.92 409.86 520.76 377.59 528.34 345.27 C 528.59 344.89 529.09 344.13 529.34 343.75 Z" />
</g>
</svg>
