<?xml version="1.0" encoding="UTF-8" ?>
<!DOCTYPE svg PUBLIC "-//W3C//DTD SVG 1.1//EN" "http://www.w3.org/Graphics/SVG/1.1/DTD/svg11.dtd">
<svg width="364pt" height="394pt" viewBox="0 0 364 394" version="1.1" xmlns="http://www.w3.org/2000/svg">
<g id="#000000ff">
</g>
<g id="#d73937ff">
<path fill="#d73937" opacity="1.00" d=" M 40.40 49.00 C 40.49 42.13 40.20 35.25 40.56 28.38 C 42.26 29.72 43.99 31.05 45.54 32.57 C 65.70 52.70 85.80 72.91 105.97 93.04 C 107.47 94.57 108.90 96.17 110.31 97.79 C 91.16 117.80 71.96 137.77 52.58 157.56 C 48.67 161.62 44.80 165.73 40.53 169.42 C 40.24 129.28 40.49 89.14 40.40 49.00 Z" />
<path fill="#d73937" opacity="1.00" d=" M 313.92 38.93 C 317.32 35.70 320.40 32.06 324.41 29.53 C 324.48 70.35 324.40 111.18 324.44 152.01 C 324.32 157.46 324.93 163.01 323.57 168.37 C 317.52 162.46 311.58 156.44 306.01 150.08 C 289.05 132.76 272.18 115.34 255.45 97.79 C 274.70 77.93 294.59 58.70 313.92 38.93 Z" />
<path fill="#d73937" opacity="1.00" d=" M 128.30 106.39 C 164.27 105.94 200.26 106.31 236.24 106.26 C 235.23 116.25 232.07 125.85 230.08 135.66 C 215.02 199.86 199.90 264.05 185.05 328.31 C 184.46 330.55 183.75 332.76 182.99 334.95 C 180.09 327.75 178.97 320.02 176.94 312.57 C 170.78 285.31 164.01 258.19 157.73 230.96 C 147.78 189.47 138.55 147.80 128.30 106.39 Z" />
<path fill="#d73937" opacity="1.00" d=" M 100.88 120.94 C 105.07 116.07 109.41 111.32 114.17 107.00 C 118.14 118.44 120.28 130.40 123.33 142.09 C 132.19 177.39 140.57 212.80 149.35 248.12 C 153.36 266.36 157.94 284.47 162.43 302.59 C 164.85 310.19 165.46 318.21 167.58 325.89 C 170.87 337.12 173.07 348.63 175.99 359.96 C 169.00 348.54 160.46 338.19 153.13 327.01 C 146.31 317.70 139.56 308.34 133.22 298.69 C 105.79 258.52 78.10 218.51 51.03 178.09 C 48.79 175.52 51.67 173.13 53.31 171.27 C 63.06 160.68 73.31 150.56 82.84 139.77 C 88.62 133.27 94.93 127.27 100.88 120.94 Z" />
<path fill="#d73937" opacity="1.00" d=" M 250.94 107.24 C 257.35 111.00 261.15 117.57 266.51 122.49 C 270.84 126.51 274.30 131.35 278.56 135.44 C 287.49 144.20 295.56 153.77 304.41 162.60 C 307.96 166.95 312.23 170.66 315.69 175.07 C 315.60 178.21 312.82 180.56 311.31 183.18 C 285.47 221.71 258.93 259.76 233.00 298.23 C 227.94 305.40 223.08 312.72 217.74 319.70 C 211.57 328.23 205.79 337.04 199.30 345.34 C 195.69 349.88 192.79 354.93 190.09 360.05 C 193.72 344.85 198.08 329.82 200.72 314.39 C 211.52 270.08 221.67 225.61 232.82 181.38 C 238.69 156.62 245.04 131.99 250.94 107.24 Z" />
</g>
</svg>
