<?xml version="1.0" encoding="UTF-8" ?>
<!DOCTYPE svg PUBLIC "-//W3C//DTD SVG 1.1//EN" "http://www.w3.org/Graphics/SVG/1.1/DTD/svg11.dtd">
<svg width="128pt" height="128pt" viewBox="0 0 128 128" version="1.1" xmlns="http://www.w3.org/2000/svg">
<g id="#ffffffff">
<path fill="#ffffff" opacity="1.00" d=" M 63.45 0.00 L 64.91 0.00 C 80.66 0.27 96.24 6.46 107.69 17.31 C 120.16 28.82 127.53 45.47 128.00 62.42 L 128.00 64.93 C 127.72 80.70 121.52 96.30 110.64 107.75 C 99.04 120.28 82.25 127.65 65.19 128.00 L 62.79 128.00 C 47.14 127.65 31.68 121.47 20.30 110.69 C 7.74 99.08 0.35 82.27 0.00 65.19 L 0.00 62.78 C 0.36 45.71 7.75 28.90 20.31 17.30 C 31.85 6.37 47.58 0.18 63.45 0.00 M 42.68 35.18 C 48.80 38.81 54.90 42.46 61.06 45.99 C 67.25 42.35 73.53 38.87 79.67 35.15 C 73.38 31.69 67.19 28.05 61.01 24.40 C 54.95 28.08 48.84 31.68 42.68 35.18 M 38.09 41.81 C 37.90 49.00 38.04 56.19 38.01 63.38 C 44.46 66.91 50.74 70.74 57.15 74.34 C 57.14 67.17 57.14 60.00 57.15 52.84 C 50.81 49.13 44.45 45.47 38.09 41.81 M 64.67 52.82 C 64.69 59.99 64.68 67.16 64.68 74.33 C 70.91 70.72 77.17 67.16 83.36 63.49 C 83.28 56.33 83.37 49.16 83.31 41.99 C 77.13 45.65 70.86 49.17 64.67 52.82 M 64.70 81.96 C 64.67 89.17 64.69 96.39 64.68 103.60 C 73.07 98.68 81.50 93.83 89.99 89.09 C 89.96 81.91 90.00 74.72 89.97 67.54 C 81.50 72.26 73.13 77.18 64.70 81.96 M 38.07 71.02 C 37.94 78.21 37.99 85.40 38.03 92.59 C 44.47 96.14 50.79 99.90 57.15 103.58 C 57.12 96.39 57.16 89.19 57.13 82.00 C 50.77 78.35 44.45 74.62 38.07 71.02 Z" />
</g>
<g id="#0b0f2bff">
<path fill="#0b0f2b" opacity="1.00" d=" M 42.68 35.18 C 48.84 31.68 54.95 28.08 61.01 24.40 C 67.19 28.05 73.38 31.69 79.67 35.15 C 73.53 38.87 67.25 42.35 61.06 45.99 C 54.90 42.46 48.80 38.81 42.68 35.18 Z" />
<path fill="#0b0f2b" opacity="1.00" d=" M 38.09 41.81 C 44.45 45.47 50.81 49.13 57.15 52.84 C 57.14 60.00 57.14 67.17 57.15 74.34 C 50.74 70.74 44.46 66.91 38.01 63.38 C 38.04 56.19 37.90 49.00 38.09 41.81 Z" />
<path fill="#0b0f2b" opacity="1.00" d=" M 64.67 52.82 C 70.86 49.17 77.13 45.65 83.31 41.99 C 83.37 49.16 83.28 56.33 83.36 63.49 C 77.17 67.16 70.91 70.72 64.68 74.33 C 64.68 67.16 64.69 59.99 64.67 52.82 Z" />
<path fill="#0b0f2b" opacity="1.00" d=" M 64.70 81.96 C 73.13 77.18 81.50 72.26 89.97 67.54 C 90.00 74.72 89.96 81.91 89.99 89.09 C 81.50 93.83 73.07 98.68 64.68 103.60 C 64.69 96.39 64.67 89.17 64.70 81.96 Z" />
<path fill="#0b0f2b" opacity="1.00" d=" M 38.07 71.02 C 44.45 74.62 50.77 78.35 57.13 82.00 C 57.16 89.19 57.12 96.39 57.15 103.58 C 50.79 99.90 44.47 96.14 38.03 92.59 C 37.99 85.40 37.94 78.21 38.07 71.02 Z" />
</g>
</svg>
