<?xml version="1.0" encoding="UTF-8" standalone="no"?>
<!DOCTYPE svg PUBLIC "-//W3C//DTD SVG 1.1//EN" "http://www.w3.org/Graphics/SVG/1.1/DTD/svg11.dtd">
<svg width="100%" height="100%" viewBox="0 0 442 442" version="1.1" xmlns="http://www.w3.org/2000/svg" xmlns:xlink="http://www.w3.org/1999/xlink" xml:space="preserve" xmlns:serif="http://www.serif.com/" style="fill-rule:evenodd;clip-rule:evenodd;stroke-linejoin:round;stroke-miterlimit:2;">
    <g transform="matrix(4.16667,0,0,4.16667,-10614.3,-55570.4)">
        <g transform="matrix(0.803213,0,0,0.887324,2414.5,14231.3)">
            <g transform="matrix(-0.348206,6.99882e-17,-7.73172e-17,-0.315199,318.534,-1052.91)">
                <g transform="matrix(1,0,0,1,-60.5,-623.5)">
                    <circle cx="310.5" cy="291.5" r="189.5" style="fill:rgb(39,151,68);"/>
                </g>
                <g transform="matrix(1.45247,0,0,1.45247,-2726.72,-21116.1)">
                    <path d="M2179.82,14305.2C2179.82,14305.2 2147.74,14337.3 2120.75,14364.2C2111.07,14373.9 2097.93,14379.4 2084.24,14379.4C2070.55,14379.4 2057.41,14373.9 2047.73,14364.2C2032.93,14349.5 2017.06,14333.6 2007.25,14323.8C2004.74,14321.3 2003.36,14317.8 2003.43,14314.3C2003.49,14310.8 2005,14307.4 2007.59,14305C2007.61,14305 2007.62,14305 2007.64,14304.9C2012.3,14300.6 2019.55,14300.8 2024.03,14305.3C2027.54,14308.8 2031.96,14313.3 2036.83,14318.2C2063.47,14345.2 2106.89,14345.6 2133.97,14319C2155.51,14297.9 2176.01,14277.9 2176.01,14277.9C2178.21,14286.7 2179.51,14295.8 2179.82,14305.2Z" style="fill:white;"/>
                </g>
                <g transform="matrix(-1.5075,0,0,-1.5075,3350.15,21244.6)">
                    <path d="M2176.97,14276.9C2179.48,14285.3 2181.13,14294.1 2181.83,14303.2C2181.83,14303.2 2147.38,14337.6 2119.42,14365.6C2110.09,14374.9 2097.43,14380.2 2084.24,14380.2C2071.05,14380.2 2058.39,14374.9 2049.06,14365.6C2034.13,14350.6 2017.87,14334.4 2007.72,14324.2C2005.09,14321.6 2003.64,14318 2003.71,14314.3C2003.78,14310.6 2005.36,14307.1 2008.08,14304.5C2008.16,14304.5 2008.24,14304.4 2008.32,14304.3C2012.6,14300.3 2019.26,14300.5 2023.37,14304.6C2027.38,14308.7 2032.72,14314.1 2038.58,14320C2064.25,14346 2106.09,14346.3 2132.18,14320.8C2154.77,14298.7 2176.97,14276.9 2176.97,14276.9Z" style="fill:white;"/>
                </g>
            </g>
        </g>
    </g>
</svg>
