<?xml version="1.0" encoding="UTF-8" ?>
<!DOCTYPE svg PUBLIC "-//W3C//DTD SVG 1.1//EN" "http://www.w3.org/Graphics/SVG/1.1/DTD/svg11.dtd">
<svg width="910pt" height="846pt" viewBox="50.63999938964844 40.229915618896484 797.853515625 781.1365966796875" version="1.1" xmlns="http://www.w3.org/2000/svg">
<g id="#002350ff">
</g>
<g id="#ffffffff">
<path fill="#ffffff" opacity="1.00" d=" M 431.59 40.25 C 458.75 40.23 485.91 40.25 513.07 40.23 C 515.74 40.32 518.65 40.50 520.85 42.20 C 524.95 44.89 526.87 50.53 525.11 55.14 C 518.52 72.59 511.84 90.02 505.23 107.47 C 516.96 107.47 528.70 107.47 540.44 107.46 C 548.99 85.06 557.50 62.64 566.06 40.24 C 593.65 40.28 621.24 40.16 648.83 40.30 C 656.19 39.94 661.93 48.31 658.97 55.04 C 651.51 73.59 643.97 92.12 636.48 110.66 C 659.45 113.02 682.27 117.21 704.38 123.91 C 737.12 133.70 769.97 146.42 796.37 168.72 C 809.62 179.56 820.38 193.17 829.07 207.86 C 838.02 222.81 842.86 239.79 845.93 256.84 C 849.77 278.35 848.86 300.42 846.06 322.01 C 841.59 353.72 832.02 384.55 819.94 414.15 C 811.68 434.17 802.03 453.61 791.28 472.41 C 783.12 486.18 775.50 500.28 766.52 513.55 C 747.38 542.07 725.31 568.69 700.37 592.34 C 656.49 634.39 605.14 668.22 550.44 694.48 C 515.25 711.47 478.56 725.38 441.02 736.20 C 425.30 740.94 409.27 744.56 393.18 747.74 C 385.50 767.48 377.82 787.22 370.15 806.96 C 368.85 810.21 367.91 813.82 365.23 816.28 C 362.14 819.70 357.53 821.49 352.95 821.35 C 323.67 821.38 294.40 821.36 265.13 821.36 C 272.59 803.22 280.07 785.09 287.53 766.95 C 274.73 767.99 261.93 769.09 249.14 770.13 C 243.70 784.47 238.28 798.81 232.88 813.16 C 231.21 818.06 226.19 821.57 220.99 821.34 C 190.89 821.39 160.78 821.35 130.68 821.36 C 137.06 805.35 143.48 789.35 149.87 773.35 C 116.78 775.52 83.61 773.02 50.64 770.14 C 114.66 614.34 178.68 458.54 242.72 302.75 C 293.14 303.61 343.55 304.43 393.96 305.31 C 400.98 305.27 407.80 308.49 412.32 313.83 C 417.35 320.30 419.23 329.40 415.99 337.10 C 377.45 435.56 338.89 534.02 300.34 632.49 C 341.10 632.98 382.13 627.36 420.67 613.82 C 467.48 597.59 510.48 570.51 545.43 535.39 C 567.22 513.73 587.00 489.68 601.47 462.45 C 610.71 445.43 618.97 427.86 625.95 409.78 C 631.77 394.61 637.02 379.12 639.90 363.09 C 643.44 343.55 644.95 323.03 639.06 303.77 C 635.57 289.96 627.29 277.78 617.00 268.10 C 601.41 254.57 581.31 247.11 561.00 244.54 C 552.05 243.22 542.98 243.56 533.96 243.53 C 373.39 243.53 212.81 243.53 52.24 243.53 C 72.18 205.70 92.15 167.90 112.09 130.08 C 118.17 116.35 132.92 107.10 147.93 107.49 C 233.94 107.44 319.96 107.48 405.98 107.47 C 414.52 85.07 423.05 62.66 431.59 40.25 Z" />
</g>
</svg>
