<?xml version="1.0" encoding="UTF-8" ?>
<!DOCTYPE svg PUBLIC "-//W3C//DTD SVG 1.1//EN" "http://www.w3.org/Graphics/SVG/1.1/DTD/svg11.dtd">
<svg width="736pt" height="950pt" viewBox="50.97999954223633 96.12999725341797 602.4607543945312 797.2999877929688" version="1.1" xmlns="http://www.w3.org/2000/svg">
<g id="#f89330ff">
</g>
<g id="#ffffffff">
<path fill="#ffffff" opacity="1.00" d=" M 347.82 96.13 C 350.64 96.22 353.42 96.69 356.13 97.49 C 376.41 102.56 396.70 107.62 416.99 112.67 C 408.20 149.90 398.49 186.94 389.49 224.13 C 408.03 227.99 426.36 232.83 444.86 236.83 C 454.10 200.05 463.15 163.22 472.51 126.47 C 495.53 132.26 518.59 137.94 541.62 143.71 C 532.13 181.58 522.60 219.43 513.28 257.34 C 547.76 269.28 582.07 284.11 610.31 307.69 C 622.90 318.51 634.14 331.21 641.69 346.09 C 650.92 363.79 654.55 384.18 653.15 404.02 C 650.75 433.34 641.96 463.57 621.62 485.61 C 606.50 502.37 585.49 512.72 563.74 517.83 C 579.41 526.33 594.64 536.07 607.14 548.91 C 620.51 562.09 630.49 578.82 635.09 597.07 C 638.51 611.05 639.54 625.67 637.64 639.95 C 635.98 657.18 631.24 673.96 625.31 690.18 C 618.62 707.90 609.74 724.98 597.54 739.55 C 587.12 752.29 574.05 762.80 559.53 770.49 C 543.53 778.96 525.86 783.90 507.99 786.40 C 467.99 791.58 427.51 786.76 388.07 779.60 C 386.40 779.35 384.71 779.25 383.04 779.14 C 373.58 817.26 364.20 855.40 354.44 893.43 C 331.51 887.48 308.48 881.94 285.50 876.17 C 294.75 838.40 304.41 800.73 313.64 762.96 C 295.19 758.63 276.98 753.31 258.53 748.97 C 249.12 786.67 239.82 824.41 230.26 862.07 C 219.88 860.16 209.77 857.09 199.49 854.72 C 186.76 851.50 174.00 848.36 161.26 845.18 C 170.70 806.89 180.28 768.64 189.84 730.39 C 143.60 718.50 97.27 706.96 50.98 695.24 C 51.96 691.43 53.76 687.93 55.27 684.33 C 65.08 661.59 75.05 638.92 84.74 616.13 C 102.46 619.97 119.76 625.66 137.59 629.05 C 142.41 629.78 147.55 629.95 152.11 627.96 C 159.52 625.14 164.84 618.25 167.17 610.84 C 191.75 512.17 216.38 413.50 240.98 314.83 C 242.09 310.21 243.47 305.66 244.28 300.98 C 245.25 290.71 242.11 279.74 234.59 272.45 C 228.43 266.10 219.94 262.91 211.62 260.50 C 195.29 255.80 178.64 252.32 162.12 248.35 C 168.02 223.65 174.23 199.01 180.52 174.40 C 221.68 184.83 262.95 194.84 304.15 205.13 C 309.43 206.32 314.62 207.91 319.95 208.86 C 329.02 171.23 338.78 133.76 347.82 96.13 M 370.63 306.01 C 359.35 351.88 347.90 397.72 336.40 443.53 C 368.02 452.29 400.08 460.83 433.03 462.35 C 453.11 462.96 474.49 461.02 491.73 449.76 C 505.62 440.82 514.05 425.17 516.43 409.07 C 517.63 402.40 517.99 395.52 516.66 388.84 C 514.67 375.28 506.96 363.15 496.99 353.99 C 485.07 343.03 470.53 335.41 455.67 329.23 C 433.26 320.02 409.60 314.38 386.01 309.13 C 380.89 308.03 375.84 306.58 370.63 306.01 M 281.14 665.56 C 313.10 673.87 345.09 682.71 377.99 686.50 C 399.57 689.13 421.74 689.84 443.07 684.90 C 456.56 681.73 469.72 675.55 479.31 665.33 C 491.06 652.69 496.34 635.04 496.07 618.02 C 495.59 604.59 490.28 591.61 481.79 581.27 C 469.49 566.23 452.53 555.88 435.16 547.67 C 398.34 530.49 358.27 522.40 318.90 513.39 C 306.51 564.16 293.50 614.78 281.14 665.56 Z" />
</g>
</svg>
