<?xml version="1.0" encoding="UTF-8" ?>
<!DOCTYPE svg PUBLIC "-//W3C//DTD SVG 1.1//EN" "http://www.w3.org/Graphics/SVG/1.1/DTD/svg11.dtd">
<svg width="184pt" height="184pt" viewBox="0 0 184.00247192382812 184.0002899169922" version="1.1" xmlns="http://www.w3.org/2000/svg">
<g id="#ffffffff">
<path fill="#ffffff" opacity="1.00" d=" M 91.72 0.00 L 92.28 0.00 C 109.09 0.48 125.93 4.77 140.23 13.79 C 166.91 29.90 184.24 60.36 184.00 91.59 L 184.00 92.46 C 184.02 109.56 179.12 126.61 169.94 141.05 C 153.77 167.18 123.78 184.08 93.01 184.00 L 91.57 184.00 C 74.27 183.98 57.04 178.90 42.52 169.50 C 23.87 157.58 9.72 138.74 3.78 117.40 C 1.26 109.41 0.60 100.99 0.00 92.68 L 0.00 91.87 C 0.53 83.39 1.29 74.81 3.82 66.65 C 10.07 44.38 25.29 24.88 45.16 13.10 C 59.14 4.57 75.44 0.54 91.72 0.00 M 56.32 34.26 C 42.72 42.59 32.02 55.77 27.04 70.95 C 21.87 86.76 22.64 104.43 29.35 119.67 C 33.93 129.58 40.48 138.68 48.98 145.60 C 53.00 139.91 60.54 139.47 66.84 138.50 C 81.81 136.23 98.09 133.49 109.37 122.47 C 102.66 124.08 95.94 125.78 89.09 126.69 C 81.04 127.63 71.89 126.04 66.21 119.79 C 61.30 114.30 59.62 106.84 58.66 99.74 C 57.68 88.89 58.64 77.50 63.67 67.67 C 68.27 58.56 76.71 51.92 85.94 47.91 C 97.43 43.13 109.88 41.54 122.12 39.91 C 125.43 39.06 129.66 39.15 131.74 35.98 C 125.07 29.61 115.70 27.27 107.02 24.99 C 89.76 21.52 71.27 24.99 56.32 34.26 M 132.14 43.45 C 124.10 46.76 115.21 46.17 106.89 48.37 C 95.21 49.92 83.86 54.26 74.75 61.84 C 86.08 59.22 98.02 55.25 109.62 58.70 C 118.45 61.53 123.62 70.47 124.91 79.22 C 127.37 93.55 126.25 109.48 117.72 121.73 C 109.49 133.30 95.62 139.18 82.10 141.87 C 73.42 143.96 64.47 144.48 55.85 146.90 C 55.49 147.43 54.76 148.50 54.39 149.03 C 56.38 150.92 58.48 152.74 60.96 153.97 C 71.54 159.02 83.39 160.88 95.05 160.65 C 114.67 159.97 133.81 150.28 145.82 134.72 C 156.22 121.64 161.70 104.66 160.63 87.96 C 159.58 69.55 150.66 51.82 136.72 39.78 C 135.30 41.11 134.03 42.75 132.14 43.45 Z" />
</g>
<g id="#ffd800ff">
<path fill="#ffd800" opacity="1.00" d=" M 56.32 34.26 C 71.27 24.99 89.76 21.52 107.02 24.99 C 115.70 27.27 125.07 29.61 131.74 35.98 C 129.66 39.15 125.43 39.06 122.12 39.91 C 109.88 41.54 97.43 43.13 85.94 47.91 C 76.71 51.92 68.27 58.56 63.67 67.67 C 58.64 77.50 57.68 88.89 58.66 99.74 C 59.62 106.84 61.30 114.30 66.21 119.79 C 71.89 126.04 81.04 127.63 89.09 126.69 C 95.94 125.78 102.66 124.08 109.37 122.47 C 98.09 133.49 81.81 136.23 66.84 138.50 C 60.54 139.47 53.00 139.91 48.98 145.60 C 40.48 138.68 33.93 129.58 29.35 119.67 C 22.64 104.43 21.87 86.76 27.04 70.95 C 32.02 55.77 42.72 42.59 56.32 34.26 Z" />
</g>
<g id="#36b0f3ff">
<path fill="#36b0f3" opacity="1.00" d=" M 132.14 43.45 C 134.03 42.75 135.30 41.11 136.72 39.78 C 150.66 51.82 159.58 69.55 160.63 87.96 C 161.70 104.66 156.22 121.64 145.82 134.72 C 133.81 150.28 114.67 159.97 95.05 160.65 C 83.39 160.88 71.54 159.02 60.96 153.97 C 58.48 152.74 56.38 150.92 54.39 149.03 C 54.76 148.50 55.49 147.43 55.85 146.90 C 64.47 144.48 73.42 143.96 82.10 141.87 C 95.62 139.18 109.49 133.30 117.72 121.73 C 126.25 109.48 127.37 93.55 124.91 79.22 C 123.62 70.47 118.45 61.53 109.62 58.70 C 98.02 55.25 86.08 59.22 74.75 61.84 C 83.86 54.26 95.21 49.92 106.89 48.37 C 115.21 46.17 124.10 46.76 132.14 43.45 Z" />
</g>
</svg>
