<?xml version="1.0" encoding="UTF-8" ?>
<!DOCTYPE svg PUBLIC "-//W3C//DTD SVG 1.1//EN" "http://www.w3.org/Graphics/SVG/1.1/DTD/svg11.dtd">
<svg width="830pt" height="1140pt" viewBox="0 0 830 1140" version="1.1" xmlns="http://www.w3.org/2000/svg">
<g id="#006adfff">
</g>
<g id="#ffffffff">
<path fill="#ffffff" opacity="1.00" d=" M 290.51 82.38 C 334.91 62.40 384.53 56.53 432.81 59.17 C 447.67 60.09 462.07 64.22 476.06 69.10 C 506.14 80.02 533.91 97.05 557.86 118.23 C 585.22 142.77 607.12 173.62 619.88 208.17 C 633.90 245.56 637.08 286.39 632.28 325.86 C 628.64 355.42 619.60 383.97 609.21 411.78 C 638.59 405.24 667.97 398.66 697.36 392.13 C 703.76 415.32 710.16 438.51 716.56 461.70 C 644.93 480.70 573.30 499.70 501.67 518.68 C 485.69 444.34 469.73 370.00 453.75 295.67 C 475.05 290.85 496.35 286.02 517.66 281.23 C 526.04 316.45 534.43 351.68 542.85 386.90 C 562.36 350.93 568.66 307.98 559.85 267.99 C 556.31 250.78 549.65 234.31 540.92 219.10 C 533.89 207.16 526.31 195.37 516.57 185.44 C 508.95 177.39 500.78 169.89 492.31 162.75 C 484.93 156.48 476.44 151.69 467.82 147.35 C 458.86 142.51 448.81 140.35 438.95 138.15 C 428.12 135.83 417.18 134.11 406.24 132.37 C 374.76 128.53 342.18 133.75 313.55 147.48 C 287.76 159.58 265.56 179.12 250.07 203.02 C 238.84 219.94 230.98 238.92 225.49 258.41 C 220.58 279.13 219.56 300.68 220.74 321.89 C 221.98 339.05 226.46 355.91 233.33 371.66 C 242.94 392.98 257.17 411.90 273.13 428.86 C 289.62 446.33 308.08 461.84 327.34 476.16 C 325.44 504.41 323.55 532.67 321.65 560.92 C 282.27 532.37 244.13 501.77 210.44 466.58 C 196.56 451.96 184.03 435.79 175.30 417.55 C 158.47 383.62 147.82 346.08 148.13 308.01 C 148.15 270.47 157.69 233.32 173.54 199.41 C 180.82 184.00 188.83 168.82 199.22 155.25 C 209.11 142.30 220.08 130.11 232.30 119.32 C 249.90 104.47 269.39 91.67 290.51 82.38 Z" />
<path fill="#ffffff" opacity="1.00" d=" M 362.36 248.82 C 385.55 248.81 408.74 248.81 431.94 248.81 C 431.94 461.81 431.94 674.80 431.94 887.79 C 408.74 887.78 385.55 887.79 362.36 887.78 C 362.36 674.79 362.35 461.80 362.36 248.82 Z" />
<path fill="#ffffff" opacity="1.00" d=" M 470.50 569.23 C 499.90 591.62 528.31 615.38 554.81 641.16 C 575.20 661.38 595.55 682.42 608.96 708.11 C 623.88 738.07 633.93 770.68 636.60 804.12 C 639.19 838.75 633.36 873.75 621.19 906.19 C 614.90 923.06 606.99 939.30 597.92 954.85 C 587.98 972.26 574.85 987.64 560.63 1001.68 C 549.02 1013.32 535.59 1022.98 521.68 1031.65 C 478.37 1058.70 426.61 1069.51 376.00 1069.29 C 359.96 1068.91 343.68 1068.98 328.04 1064.96 C 300.82 1058.18 275.31 1045.56 252.25 1029.73 C 226.55 1011.84 203.96 989.34 186.83 963.08 C 170.82 938.53 159.80 910.82 154.51 882.00 C 149.89 857.14 149.54 831.58 152.27 806.49 C 156.17 773.53 166.17 741.53 178.95 711.00 C 149.41 716.73 119.88 722.47 90.34 728.19 C 84.55 704.90 78.75 681.60 72.98 658.30 C 145.13 641.22 217.26 624.09 289.40 607.01 C 303.42 681.77 317.46 756.52 331.49 831.27 C 310.03 835.50 288.58 839.77 267.13 844.01 C 259.64 808.53 252.19 773.05 244.69 737.58 C 224.34 772.80 216.90 815.26 224.40 855.26 C 227.46 872.70 233.63 889.51 241.98 905.10 C 249.30 918.56 257.56 931.68 268.30 942.70 C 279.61 954.42 291.11 966.39 305.34 974.60 C 311.64 978.27 318.04 981.91 325.01 984.17 C 338.69 988.75 352.88 991.56 367.04 994.23 C 399.69 1001.01 434.29 996.99 464.94 984.07 C 492.46 972.53 516.45 952.82 533.15 928.09 C 542.97 913.95 550.34 898.25 556.02 882.03 C 557.80 876.74 559.64 871.44 560.65 865.94 C 564.21 847.20 565.80 828.03 564.81 808.97 C 563.35 786.37 556.70 764.13 545.57 744.41 C 525.29 708.30 494.76 679.25 462.51 653.84 C 465.17 625.64 467.82 597.43 470.50 569.23 Z" />
</g>
</svg>
