<?xml version="1.0" encoding="UTF-8" ?>
<!DOCTYPE svg PUBLIC "-//W3C//DTD SVG 1.1//EN" "http://www.w3.org/Graphics/SVG/1.1/DTD/svg11.dtd">
<svg width="516pt" height="756pt" viewBox="0 0 516 756" version="1.1" xmlns="http://www.w3.org/2000/svg">
<g id="#1e1e1eff">
</g>
<g id="#ffffffff">
<path fill="#ffffff" opacity="1.00" d=" M 236.58 25.53 C 271.75 9.88 310.74 4.46 349.00 6.11 C 375.18 6.68 401.39 9.03 427.03 14.46 C 455.92 20.77 484.77 31.52 507.15 51.43 C 492.61 78.38 478.00 105.31 463.34 132.20 C 453.54 125.25 443.44 118.63 432.47 113.68 C 399.86 98.35 363.22 93.51 327.47 94.63 C 306.34 95.70 285.31 100.73 266.39 110.28 C 234.87 125.94 210.44 153.19 193.69 183.73 C 177.06 213.45 167.60 246.65 162.38 280.16 C 237.05 280.44 311.74 280.17 386.42 280.30 C 377.26 303.55 367.46 326.56 358.05 349.72 C 290.67 349.72 223.28 349.72 155.90 349.72 C 154.24 370.80 154.05 391.98 155.41 413.09 C 211.92 413.13 268.44 413.00 324.96 413.15 C 317.05 436.32 308.92 459.41 300.90 482.54 C 254.90 482.53 208.89 482.53 162.89 482.54 C 167.06 523.01 184.28 561.64 210.11 592.92 C 231.41 619.72 259.22 642.83 292.54 652.55 C 315.43 659.48 339.84 658.52 363.18 654.63 C 383.65 651.10 403.60 644.85 422.72 636.78 C 443.00 628.24 462.40 617.35 479.47 603.40 C 485.58 598.58 490.90 592.87 496.65 587.67 C 496.80 623.26 496.68 658.86 496.71 694.46 C 464.71 718.67 426.36 733.52 387.00 740.43 C 358.65 745.40 329.71 747.15 300.97 745.60 C 259.63 743.19 218.86 729.22 185.49 704.56 C 156.13 683.36 132.55 655.06 113.67 624.36 C 108.92 615.66 103.57 607.27 99.61 598.16 C 81.74 561.82 71.11 522.36 64.48 482.53 C 45.61 482.52 26.74 482.55 7.86 482.52 C 7.83 459.38 7.82 436.24 7.87 413.10 C 23.79 413.05 39.72 413.15 55.65 413.04 C 54.18 391.97 53.95 370.81 55.20 349.72 C 39.42 349.71 23.64 349.73 7.87 349.71 C 7.82 326.57 7.82 303.43 7.87 280.29 C 26.57 280.26 45.28 280.28 63.99 280.27 C 65.84 270.81 67.50 261.30 69.44 251.85 C 71.71 242.97 73.91 234.06 76.30 225.21 C 79.06 216.74 81.78 208.25 84.67 199.82 C 87.94 191.72 91.18 183.61 94.58 175.57 C 100.19 164.28 105.38 152.76 112.14 142.09 C 118.43 130.68 126.19 120.20 133.71 109.59 C 140.94 100.86 147.77 91.78 155.68 83.64 C 178.55 59.31 205.89 38.90 236.58 25.53 Z" />
</g>
</svg>
