<?xml version="1.0" encoding="UTF-8" ?>
<!DOCTYPE svg PUBLIC "-//W3C//DTD SVG 1.1//EN" "http://www.w3.org/Graphics/SVG/1.1/DTD/svg11.dtd">
<svg width="516pt" height="756pt" viewBox="0 0 516 756" version="1.1" xmlns="http://www.w3.org/2000/svg">
<g id="#1e1e1eff">
</g>
<g id="#003399ff">
<path fill="#003399" opacity="1.00" d=" M 309.08 6.91 C 324.35 5.19 339.76 6.18 355.10 5.97 C 387.67 7.47 420.57 10.74 451.74 20.92 C 471.93 27.35 491.23 37.15 507.22 51.17 C 505.88 54.91 503.61 58.22 501.83 61.76 C 489.16 85.24 476.24 108.59 463.76 132.17 C 457.81 129.59 453.11 124.69 447.30 121.74 C 426.70 109.51 403.59 101.74 379.97 98.04 C 371.77 96.38 363.40 96.11 355.13 95.04 C 346.74 95.26 338.37 94.24 329.99 94.83 C 318.24 94.98 306.55 96.83 295.17 99.72 C 267.76 106.63 242.91 122.13 223.59 142.62 C 208.86 158.20 197.12 176.41 187.67 195.60 C 175.06 222.21 166.86 250.86 162.80 279.98 C 237.32 280.02 311.83 280.00 386.35 279.99 C 386.20 281.37 385.89 282.75 385.32 284.02 C 376.11 305.98 367.33 328.13 358.02 350.03 C 290.69 350.03 223.36 349.88 156.04 350.11 C 156.09 356.75 154.65 363.31 155.01 369.97 C 154.67 384.25 154.71 398.55 155.51 412.81 C 211.99 413.21 268.49 412.93 324.97 412.96 C 324.72 414.58 324.32 416.16 323.69 417.68 C 316.02 439.36 308.71 461.17 300.94 482.81 C 254.93 482.89 208.93 482.75 162.93 482.88 C 165.95 505.99 172.04 528.85 182.56 549.72 C 191.67 568.80 204.09 586.10 217.92 602.03 C 229.24 614.41 241.58 626.00 255.71 635.14 C 271.76 645.68 289.96 653.15 309.00 655.98 C 321.24 658.07 333.72 657.47 346.06 656.75 C 382.89 653.02 418.65 640.74 450.89 622.71 C 466.78 613.58 481.71 602.59 494.38 589.31 C 495.13 588.60 496.00 588.05 496.97 587.67 C 497.04 622.84 496.98 658.00 497.01 693.16 C 497.17 695.08 494.94 695.74 493.78 696.82 C 462.39 719.87 425.07 733.94 386.88 740.65 C 367.12 744.08 347.10 746.12 327.04 746.11 C 296.95 747.14 266.51 743.35 238.17 732.91 C 202.54 720.14 171.06 697.17 146.13 668.89 C 139.88 662.06 134.50 654.51 128.69 647.32 C 123.72 640.21 118.89 632.98 114.20 625.67 C 109.20 616.55 103.58 607.75 99.40 598.21 C 84.36 567.46 74.26 534.45 67.67 500.92 C 66.60 494.89 65.50 488.88 64.32 482.88 C 45.53 482.76 26.73 482.86 7.93 482.83 C 7.56 459.56 7.77 436.27 7.82 412.99 C 23.68 413.01 39.53 412.99 55.39 413.00 C 54.62 395.36 53.25 377.67 54.59 360.02 C 54.89 356.69 55.02 353.35 55.01 350.02 C 39.29 349.99 23.58 350.00 7.86 350.01 C 7.68 326.67 7.68 303.33 7.86 279.99 C 26.50 280.01 45.14 279.99 63.78 280.00 C 65.26 273.00 66.47 265.95 67.83 258.94 C 69.66 248.63 72.78 238.62 75.19 228.45 C 77.79 219.30 81.04 210.35 83.92 201.29 C 87.28 192.64 90.82 184.04 94.41 175.48 C 98.25 167.66 102.05 159.82 106.04 152.07 C 110.37 144.72 114.63 137.31 119.12 130.05 C 124.18 122.84 129.08 115.51 134.34 108.44 C 141.25 100.31 147.52 91.62 155.07 84.05 C 178.04 59.43 205.59 38.80 236.54 25.33 C 259.49 15.27 284.13 9.10 309.08 6.91 Z" />
</g>
</svg>
