<svg id="Layer_1" data-name="Layer 1" xmlns="http://www.w3.org/2000/svg" viewBox="18.30000114440918 66.6500015258789 513.39892578125 416.8000183105469"><defs><style>.cls-1{fill:#fff;}</style></defs><path class="cls-1" d="M354.55,66.65H167.65l-15.5,86.6,168.7.2c83.1,0,107.6,30.2,106.9,80.2-.4,25.6-11.5,69-16.3,83.1-12.8,37.5-39.1,80.2-137.7,80.1l-164-.1-15.5,86.7h186.5c65.8,0,93.7-7.7,123.4-21.3,65.7-30.5,104.8-95.3,120.5-179.9,23.3-126-5.7-215.6-170.1-215.6"/><path class="cls-1" d="M87,231.55c-49,0-56,31.9-60.6,51.2-6.1,25.2-8.1,35.5-8.1,35.5h191.4c49,0,56-31.9,60.6-51.2,6.1-25.2,8.1-35.5,8.1-35.5Z"/></svg>