<?xml version="1.0" encoding="UTF-8" ?>
<!DOCTYPE svg PUBLIC "-//W3C//DTD SVG 1.1//EN" "http://www.w3.org/Graphics/SVG/1.1/DTD/svg11.dtd">
<svg width="504pt" height="462pt" viewBox="0 0 504 462" version="1.1" xmlns="http://www.w3.org/2000/svg">
<g id="#ffffffff">
<path fill="#ffffff" opacity="1.00" d=" M 363.39 273.43 C 366.07 271.50 370.08 269.75 373.06 272.04 C 375.97 274.49 378.00 277.78 380.08 280.92 C 385.18 289.08 389.79 297.55 394.07 306.16 C 401.95 296.08 409.23 285.44 418.34 276.39 C 420.20 274.60 422.06 272.71 424.41 271.59 C 427.50 270.42 430.79 271.94 433.34 273.67 C 439.60 278.08 444.61 285.15 444.64 293.04 C 444.92 295.65 443.00 297.63 441.66 299.64 C 429.57 316.13 416.92 332.22 404.35 348.35 C 398.59 355.48 393.34 363.05 387.18 369.83 C 375.84 350.42 365.36 330.50 355.87 310.13 C 353.38 304.11 349.66 297.95 350.74 291.18 C 351.93 283.66 357.63 277.92 363.39 273.43 Z" />
</g>
<g id="#b59753ff">
<path fill="#b59753" opacity="1.00" d=" M 62.91 60.02 C 79.25 39.85 105.10 27.86 131.04 28.31 C 196.69 28.30 262.34 28.30 327.98 28.31 C 348.17 28.01 368.30 35.35 383.74 48.32 C 385.44 49.84 387.86 51.08 387.98 53.64 C 356.62 69.00 325.50 84.84 294.22 100.37 C 291.56 101.51 289.13 103.62 286.10 103.58 C 239.72 103.61 193.33 103.58 146.94 103.60 C 134.02 103.85 120.52 113.44 119.72 127.06 C 119.49 148.12 119.80 169.20 119.57 190.27 C 98.51 201.05 77.47 211.88 56.44 222.73 C 52.15 224.84 48.01 227.26 43.56 229.05 C 43.57 190.69 43.56 152.34 43.57 113.98 C 43.59 94.48 50.41 75.02 62.91 60.02 Z" />
<path fill="#b59753" opacity="1.00" d=" M 401.87 115.67 C 406.04 113.71 409.98 111.19 414.43 109.85 C 415.10 130.55 414.55 151.29 414.73 172.01 C 414.58 198.02 415.04 224.04 414.47 250.05 C 399.42 246.71 383.21 247.77 369.02 254.00 C 351.43 261.53 337.09 276.32 330.20 294.18 C 325.97 304.70 324.73 316.21 325.65 327.45 C 257.22 327.52 188.79 327.45 120.36 327.49 C 120.31 351.99 120.41 376.48 120.31 400.98 C 120.18 412.43 111.35 422.84 100.36 425.52 C 81.46 426.45 62.53 426.60 43.60 426.40 C 43.50 384.04 43.62 341.67 43.54 299.31 C 75.76 282.58 108.04 265.96 140.26 249.23 C 141.70 248.50 143.21 247.72 144.89 247.81 C 200.27 247.77 255.65 247.87 311.03 247.76 C 324.17 247.80 337.89 237.78 338.50 224.01 C 338.54 198.53 338.58 173.04 338.48 147.56 C 359.49 136.70 380.76 126.35 401.87 115.67 Z" />
</g>
<g id="#3e64cdff">
<path fill="#3e64cd" opacity="1.00" d=" M 369.02 254.00 C 383.21 247.77 399.42 246.71 414.47 250.05 C 441.98 256.29 464.51 280.08 468.87 307.99 C 469.03 307.37 469.19 306.75 469.35 306.13 C 469.36 316.40 470.74 326.88 468.10 336.98 C 463.59 356.63 450.39 374.01 432.76 383.74 C 421.92 389.80 409.48 392.96 397.05 392.68 C 378.25 392.84 359.71 384.85 346.49 371.57 C 334.73 359.85 327.16 344.00 325.65 327.45 C 324.73 316.21 325.97 304.70 330.20 294.18 C 337.09 276.32 351.43 261.53 369.02 254.00 M 363.39 273.43 C 357.63 277.92 351.93 283.66 350.74 291.18 C 349.66 297.95 353.38 304.11 355.87 310.13 C 365.36 330.50 375.84 350.42 387.18 369.83 C 393.34 363.05 398.59 355.48 404.35 348.35 C 416.92 332.22 429.57 316.13 441.66 299.64 C 443.00 297.63 444.92 295.65 444.64 293.04 C 444.61 285.15 439.60 278.08 433.34 273.67 C 430.79 271.94 427.50 270.42 424.41 271.59 C 422.06 272.71 420.20 274.60 418.34 276.39 C 409.23 285.44 401.95 296.08 394.07 306.16 C 389.79 297.55 385.18 289.08 380.08 280.92 C 378.00 277.78 375.97 274.49 373.06 272.04 C 370.08 269.75 366.07 271.50 363.39 273.43 Z" />
</g>
</svg>
