<?xml version="1.0" encoding="UTF-8" ?>
<!DOCTYPE svg PUBLIC "-//W3C//DTD SVG 1.1//EN" "http://www.w3.org/Graphics/SVG/1.1/DTD/svg11.dtd">
<svg width="1000pt" height="1000pt" viewBox="0 0 1000 1000" version="1.1" xmlns="http://www.w3.org/2000/svg">
<g id="#ff5000ff">
<path fill="#ff5000" opacity="1.00" d=" M 0.35 929.05 C 167.85 642.88 335.07 356.53 502.54 70.34 L 502.97 71.28 C 502.21 82.84 502.70 94.43 502.57 106.00 C 502.55 169.67 502.56 233.33 502.53 297.00 C 502.69 339.01 502.12 381.03 502.89 423.03 C 502.88 425.53 502.60 428.07 501.65 430.41 C 492.56 444.24 484.53 458.75 475.87 472.87 C 430.67 548.35 385.48 623.83 340.29 699.32 C 329.36 717.81 318.02 736.06 307.35 754.71 C 303.84 758.79 298.59 760.65 294.19 763.55 C 289.85 766.40 284.74 767.65 280.25 770.21 C 192.55 820.19 104.82 870.11 17.11 920.09 C 11.61 923.23 6.18 926.54 0.35 929.05 Z" />
</g>
<g id="#9e1f63ff">
<path fill="#9e1f63" opacity="1.00" d=" M 502.97 71.28 C 506.83 77.41 510.35 83.75 514.00 90.00 C 574.41 194.24 634.83 298.48 695.25 402.73 C 796.72 577.71 898.02 752.81 999.61 927.73 C 991.53 925.00 984.64 919.87 977.17 915.91 C 893.46 867.92 809.70 820.03 725.99 772.04 C 720.28 768.65 713.67 766.91 708.47 762.67 C 704.69 759.70 700.46 757.42 696.54 754.69 C 659.71 693.44 622.88 632.20 586.05 570.96 C 557.94 524.09 529.60 477.36 501.65 430.41 C 502.60 428.07 502.88 425.53 502.89 423.03 C 502.12 381.03 502.69 339.01 502.53 297.00 C 502.56 233.33 502.55 169.67 502.57 106.00 C 502.70 94.43 502.21 82.84 502.97 71.28 Z" />
</g>
<g id="#ffffffff">
<path fill="#ffffff" opacity="1.00" d=" M 475.87 472.87 C 484.53 458.75 492.56 444.24 501.65 430.41 C 529.60 477.36 557.94 524.09 586.05 570.96 C 622.88 632.20 659.71 693.44 696.54 754.69 C 677.04 755.36 657.51 754.78 638.00 754.97 C 529.98 754.98 421.97 754.96 313.95 754.98 C 311.74 754.97 309.54 754.84 307.35 754.71 C 318.02 736.06 329.36 717.81 340.29 699.32 C 385.48 623.83 430.67 548.35 475.87 472.87 Z" />
</g>
<g id="#662d91ff">
<path fill="#662d91" opacity="1.00" d=" M 294.19 763.55 C 298.59 760.65 303.84 758.79 307.35 754.71 C 309.54 754.84 311.74 754.97 313.95 754.98 C 421.97 754.96 529.98 754.98 638.00 754.97 C 657.51 754.78 677.04 755.36 696.54 754.69 C 700.46 757.42 704.69 759.70 708.47 762.67 C 713.67 766.91 720.28 768.65 725.99 772.04 C 809.70 820.03 893.46 867.92 977.17 915.91 C 984.64 919.87 991.53 925.00 999.61 927.73 L 1000.00 928.25 L 1000.00 928.60 C 748.00 928.86 496.00 929.17 244.00 929.27 C 211.65 929.14 179.35 929.72 147.00 929.57 C 98.00 929.75 48.99 929.48 0.00 929.90 L 0.00 929.66 L 0.35 929.05 C 6.18 926.54 11.61 923.23 17.11 920.09 C 104.82 870.11 192.55 820.19 280.25 770.21 C 284.74 767.65 289.85 766.40 294.19 763.55 Z" />
</g>
</svg>
