<?xml version="1.0" encoding="UTF-8" ?>
<!DOCTYPE svg PUBLIC "-//W3C//DTD SVG 1.1//EN" "http://www.w3.org/Graphics/SVG/1.1/DTD/svg11.dtd">
<svg width="446pt" height="948pt" viewBox="0 0 446 948" version="1.1" xmlns="http://www.w3.org/2000/svg">
<g id="#1e1e1eff">
</g>
<g id="#ffffffff">
<path fill="#ffffff" opacity="1.00" d=" M 181.33 91.77 C 181.35 65.73 181.30 39.70 181.35 13.66 C 204.17 13.64 226.98 13.62 249.79 13.68 C 249.81 38.57 249.79 63.46 249.80 88.35 C 276.22 89.56 302.68 91.96 328.52 97.79 C 351.19 103.12 374.32 110.84 392.02 126.58 C 382.37 155.14 372.68 183.69 363.00 212.25 C 349.84 203.12 335.17 196.45 320.24 190.78 C 288.33 178.76 254.42 169.93 220.06 171.80 C 203.78 172.71 187.44 176.25 172.92 183.85 C 156.54 192.33 142.99 205.98 134.20 222.16 C 123.18 242.62 120.60 266.76 123.63 289.56 C 126.63 313.68 137.70 336.88 155.28 353.76 C 168.26 366.47 184.48 375.06 200.25 383.77 C 225.99 397.58 252.69 409.46 279.10 421.91 C 309.48 436.21 338.81 453.55 363.40 476.63 C 377.33 489.61 389.57 504.46 399.16 520.94 C 420.89 558.61 427.94 602.94 427.40 645.94 C 427.01 667.54 422.67 689.15 413.93 708.94 C 406.51 726.02 396.02 741.69 383.55 755.50 C 358.20 784.40 323.43 803.87 286.81 814.65 C 274.70 818.43 262.26 821.01 249.81 823.32 C 249.78 860.91 249.82 898.50 249.79 936.09 C 226.97 936.12 204.16 936.13 181.35 936.09 C 181.31 900.13 181.35 864.16 181.33 828.20 C 156.79 826.59 132.69 821.12 109.01 814.71 C 91.51 809.82 74.11 804.50 57.11 798.10 C 46.36 793.91 35.60 789.50 25.90 783.17 C 37.68 752.97 49.48 722.77 61.33 692.60 C 77.77 704.28 95.98 713.24 114.79 720.41 C 134.88 728.08 155.60 734.34 176.89 737.59 C 197.51 740.79 218.72 740.27 239.14 735.99 C 268.55 730.01 296.00 712.88 312.53 687.59 C 323.11 671.82 328.45 652.88 329.07 633.99 C 330.13 605.09 323.28 574.94 305.21 551.85 C 297.27 541.37 286.73 533.21 275.38 526.71 C 244.02 508.29 210.61 493.75 177.75 478.25 C 151.62 466.20 125.27 454.04 101.98 436.93 C 80.59 421.63 61.43 402.51 48.86 379.22 C 32.85 350.56 25.58 317.67 24.41 285.04 C 23.49 263.59 25.30 241.89 31.27 221.21 C 44.28 175.55 76.74 136.04 118.43 113.51 C 137.96 102.72 159.49 96.02 181.33 91.77 Z" />
</g>
</svg>
