<?xml version="1.0" encoding="UTF-8" ?>
<!DOCTYPE svg PUBLIC "-//W3C//DTD SVG 1.1//EN" "http://www.w3.org/Graphics/SVG/1.1/DTD/svg11.dtd">
<svg width="446pt" height="948pt" viewBox="0 0 446 948" version="1.1" xmlns="http://www.w3.org/2000/svg">
<g id="#1e1e1eff">
</g>
<g id="#002167ff">
<path fill="#002167" opacity="1.00" d=" M 180.98 13.65 C 202.00 13.07 223.05 13.62 244.07 13.38 C 246.06 13.34 248.03 13.55 250.02 13.60 C 250.13 38.44 249.72 63.30 250.23 88.13 C 286.74 90.07 323.91 93.44 358.38 106.54 C 370.63 111.22 382.23 117.70 392.20 126.27 C 382.80 155.07 372.91 183.75 363.09 212.43 C 342.62 198.69 319.29 190.02 295.90 182.69 C 273.28 175.93 249.76 171.17 226.06 171.95 C 200.26 171.89 173.37 179.45 154.10 197.27 C 134.40 214.65 123.29 240.76 122.92 266.88 C 121.68 291.01 127.42 315.82 140.92 336.05 C 149.84 349.86 162.31 361.13 176.28 369.69 C 214.69 393.59 256.92 410.26 297.19 430.60 C 322.89 444.13 347.48 460.32 368.09 480.91 C 385.54 497.89 399.75 518.25 409.27 540.68 C 421.06 568.56 426.48 598.86 427.28 629.01 C 428.37 645.14 427.25 661.40 424.26 677.28 C 420.35 695.94 413.19 713.88 403.08 730.05 C 388.62 752.98 369.29 772.89 346.53 787.68 C 317.59 806.63 284.08 817.73 250.11 823.36 C 249.87 860.94 250.05 898.53 250.02 936.11 C 227.01 936.23 204.00 936.27 180.99 936.09 C 180.95 900.10 181.09 864.12 180.93 828.14 C 164.79 827.68 148.89 824.37 133.14 821.01 C 107.09 814.92 81.34 807.39 56.28 798.01 C 45.74 793.80 34.99 789.63 25.64 783.11 C 37.48 752.95 49.26 722.77 61.06 692.60 C 61.65 692.86 62.83 693.40 63.41 693.67 C 80.03 705.48 98.67 714.12 117.70 721.28 C 146.20 731.77 176.24 740.08 206.85 739.32 C 227.83 739.05 249.01 735.13 268.01 725.98 C 286.50 716.97 302.69 702.98 313.63 685.51 C 323.36 670.17 328.11 652.09 328.98 634.06 C 329.46 612.89 326.35 591.25 317.19 572.01 C 309.91 556.13 298.57 541.92 283.88 532.33 C 270.58 523.54 256.37 516.24 242.17 509.02 C 208.39 492.11 173.62 477.26 139.84 460.35 C 113.58 446.55 88.40 429.78 68.54 407.52 C 45.02 381.14 31.65 346.93 26.65 312.22 C 22.38 282.24 22.63 251.20 30.83 221.88 C 42.90 178.89 72.17 141.25 110.17 118.01 C 131.76 104.71 156.08 96.31 180.95 91.69 C 181.06 65.68 180.98 39.67 180.98 13.65 Z" />
</g>
</svg>
