<?xml version="1.0" encoding="UTF-8"?><svg id="Layer_1" xmlns="http://www.w3.org/2000/svg" viewBox="0 0 223.57658 223.57613"><defs><style>.cls-1{fill:#fff;fill-rule:evenodd;stroke-width:0px;}</style></defs><path class="cls-1" d="m111.78875,0C50.04937,0,0,50.04891,0,111.78806s50.04937,111.78806,111.78875,111.78806,111.78783-50.04891,111.78783-111.78806S173.52721,0,111.78875,0Zm-20.96067,189.4944c0,2.64619-2.06096,4.14266-4.58153,3.33743-33.81431-10.80362-58.29867-42.48173-58.29867-79.879s24.48437-69.07584,58.29867-79.87946c2.52057-.80523,4.58153.69101,4.58153,3.33766v6.50843c0,1.77461-1.33689,3.79453-3.00298,4.40507-26.75689,9.80004-45.90465,35.51824-45.90465,65.6283s19.14776,55.82735,45.90465,65.62784c1.66609.61054,3.00298,2.63046,3.00298,4.40553v6.50821Zm-8.06418-62.75572h-13.40808c-2.14942,0-3.54375-2.26637-2.57437-4.18507l4.09729-5.53039c.49062-.97166,1.48644-1.58425,2.57529-1.58425h7.74774c-.05198-1.20352-.08116-2.41866-.06566-3.65296,0-1.24478.05472-2.44762.11217-3.64863h-11.89246c-2.14942,0-3.54375-2.2666-2.57437-4.1853l4.09729-5.53039c.49062-.97143,1.48644-1.58402,2.57529-1.58402h9.33724c1.52383-6.4446,4.09182-12.1022,7.78057-16.92402,6.31237-8.18684,14.6246-12.31149,24.99869-12.31149,11.36901,0,20.02048,5.38266,25.95348,16.09873.81435,1.47094.1605,3.33082-1.37792,4.00975l-6.42727,2.83747c-1.34053.59184-2.94097.101-3.65227-1.18004-3.17442-5.71506-8.12255-9.20455-14.49601-9.20455-8.36421-.13063-14.86535,6.5212-17.97958,16.67416h21.29079c2.14942,0,3.54375,2.26637,2.57529,4.18507l-4.09821,5.53016c-.49062.97166-1.48644,1.58448-2.57437,1.58448h-19.12587c-.06475,1.19554-.0994,2.40931-.08663,3.64863,0,1.2498.04104,2.46357.10761,3.65296h23.2022c2.14942,0,3.54375,2.2666,2.57529,4.18507l-4.09821,5.53039c-.49062.97166-1.48644,1.58425-2.57437,1.58425h-17.17252c.87272,2.80942,2.0181,5.37354,3.45986,7.67091,3.68693,5.93688,8.49917,8.8742,14.49875,8.8742,6.62698,0,11.64259-3.90351,14.66107-10.02916.68212-1.38317,2.34183-1.97205,3.74985-1.34281l6.39444,2.85707c1.49921.66981,2.15215,2.46631,1.40802,3.92996-5.84455,11.49759-14.59906,17.27147-26.21338,17.27147-16.35908.24713-28.56616-11.70506-32.80663-29.23164Zm54.56706,66.09315c-2.52057.80523-4.58244-.69124-4.58244-3.33743v-6.50821c0-1.94651,1.17639-3.73594,3.00389-4.40553,26.75689-9.80049,45.90374-35.51824,45.90374-65.62784s-19.14685-55.82826-45.90374-65.6283c-1.66609-.61054-3.00389-2.63046-3.00389-4.40507v-6.50843c0-2.64664,2.06187-4.14289,4.58244-3.33766,33.81339,10.80362,58.29867,42.48173,58.29867,79.87946s-24.48528,69.07539-58.29867,79.879Z"/></svg>