<?xml version="1.0" encoding="UTF-8"?><svg id="Layer_1" xmlns="http://www.w3.org/2000/svg" viewBox="0 0 223.57616 223.57615"><defs><style>.cls-1{fill:#2775ca;}.cls-1,.cls-2{fill-rule:evenodd;}.cls-1,.cls-2,.cls-3{stroke-width:0px;}.cls-2,.cls-3{fill:#fff;}</style></defs><path id="Logo" class="cls-1" d="m111.78808,0c61.73902,0,111.78809,50.04906,111.78809,111.78808s-50.04907,111.78808-111.78809,111.78808S0,173.5271,0,111.78808,50.04906,0,111.78808,0Z"/><path class="cls-2" d="m137.33056,33.07349c-2.52071-.80531-4.582.69089-4.582,3.33742h0v6.5087c0,1.77458,1.33752,3.79422,3.00338,4.40489,26.7568,9.80009,45.9037,35.51836,45.9037,65.62837s-19.1469,55.8274-45.9037,65.62792c-1.82719.66942-3.00338,2.45891-3.00338,4.40534h0v6.50826c0,2.64609,2.06128,4.14273,4.582,3.33742,33.81349-10.80356,58.29859-42.48165,58.29859-79.87893s-24.4851-69.07583-58.29859-79.87938Z"/><path class="cls-2" d="m90.82803,36.41091c0-2.64653-2.06128-4.14273-4.582-3.33742-33.81392,10.80355-58.29901,42.48166-58.29901,79.87938s24.4851,69.07538,58.29901,79.87893c2.52071.80532,4.582-.69133,4.582-3.33742h0v-6.50826c0-1.77502-1.33751-3.79509-3.00381-4.40534-26.75637-9.80052-45.90369-35.51836-45.90369-65.62792s19.14732-55.82828,45.90369-65.62837c1.6663-.61067,3.00381-2.63031,3.00381-4.40489h0v-6.5087Z"/><path class="cls-3" d="m140.37574,134.76884l-6.39447-2.85701c-1.40787-.62912-3.06838-.04037-3.75,1.34296-3.01805,6.12553-8.03443,10.02905-14.66108,10.02905-5.99953,0-10.8116-2.93739-14.49878-8.87437-1.4419-2.29723-2.58735-4.86132-3.45961-7.67081h17.17212c1.08842,0,2.08424-.61264,2.57495-1.58429l4.0976-5.53018c.96902-1.91868-.42545-4.18522-2.57495-4.18522h-23.20206c-.06726-1.18953-.10772-2.40305-.10772-3.65287-.01285-1.23941.022-2.4532.08654-3.64889h19.12565c1.08842,0,2.08424-.61264,2.57495-1.5842l4.0976-5.53027c.96902-1.91868-.42545-4.18513-2.57495-4.18513h-21.29072c3.11427-10.15288,9.61528-16.8047,17.97939-16.67399,6.37347,0,11.32159,3.48948,14.49561,9.20441.71149,1.28105,2.31199,1.77194,3.65242,1.18021l6.42751-2.83764c1.53822-.679,2.19232-2.53874,1.3779-4.0097-5.93317-10.7161-14.58423-16.09882-25.95344-16.09882-10.37439,0-18.68626,4.12466-24.99836,12.31162-3.68917,4.82185-6.25724,10.47939-7.78124,16.92392h-9.33729c-1.08851,0-2.08433.61264-2.57495,1.5842l-4.09769,5.53018c-.96902,1.91877.42545,4.18522,2.57495,4.18522h11.89215c-.05739,1.20121-.11225,2.40414-.11225,3.64889-.01521,1.23434.01385,2.44922.06608,3.65287h-7.74829c-1.08851,0-2.08433.61273-2.57495,1.58429l-4.09769,5.53018c-.96902,1.91877.42545,4.18522,2.57495,4.18522h13.40782c4.24035,17.5266,16.44805,29.47885,32.80675,29.23164,11.61434,0,20.36886-5.77386,26.21323-17.27161.74399-1.46363.09124-3.2601-1.40769-3.92986Z"/></svg>