<?xml version="1.0" encoding="UTF-8" ?>
<!DOCTYPE svg PUBLIC "-//W3C//DTD SVG 1.1//EN" "http://www.w3.org/Graphics/SVG/1.1/DTD/svg11.dtd">
<svg width="60pt" height="60pt" viewBox="0 0 60 60" version="1.1" xmlns="http://www.w3.org/2000/svg">
<g id="#f7931aff">
<path fill="#f7931a" opacity="1.00" d=" M 28.75 0.00 L 31.07 0.00 C 46.25 0.39 59.51 13.57 60.00 28.75 L 60.00 31.07 C 59.56 38.53 56.54 45.89 51.15 51.12 C 45.96 56.50 38.66 59.50 31.26 60.00 L 28.91 60.00 C 13.74 59.61 0.50 46.43 0.00 31.27 L 0.00 28.92 C 0.39 13.74 13.57 0.49 28.75 0.00 M 25.30 11.85 C 25.68 13.68 26.13 15.48 26.63 17.28 C 25.95 17.41 24.60 17.67 23.93 17.80 C 23.57 16.23 23.21 14.67 22.83 13.12 C 21.65 13.22 20.48 13.36 19.32 13.53 C 19.85 15.37 20.32 17.23 20.69 19.11 C 18.53 19.57 16.40 20.11 14.29 20.74 C 14.46 21.53 14.79 23.11 14.96 23.90 C 16.38 23.76 17.79 23.61 19.21 23.46 C 21.36 28.66 22.43 34.26 23.94 39.68 C 23.34 41.19 22.27 42.11 20.55 41.83 C 20.65 42.73 20.85 44.52 20.95 45.42 C 23.12 44.87 25.26 44.24 27.35 43.47 C 28.14 45.14 28.58 46.94 28.87 48.76 C 29.74 48.64 31.50 48.40 32.38 48.28 C 31.81 46.46 31.37 44.60 31.06 42.72 C 31.66 42.57 32.86 42.27 33.46 42.11 C 33.95 43.72 34.41 45.34 34.81 46.98 C 35.86 46.86 36.92 46.75 37.97 46.63 C 37.64 44.74 37.34 42.83 37.09 40.93 C 38.97 40.30 40.83 39.54 42.38 38.29 C 46.81 35.06 45.02 26.10 39.05 26.05 C 39.84 23.38 40.50 19.99 38.19 17.84 C 36.10 15.48 32.67 16.43 29.92 16.35 C 29.47 14.58 28.96 12.83 28.38 11.10 C 27.36 11.35 26.33 11.60 25.30 11.85 Z" />
<path fill="#f7931a" opacity="1.00" d=" M 25.23 21.73 C 27.92 20.93 31.00 19.86 33.50 21.75 C 35.18 25.93 30.22 27.98 26.85 27.96 C 26.28 25.89 25.74 23.82 25.23 21.73 Z" />
<path fill="#f7931a" opacity="1.00" d=" M 28.04 31.61 C 31.35 30.52 36.74 28.73 38.45 33.04 C 38.02 34.02 37.59 35.00 37.17 35.98 C 34.87 37.26 32.44 38.28 29.83 38.73 C 29.11 36.39 28.50 34.01 28.04 31.61 Z" />
</g>
<g id="#ffffffff">
<path fill="#ffffff" opacity="1.00" d=" M 25.30 11.85 C 26.33 11.60 27.36 11.35 28.38 11.10 C 28.96 12.83 29.47 14.58 29.92 16.35 C 32.67 16.43 36.10 15.48 38.19 17.84 C 40.50 19.99 39.84 23.38 39.05 26.05 C 45.02 26.10 46.81 35.06 42.38 38.29 C 40.83 39.54 38.97 40.30 37.09 40.93 C 37.34 42.83 37.64 44.74 37.97 46.63 C 36.92 46.75 35.86 46.86 34.81 46.98 C 34.41 45.34 33.95 43.72 33.46 42.11 C 32.86 42.27 31.66 42.57 31.06 42.72 C 31.37 44.60 31.81 46.46 32.38 48.28 C 31.50 48.40 29.74 48.64 28.87 48.76 C 28.58 46.94 28.14 45.14 27.35 43.47 C 25.26 44.24 23.12 44.87 20.95 45.42 C 20.85 44.52 20.65 42.73 20.55 41.83 C 22.27 42.11 23.34 41.19 23.94 39.68 C 22.43 34.26 21.36 28.66 19.21 23.46 C 17.79 23.61 16.38 23.76 14.96 23.90 C 14.79 23.11 14.46 21.53 14.29 20.74 C 16.40 20.11 18.53 19.57 20.69 19.11 C 20.32 17.23 19.85 15.37 19.32 13.53 C 20.48 13.36 21.65 13.22 22.83 13.12 C 23.21 14.67 23.57 16.23 23.93 17.80 C 24.60 17.67 25.95 17.41 26.63 17.28 C 26.13 15.48 25.68 13.68 25.30 11.85 M 25.23 21.73 C 25.74 23.82 26.28 25.89 26.85 27.96 C 30.22 27.98 35.18 25.93 33.50 21.75 C 31.00 19.86 27.92 20.93 25.23 21.73 M 28.04 31.61 C 28.50 34.01 29.11 36.39 29.83 38.73 C 32.44 38.28 34.87 37.26 37.17 35.98 C 37.59 35.00 38.02 34.02 38.45 33.04 C 36.74 28.73 31.35 30.52 28.04 31.61 Z" />
</g>
</svg>
