<?xml version="1.0" encoding="UTF-8" ?>
<!DOCTYPE svg PUBLIC "-//W3C//DTD SVG 1.1//EN" "http://www.w3.org/Graphics/SVG/1.1/DTD/svg11.dtd">
<svg width="60pt" height="60pt" viewBox="0 0 60 60" version="1.1" xmlns="http://www.w3.org/2000/svg">
<g id="#f7931aff">
<path fill="#f7931a" opacity="1.00" d=" M 28.95 0.00 L 30.71 0.00 C 46.38 0.05 60.47 14.24 59.91 29.99 C 60.52 45.93 46.01 60.55 30.05 59.94 C 14.39 60.58 0.28 46.66 0.00 31.13 L 0.00 29.26 C 0.10 13.92 13.60 0.26 28.95 0.00 M 27.40 15.92 C 25.17 15.39 22.94 14.86 20.73 14.27 C 20.52 15.39 20.30 16.51 20.06 17.63 C 21.22 18.01 22.38 18.38 23.55 18.75 C 23.77 24.13 21.23 29.32 20.31 34.63 C 20.00 36.63 17.50 35.56 16.21 35.42 C 15.68 36.64 15.14 37.85 14.60 39.07 C 16.89 39.49 19.16 40.06 21.38 40.77 C 20.75 42.53 20.34 44.36 20.04 46.21 C 21.08 46.41 22.13 46.63 23.17 46.86 C 23.56 45.04 24.04 43.24 24.61 41.47 C 28.29 41.26 26.33 45.26 25.98 47.33 C 26.76 47.62 28.32 48.19 29.10 48.47 C 29.46 46.67 29.91 44.89 30.41 43.13 C 33.36 43.33 36.70 44.13 39.30 42.26 C 43.08 39.75 44.19 32.55 39.05 30.87 C 41.30 29.69 43.46 27.74 43.33 24.96 C 43.40 21.21 39.49 19.34 36.52 18.11 C 37.06 16.36 37.51 14.57 37.89 12.77 C 36.82 12.55 35.76 12.32 34.69 12.08 C 34.28 13.90 33.79 15.71 33.24 17.49 C 32.33 17.09 31.42 16.69 30.51 16.30 C 31.19 14.74 31.63 13.10 31.93 11.43 C 31.15 11.19 29.59 10.70 28.82 10.46 C 28.45 12.30 27.95 14.12 27.40 15.92 Z" />
<path fill="#f7931a" opacity="1.00" d=" M 28.21 27.25 C 28.65 24.94 29.24 22.66 29.84 20.38 C 32.45 21.10 36.60 21.57 36.89 25.00 C 36.51 29.35 31.05 27.72 28.21 27.25 Z" />
<path fill="#f7931a" opacity="1.00" d=" M 25.42 37.39 C 26.20 35.03 26.69 32.59 27.54 30.25 C 30.52 31.24 35.85 31.71 35.82 35.87 C 34.78 40.44 28.54 38.68 25.42 37.39 Z" />
</g>
<g id="#ffffffff">
<path fill="#ffffff" opacity="1.00" d=" M 27.40 15.92 C 27.95 14.12 28.45 12.30 28.82 10.46 C 29.59 10.70 31.15 11.19 31.93 11.43 C 31.63 13.10 31.19 14.74 30.51 16.30 C 31.42 16.69 32.33 17.09 33.24 17.49 C 33.79 15.71 34.28 13.90 34.69 12.08 C 35.76 12.32 36.82 12.55 37.89 12.77 C 37.51 14.57 37.06 16.36 36.52 18.11 C 39.49 19.34 43.40 21.21 43.33 24.96 C 43.46 27.74 41.30 29.69 39.05 30.87 C 44.19 32.55 43.08 39.75 39.30 42.26 C 36.70 44.13 33.36 43.33 30.41 43.13 C 29.91 44.89 29.46 46.67 29.10 48.47 C 28.32 48.19 26.76 47.62 25.98 47.33 C 26.33 45.26 28.29 41.26 24.61 41.47 C 24.04 43.24 23.56 45.04 23.17 46.86 C 22.13 46.63 21.08 46.41 20.04 46.21 C 20.34 44.36 20.75 42.53 21.38 40.77 C 19.16 40.06 16.89 39.49 14.60 39.07 C 15.14 37.85 15.68 36.64 16.21 35.42 C 17.50 35.56 20.00 36.63 20.31 34.63 C 21.23 29.32 23.77 24.13 23.55 18.75 C 22.38 18.38 21.22 18.01 20.06 17.63 C 20.30 16.51 20.52 15.39 20.73 14.27 C 22.94 14.86 25.17 15.39 27.40 15.92 M 28.21 27.25 C 31.05 27.72 36.51 29.35 36.89 25.00 C 36.60 21.57 32.45 21.10 29.84 20.38 C 29.24 22.66 28.65 24.94 28.21 27.25 M 25.42 37.39 C 28.54 38.68 34.78 40.44 35.82 35.87 C 35.85 31.71 30.52 31.24 27.54 30.25 C 26.69 32.59 26.20 35.03 25.42 37.39 Z" />
</g>
</svg>
