<?xml version="1.0" encoding="UTF-8" ?>
<!DOCTYPE svg PUBLIC "-//W3C//DTD SVG 1.1//EN" "http://www.w3.org/Graphics/SVG/1.1/DTD/svg11.dtd">
<svg width="60pt" height="60pt" viewBox="0 0 60 60" version="1.1" xmlns="http://www.w3.org/2000/svg">
<g id="#ffdb00ff">
<path fill="#ffdb00" opacity="1.00" d=" M 28.73 0.00 L 32.42 0.00 C 37.75 0.75 43.78 1.83 47.47 6.12 C 39.31 8.36 30.10 7.88 22.99 13.10 C 17.55 16.81 15.02 23.58 15.25 29.99 C 15.20 35.06 16.16 41.21 21.04 43.90 C 26.28 46.64 32.14 44.16 37.54 43.42 C 31.67 48.67 23.62 49.56 16.18 50.77 C 14.10 50.92 12.23 52.92 10.26 52.64 C 4.45 47.90 0.96 40.61 0.00 33.24 L 0.00 26.87 C 1.37 12.42 14.40 0.73 28.73 0.00 Z" />
</g>
<g id="#36aff3ff">
<path fill="#36aff3" opacity="1.00" d=" M 33.03 11.50 C 38.63 9.94 44.84 10.58 49.92 7.37 C 55.92 13.17 59.84 21.16 60.00 29.58 L 60.00 30.38 C 59.95 45.47 47.22 59.09 32.13 60.00 L 27.92 60.00 C 22.56 59.64 17.15 58.18 12.91 54.75 C 18.43 51.99 24.89 52.65 30.58 50.35 C 37.89 48.14 43.79 41.61 44.47 33.89 C 44.92 28.06 45.05 20.93 40.15 16.81 C 35.01 12.99 28.47 15.64 22.81 16.43 C 25.83 14.10 29.28 12.30 33.03 11.50 Z" />
</g>
</svg>
