<?xml version="1.0" encoding="UTF-8" ?>
<!DOCTYPE svg PUBLIC "-//W3C//DTD SVG 1.1//EN" "http://www.w3.org/Graphics/SVG/1.1/DTD/svg11.dtd">
<svg width="60pt" height="60pt" viewBox="0 0 60 60" version="1.1" xmlns="http://www.w3.org/2000/svg">
<g id="#0059a0e3">
<path fill="#0059a0" opacity="0.89" d=" M 26.30 3.33 C 38.73 1.07 51.80 9.03 55.86 20.90 C 59.62 30.83 56.96 42.92 49.14 50.15 C 44.12 55.08 37.07 57.93 30.03 57.76 C 20.34 57.79 10.95 51.99 6.48 43.42 C 3.24 37.59 2.57 30.59 3.91 24.12 C 6.20 13.49 15.48 4.74 26.30 3.33 M 18.37 25.31 C 25.82 25.39 33.28 25.15 40.73 25.44 C 39.52 28.99 38.30 32.54 37.17 36.12 C 29.66 36.18 22.16 36.15 14.65 36.14 C 14.05 37.93 13.54 39.76 13.09 41.59 C 21.34 41.59 29.60 41.67 37.85 41.57 C 42.05 41.31 45.05 37.54 45.85 33.65 C 46.67 30.10 48.63 26.79 48.72 23.12 C 48.80 20.69 46.08 19.46 43.98 19.68 C 35.94 19.71 27.90 19.62 19.86 19.74 C 19.41 21.61 18.92 23.47 18.37 25.31 M 13.73 28.33 C 13.19 29.96 12.65 31.60 12.10 33.23 C 16.50 33.26 20.90 33.22 25.30 33.26 C 25.92 31.64 26.50 30.01 27.04 28.37 C 22.61 28.28 18.17 28.31 13.73 28.33 Z" />
</g>
</svg>
