<?xml version="1.0" encoding="UTF-8" ?>
<!DOCTYPE svg PUBLIC "-//W3C//DTD SVG 1.1//EN" "http://www.w3.org/Graphics/SVG/1.1/DTD/svg11.dtd">
<svg width="60pt" height="60pt" viewBox="0 0 60 60" version="1.1" xmlns="http://www.w3.org/2000/svg">
<g id="#082e5deb">
<path fill="#082e5d" opacity="0.92" d=" M 27.73 0.00 L 32.26 0.00 C 46.33 0.91 58.59 12.65 60.00 26.70 L 60.00 33.28 C 58.70 47.00 47.08 58.62 33.38 60.00 L 26.67 60.00 C 12.67 58.57 0.97 46.39 0.00 32.37 L 0.00 27.79 C 0.93 13.37 13.33 0.99 27.73 0.00 M 26.28 3.18 C 11.91 4.88 0.68 19.62 3.15 33.94 C 4.72 47.66 18.16 58.64 31.93 57.43 C 46.24 56.82 58.44 43.38 57.46 29.04 C 57.27 13.50 41.62 0.39 26.28 3.18 Z" />
</g>
<g id="#ffffffff">
<path fill="#ffffff" opacity="1.00" d=" M 26.28 3.18 C 41.62 0.39 57.27 13.50 57.46 29.04 C 58.44 43.38 46.24 56.82 31.93 57.43 C 18.16 58.64 4.72 47.66 3.15 33.94 C 0.68 19.62 11.91 4.88 26.28 3.18 M 25.26 5.14 C 12.54 7.36 3.08 20.34 4.80 33.12 C 6.11 45.85 18.06 56.40 30.93 55.64 C 44.68 55.66 56.67 42.72 55.63 29.01 C 55.48 14.00 39.90 1.72 25.26 5.14 Z" />
<path fill="#ffffff" opacity="1.00" d=" M 28.51 16.55 C 29.10 14.12 29.41 11.65 29.91 9.20 C 30.56 9.16 31.87 9.08 32.52 9.04 C 32.03 11.73 31.56 14.42 31.29 17.14 C 32.00 17.19 33.43 17.28 34.15 17.33 C 34.39 14.68 34.82 12.05 35.49 9.48 L 37.45 10.00 C 37.85 12.62 36.78 15.21 36.47 17.81 C 40.33 18.40 44.34 20.08 46.32 23.66 C 47.10 26.02 47.03 28.73 46.07 31.04 C 43.40 36.40 38.14 40.12 32.38 41.51 C 31.69 44.12 31.37 46.81 31.08 49.49 C 30.40 49.46 29.03 49.40 28.34 49.37 C 28.70 46.92 29.15 44.49 29.63 42.06 C 28.63 42.15 27.64 42.24 26.65 42.33 C 26.30 44.47 25.89 46.61 25.47 48.74 L 23.12 48.33 C 23.43 46.34 23.77 44.35 24.16 42.37 C 21.12 41.76 18.06 41.31 14.99 40.85 C 17.35 34.66 20.96 29.02 23.91 23.10 C 26.27 23.36 28.62 23.65 30.97 23.98 C 28.59 29.17 25.51 34.01 23.27 39.27 C 28.01 39.43 32.99 37.87 36.12 34.15 C 38.21 31.83 40.27 28.33 38.69 25.22 C 37.79 22.98 35.04 22.57 32.97 22.04 C 27.19 21.08 21.47 19.85 15.65 19.14 C 16.90 17.56 18.21 16.03 19.66 14.63 C 22.56 15.48 25.56 15.90 28.51 16.55 Z" />
</g>
<g id="#0066ccff">
<path fill="#0066cc" opacity="1.00" d=" M 25.26 5.14 C 39.90 1.72 55.48 14.00 55.63 29.01 C 56.67 42.72 44.68 55.66 30.93 55.64 C 18.06 56.40 6.11 45.85 4.80 33.12 C 3.08 20.34 12.54 7.36 25.26 5.14 M 28.51 16.55 C 25.56 15.90 22.56 15.48 19.66 14.63 C 18.21 16.03 16.90 17.56 15.65 19.14 C 21.47 19.85 27.19 21.08 32.97 22.04 C 35.04 22.57 37.79 22.98 38.69 25.22 C 40.27 28.33 38.21 31.83 36.12 34.15 C 32.99 37.87 28.01 39.43 23.27 39.27 C 25.51 34.01 28.59 29.17 30.97 23.98 C 28.62 23.65 26.27 23.36 23.91 23.10 C 20.96 29.02 17.35 34.66 14.99 40.85 C 18.06 41.31 21.12 41.76 24.16 42.37 C 23.77 44.35 23.43 46.34 23.12 48.33 L 25.47 48.74 C 25.89 46.61 26.30 44.47 26.65 42.33 C 27.64 42.24 28.63 42.15 29.63 42.06 C 29.15 44.49 28.70 46.92 28.34 49.37 C 29.03 49.40 30.40 49.46 31.08 49.49 C 31.37 46.81 31.69 44.12 32.38 41.51 C 38.14 40.12 43.40 36.40 46.07 31.04 C 47.03 28.73 47.10 26.02 46.32 23.66 C 44.34 20.08 40.33 18.40 36.47 17.81 C 36.78 15.21 37.85 12.62 37.45 10.00 L 35.49 9.48 C 34.82 12.05 34.39 14.68 34.15 17.33 C 33.43 17.28 32.00 17.19 31.29 17.14 C 31.56 14.42 32.03 11.73 32.52 9.04 C 31.87 9.08 30.56 9.16 29.91 9.20 C 29.41 11.65 29.10 14.12 28.51 16.55 Z" />
</g>
</svg>
