<?xml version="1.0" encoding="UTF-8" ?>
<!DOCTYPE svg PUBLIC "-//W3C//DTD SVG 1.1//EN" "http://www.w3.org/Graphics/SVG/1.1/DTD/svg11.dtd">
<svg width="1000pt" height="1000pt" viewBox="0 0 1000 1000" version="1.1" xmlns="http://www.w3.org/2000/svg">
<g id="#345d9dff">
<path fill="#345d9d" opacity="1.00" d=" M 490.62 0.00 L 511.95 0.00 C 589.71 1.81 667.02 21.78 735.66 58.43 C 794.59 89.75 847.09 133.07 889.04 184.98 C 930.51 236.18 961.63 295.70 980.05 358.95 C 992.41 401.08 998.91 444.85 1000.00 488.72 L 1000.00 507.51 C 998.69 590.34 976.56 672.77 935.87 744.96 C 902.35 804.69 856.38 857.38 801.74 898.68 C 743.23 943.04 674.80 974.20 602.94 989.29 C 572.16 995.80 540.77 999.21 509.33 1000.00 L 492.54 1000.00 C 430.47 998.95 368.60 986.43 311.12 962.93 C 251.23 938.51 196.15 902.35 149.99 857.04 C 97.93 806.08 57.24 743.57 31.78 675.31 C 11.73 622.06 1.11 565.35 0.00 508.47 L 0.00 489.91 C 0.65 469.16 2.17 448.42 5.23 427.87 C 16.19 352.46 44.66 279.63 87.91 216.88 C 137.08 145.03 205.51 86.57 284.06 49.04 C 348.37 18.18 419.32 1.48 490.62 0.00 M 470.98 166.96 C 437.46 280.80 403.97 394.64 370.45 508.48 C 343.82 516.57 317.18 524.62 290.56 532.71 C 284.50 551.26 278.44 569.81 272.41 588.37 C 299.05 580.34 325.66 572.24 352.29 564.18 C 328.51 645.29 304.64 726.37 280.91 807.49 C 422.96 807.52 565.01 807.49 707.07 807.51 C 715.23 807.90 723.11 802.11 725.17 794.20 C 733.13 766.77 741.08 739.34 749.03 711.91 C 749.90 707.36 749.59 702.21 746.77 698.36 C 744.14 694.61 739.59 692.37 735.03 692.49 C 642.16 692.50 549.29 692.50 456.42 692.49 C 473.75 633.98 491.13 575.49 508.46 516.98 C 535.50 509.25 562.58 501.68 589.62 493.92 C 595.21 474.56 600.92 455.24 606.50 435.89 C 579.86 443.89 553.27 452.02 526.64 460.05 C 554.76 364.36 582.94 268.68 611.06 172.98 C 611.83 168.62 611.58 163.72 609.00 159.96 C 606.39 156.02 601.71 153.60 596.98 153.76 C 560.65 153.78 524.33 153.74 488.00 153.78 C 480.23 153.79 472.98 159.47 470.98 166.96 Z" />
</g>
<g id="#ffffffff">
<path fill="#ffffff" opacity="1.00" d=" M 470.98 166.96 C 472.98 159.47 480.23 153.79 488.00 153.78 C 524.33 153.74 560.65 153.78 596.98 153.76 C 601.71 153.60 606.39 156.02 609.00 159.96 C 611.58 163.72 611.83 168.62 611.06 172.98 C 582.94 268.68 554.76 364.36 526.64 460.05 C 553.27 452.02 579.86 443.89 606.50 435.89 C 600.92 455.24 595.21 474.56 589.62 493.92 C 562.58 501.68 535.50 509.25 508.46 516.98 C 491.13 575.49 473.75 633.98 456.42 692.49 C 549.29 692.50 642.16 692.50 735.03 692.49 C 739.59 692.37 744.14 694.61 746.77 698.36 C 749.59 702.21 749.90 707.36 749.03 711.91 C 741.08 739.34 733.13 766.77 725.17 794.20 C 723.11 802.11 715.23 807.90 707.07 807.51 C 565.01 807.49 422.96 807.52 280.91 807.49 C 304.64 726.37 328.51 645.29 352.29 564.18 C 325.66 572.24 299.05 580.34 272.41 588.37 C 278.44 569.81 284.50 551.26 290.56 532.71 C 317.18 524.62 343.82 516.57 370.45 508.48 C 403.97 394.64 437.46 280.80 470.98 166.96 Z" />
</g>
</svg>
