<?xml version="1.0" encoding="UTF-8" ?>
<!DOCTYPE svg PUBLIC "-//W3C//DTD SVG 1.1//EN" "http://www.w3.org/Graphics/SVG/1.1/DTD/svg11.dtd">
<svg width="60pt" height="60pt" viewBox="0 0 60 60" version="1.1" xmlns="http://www.w3.org/2000/svg">
<g id="#000000ff">
<path fill="#000000" opacity="1.00" d=" M 27.21 0.00 L 32.56 0.00 C 46.68 1.04 58.79 13.12 60.00 27.20 L 60.00 32.58 C 58.94 46.70 46.86 58.78 32.78 60.00 L 27.41 60.00 C 13.31 58.91 1.20 46.88 0.00 32.79 L 0.00 27.40 C 1.07 13.30 13.13 1.19 27.21 0.00 M 28.29 6.28 C 18.37 6.88 9.29 14.35 6.98 24.04 C 4.17 34.12 9.10 45.69 18.29 50.67 C 26.02 55.22 36.29 54.69 43.59 49.51 C 53.18 43.08 56.71 29.25 51.11 19.08 C 46.97 10.75 37.54 5.51 28.29 6.28 Z" />
<path fill="#000000" opacity="1.00" d=" M 26.48 9.20 C 28.82 9.20 31.17 9.20 33.51 9.20 C 33.50 11.09 33.48 12.98 33.48 14.88 C 36.38 14.78 39.29 14.91 42.19 15.20 C 41.92 17.79 43.01 20.92 41.07 23.04 C 36.76 28.12 32.33 33.10 28.02 38.17 C 32.74 38.20 37.45 38.15 42.17 38.22 C 42.17 40.43 42.17 42.63 42.17 44.83 C 39.23 44.77 36.29 44.91 33.36 45.17 C 33.49 47.05 33.65 48.92 33.80 50.79 C 31.36 50.80 28.92 50.80 26.48 50.80 C 26.50 48.90 26.53 47.00 26.55 45.10 C 23.65 44.93 20.74 44.78 17.83 44.83 C 18.08 42.22 16.98 39.07 18.95 36.93 C 23.23 31.85 27.68 26.90 31.98 21.83 C 27.48 21.81 22.98 21.82 18.47 21.82 C 18.48 19.59 18.49 17.35 18.49 15.12 C 21.18 15.21 23.87 15.08 26.56 14.88 C 26.53 12.99 26.50 11.09 26.48 9.20 Z" />
</g>
</svg>
