<?xml version="1.0" encoding="UTF-8" ?>
<!DOCTYPE svg PUBLIC "-//W3C//DTD SVG 1.1//EN" "http://www.w3.org/Graphics/SVG/1.1/DTD/svg11.dtd">
<svg width="60pt" height="60pt" viewBox="0 0 60 60" version="1.1" xmlns="http://www.w3.org/2000/svg">
<g id="#eaeaeaff">
<path fill="#eaeaea" opacity="1.00" d=" M 0.00 28.71 C 0.49 13.57 13.85 0.27 29.03 0.06 C 44.45 -0.83 58.94 12.05 60.00 27.43 L 60.00 32.89 C 58.90 46.77 47.06 58.70 33.22 60.00 L 26.99 60.00 C 12.77 58.75 0.83 46.22 0.00 32.00 L 0.00 28.71 M 28.39 20.29 C 27.60 20.28 26.04 20.25 25.26 20.23 C 25.13 23.69 26.32 27.10 25.54 30.55 C 23.02 28.92 23.16 25.53 20.96 23.65 C 20.43 23.90 19.38 24.39 18.85 24.63 C 17.29 22.28 15.85 19.86 15.00 17.16 C 14.30 20.05 14.22 23.44 16.74 25.51 C 15.90 25.60 14.22 25.77 13.37 25.86 C 14.62 28.22 16.32 30.41 16.95 33.05 C 17.50 35.96 19.51 38.32 19.79 41.33 C 23.18 43.84 25.61 48.13 30.00 48.92 C 34.01 48.21 36.54 44.53 39.53 42.09 C 39.56 41.67 39.63 40.85 39.67 40.43 C 43.50 36.33 43.04 30.08 46.80 25.83 C 45.94 25.76 44.20 25.64 43.33 25.57 C 43.99 24.75 44.64 23.91 45.27 23.05 C 45.48 21.08 45.50 19.08 45.06 17.14 C 44.22 19.83 42.88 22.30 41.25 24.59 C 40.69 24.36 39.57 23.88 39.01 23.65 C 37.09 25.81 36.83 29.00 34.48 30.85 C 33.95 27.31 34.79 23.81 34.88 20.28 C 34.10 20.27 32.54 20.24 31.76 20.23 C 31.58 17.44 31.45 14.56 30.02 12.08 C 28.56 14.56 28.26 17.46 28.39 20.29 Z" />
</g>
<g id="#111126ff">
<path fill="#111126" opacity="1.00" d=" M 28.39 20.29 C 28.26 17.46 28.56 14.56 30.02 12.08 C 31.45 14.56 31.58 17.44 31.76 20.23 C 32.54 20.24 34.10 20.27 34.88 20.28 C 34.79 23.81 33.95 27.31 34.48 30.85 C 36.83 29.00 37.09 25.81 39.01 23.65 C 39.57 23.88 40.69 24.36 41.25 24.59 C 42.88 22.30 44.22 19.83 45.06 17.14 C 45.50 19.08 45.48 21.08 45.27 23.05 C 44.64 23.91 43.99 24.75 43.33 25.57 C 44.20 25.64 45.94 25.76 46.80 25.83 C 43.04 30.08 43.50 36.33 39.67 40.43 C 39.63 40.85 39.56 41.67 39.53 42.09 C 36.54 44.53 34.01 48.21 30.00 48.92 C 25.61 48.13 23.18 43.84 19.79 41.33 C 19.51 38.32 17.50 35.96 16.95 33.05 C 16.32 30.41 14.62 28.22 13.37 25.86 C 14.22 25.77 15.90 25.60 16.74 25.51 C 14.22 23.44 14.30 20.05 15.00 17.16 C 15.85 19.86 17.29 22.28 18.85 24.63 C 19.38 24.39 20.43 23.90 20.96 23.65 C 23.16 25.53 23.02 28.92 25.54 30.55 C 26.32 27.10 25.13 23.69 25.26 20.23 C 26.04 20.25 27.60 20.28 28.39 20.29 Z" />
</g>
</svg>
