<?xml version="1.0" encoding="UTF-8" ?>
<!DOCTYPE svg PUBLIC "-//W3C//DTD SVG 1.1//EN" "http://www.w3.org/Graphics/SVG/1.1/DTD/svg11.dtd">
<svg width="356pt" height="278pt" viewBox="0 0 356 254.38412475585938" version="1.1" xmlns="http://www.w3.org/2000/svg">
<g id="#ffffffff">
<path fill="#ffffff" opacity="1.00" d=" M 0.00 0.00 L 3.58 0.00 C 2.22 1.56 1.01 3.25 0.00 5.06 L 0.00 0.00 Z" />
<path fill="#ffffff" opacity="1.00" d=" M 350.81 0.00 L 356.00 0.00 L 356.00 7.19 C 354.35 4.74 352.52 2.41 350.81 0.00 Z" />
<path fill="#ffffff" opacity="1.00" d=" M 24.09 34.52 C 30.63 33.13 37.35 33.44 44.00 33.42 C 62.29 33.24 80.49 37.78 97.04 45.45 C 123.52 57.56 145.93 79.38 156.84 106.57 C 159.61 113.22 161.11 120.30 162.83 127.28 C 172.26 127.40 181.71 127.44 191.14 127.25 C 194.31 109.22 202.56 92.29 214.09 78.14 C 220.49 69.48 229.00 62.77 237.58 56.42 C 264.17 38.04 297.77 30.30 329.73 34.62 C 329.74 39.03 327.15 42.78 325.53 46.72 C 322.63 52.69 320.46 58.99 317.49 64.92 C 316.42 66.83 313.85 66.20 312.05 66.37 C 304.68 66.00 297.48 67.83 290.30 69.19 C 264.80 74.98 241.84 92.75 231.56 117.01 C 230.22 119.74 230.20 122.81 230.00 125.77 C 241.62 125.64 253.39 125.60 264.66 128.82 C 264.59 130.54 263.80 132.12 263.12 133.67 C 259.67 141.06 256.60 148.62 253.38 156.11 C 252.50 157.69 251.91 159.94 249.89 160.38 C 243.45 162.18 236.67 160.87 230.08 161.29 C 230.25 164.21 230.03 167.31 231.46 169.98 C 236.95 182.12 244.97 193.42 255.82 201.32 C 267.87 210.78 282.43 216.84 297.49 219.46 C 303.29 220.14 309.26 219.08 314.96 220.72 C 317.80 222.32 318.36 225.95 319.80 228.63 C 322.88 236.53 326.86 244.05 329.71 252.04 C 319.32 254.93 308.27 255.02 297.72 253.01 C 275.05 250.21 252.71 242.25 234.36 228.45 C 218.25 216.60 205.16 200.49 197.50 181.96 C 195.47 177.11 194.21 171.99 192.06 167.19 C 192.60 167.67 193.16 168.16 193.71 168.65 C 192.71 166.30 191.83 163.91 191.10 161.47 C 181.58 161.33 172.05 161.43 162.54 161.41 C 160.39 168.14 158.93 175.11 156.03 181.59 C 147.54 201.94 132.42 219.14 114.15 231.32 C 96.83 242.80 76.69 250.02 56.05 252.28 C 46.30 252.66 36.48 253.00 26.75 252.16 L 26.18 251.27 C 26.63 247.47 28.88 244.21 30.29 240.73 C 33.53 234.01 36.00 226.95 39.48 220.35 C 58.32 220.33 77.47 214.85 92.70 203.56 C 107.10 193.35 117.60 177.82 121.73 160.66 C 111.81 160.46 101.88 160.84 91.96 160.32 C 89.50 160.22 87.12 159.48 84.90 158.44 C 86.55 152.71 89.27 147.40 91.59 141.93 C 93.91 137.05 95.60 131.86 98.53 127.28 C 106.24 127.31 113.94 127.34 121.64 127.26 C 121.59 126.20 121.50 125.15 121.38 124.10 C 118.59 113.35 113.22 103.33 106.07 94.86 C 93.40 80.35 75.62 70.43 56.58 67.38 C 50.35 65.61 43.79 66.99 37.50 65.61 C 32.77 55.37 28.11 45.06 24.09 34.52 Z" />
</g>
<g id="#00838cff">
</g>
</svg>
