<?xml version="1.0" encoding="UTF-8" ?>
<!DOCTYPE svg PUBLIC "-//W3C//DTD SVG 1.1//EN" "http://www.w3.org/Graphics/SVG/1.1/DTD/svg11.dtd">
<svg width="496pt" height="481pt" viewBox="0 0 496 481" version="1.1" xmlns="http://www.w3.org/2000/svg">
<g id="#2d233cff">
<path fill="#2d233c" opacity="1.00" d=" M 232.62 47.85 C 255.47 45.81 278.52 48.70 300.61 54.63 C 325.36 62.33 348.75 74.71 368.50 91.55 C 373.16 96.20 378.54 100.11 382.80 105.15 C 397.56 121.11 410.28 139.20 418.77 159.28 C 428.47 182.27 433.90 207.06 434.40 232.02 C 434.40 270.76 422.91 309.76 400.32 341.38 C 390.03 355.80 377.98 369.01 364.15 380.12 C 360.32 382.96 356.57 385.92 352.74 388.75 C 335.23 400.03 316.28 409.41 295.96 414.34 C 279.05 419.02 261.42 421.16 243.89 420.79 C 221.24 420.22 198.88 415.19 177.76 407.10 C 156.73 397.98 136.83 385.78 120.39 369.69 C 98.87 348.96 81.56 323.43 72.30 294.89 C 58.00 254.00 58.60 208.00 74.39 167.62 C 82.85 145.25 95.50 124.41 111.91 106.96 C 116.88 101.22 122.81 96.45 128.22 91.15 C 137.65 83.36 147.88 76.60 158.41 70.40 C 181.31 58.01 206.66 50.15 232.62 47.85 M 199.05 70.07 C 174.93 77.12 152.43 89.97 134.82 107.99 C 137.52 110.95 140.22 113.91 142.98 116.82 C 152.01 109.05 161.56 101.77 172.04 96.04 C 206.62 76.69 248.78 71.35 287.07 81.61 C 306.14 86.03 323.50 95.61 339.75 106.27 C 344.52 109.74 349.08 113.50 353.81 117.04 C 356.58 113.92 359.33 110.78 362.24 107.79 C 319.70 67.45 255.00 52.81 199.05 70.07 M 113.79 129.82 C 98.94 148.57 88.58 170.73 83.03 193.97 C 76.74 222.54 76.85 252.69 84.79 280.93 C 91.60 305.65 104.11 329.21 122.81 346.97 C 125.93 344.37 129.09 341.80 132.46 339.52 C 100.65 305.31 85.58 256.16 92.99 210.01 C 97.39 179.42 111.58 150.53 132.12 127.54 C 128.92 124.83 125.88 121.95 122.78 119.13 C 119.85 122.75 116.80 126.27 113.79 129.82 M 365.00 128.06 C 367.57 132.03 371.03 135.32 373.74 139.19 C 383.36 152.83 391.54 167.62 396.65 183.55 C 407.91 216.88 407.90 254.01 395.87 287.13 C 389.01 305.51 378.84 322.61 366.17 337.57 C 368.90 340.75 371.61 343.96 374.20 347.26 C 405.84 312.35 421.47 263.81 416.81 216.99 C 414.21 189.70 404.67 163.20 389.88 140.15 C 385.08 132.50 379.60 125.18 372.99 119.00 C 370.30 122.00 367.34 124.77 365.00 128.06 M 252.01 132.49 C 251.94 142.84 252.08 153.19 251.94 163.54 C 246.77 163.55 241.60 163.64 236.43 163.79 C 236.65 153.32 236.32 142.85 236.62 132.38 C 230.07 132.62 223.53 132.44 216.98 132.50 C 216.99 143.17 217.00 153.83 217.00 164.50 C 203.90 164.48 190.79 164.54 177.69 164.47 C 177.78 171.42 177.81 178.37 177.68 185.32 C 183.43 185.27 189.19 185.03 194.93 185.45 C 199.77 186.25 202.95 191.29 202.77 196.00 C 202.74 224.34 202.79 252.68 202.74 281.02 C 203.04 284.44 200.41 287.67 196.98 288.00 C 191.83 288.58 186.63 288.12 181.47 288.23 C 180.09 296.03 178.88 303.86 177.37 311.63 C 190.51 311.27 203.66 311.66 216.80 311.42 C 216.72 322.28 216.78 333.14 216.76 344.00 C 223.25 344.00 229.74 344.00 236.24 344.00 C 236.24 333.33 236.24 322.66 236.23 312.00 C 241.41 312.00 246.59 312.00 251.77 312.00 C 251.76 322.67 251.77 333.33 251.76 344.00 C 258.17 344.00 264.59 344.00 271.00 344.00 C 271.00 333.24 271.00 322.48 271.00 311.72 C 276.84 311.23 282.72 310.94 288.47 309.70 C 297.89 307.84 307.76 305.60 315.26 299.22 C 323.57 293.20 327.87 283.06 329.19 273.14 C 330.14 264.42 330.11 255.10 325.88 247.17 C 321.26 237.62 311.00 232.01 300.82 230.51 C 309.55 227.15 316.04 218.85 317.78 209.72 C 319.66 198.80 317.98 186.36 309.76 178.28 C 299.64 168.28 284.77 165.97 271.24 164.30 C 271.30 153.69 271.17 143.08 271.32 132.47 C 264.88 132.53 258.44 132.49 252.01 132.49 M 134.24 358.69 C 139.92 363.68 145.25 369.13 151.60 373.30 C 162.44 381.44 174.73 387.41 187.14 392.76 C 209.71 400.85 233.86 405.30 257.88 403.61 C 286.20 402.13 314.15 393.30 337.97 377.89 C 346.58 372.81 354.44 366.55 361.73 359.73 C 359.19 356.66 356.65 353.59 354.22 350.44 C 347.47 355.75 340.26 360.40 333.04 365.03 C 314.64 377.35 293.40 385.31 271.55 388.72 C 239.08 394.25 205.14 387.88 175.93 373.03 C 164.07 367.04 153.47 358.95 143.01 350.85 C 140.08 353.45 137.15 356.06 134.24 358.69 Z" />
<path fill="#2d233c" opacity="1.00" d=" M 236.67 186.67 C 249.42 186.74 263.49 185.09 274.80 192.25 C 284.35 198.17 284.49 214.00 274.82 219.88 C 263.43 226.75 249.49 225.66 236.71 225.78 C 236.74 212.74 236.82 199.70 236.67 186.67 Z" />
<path fill="#2d233c" opacity="1.00" d=" M 236.68 245.46 C 249.87 245.25 263.42 244.48 276.15 248.64 C 281.39 250.40 286.74 253.50 289.19 258.69 C 292.17 264.59 291.69 272.37 287.38 277.52 C 284.02 281.95 278.54 283.86 273.48 285.62 C 261.49 288.86 248.97 288.51 236.67 288.34 C 236.81 274.05 236.77 259.75 236.68 245.46 Z" />
</g>
<g id="#ffffffff">
<path fill="#ffffff" opacity="1.00" d=" M 226.52 34.76 C 240.00 33.55 253.56 33.65 267.07 34.48 C 295.22 37.70 323.04 45.89 347.51 60.36 C 366.61 71.18 383.73 85.41 398.08 102.00 C 403.08 106.77 406.69 112.69 410.85 118.15 C 415.13 123.70 418.35 129.95 422.08 135.86 C 425.40 141.09 427.55 146.93 430.28 152.46 C 449.74 195.16 452.54 244.76 439.80 289.77 C 434.43 306.91 427.42 323.65 417.94 338.96 C 413.88 346.53 408.25 353.07 403.22 360.00 C 385.49 381.31 363.77 399.38 339.16 412.19 C 329.73 416.78 320.11 420.88 310.19 424.30 C 267.74 438.40 220.48 437.38 178.61 421.65 C 170.31 419.11 162.75 414.78 154.91 411.14 C 148.54 407.55 142.20 403.84 136.07 399.85 C 129.30 394.63 122.04 389.99 115.99 383.90 C 105.39 374.47 95.36 364.22 87.41 352.41 C 73.26 333.42 62.92 311.75 56.21 289.07 C 48.44 261.17 46.58 231.59 51.13 202.97 C 53.92 182.09 61.22 162.08 70.31 143.16 C 80.08 123.43 93.67 105.78 109.19 90.24 C 122.87 77.17 138.34 66.03 154.87 56.85 C 169.82 49.57 185.22 42.91 201.52 39.36 C 209.67 36.97 218.16 36.16 226.52 34.76 M 232.62 47.85 C 206.66 50.15 181.31 58.01 158.41 70.40 C 147.88 76.60 137.65 83.36 128.22 91.15 C 122.81 96.45 116.88 101.22 111.91 106.96 C 95.50 124.41 82.85 145.25 74.39 167.62 C 58.60 208.00 58.00 254.00 72.30 294.89 C 81.56 323.43 98.87 348.96 120.39 369.69 C 136.83 385.78 156.73 397.98 177.76 407.10 C 198.88 415.19 221.24 420.22 243.89 420.79 C 261.42 421.16 279.05 419.02 295.96 414.34 C 316.28 409.41 335.23 400.03 352.74 388.75 C 356.57 385.92 360.32 382.96 364.15 380.12 C 377.98 369.01 390.03 355.80 400.32 341.38 C 422.91 309.76 434.40 270.76 434.40 232.02 C 433.90 207.06 428.47 182.27 418.77 159.28 C 410.28 139.20 397.56 121.11 382.80 105.15 C 378.54 100.11 373.16 96.20 368.50 91.55 C 348.75 74.71 325.36 62.33 300.61 54.63 C 278.52 48.70 255.47 45.81 232.62 47.85 Z" />
<path fill="#ffffff" opacity="1.00" d=" M 252.01 132.49 C 258.44 132.49 264.88 132.53 271.32 132.47 C 271.17 143.08 271.30 153.69 271.24 164.30 C 284.77 165.97 299.64 168.28 309.76 178.28 C 317.98 186.36 319.66 198.80 317.78 209.72 C 316.04 218.85 309.55 227.15 300.82 230.51 C 311.00 232.01 321.26 237.62 325.88 247.17 C 330.11 255.10 330.14 264.42 329.19 273.14 C 327.87 283.06 323.57 293.20 315.26 299.22 C 307.76 305.60 297.89 307.84 288.47 309.70 C 282.72 310.94 276.84 311.23 271.00 311.72 C 271.00 322.48 271.00 333.24 271.00 344.00 C 264.59 344.00 258.17 344.00 251.76 344.00 C 251.77 333.33 251.76 322.67 251.77 312.00 C 246.59 312.00 241.41 312.00 236.23 312.00 C 236.24 322.66 236.24 333.33 236.24 344.00 C 229.74 344.00 223.25 344.00 216.76 344.00 C 216.78 333.14 216.72 322.28 216.80 311.42 C 203.66 311.66 190.51 311.27 177.37 311.63 C 178.88 303.86 180.09 296.03 181.47 288.23 C 186.63 288.12 191.83 288.58 196.98 288.00 C 200.41 287.67 203.04 284.44 202.74 281.02 C 202.79 252.68 202.74 224.34 202.77 196.00 C 202.95 191.29 199.77 186.25 194.93 185.45 C 189.19 185.03 183.43 185.27 177.68 185.32 C 177.81 178.37 177.78 171.42 177.69 164.47 C 190.79 164.54 203.90 164.48 217.00 164.50 C 217.00 153.83 216.99 143.17 216.98 132.50 C 223.53 132.44 230.07 132.62 236.62 132.38 C 236.32 142.85 236.65 153.32 236.43 163.79 C 241.60 163.64 246.77 163.55 251.94 163.54 C 252.08 153.19 251.94 142.84 252.01 132.49 M 236.67 186.67 C 236.82 199.70 236.74 212.74 236.71 225.78 C 249.49 225.66 263.43 226.75 274.82 219.88 C 284.49 214.00 284.35 198.17 274.80 192.25 C 263.49 185.09 249.42 186.74 236.67 186.67 M 236.68 245.46 C 236.77 259.75 236.81 274.05 236.67 288.34 C 248.97 288.51 261.49 288.86 273.48 285.62 C 278.54 283.86 284.02 281.95 287.38 277.52 C 291.69 272.37 292.17 264.59 289.19 258.69 C 286.74 253.50 281.39 250.40 276.15 248.64 C 263.42 244.48 249.87 245.25 236.68 245.46 Z" />
</g>
<g id="#cecdd1ff">
<path fill="#cecdd1" opacity="1.00" d=" M 199.05 70.07 C 255.00 52.81 319.70 67.45 362.24 107.79 C 359.33 110.78 356.58 113.92 353.81 117.04 C 349.08 113.50 344.52 109.74 339.75 106.27 C 323.50 95.61 306.14 86.03 287.07 81.61 C 248.78 71.35 206.62 76.69 172.04 96.04 C 161.56 101.77 152.01 109.05 142.98 116.82 C 140.22 113.91 137.52 110.95 134.82 107.99 C 152.43 89.97 174.93 77.12 199.05 70.07 Z" />
<path fill="#cecdd1" opacity="1.00" d=" M 113.79 129.82 C 116.80 126.27 119.85 122.75 122.78 119.13 C 125.88 121.95 128.92 124.83 132.12 127.54 C 111.58 150.53 97.39 179.42 92.99 210.01 C 85.58 256.16 100.65 305.31 132.46 339.52 C 129.09 341.80 125.93 344.37 122.81 346.97 C 104.11 329.21 91.60 305.65 84.79 280.93 C 76.85 252.69 76.74 222.54 83.03 193.97 C 88.58 170.73 98.94 148.57 113.79 129.82 Z" />
<path fill="#cecdd1" opacity="1.00" d=" M 365.00 128.06 C 367.34 124.77 370.30 122.00 372.99 119.00 C 379.60 125.18 385.08 132.50 389.88 140.15 C 404.67 163.20 414.21 189.70 416.81 216.99 C 421.47 263.81 405.84 312.35 374.20 347.26 C 371.61 343.96 368.90 340.75 366.17 337.57 C 378.84 322.61 389.01 305.51 395.87 287.13 C 407.90 254.01 407.91 216.88 396.65 183.55 C 391.54 167.62 383.36 152.83 373.74 139.19 C 371.03 135.32 367.57 132.03 365.00 128.06 Z" />
<path fill="#cecdd1" opacity="1.00" d=" M 134.24 358.69 C 137.15 356.06 140.08 353.45 143.01 350.85 C 153.47 358.95 164.07 367.04 175.93 373.03 C 205.14 387.88 239.08 394.25 271.55 388.72 C 293.40 385.31 314.64 377.35 333.04 365.03 C 340.26 360.40 347.47 355.75 354.22 350.44 C 356.65 353.59 359.19 356.66 361.73 359.73 C 354.44 366.55 346.58 372.81 337.97 377.89 C 314.15 393.30 286.20 402.13 257.88 403.61 C 233.86 405.30 209.71 400.85 187.14 392.76 C 174.73 387.41 162.44 381.44 151.60 373.30 C 145.25 369.13 139.92 363.68 134.24 358.69 Z" />
</g>
</svg>
