<?xml version="1.0" encoding="UTF-8" ?>
<!DOCTYPE svg PUBLIC "-//W3C//DTD SVG 1.1//EN" "http://www.w3.org/Graphics/SVG/1.1/DTD/svg11.dtd">
<svg width="587pt" height="845pt" viewBox="44 24.1299991607666 493.92999267578125 804.2000122070312" version="1.1" xmlns="http://www.w3.org/2000/svg">
<g id="#ffffffff">
</g>
<g id="#8c92b0ff">
<path fill="#8c92b0" opacity="1.00" d=" M 285.54 32.55 C 287.26 29.54 289.02 26.50 291.59 24.13 L 291.49 25.17 C 291.18 28.10 290.88 31.04 290.81 33.99 C 290.85 124.66 290.79 215.33 290.84 306.00 C 290.65 311.03 291.77 316.32 290.17 321.18 C 285.98 323.94 281.11 325.40 276.67 327.69 C 253.71 338.03 230.85 348.58 207.87 358.87 C 192.89 365.99 177.55 372.31 162.63 379.55 C 126.14 396.04 89.72 412.69 53.25 429.22 C 50.76 430.25 48.19 431.06 45.70 432.10 C 46.25 430.30 46.92 428.53 47.87 426.91 C 127.17 295.50 206.36 164.03 285.54 32.55 Z" />
<path fill="#8c92b0" opacity="1.00" d=" M 44.97 481.03 C 48.83 482.63 52.29 484.96 55.85 487.10 C 117.72 523.57 179.52 560.15 241.36 596.66 C 257.84 606.58 274.59 616.07 290.98 626.11 C 290.60 688.40 290.95 750.70 290.81 813.00 C 290.66 817.57 290.90 822.15 291.50 826.69 C 291.54 827.10 291.63 827.92 291.67 828.33 C 288.98 825.96 287.04 822.92 285.05 819.98 C 206.26 709.06 127.57 598.08 48.82 487.13 C 47.38 485.20 46.09 483.16 44.97 481.03 Z" />
</g>
<g id="#62678dff">
<path fill="#62678d" opacity="1.00" d=" M 290.81 33.99 C 290.88 31.04 291.18 28.10 291.49 25.17 C 292.40 26.39 293.30 27.62 294.13 28.91 C 373.73 161.25 453.57 293.46 533.25 425.76 C 534.87 428.45 536.50 431.13 537.87 433.96 L 537.09 433.52 C 528.71 428.64 519.48 425.50 510.76 421.31 C 501.98 416.97 492.93 413.21 484.13 408.91 C 456.71 396.84 429.48 384.36 402.32 371.73 C 376.25 360.36 350.50 348.27 324.61 336.48 C 313.23 332.18 302.74 325.79 291.23 321.85 C 290.81 405.58 291.34 489.34 290.97 573.07 C 290.98 575.08 291.78 576.95 292.47 578.81 C 290.93 579.35 289.47 578.61 288.18 577.84 C 209.59 531.42 131.02 484.96 52.44 438.53 C 49.51 436.86 46.53 435.24 44.00 432.98 C 44.43 432.76 45.28 432.32 45.70 432.10 C 48.19 431.06 50.76 430.25 53.25 429.22 C 89.72 412.69 126.14 396.04 162.63 379.55 C 177.55 372.31 192.89 365.99 207.87 358.87 C 230.85 348.58 253.71 338.03 276.67 327.69 C 281.11 325.40 285.98 323.94 290.17 321.18 C 291.77 316.32 290.65 311.03 290.84 306.00 C 290.79 215.33 290.85 124.66 290.81 33.99 Z" />
<path fill="#62678d" opacity="1.00" d=" M 290.98 626.11 C 373.14 577.21 455.63 528.82 537.93 480.15 C 531.36 490.37 523.84 499.96 516.96 509.98 C 446.25 609.59 375.48 709.17 304.79 808.81 C 300.29 814.71 296.58 821.25 291.50 826.69 C 290.90 822.15 290.66 817.57 290.81 813.00 C 290.95 750.70 290.60 688.40 290.98 626.11 Z" />
</g>
<g id="#44496fff">
<path fill="#44496f" opacity="1.00" d=" M 291.23 321.85 C 302.74 325.79 313.23 332.18 324.61 336.48 C 350.50 348.27 376.25 360.36 402.32 371.73 C 429.48 384.36 456.71 396.84 484.13 408.91 C 492.93 413.21 501.98 416.97 510.76 421.31 C 519.48 425.50 528.71 428.64 537.09 433.52 C 528.26 439.80 518.54 444.72 509.31 450.39 C 440.45 491.15 371.52 531.81 302.65 572.57 C 299.24 574.62 295.78 576.59 292.47 578.81 C 291.78 576.95 290.98 575.08 290.97 573.07 C 291.34 489.34 290.81 405.58 291.23 321.85 Z" />
</g>
</svg>
