<?xml version="1.0" encoding="UTF-8" ?>
<!DOCTYPE svg PUBLIC "-//W3C//DTD SVG 1.1//EN" "http://www.w3.org/Graphics/SVG/1.1/DTD/svg11.dtd">
<svg width="921pt" height="807pt" viewBox="11.739999771118164 21.899999618530273 872.1199951171875 749.6217041015625" version="1.1" xmlns="http://www.w3.org/2000/svg">
<g id="#000000ff">
</g>
<g id="#ffffffff">
<path fill="#ffffff" opacity="1.00" d=" M 450.60 21.90 C 451.31 24.15 452.65 26.08 453.88 28.06 C 483.21 78.71 512.58 129.33 541.94 179.96 C 568.59 225.93 595.24 271.91 621.91 317.87 C 655.91 376.58 689.94 435.27 723.94 493.98 C 740.95 523.30 757.91 552.64 774.94 581.94 C 803.57 631.35 832.22 680.73 860.85 730.13 C 868.44 743.57 876.66 756.69 883.86 770.33 C 821.90 769.94 759.95 770.64 698.00 770.50 C 680.99 770.28 664.00 770.85 646.99 770.96 C 498.33 770.90 349.67 770.84 201.01 770.75 C 189.01 771.40 176.97 770.50 164.99 771.44 C 119.31 771.43 73.63 771.35 27.95 771.23 C 22.55 771.44 17.14 771.59 11.74 771.49 C 12.12 771.20 12.90 770.62 13.29 770.33 C 14.22 767.42 16.12 764.98 17.57 762.33 C 147.79 539.58 278.04 316.84 408.25 94.08 C 422.41 70.05 436.26 45.83 450.60 21.90 M 443.27 346.35 C 396.69 423.89 350.34 501.57 303.87 579.17 C 295.94 592.39 288.27 605.80 279.98 618.79 C 298.27 619.16 316.63 618.95 334.95 619.00 C 423.32 619.00 511.69 619.00 600.06 619.00 C 606.60 619.21 613.10 618.19 619.65 618.67 C 616.63 614.43 614.21 609.80 611.46 605.38 C 575.32 545.26 539.13 485.16 503.00 425.02 C 485.13 395.58 467.68 365.88 449.72 336.50 C 449.70 336.04 449.67 335.13 449.66 334.67 C 448.62 339.08 445.36 342.44 443.27 346.35 Z" />
</g>
</svg>
