<?xml version="1.0" encoding="UTF-8" ?>
<!DOCTYPE svg PUBLIC "-//W3C//DTD SVG 1.1//EN" "http://www.w3.org/Graphics/SVG/1.1/DTD/svg11.dtd">
<svg width="1000pt" height="1155pt" viewBox="0 0.6000000238418579 1000 1153.602783203125" version="1.1" xmlns="http://www.w3.org/2000/svg">
<g id="#000000ff">
</g>
<g id="#ffffffff">
<path fill="#ffffff" opacity="1.00" d=" M 0.00 0.60 C 18.30 20.44 36.63 40.25 54.87 60.14 C 175.45 192.24 295.90 324.48 415.75 457.26 C 418.74 460.78 422.11 464.15 424.16 468.37 C 425.15 481.43 423.86 495.11 418.01 507.00 C 412.50 518.22 402.73 526.53 392.94 533.91 C 377.38 544.21 358.90 548.79 340.67 551.55 C 330.39 553.23 319.35 554.30 310.76 560.77 C 304.37 566.46 299.23 573.95 297.45 582.42 C 292.78 602.50 293.85 623.38 289.44 643.52 C 285.64 664.09 276.64 683.11 267.96 701.97 C 260.56 718.18 252.01 734.31 249.37 752.15 C 247.84 766.72 249.49 782.15 257.04 794.98 C 268.04 815.71 288.52 828.64 306.91 842.10 C 321.69 852.35 336.67 864.73 342.56 882.39 C 344.88 893.32 344.84 904.74 343.39 915.80 C 342.70 928.06 335.01 938.33 327.15 947.16 C 308.63 966.35 284.64 979.26 260.13 989.15 C 236.88 998.04 212.76 1005.74 187.88 1008.07 C 179.08 974.23 152.28 949.24 140.22 916.82 C 130.56 892.20 125.80 865.46 129.07 839.06 C 129.82 821.82 136.21 805.48 144.54 790.57 C 157.19 770.05 173.36 752.07 187.93 732.95 C 210.03 704.36 231.12 673.54 240.02 638.02 C 248.21 607.56 246.54 574.32 262.04 546.02 C 267.92 534.36 278.26 525.83 284.42 514.38 C 287.51 507.92 283.70 500.88 281.02 494.99 C 246.94 430.31 210.32 367.00 174.96 303.01 C 168.04 289.97 159.79 277.50 154.83 263.51 C 163.90 274.31 170.95 286.57 178.65 298.34 C 219.67 361.30 259.50 425.05 301.82 487.15 C 309.74 498.98 321.56 510.60 336.58 511.27 C 346.50 511.88 356.22 508.84 365.47 505.59 C 374.02 501.95 383.44 496.81 386.52 487.41 C 388.41 479.41 383.01 472.51 378.43 466.61 C 253.01 311.59 126.29 157.62 0.00 3.31 L 0.00 0.60 M 168.70 842.07 C 169.98 848.00 174.96 851.42 179.54 854.67 C 178.07 860.65 174.63 865.99 173.45 872.03 C 173.86 878.18 180.23 882.42 186.00 882.80 C 192.72 882.56 199.02 877.92 201.99 871.98 C 208.49 861.51 204.79 846.18 194.22 839.80 C 186.46 834.42 175.71 836.19 168.70 842.07 Z" />
<path fill="#ffffff" opacity="1.00" d=" M 380.42 261.38 C 402.29 257.86 424.52 261.11 445.85 266.23 C 475.56 274.11 502.71 290.11 525.88 310.11 C 543.32 324.80 559.50 341.09 573.67 358.98 C 582.16 358.43 590.58 357.22 598.99 355.97 C 660.75 347.52 725.44 355.16 782.00 382.01 C 795.76 388.80 809.56 395.85 821.76 405.26 C 824.55 407.46 824.67 411.44 825.50 414.57 C 828.58 432.05 830.38 450.06 827.74 467.71 C 826.22 477.35 820.73 485.58 817.79 494.71 C 813.90 505.76 824.54 517.90 836.02 516.11 C 845.14 514.41 851.42 506.47 855.94 498.93 C 865.54 484.13 868.72 466.42 873.27 449.67 C 896.18 473.39 914.44 501.70 926.69 532.32 C 932.94 547.61 936.92 563.83 937.83 580.35 C 928.20 566.87 919.03 552.41 904.99 543.03 C 891.78 532.89 875.39 528.16 859.14 525.77 C 834.12 522.04 808.77 521.43 783.58 519.50 C 748.02 517.26 712.22 511.62 679.17 497.83 C 658.27 489.46 639.45 476.32 623.69 460.31 C 581.19 418.86 551.79 366.16 509.30 324.70 C 483.35 298.52 450.91 278.12 414.99 269.04 C 403.58 265.93 391.64 265.19 380.42 261.38 Z" />
<path fill="#ffffff" opacity="1.00" d=" M 835.34 324.31 C 837.18 307.91 841.59 291.40 850.71 277.48 C 849.06 287.69 845.70 297.64 845.20 308.03 C 844.20 326.22 846.02 344.73 851.92 362.04 C 855.01 369.67 860.42 376.08 865.85 382.15 C 882.67 400.34 900.17 417.92 916.01 437.00 C 919.53 440.98 922.28 445.51 925.14 449.99 C 908.45 434.85 891.53 419.88 873.03 406.96 C 869.91 405.02 866.85 402.47 863.08 401.97 C 859.17 403.53 857.90 408.18 857.89 412.00 C 856.28 426.84 857.93 442.00 854.63 456.68 C 851.74 469.74 848.58 483.72 839.18 493.83 C 840.42 487.28 843.56 481.25 844.28 474.58 C 846.56 454.18 846.50 433.48 843.85 413.12 C 842.76 403.77 839.44 394.69 833.96 387.02 C 828.44 378.88 820.07 373.31 811.96 368.07 C 793.48 355.93 772.87 347.64 753.44 337.26 C 780.75 339.90 805.08 353.88 831.32 360.64 C 834.26 348.75 834.15 336.42 835.34 324.31 Z" />
<path fill="#ffffff" opacity="1.00" d=" M 380.00 286.79 C 399.13 290.65 418.38 296.90 433.98 309.01 C 451.85 323.07 459.79 345.69 465.06 366.98 C 471.17 389.36 472.98 413.23 483.91 434.05 C 489.16 445.35 496.38 455.54 502.96 466.08 C 505.04 469.38 506.26 475.03 501.77 476.80 C 493.91 479.40 485.16 477.78 477.34 475.67 C 458.22 469.14 441.88 456.41 427.74 442.26 C 408.31 421.62 395.84 395.47 387.35 368.68 C 379.42 342.29 375.53 314.18 380.00 286.79 Z" />
<path fill="#ffffff" opacity="1.00" d=" M 645.19 508.51 C 658.62 519.05 672.41 529.52 688.70 535.29 C 725.86 548.59 765.46 552.29 804.16 558.80 C 838.44 563.89 872.70 571.75 903.99 587.01 C 930.05 600.45 954.19 618.68 971.12 642.89 C 986.48 663.94 995.23 689.04 1000.00 714.47 L 1000.00 762.37 C 996.97 786.59 990.28 811.20 975.73 831.16 C 973.35 818.35 972.24 805.07 967.11 792.96 C 960.08 777.18 949.28 763.00 935.67 752.34 C 909.00 730.83 877.11 717.61 846.01 703.99 C 793.70 681.71 738.64 663.16 693.41 627.58 C 672.66 611.14 655.60 588.96 649.01 563.01 C 643.60 545.36 644.97 526.69 645.19 508.51 Z" />
<path fill="#ffffff" opacity="1.00" d=" M 446.43 558.55 C 457.25 557.43 468.89 557.31 478.91 562.18 C 490.85 567.49 500.18 577.76 505.35 589.67 C 508.31 597.10 508.78 605.77 505.06 613.04 C 499.22 622.10 489.70 628.10 479.71 631.64 C 464.97 637.28 448.93 638.65 433.29 637.71 C 426.85 637.32 420.58 634.56 416.13 629.88 C 410.38 625.09 410.74 616.75 409.64 610.04 C 409.04 600.37 410.77 590.33 416.06 582.07 C 422.83 571.13 433.13 560.39 446.43 558.55 M 456.42 565.46 C 450.31 566.08 444.17 568.43 439.69 572.69 C 436.98 576.48 433.73 581.93 436.45 586.57 C 444.27 598.58 462.14 601.59 474.04 594.04 C 479.32 591.17 485.05 585.97 482.97 579.18 C 479.46 568.64 466.57 564.31 456.42 565.46 Z" />
<path fill="#ffffff" opacity="1.00" d=" M 712.08 671.49 C 724.00 682.64 731.88 697.43 737.32 712.68 C 742.91 727.47 740.76 743.58 741.06 759.02 C 741.36 768.52 737.93 777.55 734.21 786.13 C 727.85 801.53 716.98 814.63 704.70 825.69 C 682.86 844.58 654.31 853.50 626.14 857.25 C 580.20 862.57 533.04 860.80 488.36 874.38 C 481.38 876.58 474.46 879.44 467.07 879.88 C 477.18 871.05 489.59 865.59 501.34 859.36 C 537.54 842.81 577.76 839.01 616.44 831.53 C 643.77 826.78 671.22 817.06 691.79 797.79 C 709.09 781.91 720.20 759.43 722.04 736.00 C 724.56 713.97 718.64 692.28 712.08 671.49 Z" />
<path fill="#ffffff" opacity="1.00" d=" M 767.00 698.30 C 770.38 699.74 773.73 701.25 776.99 703.01 C 815.64 726.62 857.21 745.38 894.08 771.90 C 912.52 785.52 930.09 801.15 941.94 821.03 C 953.69 839.11 960.43 860.15 963.31 881.43 C 965.93 911.54 964.84 942.90 953.26 971.22 C 937.14 1014.97 903.47 1053.11 859.74 1070.46 C 866.59 1053.37 875.52 1036.66 877.11 1017.98 C 882.01 983.63 867.74 950.40 850.51 921.57 C 829.37 884.71 802.71 851.38 781.47 814.60 C 770.86 795.61 763.33 774.69 760.86 753.01 C 758.95 734.63 759.61 715.50 767.00 698.30 Z" />
<path fill="#ffffff" opacity="1.00" d=" M 441.28 921.36 C 462.80 914.37 485.21 909.17 508.00 909.89 C 533.18 908.85 558.96 912.38 581.94 923.12 C 605.33 933.44 627.08 949.88 638.95 973.02 C 656.04 1002.72 658.27 1037.63 664.26 1070.64 C 666.71 1086.86 672.18 1102.81 681.73 1116.26 C 689.84 1127.97 703.58 1134.64 717.43 1136.46 C 730.05 1137.49 743.02 1137.81 755.35 1134.44 C 765.34 1132.28 774.66 1127.67 784.78 1126.05 C 776.66 1135.10 765.62 1140.53 754.98 1145.97 C 741.11 1152.78 725.32 1154.96 709.99 1153.98 C 691.52 1153.58 674.16 1144.58 660.96 1132.04 C 642.65 1115.75 633.09 1092.75 623.06 1070.97 C 614.22 1052.02 606.52 1032.13 593.41 1015.60 C 579.46 998.50 560.27 984.54 538.16 980.76 C 524.88 979.01 510.58 979.26 498.44 985.51 C 479.38 994.41 467.58 1017.59 473.92 1038.03 C 479.95 1058.07 500.75 1071.07 521.00 1072.09 C 536.29 1072.92 549.61 1061.58 554.92 1047.92 C 558.73 1036.35 557.42 1021.73 547.29 1013.71 C 536.77 1004.90 520.09 1000.95 508.12 1009.09 C 500.87 1013.64 497.37 1023.20 499.55 1031.41 C 501.87 1038.31 508.96 1041.10 514.43 1045.06 C 504.00 1045.53 494.34 1036.56 495.03 1025.97 C 493.57 1015.00 501.13 1004.22 510.99 999.96 C 529.31 991.55 552.79 998.38 564.47 1014.56 C 571.91 1025.04 571.40 1038.64 570.72 1050.85 C 569.49 1062.41 562.63 1072.55 554.70 1080.68 C 543.34 1090.71 528.08 1095.12 513.13 1094.82 C 499.22 1093.47 485.56 1088.90 473.96 1081.03 C 452.67 1064.84 436.38 1043.12 415.17 1026.84 C 405.14 1019.30 394.14 1012.94 382.32 1008.67 C 362.02 1001.58 340.58 999.25 319.52 995.59 C 327.42 986.40 337.01 978.90 346.64 971.63 C 375.35 950.16 407.26 932.81 441.28 921.36 Z" />
</g>
</svg>
