<svg width="128" height="128" viewBox="0 0 128 128" fill="none" xmlns="http://www.w3.org/2000/svg">
<path d="M64 128C99.3462 128 128 99.3462 128 64C128 28.6538 99.3462 0 64 0C28.6538 0 0 28.6538 0 64C0 99.3462 28.6538 128 64 128Z" fill="#3065D4"/>
<path fill-rule="evenodd" clip-rule="evenodd" d="M3.13977 44.161C11.4969 18.5371 35.6005 0 63.9999 0C92.3992 0 116.503 18.5369 124.86 44.1609C84.2213 37.7104 43.6479 37.7335 3.13977 44.161Z" fill="#454A75"/>
<path fill-rule="evenodd" clip-rule="evenodd" d="M127.908 60.5326C127.969 61.6807 128 62.8368 128 64.0002C128 99.3228 99.3229 128 64 128C28.6771 128 0 99.3228 0 64.0002C0 62.8368 0.030685 61.6807 0.092125 60.5324C42.4473 55.173 85.0522 55.1585 127.908 60.5326Z" fill="#3065D4"/>
<path fill-rule="evenodd" clip-rule="evenodd" d="M0.0947266 60.5323C0.399198 54.8471 1.44664 49.3584 3.14194 44.1609C43.6501 37.7333 84.2228 37.7105 124.862 44.1609C126.558 49.3582 127.605 54.8474 127.91 60.5323C85.0546 55.1582 42.4504 55.1726 0.0947266 60.5323Z" fill="white"/>
<path fill-rule="evenodd" clip-rule="evenodd" d="M27.5212 11.4218L27.5212 116.579C30.3503 118.547 33.3455 120.291 36.4812 121.789L36.4812 6.21161C33.3455 7.70961 30.3503 9.45366 27.5212 11.4218Z" fill="white"/>
<path fill-rule="evenodd" clip-rule="evenodd" d="M91.5215 6.21161V121.789C94.6572 120.291 97.6524 118.547 100.481 116.579V11.4218C97.6524 9.45366 94.6572 7.70961 91.5215 6.21161Z" fill="white"/>
</svg>
