<?xml version="1.0" encoding="UTF-8" ?>
<!DOCTYPE svg PUBLIC "-//W3C//DTD SVG 1.1//EN" "http://www.w3.org/Graphics/SVG/1.1/DTD/svg11.dtd">
<svg width="537pt" height="471pt" viewBox="0 0 537 471" version="1.1" xmlns="http://www.w3.org/2000/svg">
<g id="#50af95ff">
<path fill="#50af95" opacity="1.00" d=" M 99.27 0.00 L 437.38 0.00 C 470.32 70.19 503.64 140.20 536.46 210.44 C 536.60 210.41 536.87 210.35 537.00 210.32 L 537.00 210.66 C 536.89 210.65 536.68 210.64 536.57 210.64 C 525.45 222.17 513.63 233.00 502.25 244.27 C 424.36 319.84 346.48 395.42 268.59 471.00 L 267.93 471.00 C 186.75 392.55 105.93 313.70 24.84 235.14 C 16.61 227.00 8.16 219.08 0.00 210.87 L 0.00 210.26 C 33.18 140.22 66.05 70.02 99.27 0.00 M 144.01 64.27 C 143.99 85.26 143.99 106.25 144.01 127.24 C 175.34 127.26 206.66 127.25 237.99 127.25 C 238.02 140.82 237.99 154.39 238.00 167.96 C 214.55 168.94 191.13 171.20 168.00 175.18 C 152.57 178.03 137.08 181.39 122.58 187.56 C 116.68 190.25 110.54 193.27 106.49 198.51 C 103.87 201.74 103.49 206.57 105.85 210.05 C 109.16 214.91 114.41 217.96 119.57 220.53 C 133.43 227.00 148.44 230.48 163.38 233.43 C 188.00 237.99 212.98 240.48 237.99 241.52 C 238.02 285.34 237.98 329.17 238.01 372.99 C 260.67 373.00 283.33 373.00 305.99 372.99 C 306.01 329.17 305.98 285.35 306.01 241.53 C 335.58 240.07 365.22 237.20 394.11 230.47 C 407.21 227.16 420.66 223.56 431.96 215.87 C 436.65 212.74 441.15 206.94 438.59 201.06 C 435.51 194.68 428.74 191.27 422.66 188.30 C 405.68 180.79 387.31 177.13 369.08 174.11 C 348.20 170.78 327.11 168.89 306.00 167.95 C 306.01 154.39 305.98 140.82 306.02 127.25 C 337.26 127.27 368.50 127.23 399.74 127.27 C 399.72 106.27 399.73 85.27 399.73 64.27 C 314.49 64.27 229.25 64.27 144.01 64.27 Z" />
<path fill="#50af95" opacity="1.00" d=" M 186.19 177.36 C 203.29 175.09 220.51 173.65 237.74 172.97 C 237.76 188.20 237.73 203.43 237.75 218.66 C 253.49 219.94 269.29 219.75 285.06 219.72 C 292.04 219.40 299.04 219.45 305.99 218.68 C 306.02 203.44 305.98 188.20 306.01 172.96 C 329.81 174.03 353.61 176.15 377.05 180.48 C 389.51 182.97 402.15 185.66 413.61 191.34 C 417.53 193.55 422.25 196.15 423.12 201.01 C 423.31 205.02 419.84 207.84 416.84 209.88 C 407.44 215.60 396.61 218.25 386.02 220.78 C 357.12 227.03 327.54 229.31 298.06 230.49 C 251.97 231.46 205.46 230.47 160.13 221.33 C 149.64 219.01 139.04 216.44 129.44 211.46 C 125.87 209.46 121.92 207.09 120.57 202.97 C 119.83 199.60 122.16 196.60 124.69 194.69 C 130.41 190.35 137.31 188.00 144.08 185.85 C 157.82 181.74 171.99 179.27 186.19 177.36 Z" />
</g>
<g id="#ffffffff">
<path fill="#ffffff" opacity="1.00" d=" M 144.01 64.27 C 229.25 64.27 314.49 64.27 399.73 64.27 C 399.73 85.27 399.72 106.27 399.74 127.27 C 368.50 127.23 337.26 127.27 306.02 127.25 C 305.98 140.82 306.01 154.39 306.00 167.95 C 327.11 168.89 348.20 170.78 369.08 174.11 C 387.31 177.13 405.68 180.79 422.66 188.30 C 428.74 191.27 435.51 194.68 438.59 201.06 C 441.15 206.94 436.65 212.74 431.96 215.87 C 420.66 223.56 407.21 227.16 394.11 230.47 C 365.22 237.20 335.58 240.07 306.01 241.53 C 305.98 285.35 306.01 329.17 305.99 372.99 C 283.33 373.00 260.67 373.00 238.01 372.99 C 237.98 329.17 238.02 285.34 237.99 241.52 C 212.98 240.48 188.00 237.99 163.38 233.43 C 148.44 230.48 133.43 227.00 119.57 220.53 C 114.41 217.96 109.16 214.91 105.85 210.05 C 103.49 206.57 103.87 201.74 106.49 198.51 C 110.54 193.27 116.68 190.25 122.58 187.56 C 137.08 181.39 152.57 178.03 168.00 175.18 C 191.13 171.20 214.55 168.94 238.00 167.96 C 237.99 154.39 238.02 140.82 237.99 127.25 C 206.66 127.25 175.34 127.26 144.01 127.24 C 143.99 106.25 143.99 85.26 144.01 64.27 M 186.19 177.36 C 171.99 179.27 157.82 181.74 144.08 185.85 C 137.31 188.00 130.41 190.35 124.69 194.69 C 122.16 196.60 119.83 199.60 120.57 202.97 C 121.92 207.09 125.87 209.46 129.44 211.46 C 139.04 216.44 149.64 219.01 160.13 221.33 C 205.46 230.47 251.97 231.46 298.06 230.49 C 327.54 229.31 357.12 227.03 386.02 220.78 C 396.61 218.25 407.44 215.60 416.84 209.88 C 419.84 207.84 423.31 205.02 423.12 201.01 C 422.25 196.15 417.53 193.55 413.61 191.34 C 402.15 185.66 389.51 182.97 377.05 180.48 C 353.61 176.15 329.81 174.03 306.01 172.96 C 305.98 188.20 306.02 203.44 305.99 218.68 C 299.04 219.45 292.04 219.40 285.06 219.72 C 269.29 219.75 253.49 219.94 237.75 218.66 C 237.73 203.43 237.76 188.20 237.74 172.97 C 220.51 173.65 203.29 175.09 186.19 177.36 Z" />
</g>
</svg>
