<?xml version="1.0" encoding="UTF-8" ?>
<!DOCTYPE svg PUBLIC "-//W3C//DTD SVG 1.1//EN" "http://www.w3.org/Graphics/SVG/1.1/DTD/svg11.dtd">
<svg width="539pt" height="471pt" viewBox="0 0 539 471" version="1.1" xmlns="http://www.w3.org/2000/svg">
<g id="#ffffffff">
<path fill="#ffffff" opacity="1.00" d=" M 98.40 0.00 L 437.92 0.00 C 471.00 70.34 504.31 140.58 537.30 210.97 C 533.76 215.22 529.54 218.80 525.29 222.30 C 515.81 231.48 506.68 241.02 497.22 250.22 C 482.86 262.13 471.13 276.87 456.77 288.78 C 447.50 297.83 438.50 307.17 429.23 316.22 C 415.21 327.80 403.79 342.19 389.78 353.78 C 380.50 362.83 371.50 372.17 362.23 381.22 C 347.86 393.13 336.13 407.87 321.77 419.78 C 312.32 428.98 303.20 438.53 293.70 447.70 C 284.97 454.74 277.58 463.23 269.52 471.00 L 267.28 471.00 C 261.50 466.76 256.93 461.15 251.75 456.25 C 244.44 449.22 237.75 441.52 229.82 435.16 C 217.43 423.57 206.26 410.67 193.26 399.74 C 184.37 390.97 175.63 382.03 166.74 373.26 C 154.29 362.77 143.47 350.53 131.74 339.26 C 119.45 328.94 108.83 316.84 97.23 305.78 C 82.52 293.55 70.47 278.45 55.77 266.22 C 46.50 257.17 37.50 247.83 28.23 238.78 C 18.11 230.48 9.48 220.57 0.00 211.58 L 0.00 208.64 C 2.35 204.33 4.65 199.99 6.46 195.43 C 22.54 161.50 38.48 127.51 54.54 93.57 C 57.68 85.88 62.02 78.75 65.07 71.03 C 72.88 55.10 80.04 38.86 87.93 22.97 C 91.03 15.13 95.53 7.94 98.40 0.00 M 144.04 64.72 C 143.98 85.49 143.95 106.25 144.05 127.02 C 175.35 127.19 206.65 127.01 237.95 127.11 C 238.04 140.69 238.04 154.28 237.94 167.86 C 229.00 169.00 219.97 168.87 211.02 169.89 C 183.96 172.46 156.66 175.83 130.83 184.64 C 123.70 187.07 116.56 189.93 110.60 194.64 C 107.49 197.22 104.29 200.64 104.58 204.99 C 104.42 208.80 107.11 211.91 109.80 214.26 C 116.92 219.91 125.56 223.09 134.06 226.01 C 156.16 232.94 179.20 236.16 202.14 238.80 C 214.06 239.78 225.95 241.10 237.91 241.25 C 238.14 285.15 237.89 329.06 238.04 372.96 C 260.68 373.03 283.32 373.02 305.96 372.96 C 306.11 329.06 305.85 285.15 306.09 241.25 C 338.37 239.77 370.82 236.52 402.14 228.18 C 412.19 225.23 422.40 222.05 431.18 216.15 C 435.16 213.32 439.42 209.36 439.12 204.04 C 438.58 199.22 434.75 195.57 430.89 193.04 C 422.88 187.96 413.87 184.73 404.83 182.03 C 379.33 174.73 352.85 171.61 326.49 169.36 C 319.70 168.61 312.82 168.95 306.06 167.86 C 305.95 154.28 305.96 140.69 306.06 127.10 C 337.13 127.01 368.21 127.19 399.28 127.02 C 399.48 106.25 399.45 85.48 399.29 64.71 C 346.20 64.47 293.10 64.68 240.00 64.61 C 208.01 64.68 176.02 64.46 144.04 64.72 Z" />
<path fill="#ffffff" opacity="1.00" d=" M 183.26 177.53 C 201.38 175.21 219.60 173.15 237.89 173.03 C 237.99 188.09 237.82 203.15 237.95 218.20 C 242.21 219.35 246.65 219.07 251.02 219.19 C 265.34 219.52 279.67 219.51 293.99 219.20 C 298.00 219.13 302.08 219.28 305.99 218.22 C 306.06 203.15 305.92 188.08 306.04 173.01 C 326.07 173.35 346.05 175.50 365.88 178.37 C 378.26 180.31 390.61 182.75 402.56 186.57 C 409.22 188.96 416.30 191.42 421.24 196.76 C 423.43 198.90 423.94 202.63 422.11 205.16 C 418.59 209.92 413.08 212.54 407.72 214.66 C 390.66 221.12 372.50 223.80 354.53 226.35 C 326.82 229.67 298.91 231.27 271.00 230.91 C 251.28 231.17 231.57 230.24 211.92 228.71 C 191.89 226.85 171.79 224.61 152.24 219.67 C 142.57 217.19 132.64 214.40 124.45 208.46 C 121.44 206.40 118.94 202.38 120.84 198.77 C 123.45 194.01 128.79 191.74 133.45 189.47 C 149.31 182.92 166.39 180.12 183.26 177.53 Z" />
</g>
</svg>
