<?xml version="1.0" encoding="UTF-8" ?>
<!DOCTYPE svg PUBLIC "-//W3C//DTD SVG 1.1//EN" "http://www.w3.org/Graphics/SVG/1.1/DTD/svg11.dtd">
<svg width="894pt" height="1032pt" viewBox="46.02000045776367 20.010000228881836 767.1807861328125 964.7799682617188" version="1.1" xmlns="http://www.w3.org/2000/svg">
<g id="#8dc35bff">
</g>
<g id="#ffffffff">
<path fill="#ffffff" opacity="1.00" d=" M 319.61 44.01 C 346.80 35.98 374.00 28.00 401.19 20.01 C 414.02 64.79 426.78 109.60 439.61 154.39 C 467.51 149.59 495.70 145.88 524.05 145.52 C 557.75 144.96 592.88 149.31 622.48 166.53 C 637.53 175.21 650.69 187.16 660.68 201.38 C 669.50 213.34 676.43 226.61 681.42 240.60 C 687.91 257.69 692.23 275.73 693.08 294.03 C 693.78 313.13 689.86 332.40 681.58 349.64 C 671.83 370.19 657.29 388.06 641.22 403.99 C 664.69 402.92 688.58 404.00 711.22 410.73 C 728.52 415.88 744.99 424.31 758.54 436.34 C 769.96 446.17 779.19 458.32 786.60 471.40 C 803.44 502.87 811.68 538.46 813.05 574.00 C 813.91 595.65 811.12 617.54 803.96 638.02 C 793.87 666.84 774.64 691.82 751.33 711.26 C 710.60 744.62 661.52 765.48 612.41 783.20 C 625.19 828.01 638.01 872.79 650.79 917.59 C 623.60 925.61 596.40 933.59 569.21 941.60 C 556.38 896.81 543.62 852.00 530.80 807.22 C 509.17 816.02 486.49 821.92 463.61 826.41 C 476.39 871.21 489.22 916.00 501.99 960.80 C 474.80 968.80 447.60 976.80 420.40 984.79 C 407.59 940.00 394.82 895.20 381.99 850.41 C 362.32 855.33 342.64 860.20 322.98 865.19 C 288.26 874.65 253.54 884.14 218.81 893.58 C 215.59 859.99 212.41 826.40 209.20 792.81 C 228.12 786.47 247.06 780.21 265.97 773.87 C 275.28 770.50 283.89 764.00 287.70 754.63 C 290.02 748.27 291.46 741.34 290.59 734.57 C 269.92 662.77 249.12 591.00 228.40 519.21 C 231.59 517.59 234.79 516.01 237.99 514.41 C 234.80 514.40 231.62 514.39 228.44 514.41 C 214.47 465.03 200.63 415.61 186.73 366.21 C 185.11 358.64 180.60 352.07 175.71 346.24 C 168.88 338.23 158.43 333.71 147.95 333.79 C 139.66 333.85 131.17 335.01 123.69 338.72 C 105.94 344.91 87.96 350.41 70.01 355.99 C 62.00 327.19 53.97 298.40 46.02 269.58 C 82.80 256.83 119.55 243.96 156.35 231.26 C 173.93 226.35 191.58 221.65 209.18 216.80 C 196.43 171.99 183.57 127.21 170.82 82.40 C 198.01 74.39 225.20 66.40 252.39 58.41 C 265.22 103.20 277.99 148.00 290.80 192.79 C 302.77 190.11 314.70 187.12 326.32 183.16 C 336.77 179.65 347.35 176.52 357.98 173.61 C 345.23 130.40 332.38 87.22 319.61 44.01 M 436.96 264.13 C 413.75 266.55 390.86 271.60 368.55 278.36 C 352.16 283.19 335.82 288.22 319.61 293.61 C 335.60 348.00 351.59 402.40 367.61 456.79 C 385.76 451.68 403.88 446.42 421.82 440.58 C 453.52 429.91 485.26 416.92 511.09 395.13 C 521.83 386.19 530.53 374.68 535.48 361.57 C 540.57 347.99 540.24 332.76 536.05 318.99 C 532.24 303.29 524.19 287.76 510.59 278.43 C 504.85 273.99 498.33 270.66 491.36 268.67 C 473.90 262.70 455.14 262.90 436.96 264.13 M 453.65 520.71 C 432.85 526.22 412.41 532.94 391.61 538.42 C 409.21 599.21 426.80 660.00 444.40 720.79 C 467.87 713.50 491.46 706.57 514.81 698.87 C 550.30 686.80 585.74 672.59 615.87 649.82 C 628.42 640.42 639.36 628.62 646.51 614.57 C 653.54 601.11 655.46 585.26 652.72 570.38 C 650.20 555.89 642.98 542.56 633.48 531.46 C 627.84 525.31 620.86 520.57 613.67 516.42 C 596.96 507.49 577.78 504.56 559.04 504.23 C 523.27 503.68 488.00 511.42 453.65 520.71 Z" />
</g>
</svg>
